<?xml version="1.0" encoding="utf-8" ?>
<svg baseProfile="tiny" height="559" version="1.2" width="1024" xmlns="http://www.w3.org/2000/svg" xmlns:ev="http://www.w3.org/2001/xml-events" xmlns:xlink="http://www.w3.org/1999/xlink"><defs /><path d="M 512.0000008381917 555.5 L 8.636561786040819e-07 555.5 L 4.3182808930204096e-07 279.75 L 0.0 4.0 L 8.75 3.975979504270015 L 17.5 3.9519590085400296 L 515.5 3.9583096151380914 L 1013.5 3.9646602217361533 L 1018.75 3.9823301108680766 L 1024.0 4.0 L 1024.0000004063636 279.75 L 1024.0000008127272 555.5 L 512.0000008381917 555.5 Z" fill="rgb(245,244,246)" stroke="none" /><path d="M 277.66666666666663 351.0 L 279.0 351.0 L 279.0 349.5 L 279.0 348.0 L 277.55901699437493 348.0 L 276.1180339887499 348.0 L 275.5862034878124 348.86051982677077 L 275.05437298687485 349.72103965354154 L 275.6938531601041 350.36051982677077 L 276.3333333333333 351.0 L 277.66666666666663 351.0 Z" fill="rgb(245,244,246)" stroke="none" /><path d="M 230.26352322089085 342.13647677910916 L 231.10850523530587 341.29149476469416 L 230.80425261765293 335.39574738234705 L 230.5 329.5 L 229.0 329.5 L 227.5 329.5 L 227.18357765430278 332.25 L 226.86715530860556 335.0 L 226.0 335.0 L 225.13284469139444 335.0 L 224.81642234569722 332.25855063787367 L 224.5 329.5171012757473 L 222.6190380549722 329.1600055085138 L 220.73807610994442 328.80290974128036 L 218.26785200745127 331.4669354897859 L 215.79762790495812 334.1309612382915 L 216.14881395247906 334.38514564011484 L 216.5 334.6393300419382 L 220.75 335.85980653735203 L 225.0 337.0802830327659 L 225.0 338.4834375477339 L 225.0 339.8865920627019 L 227.2092706032379 341.43402542811305 L 229.41854120647582 342.98145879352415 L 230.26352322089085 342.13647677910916 Z" fill="rgb(245,244,246)" stroke="none" /><path d="M 159.04560011691234 334.4718175778572 L 159.81223988736622 333.9980081425893 L 159.2894885797221 331.9990040712946 L 158.76673727207802 330.0 L 157.883368636039 330.0 L 157.0 330.0 L 157.0 331.83333333333337 L 157.0 333.6666666666667 L 157.63948017322923 334.3061468398959 L 158.27896034645846 334.94562701312515 L 159.04560011691234 334.4718175778572 Z" fill="rgb(245,244,246)" stroke="none" /><path d="M 319.43647653612663 322.3860026397421 L 320.84244437161425 321.84648215906964 L 319.8233970431727 318.9232410795348 L 318.8043497147312 316.0 L 318.0091636615499 316.0 L 317.2139776083687 316.0 L 316.6105749261319 317.5724421842418 L 316.0071722438952 319.1448843684836 L 317.01884047226713 321.03520374444906 L 318.030508700639 322.9255231204146 L 319.43647653612663 322.3860026397421 Z" fill="rgb(245,244,246)" stroke="none" /><path d="M 143.59719918386486 319.32432757294896 L 145.0 318.7860223916313 L 145.0 318.4400642169415 L 145.0 318.09410604225167 L 143.8394849796919 315.54705302112586 L 142.67896995938378 313.0 L 141.45611634365287 313.0 L 140.23326272792198 313.0 L 139.63223660461952 315.25 L 139.03121048131706 317.5 L 140.6128044245234 318.6813163771333 L 142.19439836772975 319.86263275426666 L 143.59719918386486 319.32432757294896 Z" fill="rgb(245,244,246)" stroke="none" /><path d="M 899.5 318.0 L 902.0 318.0 L 902.0 317.5 L 902.0 317.0 L 900.0833333333333 315.08333333333337 L 898.1666666666666 313.1666666666667 L 897.5833333333333 313.75 L 897.0 314.3333333333333 L 897.0 316.16666666666663 L 897.0 318.0 L 899.5 318.0 Z" fill="rgb(245,244,246)" stroke="none" /><path d="M 863.5590169943749 315.0 L 866.0 315.0 L 866.0 314.0 L 866.0 313.0 L 862.9409830056251 313.0 L 859.8819660112501 313.0 L 860.5 314.0 L 861.1180339887499 315.0 L 863.5590169943749 315.0 Z" fill="rgb(245,244,246)" stroke="none" /><path d="M 134.0 313.0 L 134.75511056911566 313.0 L 135.80913215794948 311.72998168027857 L 136.86315374678327 310.45996336055714 L 135.96429552083936 303.47998168027857 L 135.06543729489547 296.5 L 135.03271864744772 290.30901699437493 L 135.0 284.1180339887499 L 134.14622789839132 283.5903738113093 L 133.29245579678263 283.0627136338687 L 132.10720796394253 285.6640492655408 L 130.92196013110245 288.265384897213 L 131.0905267471571 299.38269244860646 L 131.25909336321175 310.5 L 132.25199139704804 311.75 L 133.24488943088434 313.0 L 134.0 313.0 Z" fill="rgb(245,244,246)" stroke="none" /><path d="M 721.6135437750629 313.0 L 722.0 313.0 L 721.9140472563131 305.75 L 721.8280945126261 298.5 L 720.9114590210345 301.5 L 719.9948235294428 304.5 L 720.6109555397843 308.75 L 721.2270875501257 313.0 L 721.6135437750629 313.0 Z" fill="rgb(245,244,246)" stroke="none" /><path d="M 190.7845525285055 305.1191991644081 L 191.113591628107 299.73839832881623 L 190.5638586331715 298.30581710776187 L 190.01412563823598 296.8732358867075 L 189.03215664537595 297.4801261001935 L 188.05018765251592 298.0870163136795 L 188.610036336215 302.7935081568397 L 189.16988501991406 307.5 L 189.81269922440902 309.0 L 190.45551342890397 310.5 L 190.7845525285055 305.1191991644081 Z" fill="rgb(245,244,246)" stroke="none" /><path d="M 127.2856808376585 304.11431916234153 L 128.21861913650275 303.1813808634973 L 128.48137309749887 290.8406904317486 L 128.74412705849502 278.5 L 128.8720635292475 275.25 L 129.0 272.0 L 130.0 272.0 L 131.0 272.0 L 131.0 275.30887036489514 L 131.0 278.6177407297903 L 132.3683649332533 280.48909128290506 L 133.73672986650658 282.3604418360199 L 134.70187386411703 280.4302209180099 L 135.66701786172746 278.5 L 135.79557704397604 264.1571930437068 L 135.92413622622465 249.81438608741365 L 136.5179724240979 247.94337390590394 L 137.11180862197116 246.07236172439423 L 139.90823110048456 246.6316462200969 L 142.70465357899792 247.1909307157996 L 144.8166964537589 244.50590329786456 L 146.9287393285199 241.82087587992956 L 145.3046545897787 239.34220927085624 L 143.68056985103746 236.86354266178296 L 143.59961228859095 230.9047964825734 L 143.51865472614443 224.94605030336385 L 142.01703285675865 225.23523625221924 L 140.51541098737283 225.52442220107463 L 140.00255566507155 228.4852455992699 L 139.48970034277028 231.44606899746518 L 136.99485017138514 232.70742600313275 L 134.5 233.96878300880036 L 133.73195787446355 234.24040554624565 L 132.96391574892712 234.51202808369095 L 131.676951460128 241.4850937103023 L 130.38998717132893 248.45815933691364 L 128.05981074073017 248.47907966845682 L 125.72963431013142 248.5 L 124.36189213645302 253.5 L 122.99414996277463 258.5 L 121.90691673572536 264.15524303602535 L 120.81968350867608 269.8104860720507 L 121.91104459008088 285.57783148297636 L 123.00240567148566 301.345176893902 L 124.67757410514997 303.1962171775439 L 126.35274253881427 305.0472574611857 L 127.2856808376585 304.11431916234153 Z" fill="rgb(245,244,246)" stroke="none" /><path d="M 657.9281949543038 297.0 L 658.7860223916314 297.0 L 659.536472561035 295.25 L 660.2869227304385 293.5 L 660.5980565653256 289.5 L 660.9091904002127 285.5 L 659.8770431172343 282.25 L 658.844895834256 279.0 L 657.9576316756161 279.0 L 657.070367516976 279.0 L 656.0351837584881 280.93425854591067 L 655.0 282.86851709182133 L 655.0 288.0 L 655.0 293.13148290817867 L 656.0351837584881 295.06574145408933 L 657.070367516976 297.0 L 657.9281949543038 297.0 Z" fill="rgb(245,244,246)" stroke="none" /><path d="M 607.0394374031703 296.0 L 607.7455414730072 296.0 L 608.2641149449798 290.75 L 608.7826884169525 285.5 L 607.7780373781161 284.2610104779452 L 606.7733863392796 283.02202095589035 L 605.8866931696398 283.57002747232013 L 605.0 284.1180339887499 L 605.0 289.3923503277083 L 605.0 294.6666666666667 L 605.6666666666667 295.33333333333337 L 606.3333333333334 296.0 L 607.0394374031703 296.0 Z" fill="rgb(245,244,246)" stroke="none" /><path d="M 582.3452653217773 294.05473467822264 L 583.207249070555 293.19275092944497 L 582.2785106501517 291.53318744400644 L 581.3497722297483 289.8736239585679 L 579.9891882329989 291.5130273822713 L 578.6286042362497 293.15243080597463 L 580.0559429046248 294.0345746164875 L 581.4832815729998 294.91671842700026 L 582.3452653217773 294.05473467822264 Z" fill="rgb(245,244,246)" stroke="none" /><path d="M 722.0977185346244 290.4464484866222 L 722.8594294747793 288.5 L 722.9297147373896 285.3317874682358 L 723.0 282.1635749364716 L 722.3952152095198 280.5875310358816 L 721.7904304190397 279.01148713529165 L 720.8952152095198 279.56476056202075 L 720.0 280.1180339887499 L 720.0136546832924 283.80901699437493 L 720.0273093665849 287.5 L 720.6816584805272 289.9464484866222 L 721.3360075944694 292.3928969732444 L 722.0977185346244 290.4464484866222 Z" fill="rgb(245,244,246)" stroke="none" /><path d="M 202.55843585662194 286.0 L 206.929632483024 286.0 L 208.0 284.0 L 209.070367516976 282.0 L 208.05619708112891 280.10500520659986 L 207.04202664528185 278.2100104131997 L 208.63562892168648 276.8874379925802 L 210.2292311980911 275.56486557196064 L 212.02490818869518 277.7824327859803 L 213.82058517929923 280.0 L 214.4102925896496 280.0 L 215.0 280.0 L 215.0 278.62244471544216 L 215.0 277.24488943088437 L 216.58120125100368 275.9326089472339 L 218.16240250200738 274.6203284635835 L 220.21522005608648 275.9023342444111 L 222.26803761016555 277.1843400252387 L 223.0796458182079 275.8711303590778 L 223.89125402625027 274.5579206929169 L 223.49494619319438 274.16161285986107 L 223.0986383601385 273.7653050268052 L 210.08102719087634 273.3152177048381 L 197.06341602161416 272.865130382871 L 195.54248289875255 273.7162873518329 L 194.02154977589092 274.5674443207948 L 196.60501336002378 278.3693527105021 L 199.18847694415663 282.1712611002094 L 198.68785808718826 284.0856305501047 L 198.18723923021986 286.0 L 202.55843585662194 286.0 Z" fill="rgb(245,244,246)" stroke="none" /><path d="M 594.0 278.0 L 595.0 278.0 L 595.0 277.0817874682358 L 595.0 276.1635749364716 L 595.6069888041843 274.5817874682358 L 596.2139776083686 273.0 L 594.6069888041843 273.0 L 593.0 273.0 L 593.0 275.5 L 593.0 278.0 L 594.0 278.0 Z" fill="rgb(245,244,246)" stroke="none" /><path d="M 558.0 275.0 L 558.8819660112501 275.0 L 559.5 274.0 L 560.1180339887499 273.0 L 559.4699893167648 271.95144169449986 L 558.8219446447797 270.9028833889997 L 557.4219828003351 272.0647485248601 L 556.0220209558904 273.22661366072043 L 556.5700274723201 274.1133068303602 L 557.1180339887499 275.0 L 558.0 275.0 Z" fill="rgb(245,244,246)" stroke="none" /><path d="M 636.75 274.8501679088203 L 639.0 275.0 L 639.0 274.0 L 639.0 273.0 L 635.5817874682358 273.0 L 632.1635749364716 273.0 L 630.5817874682358 272.3930111958157 L 629.0 271.7860223916313 L 629.0 272.82658885011847 L 629.0 273.86715530860556 L 631.75 274.2837455631231 L 634.5 274.7003358176406 L 636.75 274.8501679088203 Z" fill="rgb(245,244,246)" stroke="none" /><path d="M 875.8429018129739 274.80482678819567 L 879.5 274.5 L 879.5 273.5 L 879.5 272.5 L 876.6655273112005 272.1754264079666 L 873.8310546224012 271.85085281593325 L 872.3521452545543 272.41836358884865 L 870.8732358867074 272.98587436176405 L 871.5295197563275 274.04776396907766 L 872.1858036259476 275.1096535763913 L 875.8429018129739 274.80482678819567 Z" fill="rgb(245,244,246)" stroke="none" /><path d="M 698.3724447154422 273.83189688634496 L 702.5 273.6637937726899 L 698.6941737438535 273.26820346306783 L 694.8883474877069 272.8726131534457 L 694.3671703447924 271.51444728990737 L 693.845993201878 270.1562814263691 L 694.9581803594269 268.07814071318455 L 696.070367516976 266.0 L 694.5466146989265 266.0 L 693.0228618808769 266.0 L 691.0114309404385 267.72224086017377 L 689.0 269.44448172034754 L 689.0 270.22224086017377 L 689.0 271.0 L 690.3775552845578 271.0 L 691.7551105691157 271.0 L 693.0 272.5 L 694.2448894308843 274.0 L 698.3724447154422 273.83189688634496 Z" fill="rgb(245,244,246)" stroke="none" /><path d="M 566.1666666666667 273.0 L 567.0 273.0 L 567.0 269.5 L 567.0 266.0 L 565.5 266.0 L 564.0 266.0 L 564.0 268.83333333333337 L 564.0 271.6666666666667 L 564.6666666666667 272.33333333333337 L 565.3333333333334 273.0 L 566.1666666666667 273.0 Z" fill="rgb(245,244,246)" stroke="none" /><path d="M 618.25 271.807497830422 L 622.5 271.5 L 622.8164223456972 268.75 L 623.1328446913944 266.0 L 621.9344563344471 266.0 L 620.7360679774998 266.0 L 617.3680339887499 268.0815594803123 L 614.0 270.1631189606246 L 614.0 271.1390573107343 L 614.0 272.114995660844 L 618.25 271.807497830422 Z" fill="rgb(245,244,246)" stroke="none" /><path d="M 648.4144155288986 271.7877409570051 L 650.3433441192217 271.5 L 650.7770281829294 270.1839316300445 L 651.210712246637 268.8678632600891 L 649.1053561233184 268.3173002660836 L 647.0 267.76673727207805 L 647.0 266.883368636039 L 647.0 266.0 L 645.6069888041843 266.0 L 644.2139776083686 266.0 L 643.5525630421514 267.72361873059083 L 642.8911484759342 269.4472374611816 L 644.6883177072548 270.7613596875959 L 646.4854869385755 272.0754819140102 L 648.4144155288986 271.7877409570051 Z" fill="rgb(245,244,246)" stroke="none" /><path d="M 677.3372194203237 271.3710218611104 L 680.5 270.8269314903502 L 681.8201368196414 270.41793651852504 L 683.140273639283 270.0089415466998 L 682.8201368196414 267.85859164443303 L 682.5 265.70824174216625 L 677.5192598151234 265.6041208710831 L 672.5385196302469 265.5 L 672.1866841373799 267.2980392515707 L 671.8348486445128 269.0960785031413 L 673.00464374258 270.505595367506 L 674.1744388406472 271.9151122318706 L 677.3372194203237 271.3710218611104 Z" fill="rgb(245,244,246)" stroke="none" /><path d="M 714.6219720602157 272.0 L 717.0 272.0 L 717.0 271.31445122136756 L 717.0 270.6289024427352 L 714.8256859732905 268.31445122136756 L 712.651371946581 266.0 L 706.5756859732905 266.12516651422175 L 700.5 266.2503330284435 L 704.939372499899 266.96755635556235 L 709.3787449997982 267.6847796826812 L 710.8113445601148 269.8423898413406 L 712.2439441204315 272.0 L 714.6219720602157 272.0 Z" fill="rgb(245,244,246)" stroke="none" /><path d="M 857.8088703648951 272.0 L 859.6177407297903 272.0 L 861.1691338017265 270.75 L 862.7205268736627 269.5 L 863.3288786404926 267.75 L 863.9372304073225 266.0 L 863.0496547492676 266.0 L 862.1620790912126 266.0 L 859.0873621746708 267.75 L 856.012645258129 269.5 L 856.0063226290645 270.75 L 856.0 272.0 L 857.8088703648951 272.0 Z" fill="rgb(245,244,246)" stroke="none" /><path d="M 558.5 269.0 L 559.7860223916314 269.0 L 560.3493372496123 267.53202501119836 L 560.9126521075931 266.06405002239677 L 559.9084390037774 265.4434121922907 L 558.9042258999617 264.82277436218453 L 557.4689717549202 265.37353305429315 L 556.0337176098786 265.9242917464018 L 556.6238476091237 267.46214587320094 L 557.2139776083686 269.0 L 558.5 269.0 Z" fill="rgb(245,244,246)" stroke="none" /><path d="M 205.883368636039 230.0 L 206.76673727207802 230.0 L 207.3437054812967 227.79367017859101 L 207.92067369051537 225.58734035718203 L 207.52686800161177 225.1935346682784 L 207.13306231270815 224.7997289793748 L 206.06653115635407 225.45888148406235 L 205.0 226.1180339887499 L 205.0 228.05901699437493 L 205.0 230.0 L 205.883368636039 230.0 Z" fill="rgb(245,244,246)" stroke="none" /><path d="M 310.1133068303602 228.42997252767987 L 311.0 227.8819660112501 L 311.0 226.5 L 311.0 225.1180339887499 L 310.2022542485937 224.625 L 309.40450849718746 224.1319660112501 L 308.01655636671853 224.98976760263773 L 306.62860423624966 225.84756919402534 L 307.92760894848504 227.41277411906748 L 309.22661366072043 228.97797904410965 L 310.1133068303602 228.42997252767987 Z" fill="rgb(245,244,246)" stroke="none" /><path d="M 150.04833564234215 226.0 L 150.96189594357017 226.0 L 151.57509121010128 223.55683545659406 L 152.18828647663238 221.11367091318812 L 151.53512624394125 220.05683545659406 L 150.8819660112501 219.0 L 150.04797180980938 219.0 L 149.21397760836865 219.0 L 148.5843138772784 220.6408773805632 L 147.95465014618813 222.2817547611264 L 148.54471274365113 224.1408773805632 L 149.13477534111414 226.0 L 150.04833564234215 226.0 Z" fill="rgb(245,244,246)" stroke="none" /><path d="M 158.53518375848802 225.0 L 159.0 225.0 L 159.0 220.5 L 159.0 216.0 L 158.0190520282149 216.0 L 157.03810405642983 216.0 L 156.43402084315431 218.40685923146577 L 155.82993762987877 220.81371846293152 L 156.95015257342737 222.90685923146577 L 158.070367516976 225.0 L 158.53518375848802 225.0 Z" fill="rgb(245,244,246)" stroke="none" /><path d="M 213.03996496616003 225.0 L 214.96189594357017 225.0 L 215.57509121010128 222.55683545659406 L 216.18828647663238 220.11367091318812 L 215.53512624394125 219.05683545659406 L 214.8819660112501 218.0 L 213.96403598547926 218.0 L 213.04610595970843 218.0 L 211.43685727689638 220.45602392574256 L 209.82760859408432 222.9120478514851 L 210.47282129141712 223.95602392574256 L 211.1180339887499 225.0 L 213.03996496616003 225.0 Z" fill="rgb(245,244,246)" stroke="none" /><path d="M 165.03138479633873 224.0 L 166.06276959267743 224.0 L 166.61999761524643 222.5478870500191 L 167.17722563781544 221.09577410003823 L 166.46361281890773 219.94112430423792 L 165.75 218.78647450843758 L 164.89031277451704 220.14323725421877 L 164.0306255490341 221.5 L 164.01531277451704 222.75 L 164.0 224.0 L 165.03138479633873 224.0 Z" fill="rgb(245,244,246)" stroke="none" /><path d="M 174.0 214.0 L 175.0 214.0 L 175.0 211.5 L 175.0 209.0 L 174.0 209.0 L 173.0 209.0 L 173.0 211.5 L 173.0 214.0 L 174.0 214.0 Z" fill="rgb(245,244,246)" stroke="none" /><path d="M 241.94098300562507 211.0 L 247.8819660112501 211.0 L 248.336022523302 210.25 L 248.79007903535387 209.5 L 247.4479035027971 208.25995577810735 L 246.1057279702403 207.0199115562147 L 245.49384699074523 208.00995577810735 L 244.8819660112501 209.0 L 240.44098300562507 209.0 L 236.0 209.0 L 236.0 210.0 L 236.0 211.0 L 241.94098300562507 211.0 Z" fill="rgb(245,244,246)" stroke="none" /><path d="M 193.0 353.4855902698625 L 183.5 353.8922906670691 L 177.95060413919538 353.0071656956833 L 172.40120827839075 352.1220407242974 L 166.56900838434325 349.93993509865015 L 160.73680849029577 347.7578294730029 L 154.72451545549796 344.1763250122199 L 148.7122224207002 340.5948205514368 L 142.4870931440304 334.5474102757184 L 136.26196386736063 328.5 L 133.20857641629357 323.93260444738723 L 130.15518896522647 319.3652088947744 L 127.06025889291445 313.274785475038 L 123.96532882060242 307.1843620553017 L 121.95879529901724 299.34218102765084 L 119.95226177743206 291.5 L 119.92667343424056 279.86907657837196 L 119.90108509104905 268.23815315674386 L 121.42775224606085 261.65529340085766 L 122.95441940107264 255.07243364497148 L 125.39698481842039 249.06124330014677 L 127.83955023576814 243.05005295532203 L 132.62170746547952 235.92236786894966 L 137.40386469519086 228.7946827825773 L 143.75738893365514 223.0603950118149 L 150.11091317211938 217.3261072410525 L 157.80545658605968 213.24208164261722 L 165.5 209.15805604418193 L 172.0 207.41016470444688 L 178.5 205.66227336471184 L 190.0 205.68841169348684 L 201.5 205.71455002226188 L 207.42248025667544 207.62471578115728 L 213.34496051335086 209.53488154005268 L 213.70706199191457 210.6211859757438 L 214.0691634704783 211.7074904114349 L 208.3573755009199 216.0199321754115 L 202.64558753136146 220.33237393938808 L 192.07279376568073 220.11348052461528 L 181.5 219.89458710984246 L 175.0 221.9109751256479 L 168.5 223.92736314145333 L 162.5 227.5263049193827 L 156.5 231.1252466973121 L 152.70940841720383 234.8052077346014 L 148.91881683440766 238.4851687718907 L 144.96791007553315 244.54925350888976 L 141.01700331665864 250.61333824588883 L 138.29935644928864 257.0566691229444 L 135.58170958191863 263.5 L 135.54085479095932 278.5 L 135.5 293.5 L 137.81171114133622 300.1904428632962 L 140.1234222826724 306.8808857265924 L 143.91302477624538 312.7441374505863 L 147.70262726981832 318.6073891745802 L 152.79107969563177 323.6958416003937 L 157.87953212144524 328.78429402620714 L 163.35414535207028 331.91655042377477 L 168.82875858269531 335.04880682134234 L 174.5709297443409 337.0244034106712 L 180.31310090598646 339.0 L 189.5969532985266 339.0 L 198.88080569106677 339.0 L 206.19040284553338 336.36511685598657 L 213.5 333.7302337119732 L 219.0 330.0392632337821 L 224.5 326.34829275559093 L 225.70950003189776 325.64015974025097 L 226.91900006379552 324.93202672491105 L 230.95950003189776 328.5823757071355 L 235.0 332.2327246893599 L 235.0 334.0384391066713 L 235.0 335.84415352398275 L 230.75 339.51298308555795 L 226.5 343.1818126471331 L 219.99833650056792 346.4784178027661 L 213.49667300113583 349.7750229583992 L 207.99833650056792 351.4269564155275 L 202.5 353.07888987265585 L 193.0 353.4855902698625 Z" fill="rgb(9,25,59)" stroke="none" /><path d="M 633.4652484518456 318.0 L 626.1747448130363 318.0 L 619.8373724065182 314.72181264631547 L 613.5 311.4436252926309 L 610.2813040989254 306.5310907842148 L 607.0626081978509 301.6185562757988 L 605.9510338081691 296.2641311171841 L 604.8394594184873 290.90970595856936 L 605.5316113950137 286.7048529792847 L 606.2237633715401 282.5 L 607.5147118355385 279.36043623175533 L 608.805660299537 276.22087246351066 L 612.4111872279793 272.2299851510088 L 616.0167141564218 268.239097838507 L 621.1681816090259 266.02299611239096 L 626.3196490616299 263.80689438627485 L 632.909824530815 263.7765325394878 L 639.5 263.74617069270073 L 643.8091761594923 265.04910258840175 L 648.1183523189845 266.3520344841027 L 652.4754226021669 270.1872811318349 L 656.8324928853491 274.0225277795671 L 659.1004569689903 278.70751640673416 L 661.3684210526316 283.3925050339013 L 661.3684210526316 290.97246875839994 L 661.3684210526316 298.5524324828986 L 658.4852509011815 303.8497658637857 L 655.6020807497315 309.14709924467275 L 652.0510403748658 311.95730884527063 L 648.5 314.7675184458685 L 644.6278760453274 316.38375922293426 L 640.7557520906549 318.0 L 633.4652484518456 318.0 Z" fill="rgb(12,27,61)" stroke="none" /><path d="M 577.2259812672934 316.76919565412595 L 554.9519625345868 317.03839130825185 L 554.3522282769479 315.4755088852726 L 553.752494019309 313.91262646229336 L 554.3143837284556 310.4501060601409 L 554.8762734376021 306.9875856579884 L 558.688136718801 302.2541488716706 L 562.5 297.5207120853529 L 564.3549907229468 295.51035604267645 L 566.2099814458936 293.5 L 572.1049907229468 285.8090364624066 L 578.0 278.1180729248132 L 578.0 277.0590364624066 L 578.0 276.0 L 573.25 275.8289557345803 L 568.5 275.6579114691606 L 566.5 275.47052454393577 L 564.5 275.28313761871095 L 559.6977404191734 275.1415688093555 L 554.8954808383468 275.0 L 555.1977404191734 269.75 L 555.5 264.5 L 575.0 264.2162889819557 L 594.5 263.9325779639114 L 596.75 264.4853410101706 L 599.0 265.03810405642975 L 599.0 268.98831128164886 L 599.0 272.9385185068679 L 586.4980648810849 288.5616196680696 L 573.9961297621699 304.1847208292714 L 574.5570818754599 305.09236041463566 L 575.1180339887499 306.0 L 586.3090169943749 306.01531277451704 L 597.5 306.03062554903414 L 598.8148707488367 306.86442209654876 L 600.1297414976735 307.69821864406345 L 599.8148707488367 312.0991093220317 L 599.5 316.5 L 577.2259812672934 316.76919565412595 Z" fill="rgb(12,27,61)" stroke="none" /><path d="M 636.0 305.23924845534555 L 638.5 304.70834492150635 L 641.1362605815095 302.8670678597223 L 643.7725211630192 301.0257907979382 L 645.4666434236824 296.79176245484314 L 647.1607656843456 292.5577341117481 L 646.4875459204269 288.0683830753046 L 645.8143261565082 283.5790320388611 L 642.0248101370776 279.78951601943055 L 638.2352941176471 276.0 L 633.9856810475735 276.0 L 629.7360679774998 276.0 L 626.468930595161 278.0192019482007 L 623.2017932128223 280.03840389640146 L 621.6008966064112 284.0394383927287 L 620.0 288.0404728890559 L 620.0 290.1542168851387 L 620.0 292.2679608812215 L 621.1476088041799 296.09833768527267 L 622.2952176083597 299.92871448932385 L 624.3976088041799 301.8828590924577 L 626.5 303.8370036955916 L 630.0 304.8035778423882 L 633.5 305.7701519891848 L 636.0 305.23924845534555 Z" fill="rgb(12,27,61)" stroke="none" /><path d="M 257.17764051533413 354.8830971183951 L 252.5 354.76619423679017 L 247.11573306500736 353.8719995515347 L 241.73146613001472 352.97780486627926 L 236.44949682435083 351.4422947323201 L 231.1675275186869 349.9067845983609 L 230.06627759022393 348.5798596107168 L 228.96502766176098 347.25293462307275 L 231.54919015854307 345.5597263238655 L 234.13335265532515 343.86651802465826 L 240.81667632766258 345.57833025535353 L 247.5 347.2901424860488 L 258.0 347.2805090278131 L 268.5 347.2708755695774 L 276.3093170451059 345.1222254362297 L 284.11863409021186 342.973575302882 L 289.3093170451059 340.3672988056197 L 294.5 337.76102230835744 L 300.7101878294105 333.35839465635024 L 306.92037565882094 328.9557670043431 L 312.5594055208437 321.74884308204776 L 318.19843538286653 314.54191915975247 L 320.50216043938366 309.9957365780841 L 322.8058854959008 305.4495539964157 L 325.1203205347213 297.97477699820786 L 327.43475557354185 290.5 L 327.4409459656325 279.5 L 327.4471363577232 268.5 L 325.700045559111 262.07741528312 L 323.9529547604988 255.65483056623992 L 320.9075740193074 249.66191384282394 L 317.862193278116 243.66899711940792 L 313.4682174423822 237.95869618421438 L 309.07424160664834 232.24839524902086 L 304.12289285267684 228.1028917130725 L 299.1715440987054 223.95738817712416 L 293.3357720493527 220.4423756592888 L 287.5 216.92736314145347 L 281.0 214.89721156446313 L 274.5 212.8670599874728 L 265.82115742724875 211.94905447111773 L 257.1423148544975 211.03104895476267 L 249.82115742724875 211.96791337918597 L 242.5 212.90477780360928 L 236.0 214.9889799910223 L 229.5 217.07318217843527 L 222.84064965739077 221.02739476990888 L 216.18129931478154 224.9816073613825 L 210.60409385489834 230.07885895938776 L 205.02688839501513 235.17611055739303 L 200.12143944162108 242.51036558651467 L 195.21599048822705 249.8446206156363 L 192.61212615350416 257.6723103078182 L 190.00826181878125 265.5 L 189.36802364076263 274.55790285403623 L 188.727785462744 283.6158057080725 L 189.92750823798266 290.5051230618593 L 191.12723101322132 297.39444041564605 L 194.05409633115838 304.98405531368854 L 196.98096164909543 312.57367021173104 L 201.3264722379708 318.5368351058655 L 205.67198282684615 324.5 L 207.33599141342307 325.87244471544216 L 209.0 327.24488943088437 L 209.0 328.5872609569542 L 209.0 329.929632483024 L 207.07244218424182 330.9612301195644 L 205.14488436848364 331.99282775610476 L 203.69011639923207 331.43458090704706 L 202.2353484299805 330.87633405798937 L 198.86767421499025 326.70852783823136 L 195.5 322.5407216184733 L 192.74424808148407 318.22656256998187 L 189.98849616296815 313.9124035214904 L 187.40292906295872 307.7693697267699 L 184.8173619629493 301.62633593204947 L 183.42604460524933 295.0631679660247 L 182.03472724754937 288.5 L 182.01736362377468 279.29922110290045 L 182.0 270.0984422058009 L 183.07522146855055 264.79922110290045 L 184.1504429371011 259.5 L 186.5796708114199 253.0 L 189.0088986857387 246.5 L 191.75444934286935 241.74846464799498 L 194.5 236.99692929598993 L 199.5 231.16080892486724 L 204.5 225.32468855374455 L 210.5 220.50079802919322 L 216.5 215.67690750464186 L 224.86353409761745 211.7371475071053 L 233.22706819523486 207.79738750956875 L 242.36353409761745 205.91183094843973 L 251.5 204.02627438731074 L 258.5 204.02627438731076 L 265.5 204.02627438731076 L 274.5 205.88663222794722 L 283.5 207.74699006858367 L 290.1372042536716 210.7596358012484 L 296.77440850734325 213.77228153391317 L 302.6684226152281 217.77483009699745 L 308.56243672311297 221.77737866008175 L 314.71036704118853 228.34953554291243 L 320.85829735926404 234.92169242574312 L 324.28046188763324 240.76072725053587 L 327.7026264160024 246.59976207532858 L 330.3163645145537 253.13307847533298 L 332.93010261310496 259.66639487533735 L 334.0888560241532 267.0831974376687 L 335.24760943520147 274.5 L 334.68036443427286 284.0 L 334.1131194333443 293.5 L 332.12784664009746 300.24754030310925 L 330.1425738468506 306.9950806062185 L 325.8212869234253 315.1190621731664 L 321.5 323.2430437401144 L 315.7177724438569 329.5600103952059 L 309.93554488771383 335.8769770502974 L 305.2177724438569 339.32857933315296 L 300.5 342.7801816160085 L 296.0 345.26692303930486 L 291.5 347.7536644626012 L 284.3931216547474 350.30370749587746 L 277.2862433094948 352.8537505291537 L 269.57076217008154 353.92687526457684 L 261.85528103066827 355.0 L 257.17764051533413 354.8830971183951 Z" fill="rgb(161,39,122)" stroke="none" /><path d="M 872.60106068397 317.990231084296 L 866.5 317.980462168592 L 861.5 315.62257619516845 L 856.5 313.26469022174484 L 854.3426036254123 310.8823451108724 L 852.1852072508246 308.5 L 849.9748685678592 304.21782996124045 L 847.7645298848936 299.93565992248097 L 847.2596249320729 293.64560815881623 L 846.7547199792522 287.35555639515144 L 848.3404231114639 281.9009292409552 L 849.9261262436755 276.4463020867589 L 853.5705095565082 272.188659828013 L 857.2148928693409 267.9310175692671 L 860.8809162854379 266.0607519779745 L 864.5469397015348 264.1904863866819 L 869.0945717045654 263.5085268520818 L 873.6422037075961 262.8265673174817 L 878.0619340725995 264.0166771138606 L 882.4816644376028 265.20678691023954 L 885.1037105686305 267.07384843862417 L 887.7257566996582 268.94090996700874 L 888.3628783498291 268.3037883168376 L 889.0 267.66666666666646 L 889.0 255.83333333333323 L 889.0 244.0 L 895.5 244.0 L 902.0 244.0 L 902.0928235463919 262.25 L 902.1856470927837 280.5 L 902.5463786050962 297.0 L 902.9071101174087 313.5 L 902.3861673881472 315.25 L 901.8652246588858 317.0 L 895.4326123294429 317.0 L 889.0 317.0 L 889.0 315.0 L 889.0 313.0 L 888.5529145971872 313.0 L 888.1058291943743 313.0 L 883.4039752811572 315.5 L 878.70212136794 318.0 L 872.60106068397 317.990231084296 Z" fill="rgb(164,21,118)" stroke="none" /><path d="M 876.5 305.37790216009444 L 879.5 304.8462974509875 L 882.0 303.10206387074874 L 884.5 301.35783029051 L 886.2484460009207 297.928915145255 L 887.9968920018415 294.5 L 887.9984460009207 290.1511291225332 L 888.0 285.80225824506635 L 886.3651550398688 282.357078229836 L 884.7303100797377 278.9118982146057 L 881.914814966753 277.45594910730284 L 879.0993198537684 276.0 L 874.6845186186855 276.0 L 870.2697173836026 276.0 L 867.6096762730347 278.09238864252166 L 864.9496351624667 280.1847772850433 L 863.4748175812333 283.71451259719413 L 862.0 287.244247909345 L 862.0 290.9102341955811 L 862.0 294.5762204818172 L 864.25 299.0381102409086 L 866.5 303.5 L 870.0 304.7047534346007 L 873.5 305.90950686920144 L 876.5 305.37790216009444 Z" fill="rgb(164,21,118)" stroke="none" /><path d="M 399.03677622390194 317.0 L 372.97374473582806 317.0 L 373.23687236791403 282.75 L 373.5 248.5 L 398.5 248.5 L 423.5 248.5 L 423.5 254.0 L 423.5 259.5 L 406.0 260.0 L 388.5 260.5 L 388.5 268.0 L 388.5 275.5 L 403.7991188058053 275.776310710483 L 419.0982376116105 276.05262142096603 L 418.7991188058053 281.776310710483 L 418.5 287.5 L 403.5 288.0 L 388.5 288.5 L 388.2099246505485 296.72728635500096 L 387.91984930109703 304.9545727100019 L 406.2099246505485 305.22728635500096 L 424.5 305.5 L 424.79990385598785 311.25 L 425.09980771197576 317.0 L 399.03677622390194 317.0 Z" fill="rgb(7,24,58)" stroke="none" /><path d="M 633.1242734767686 317.990231084296 L 626.5 317.980462168592 L 621.5 315.6418221261564 L 616.5 313.30318208372086 L 613.1241562752307 309.90159104186046 L 609.7483125504613 306.5 L 607.7951764575425 302.1772395091604 L 605.8420403646238 297.85447901832083 L 605.6710201823118 292.1772395091604 L 605.5 286.5 L 606.8827749818124 281.7399496424106 L 608.2655499636247 276.9798992848212 L 612.0950995358003 272.62930122126096 L 615.9246491079757 268.2787031577007 L 621.2123245539879 265.9870192489034 L 626.5 263.69533534010606 L 633.5 263.6852299545303 L 640.5 263.67512456895463 L 645.5 265.89117663337896 L 650.5 268.1072286978033 L 653.3432470736138 270.80361434890165 L 656.1864941472276 273.5 L 658.7914115096837 278.5 L 661.39632887214 283.5 L 661.3768344853286 291.0363959230217 L 661.3573400985173 298.57279184604346 L 658.4797104241244 303.8599455453581 L 655.6020807497315 309.14709924467275 L 651.8913658491991 312.08603983986126 L 648.1806509486668 315.02498043504977 L 643.964598951102 316.5124902175249 L 639.7485469535371 318.0 L 633.1242734767686 317.990231084296 Z" fill="rgb(10,26,59)" stroke="none" /><path d="M 635.3482928548246 305.6343355090287 L 639.1965857096494 305.16394536838544 L 641.7271714760107 302.8319726841927 L 644.2577572423718 300.5 L 645.6288786211859 297.28211863089643 L 647.0 294.06423726179287 L 647.0 290.4332477534296 L 647.0 286.80225824506635 L 645.3731520362473 283.3739306487363 L 643.7463040724947 279.9456030524062 L 641.238293344446 277.9728015262031 L 638.7302826163974 276.0 L 633.4418665901421 276.0 L 628.153450563887 276.0 L 625.14347684122 278.53272590793574 L 622.133503118553 281.0654518158715 L 620.9500647443825 284.65130531067615 L 619.7666263702121 288.2371588054808 L 620.2733520590632 292.7328158152445 L 620.7800777479144 297.22847282500817 L 622.7111237287022 299.86423641250406 L 624.6421697094901 302.5 L 628.0710848547451 304.302362824836 L 631.5 306.10472564967193 L 635.3482928548246 305.6343355090287 Z" fill="rgb(10,26,59)" stroke="none" /><path d="M 216.37962117903027 287.0 L 195.070367516976 287.0 L 194.03518375848802 285.06574145408933 L 193.0 283.13148290817867 L 193.0 279.5 L 193.0 275.86851709182133 L 194.03518375848802 273.93425854591067 L 195.070367516976 272.0 L 219.6711077403732 272.0 L 244.27184796377043 272.0 L 243.65023908193064 267.46486877565803 L 243.02863020009084 262.929737551316 L 239.90494488083834 255.42630861948845 L 236.78125956158587 247.92287968766087 L 232.56110676993995 242.21143984383042 L 228.34095397829407 236.5 L 224.0206941295711 232.61728283533887 L 219.70043428084813 228.73456567067774 L 222.10021714042406 226.89645127345136 L 224.5 225.058336876225 L 228.72632753041376 222.7934437690701 L 232.9526550608275 220.52855066191518 L 238.04217772182403 225.5142753309576 L 243.13170038282055 230.5 L 247.70431291831 237.80608723903717 L 252.27692545379944 245.11217447807434 L 255.10855560205766 253.32729156091008 L 257.9401857503159 261.54240864374583 L 259.0414650171048 271.41876705295937 L 260.14274428389376 281.2951254621729 L 259.59075901265595 283.4944099589361 L 259.03877374141814 285.6936944556993 L 248.36382429125135 286.34684722784965 L 237.68887484108456 287.0 L 216.37962117903027 287.0 Z" fill="rgb(11,27,61)" stroke="none" /><path d="M 677.8955390045497 317.0 L 670.9667931867136 317.0 L 671.2333965933568 290.75 L 671.5 264.5 L 678.0 264.5 L 684.5 264.5 L 684.8195509530758 266.75 L 685.1391019061517 269.0 L 685.665180453676 269.0 L 686.1912590012004 269.0 L 689.0148329502726 266.98943800779136 L 691.8384068993449 264.9788760155828 L 696.9077312215368 264.01749841424214 L 701.9770555437287 263.05612081290155 L 706.4964884664123 263.9004422890752 L 711.0159213890959 264.7447637652489 L 714.8516732014247 267.2831442058945 L 718.6874250137535 269.8215246465401 L 720.5937125068767 273.6607623232701 L 722.5 277.5 L 722.8082864470086 297.25 L 723.1165728940172 317.0 L 716.0582864470086 317.0 L 709.0 317.0 L 709.0 301.46788136910357 L 709.0 285.9357627382071 L 707.6056334735358 282.59857390267257 L 706.2112669470715 279.2613850671381 L 703.8831272301303 277.63069253356906 L 701.5549875131891 276.0 L 698.2278338297103 276.0 L 694.9006801462316 276.0 L 691.967266977106 277.5169269039901 L 689.0338538079802 279.03385380798017 L 687.277653264646 282.2669269039901 L 685.5214527213117 285.5 L 685.1728687718487 301.25 L 684.8242848223858 317.0 L 677.8955390045497 317.0 Z" fill="rgb(8,23,57)" stroke="none" /><path d="M 577.0 317.0 L 554.0 317.0 L 554.0370122878799 312.25 L 554.0740245757597 307.5 L 562.0932578152533 298.0 L 570.1124910547469 288.5 L 575.073115687594 282.25 L 580.0337403204412 276.0 L 579.7668701602206 275.9292950603674 L 579.5 275.85859012073485 L 568.0 275.395328303004 L 556.5 274.9320664852732 L 555.5 274.59273246328235 L 554.5 274.25339844129155 L 554.63869706988 270.3766992206458 L 554.7773941397601 266.5 L 554.88869706988 265.25 L 555.0 264.0 L 577.0 264.0 L 599.0 264.0 L 599.0 268.59219572290476 L 599.0 273.18439144580947 L 586.0 289.0 L 573.0 304.81560855419053 L 573.0 305.40780427709524 L 573.0 306.0 L 586.5 306.0 L 600.0 306.0 L 600.0 311.5 L 600.0 317.0 L 577.0 317.0 Z" fill="rgb(9,24,58)" stroke="none" /><path d="M 782.0499038559878 317.0 L 758.0 317.0 L 758.0 282.45619044727937 L 758.0 247.9123808945588 L 765.25 248.2061904472794 L 772.5 248.5 L 772.7655313556515 276.7253031512852 L 773.0310627113032 304.95060630257035 L 789.2655313556515 305.2253031512852 L 805.5 305.5 L 805.7999038559878 311.25 L 806.0998077119758 317.0 L 782.0499038559878 317.0 Z" fill="rgb(162,19,115)" stroke="none" /><path d="M 511.7328527737474 317.7933296748441 L 504.5 318.1237934686116 L 500.05794360191317 315.81189673430583 L 495.6158872038263 313.5 L 493.6930006431304 309.71742565254965 L 491.77011408243453 305.93485130509924 L 491.41518194962015 291.71742565254965 L 491.06024981680577 277.5 L 491.03012490840285 276.810365261726 L 491.0 276.1207305234521 L 487.25 275.810365261726 L 483.5 275.5 L 483.5 270.5 L 483.5 265.5 L 487.5 265.0 L 491.5 264.5 L 491.58878532328663 258.7445480100464 L 491.67757064657326 252.98909602009277 L 492.08878532328663 252.57837955448323 L 492.5 252.1676630888737 L 498.5 251.88532317515413 L 504.5 251.60298326143456 L 505.0 258.0514916307173 L 505.5 264.5 L 512.3006350043311 264.7968441441343 L 519.101270008662 265.09368828826865 L 518.8006350043311 270.2968441441343 L 518.5 275.5 L 512.25 275.79771740564684 L 506.0 276.09543481129367 L 505.9186809089424 277.29771740564684 L 505.8373618178848 278.5 L 505.9942380968402 290.5 L 506.1511143757956 302.5 L 507.79597700045815 304.3223018229063 L 509.4408396251207 306.14460364581265 L 514.3492088917378 305.8223018229063 L 519.257578158355 305.5 L 520.5961857333149 309.9968890601483 L 521.9347933082747 314.49377812029667 L 520.4502494278847 315.9783220006866 L 518.9657055474948 317.46286588107654 L 511.7328527737474 317.7933296748441 Z" fill="rgb(11,25,58)" stroke="none" /><path d="M 832.2996599268843 317.9992114307921 L 826.5 317.9984228615843 L 822.211888865367 315.8758526961876 L 817.9237777307338 313.7532825307909 L 816.211888865367 310.62664126539545 L 814.5 307.5 L 814.0 292.0 L 813.5 276.5 L 810.0087384152628 276.1686475500904 L 806.5174768305254 275.83729510018077 L 805.9541976376515 274.92589022095524 L 805.3909184447776 274.01448534172965 L 805.493420089475 269.7572426708648 L 805.5959217341723 265.5 L 809.5479608670862 265.0 L 813.5 264.5 L 813.806646952024 258.524007252665 L 814.1132939040482 252.54801450532995 L 815.306646952024 251.79918683474662 L 816.5 251.0503591641633 L 820.5 251.1218407620094 L 824.5 251.19332235985553 L 826.25 251.66404885048485 L 828.0 252.13477534111414 L 828.0 258.5673876705571 L 828.0 265.0 L 834.5 265.0 L 841.0 265.0 L 841.0 270.5 L 841.0 276.0 L 834.5 276.0 L 828.0 276.0 L 828.0 288.7774937565946 L 828.0 301.55498751318913 L 829.6139621310758 303.85924123462667 L 831.2279242621518 306.16349495606414 L 836.2427512102533 305.83174747803207 L 841.257578158355 305.5 L 842.61360841682 310.0 L 843.969638675285 314.5 L 843.9848193376424 314.7243198537684 L 844.0 314.9486397075368 L 841.0496599268843 316.4743198537684 L 838.0993198537684 318.0 L 832.2996599268843 317.9992114307921 Z" fill="rgb(162,20,117)" stroke="none" /><path d="M 897.5 317.5286683267645 L 892.5 317.557336653529 L 890.7760666776488 317.2103641469886 L 889.0521333552977 316.8633916404482 L 889.0075374456565 301.1816958202241 L 888.9629415360151 285.5 L 888.8239365214322 284.0 L 888.6849315068494 282.5 L 888.8424657534247 263.20431008922367 L 889.0 243.90862017844734 L 895.75 244.20431008922367 L 902.5 244.5 L 902.5 281.0 L 902.5 317.5 L 897.5 317.5286683267645 Z" fill="rgb(166,24,120)" stroke="none" /><path d="M 442.0124741889538 317.0 L 435.0 317.0 L 435.0 280.45431008922367 L 435.0 243.90862017844734 L 441.75 244.20431008922367 L 448.5 244.5 L 448.7624741889538 280.75 L 449.02494837790755 317.0 L 442.0124741889538 317.0 Z" fill="rgb(7,23,55)" stroke="none" /><path d="M 469.0166034066432 317.0 L 462.0 317.0 L 461.97787619708896 316.25 L 461.9557523941779 315.5 L 461.93439061205913 291.5 L 461.91302882994034 267.5 L 461.9565144149702 265.70431008922367 L 462.0 263.90862017844734 L 468.75 264.20431008922367 L 475.5 264.5 L 475.7666034066432 290.75 L 476.0332068132863 317.0 L 469.0166034066432 317.0 Z" fill="rgb(8,24,56)" stroke="none" /><path d="M 468.1849003388255 256.96959131409926 L 466.5 256.9391826281985 L 464.5 255.84526764121568 L 462.5 254.75135265423282 L 461.25 253.1845466920115 L 460.0 251.61774072979023 L 460.0 248.3088703648951 L 460.0 245.0 L 461.9745639227921 243.02543607720787 L 463.9491278455842 241.05087215441577 L 466.58008591838404 240.3905437123397 L 469.21104399118394 239.73021527026367 L 472.6282407512536 241.35976282970313 L 476.04543751132326 242.9893103891426 L 477.091108737003 245.73963413832544 L 478.1367799626828 248.4899578875083 L 476.5737347867701 251.76769769941578 L 475.0106896108574 255.04543751132326 L 472.44024514425416 256.02271875566163 L 469.86980067765097 257.0 L 468.1849003388255 256.96959131409926 Z" fill="rgb(8,24,56)" stroke="none" /><path d="M 536.733306605613 316.79607043948204 L 529.9666132112262 317.092140878964 L 530.233306605613 290.79607043948204 L 530.5 264.5 L 537.0 264.5 L 543.5 264.5 L 543.5 290.5 L 543.5 316.5 L 536.733306605613 316.79607043948204 Z" fill="rgb(8,23,55)" stroke="none" /><path d="M 537.2954545454545 256.96959131409926 L 534.5 256.9391826281985 L 532.5 255.84526764121568 L 530.5 254.75135265423282 L 529.25 253.1845466920115 L 528.0 251.61774072979023 L 528.0 247.9638579270072 L 528.0 244.30997512422417 L 529.9223839804174 242.57024153234295 L 531.8447679608347 240.83050794046176 L 535.6723839804174 240.3200383349625 L 539.5 239.80956872946325 L 542.25 241.9773645137645 L 545.0 244.14516029806578 L 545.0 248.11803469448745 L 545.0 252.0909090909091 L 542.5454545454545 254.54545454545456 L 540.0909090909091 257.0 L 537.2954545454545 256.96959131409926 Z" fill="rgb(8,23,55)" stroke="none" /><path d="M 695.9675478915007 319.7050243690819 L 686.0 320.2519017372955 L 686.0 302.33817665186075 L 686.0 284.42445156642594 L 688.7871591209141 281.0858845256807 L 691.5743182418282 277.7473174849354 L 696.7412629730366 277.2508395176671 L 701.908207704245 276.75436155039876 L 704.9541038521224 279.8002576982763 L 708.0 282.84615384615387 L 708.0 300.364059928702 L 708.0 317.8819660112501 L 706.9675478915007 318.5200565060592 L 705.9350957830013 319.15814700086827 L 695.9675478915007 319.7050243690819 Z" fill="rgb(254,254,254)" stroke="none" /><path d="M 469.0999367399765 317.0 L 462.1666666666667 317.0 L 461.83333333333337 316.0072276415136 L 461.5 315.0144552830273 L 461.78310363848595 289.4622923336907 L 462.06620727697185 263.9101293843541 L 468.78310363848595 264.2050646921771 L 475.5 264.5 L 475.7666034066432 290.75 L 476.0332068132863 317.0 L 469.0999367399765 317.0 Z" fill="rgb(6,23,56)" stroke="none" /><path d="M 537.0166034066432 317.0 L 530.0 317.0 L 530.0 290.45431008922367 L 530.0 263.90862017844734 L 536.75 264.20431008922367 L 543.5 264.5 L 543.7666034066432 290.75 L 544.0332068132864 317.0 L 537.0166034066432 317.0 Z" fill="rgb(6,21,54)" stroke="none" /><path d="M 635.488769613002 305.37666993973426 L 631.5 305.85333663516974 L 629.5 305.3268382293047 L 627.5 304.80033982343974 L 625.1211213788141 302.6501699117199 L 622.7422427576282 300.5 L 621.3711213788141 297.28211863089643 L 620.0 294.06423726179287 L 620.0 289.9001526196463 L 620.0 285.7360679774998 L 622.0965433044873 282.3437896519532 L 624.1930866089748 278.9515113264066 L 627.0468833776032 277.4757556632033 L 629.9006801462316 276.0 L 634.045969573716 276.0 L 638.1912590012004 276.0 L 640.9723428038143 277.9803063392477 L 643.7534266064282 279.9606126784954 L 645.376713303214 283.3814354617809 L 647.0 286.80225824506635 L 647.0 290.4332477534296 L 647.0 294.06423726179287 L 645.6288786211859 297.28211863089643 L 644.2577572423718 300.5 L 641.8676482341878 302.7000016221494 L 639.4775392260038 304.9000032442988 L 635.488769613002 305.37666993973426 Z" fill="rgb(251,252,252)" stroke="none" /><path d="M 156.5 286.7462379815326 L 136.5 286.9924759630652 L 135.09264770626447 286.08997192142135 L 133.68529541252892 285.18746787977744 L 133.87497828343635 279.3827695386955 L 134.0646611543438 273.5780711976136 L 135.2823305771719 272.79279761727423 L 136.5 272.0075240369348 L 156.5 272.2537620184674 L 176.5 272.5 L 176.5 279.5 L 176.5 286.5 L 156.5 286.7462379815326 Z" fill="rgb(15,30,65)" stroke="none" /><path d="M 876.8933958460341 305.4942181093678 L 873.5 305.90923497070804 L 870.270174652825 304.9312533286928 L 867.0403493056499 303.9532716866775 L 864.520174652825 300.2445013308844 L 862.0 296.53573097509127 L 862.0 291.1540200009169 L 862.0 285.7723090267425 L 864.1262586704843 281.98914223356985 L 866.2525173409686 278.2059754403972 L 868.67331169161 277.1029877201986 L 871.0941060422516 276.0 L 874.9660134755195 276.0 L 878.8379209087874 276.0 L 881.9151444849849 277.75 L 884.9923680611823 279.5 L 886.4961840305912 282.6511291225332 L 888.0 285.80225824506635 L 888.0 290.4507890494174 L 888.0 295.0993198537684 L 886.5950140222089 297.7996599268842 L 885.1900280444179 300.5 L 882.738409868243 302.78960062401376 L 880.286791692068 305.0792012480275 L 876.8933958460341 305.4942181093678 Z" fill="rgb(254,249,253)" stroke="none" /><path d="M 248.09400008886217 321.0 L 238.1180339887499 321.0 L 237.79620352604758 320.25 L 237.47437306334527 319.5 L 237.80663668111129 309.71462571245934 L 238.13890029887733 299.92925142491873 L 247.81945014943867 300.21462571245934 L 257.5 300.5 L 257.78498309448725 310.75 L 258.0699661889745 321.0 L 248.09400008886217 321.0 Z" fill="rgb(160,19,116)" stroke="none" /><path d="M 828.2304862666213 144.78093549418924 L 815.9609725332426 145.06187098837844 L 815.4100277648222 143.62613193624134 L 814.8590829964018 142.19039288410423 L 815.1795414982009 138.88449514076285 L 815.5 135.5785973974215 L 818.0 134.88897872406136 L 820.5 134.19936005070124 L 828.1849003388255 134.0996800253506 L 835.869800677651 134.0 L 838.4925368168789 134.99716250283478 L 841.1152729561068 135.99432500566957 L 840.8076364780534 140.24716250283478 L 840.5 144.5 L 828.2304862666213 144.78093549418924 Z" fill="rgb(254,254,254)" stroke="none" /><path d="M 536.5 256.96585325366175 L 534.5 256.9391826281985 L 532.5 255.84526764121568 L 530.5 254.75135265423282 L 529.25 253.1845466920115 L 528.0 251.61774072979023 L 528.0 247.9638579270072 L 528.0 244.30997512422417 L 529.9223839804174 242.57024153234295 L 531.8447679608347 240.83050794046176 L 535.6723839804174 240.3200383349625 L 539.5 239.80956872946325 L 542.25 241.9773645137645 L 545.0 244.14516029806578 L 545.0 248.58727858302314 L 545.0 253.02939686798047 L 541.75 255.01096037355268 L 538.5 256.9925238791249 L 536.5 256.96585325366175 Z" fill="rgb(14,28,57)" stroke="none" /><path d="M 468.7996599268842 256.92105263157896 L 467.5 256.8421052631579 L 466.0 256.2937718631933 L 464.5 255.74543846322865 L 462.25 253.69840520490484 L 460.0 251.65137194658104 L 460.0 248.43646993560031 L 460.0 245.22156792461956 L 461.75 243.0803698278824 L 463.5 240.93917173114528 L 467.23063316358366 240.34188629349578 L 470.9612663271674 239.74460085584627 L 473.52526799625514 241.42459927339422 L 476.0892696653429 243.10459769094217 L 477.08979242838075 245.73617198427905 L 478.09031519141854 248.36774627761594 L 476.90430366440444 251.23103139126425 L 475.7182921373903 254.0943165049126 L 472.9088059955793 255.5471582524563 L 470.0993198537684 257.0 L 468.7996599268842 256.92105263157896 Z" fill="rgb(13,26,56)" stroke="none" /><path d="M 593.5665685548267 112.0 L 586.070367516976 112.0 L 585.0350410971473 110.065474888936 L 583.9997146773187 108.130949777872 L 584.9489055930171 105.63438847462214 L 585.8980965087155 103.1378271713723 L 590.257851289765 102.48404156614438 L 594.6176060708144 101.83025596091647 L 597.5269765095234 102.16512798045824 L 600.4363469482322 102.5 L 601.3467211807902 105.69381840068205 L 602.2570954133481 108.8876368013641 L 601.6599325030128 110.44381840068205 L 601.0627695926775 112.0 L 593.5665685548267 112.0 Z" fill="rgb(254,254,254)" stroke="none" /><path d="M 808.9073864874202 111.7921022595797 L 802.3147729748405 112.0842045191594 L 801.08512887988 110.60257402517215 L 799.8554847849196 109.12094353118489 L 800.1777423924598 106.31047176559244 L 800.5 103.5 L 806.6875188054746 102.61903491182646 L 812.8750376109491 101.73806982365292 L 814.4954636928283 102.35988565508438 L 816.1158897747074 102.98170148651583 L 815.8079448873536 107.24085074325791 L 815.5 111.5 L 808.9073864874202 111.7921022595797 Z" fill="rgb(254,254,254)" stroke="none" /><path d="M 672.3386843052917 464.79201954148334 L 665.1773686105835 465.0840390829667 L 664.500232851673 462.0010601667227 L 663.8230970927624 458.9180812504788 L 665.0339932618233 457.45904062523937 L 666.2448894308843 456.0 L 671.4313150803373 456.0 L 676.6177407297902 456.0 L 678.3946580659629 457.29931367912945 L 680.1715754021357 458.5986273582589 L 679.8357877010678 461.54931367912945 L 679.5 464.5 L 672.3386843052917 464.79201954148334 Z" fill="rgb(254,254,254)" stroke="none" /><path d="M 808.3728486004518 71.79132996656874 L 801.2456972009035 72.08265993313748 L 800.6228486004518 70.45954249833295 L 800.0 68.83642506352842 L 800.0 66.3868277354255 L 800.0 63.93723040732258 L 801.5624811945254 63.33765011548775 L 803.1249623890509 62.73806982365291 L 809.3124811945254 63.61903491182645 L 815.5 64.5 L 815.5 68.0 L 815.5 71.5 L 808.3728486004518 71.79132996656874 Z" fill="rgb(254,254,254)" stroke="none" /><path d="M 444.2431249013084 471.81387124823584 L 440.9862498026168 472.12774249647174 L 440.44165229025486 470.7085441284819 L 439.8970547778929 469.28934576049204 L 440.19852738894645 462.89467288024605 L 440.5 456.5 L 444.0 456.5 L 447.5 456.5 L 447.5 464.0 L 447.5 471.5 L 444.2431249013084 471.81387124823584 Z" fill="rgb(254,254,254)" stroke="none" /><path d="M 525.0 471.7590499170411 L 522.5 472.01809983408225 L 521.2006518261354 471.1695340739351 L 519.9013036522708 470.320968313788 L 520.2006518261354 463.410484156894 L 520.5 456.5 L 524.0 456.5 L 527.5 456.5 L 527.5 464.0 L 527.5 471.5 L 525.0 471.7590499170411 Z" fill="rgb(254,254,254)" stroke="none" /><path d="M 172.5208747844879 106.0 L 167.93723040732257 106.0 L 167.40198059830777 104.60516135645544 L 166.86673078929297 103.21032271291088 L 167.1833653946465 99.35516135645544 L 167.5 95.5 L 172.0 95.5 L 176.5 95.5 L 176.80225958082661 100.75 L 177.10451916165323 106.0 L 172.5208747844879 106.0 Z" fill="rgb(254,254,254)" stroke="none" /><path d="M 734.6865467774876 431.80179715202615 L 728.8730935549752 432.1035943040523 L 729.1865467774876 428.30179715202615 L 729.5 424.5 L 732.8883726529427 424.17632129526675 L 736.2767453058854 423.8526425905335 L 738.6991720733403 424.4606330066234 L 741.1215988407952 425.0686234227134 L 740.8107994203976 428.28431171135674 L 740.5 431.5 L 734.6865467774876 431.80179715202615 Z" fill="rgb(254,254,254)" stroke="none" /><path d="M 244.05967786248235 105.0 L 241.33333333333334 105.0 L 240.66666666666669 104.33333333333334 L 240.0 103.66666666666667 L 240.0 99.4007210038904 L 240.0 95.13477534111414 L 242.0 94.5 L 244.0 93.86522465888586 L 246.0 94.5 L 248.0 95.13477534111414 L 248.0 98.48560020232128 L 248.0 101.83642506352842 L 247.3930111958157 103.41821253176421 L 246.78602239163135 105.0 L 244.05967786248235 105.0 Z" fill="rgb(254,254,254)" stroke="none" /><path d="M 300.2431249013084 111.81387124823586 L 296.9862498026168 112.12774249647171 L 296.418551309275 110.64834393703526 L 295.85085281593325 109.16894537759883 L 296.1754264079666 106.33447268879942 L 296.5 103.5 L 300.0 103.5 L 303.5 103.5 L 303.5 107.5 L 303.5 111.5 L 300.2431249013084 111.81387124823586 Z" fill="rgb(254,254,254)" stroke="none" /><path d="M 308.4883205522976 31.788320552297566 L 306.47664110459516 32.07664110459513 L 305.2383205522976 30.838320552297567 L 304.0 29.6 L 304.01531277451704 27.05 L 304.03062554903414 24.5 L 304.8784028782957 23.162507871107454 L 305.72618020755726 21.82501574221491 L 308.11309010377863 22.162507871107454 L 310.5 22.5 L 310.5 27.0 L 310.5 31.5 L 308.4883205522976 31.788320552297566 Z" fill="rgb(254,254,254)" stroke="none" /><path d="M 660.4686152036613 352.0 L 656.9372304073225 352.0 L 656.3895339723797 350.5727259692141 L 655.8418375374368 349.1454519384282 L 656.1709187687184 346.8227259692141 L 656.5 344.5 L 660.25 344.189634738274 L 664.0 343.87926947654796 L 664.0 347.939634738274 L 664.0 352.0 L 660.4686152036613 352.0 Z" fill="rgb(254,254,254)" stroke="none" /><path d="M 451.6858078309424 503.8141921690576 L 447.87161566188485 504.12838433811515 L 448.1858078309424 500.3141921690576 L 448.5 496.5 L 452.0 496.5 L 455.5 496.5 L 455.5 500.0 L 455.5 503.5 L 451.6858078309424 503.8141921690576 Z" fill="rgb(254,254,254)" stroke="none" /></svg>