<?xml version="1.0" encoding="utf-8" ?>
<svg baseProfile="tiny" height="559" version="1.2" width="1024" xmlns="http://www.w3.org/2000/svg" xmlns:ev="http://www.w3.org/2001/xml-events" xmlns:xlink="http://www.w3.org/1999/xlink"><defs /><path d="M 2.7499999999999996 555.1835776543028 L -8.881784197001252e-16 554.8671553086056 L -4.440892098500626e-16 279.4335776543028 L 0.0 4.0 L 8.25 3.9939473702567625 C 25.916139433886727 3.9809865701372806 1011.8641637334647 3.9736384198014765 1017.75 3.9864236899194907 L 1024.0 4.0 L 1024.0000033088731 279.75 L 1024.0000066177463 555.5 L 514.7500033088731 555.5 C 234.66250148899292 555.5 4.2625 555.3576099444363 2.7499999999999996 555.1835776543028 Z" fill="rgb(245,243,246)" stroke="none" /><path d="M 231.55131221213696 338.5781745205892 C 231.90437829333402 336.6961705069132 231.88901430011066 333.7711705069132 231.517170004974 332.0781745205892 C 230.9211338835472 329.3644398351915 230.4065160843511 328.9812410849679 227.1705447341809 328.84155624959214 C 221.12865743788936 328.5807504694987 220.0533174266585 328.872196001273 216.4503430120912 331.7470139271562 C 212.48446915203405 334.911389787997 211.99623806652647 336.4963093597232 215.25 335.6436259805863 C 217.91767289840323 334.944533549133 224.0 336.93068268314323 224.0 338.500888444821 C 224.0 339.10539980016944 223.46 340.14000000000004 222.8 340.8 C 221.86666666666667 341.73333333333335 222.6343748758542 342.0 226.2546869413439 342.0 C 230.76233977911568 342.0 230.9296516861166 341.8919100149407 231.55131221213696 338.5781745205892 Z" fill="rgb(245,243,246)" stroke="none" /><path d="M 135.96172881333078 311.54611395886224 C 136.87337897633554 310.4476427126763 136.91421429365136 308.43086012079016 136.12877278188284 303.29611395886224 C 134.79327652627225 294.5654393382591 134.64906671802933 282.51552742227153 135.82425981646298 277.85155886726767 C 136.3789931191967 275.6499983885582 136.38157991416034 273.66712323532903 135.8307826551788 272.85155886726767 C 135.32875090670132 272.10820149027046 135.19975047079996 267.81263592959147 135.54411501984242 263.30585762131443 C 135.8884795688849 258.7990793130374 135.87660564409614 254.18657931303736 135.51772852031183 253.05585762131443 C 134.58239887400907 250.10889485914686 132.2568092725879 250.5206550145796 131.59726590031784 253.75 C 130.8849237951181 257.2378652444236 131.53124560281657 277.6302974707644 132.46590435428988 281.1568592314658 C 132.8769436307252 282.7077518884255 132.6614838731683 284.76400607702084 131.94830621066592 286.09659072891174 C 130.6792652914925 288.4678153766079 130.3500777905558 307.37691594186407 131.51399640329976 311.0440987618554 C 132.24756600397018 313.3553719105032 134.27066672301953 313.58371912486075 135.96172881333078 311.54611395886224 Z" fill="rgb(245,243,246)" stroke="none" /><path d="M 127.44519639556637 296.25 C 128.27091412240782 291.58674379386645 128.27769013176433 290.9651662104092 127.70955314083672 272.0 C 127.14965346803224 253.30980639272707 127.30324840846279 254.50343674336378 125.63615188717384 255.88700396977487 C 124.88603542511946 256.50954534013744 123.95331650314031 260.05214546208646 123.56344317166463 263.7594486852171 C 122.54780433243178 273.4171524526765 122.2972030925188 291.2358653646202 123.15220592622296 293.0 C 123.55204918288806 293.825 124.13994850354759 295.7375 124.45864886102194 297.25 C 125.2758661447792 301.12838015457004 126.66366805968862 300.66369579952226 127.44519639556637 296.25 Z" fill="rgb(245,243,246)" stroke="none" /><path d="M 215.93569788187517 286.0609026284702 C 217.05815500470231 285.35064131171185 217.1127903635621 284.8408303612614 216.18611187406734 283.72425108943423 C 215.30129463460824 282.6581115381925 215.2790191039649 281.4980518049867 216.09823913482654 279.1480356864469 C 217.2529131440424 275.8357356558164 219.66390084685312 274.96056471014543 220.63837360052304 277.5 C 221.442937330735 279.59665947225585 222.74823886428396 279.3685896002091 223.5 277.0 C 223.84912643761277 275.9 224.97412643761277 275.0 226.0 275.0 C 227.02587356238723 275.0 228.15087356238723 275.9 228.5 277.0 C 228.84912643761277 278.1 229.501966775581 279.0 229.95075630659608 279.0 C 230.83647549095366 279.0 232.1281428398999 275.01622661196745 231.54712665515265 274.0764585655802 C 231.35110757709484 273.7594063545111 222.85815085395603 273.36327228700094 212.67388949262198 273.1961606377798 L 194.15705065383284 272.89232127555965 L 194.35587503990251 277.6961606377798 C 194.67326331365203 285.36464795306784 195.2926637319524 285.86183947398865 205.0149944663948 286.25221523954525 C 209.68174750987765 286.43959698387937 213.725 286.6776139745857 214.0 286.78114188555935 C 214.275 286.88466979653293 215.14606404684383 286.5605621308428 215.93569788187517 286.0609026284702 Z" fill="rgb(245,243,246)" stroke="none" /><path d="M 824.4410225364768 317.1997761775398 C 816.6411896525208 314.548879148466 813.9003789856647 308.0462298944118 813.8336638122854 292.03352367806644 C 813.7773460291365 278.5163570330786 813.1473479342058 276.26257506625905 809.3019089931041 275.82143133731176 C 806.6491423796874 275.51710941885364 806.5 275.23385577466206 806.5 270.5 C 806.5 265.82230533216153 806.6725506976651 265.4800582707754 809.1768204005176 265.1906391667353 C 812.8497699612825 264.7661554260862 813.820182799123 263.2713634866292 814.1860355741736 257.47460927449936 L 814.5 252.5 L 821.25 252.20431008922367 L 828.0 251.90862017844734 L 828.0 257.90899703056755 C 828.0 264.523631483855 827.8186935460735 264.38379755630683 837.5 265.23594145498765 C 840.3970474081982 265.49093816280117 840.5 265.67116363764717 840.5 270.4876443512002 L 840.5 275.4752887024004 L 835.6499103374949 276.1690635542704 C 827.278230977051 277.3665796853836 827.7027997405308 276.5781893993324 828.1825948918131 290.0352719677263 C 828.688438523743 304.22295082064005 829.3991708351328 305.5 836.7893753330347 305.5 C 841.469182294637 305.5 841.5089847309762 305.52839909515166 842.8733564801055 309.8409292341802 C 844.8294637247056 316.02382729909027 843.231519555991 317.39446615270737 833.7328527737475 317.681209118078 C 829.7547837481864 317.80129789842886 825.5734601414146 317.5846530751866 824.4410225364768 317.1997761775398 Z" fill="rgb(165,23,119)" stroke="none" /><path d="M 861.5 316.121160225601 C 852.842869075472 312.14988370411254 847.9335688342443 304.32361974163086 847.2169196969382 293.35148814273646 C 846.5625214045324 283.332437245168 848.8313260568555 276.5370949957761 854.8355023328197 270.53291871981196 C 862.5911221175287 262.77729893510275 874.1316546862831 260.9655458821681 883.9316078064107 265.9651089063367 L 888.0 268.04064773081427 L 888.0 257.6021113336433 C 888.0 251.86091631519923 888.2731449618828 246.45177057576603 888.6069888041842 245.58178746823614 C 889.0728967010135 244.36765095125818 890.6998893978749 244.0 895.6069888041842 244.0 C 900.9849425914134 244.0 902.0183226509163 244.27785818147623 902.1153992980629 245.75 C 902.5765365405207 252.7430249823621 902.8979871208145 312.96370802437525 902.483712789705 314.75 C 902.0099069066272 316.79298355796993 901.3763323079681 317.0 895.5975793357461 317.0 C 890.0787107022733 317.0 889.1639300884586 316.7348715794028 888.7113443104826 315.0041809057407 C 888.2023693846348 313.05785779936366 888.081677720891 313.0699589947801 883.8447129465216 315.4921355442657 C 878.3089838854398 318.6567861444241 867.6797883261338 318.9560079946016 861.5 316.121160225601 Z" fill="rgb(165,23,119)" stroke="none" /><path d="M 759.6666666666667 316.33333333333337 C 759.3 315.9666666666667 759.0 300.7223902265731 759.0 282.4571634664587 L 759.0 249.24766026625082 L 764.75 248.74911707918966 C 767.9125 248.474918326306 770.8375 248.44575241386832 771.25 248.68430394043918 C 771.6625 248.92285546701007 772.0 259.6036692718118 772.0 272.4194457288874 C 772.0 285.2352221859631 772.2846410798662 297.7975405518197 772.632535733036 300.3357087641244 L 773.265071466072 304.9505600592238 L 788.882535733036 305.2252800296119 L 804.5 305.5 L 804.7999038559878 311.25 L 805.0998077119758 317.0 L 782.7165705226546 317.0 C 770.405790068528 317.0 760.0333333333334 316.7 759.6666666666667 316.33333333333337 Z" fill="rgb(165,23,119)" stroke="none" /><path d="M 881.514308655825 302.99115676436685 C 886.5432390494914 299.8831068540236 888.7098223430845 293.12733926465154 886.9843353496447 285.9347024104599 C 885.6051081657229 280.18543839914395 882.7391863519587 277.4696293098521 877.0342484069274 276.505786231207 C 868.0938798336205 274.99532065683155 861.0394918648012 282.8950319571934 862.3909101579898 292.90382744349324 C 863.7900265314164 303.26588167477365 873.1128509756451 308.1835431657618 881.514308655825 302.99115676436685 Z" fill="rgb(165,23,119)" stroke="none" /><path d="M 622.5 316.19412739075244 C 613.0438550844805 312.1891488626759 607.8905898083615 305.6314252261129 606.0282874881573 295.2332544905837 C 602.2491081994135 274.13219530261046 622.1752436962731 257.90357723863 643.2514312303292 264.9172816303392 C 663.2277309263449 271.5649668761482 668.5098904744959 295.5921701210886 653.3066895272565 310.65609973650817 C 649.1552356812181 314.76952353162943 647.0714507668415 316.0334099897454 643.0022388139644 316.90609973650817 C 635.7395844277474 318.46366028890253 627.1546888183786 318.1655363464135 622.5 316.19412739075244 Z" fill="rgb(12,28,61)" stroke="none" /><path d="M 672.75 317.2015809464275 C 671.1362654358752 316.8804668813785 671.0 314.7956131012181 671.0 290.4266758367895 L 671.0 264.0 L 677.5936196151099 264.0 C 683.3462353139363 264.0 684.2539484058657 264.25509627954773 684.7102509790709 266.0 C 685.2581317129809 268.09509914495663 687.4537599150075 268.6928520179106 688.4832050075306 267.0271748686564 C 689.5003449759351 265.38140782846165 697.1939439086887 263.7619722738878 703.3777293607899 263.8920072420406 C 712.9600764101882 264.09350844272905 719.4976603221771 268.925765183568 721.9015562443062 277.58389839465036 C 722.4995656820948 279.73775427759267 722.9913557516758 289.4875 722.9944230655973 299.25 L 723.0 317.0 L 716.0 317.0 C 709.4121808748761 317.0 708.9990513685012 316.8675132902184 708.9838895472933 314.75 C 708.8612596668781 297.6234030039187 707.6536919921577 283.16986228311754 706.1223628350426 280.5 C 702.5033702098135 274.19031023272464 691.6431958303797 275.02228597232664 687.6160387418048 281.91773162537277 C 685.9526870655864 284.7657831994737 685.5801593207724 287.71929432314835 685.1939176813098 301.12103015722 L 684.7374739555108 316.95862406550697 L 681.6187369777554 317.40195493834426 C 678.3908633142959 317.8607996754403 675.7646742202048 317.80146541018576 672.75 317.2015809464275 Z" fill="rgb(12,28,61)" stroke="none" /><path d="M 559.5959169358518 316.2625836025185 C 559.2681626211333 315.93482928779997 559.0 314.2041666666667 559.0 312.4166666666667 C 559.0 310.62916666666666 558.4596352348683 308.98654507828945 557.7991894108186 308.76639647027287 C 556.208595460802 308.23619848693403 559.1014446986632 302.07963656990927 562.9925700422052 297.71384350714334 C 565.4088969983617 295.0027554461868 570.095147592475 289.1312250866248 577.4924036053242 279.54660911268 C 578.3215816223958 278.4722441246541 579.0 277.2705614079582 579.0 276.8762030755782 C 579.0 276.13858082029856 570.7062988217336 275.1524523085693 561.0 274.7359869248395 L 555.5 274.5 L 555.1807987339873 270.6017857288353 C 555.0052380376803 268.4577678796947 555.3144090064609 266.423718536388 555.8678453312773 266.0816760770426 C 556.4212816560938 265.73963361769717 565.9005561593613 265.32212706551127 576.9328997829828 265.15388373885173 L 596.9917063713854 264.8479867812889 L 598.0642431670341 267.6689723343985 C 599.6293935691061 271.78562986130277 598.9012848615298 273.0107306955813 584.268607840062 290.8812264560845 C 582.7458735280279 292.7409010069309 580.7125 294.97840939400913 579.75 295.8534673162583 C 578.7875 296.72852523850736 578.0 297.9677188632016 578.0 298.6072309266898 C 578.0 299.24674299017806 576.875 300.50710844403426 575.5 301.40804304637027 C 570.871396885194 304.44082028754036 572.277749913237 305.990306645573 579.75 306.09059208656583 C 586.0254903483741 306.1748157554374 591.281692096198 306.40210394977163 596.75 306.82570452879304 C 598.7154314754132 306.97795599774065 599.0 307.55560565088297 599.0 311.3930111958157 C 599.0 314.5428375990255 598.5357000665103 315.9641909933374 597.3593148676142 316.415612350174 C 595.2902855639879 317.20957338985227 560.4015268860909 317.0681935527576 559.5959169358518 316.2625836025185 Z" fill="rgb(12,28,61)" stroke="none" /><path d="M 640.633166317178 302.76831872968813 C 644.8960982101323 299.84731100378156 646.0 297.1910023990575 646.0 289.85415677918326 C 646.0 284.3263732246973 645.7209538154466 283.54175143492813 642.7769777858365 280.79166605855164 C 641.0043155680465 279.13575161041507 638.4737876842676 277.3702334176704 637.15358248855 276.86829229689687 C 631.3410060331171 274.65835466743926 621.8309335755321 279.94029912275107 620.470537078558 286.13414380265914 C 619.2799531803987 291.55483678444773 620.7829116647598 297.23342186913015 624.4748003086543 301.2633371171589 C 627.50564084755 304.5716791827408 628.4412614909896 305.0 632.6371374865009 305.0 C 635.9006337081605 305.0 638.3903442751972 304.3051250116012 640.633166317178 302.76831872968813 Z" fill="rgb(12,28,61)" stroke="none" /><path d="M 178.5 353.06160000132206 C 151.26380731926693 348.56762108336363 128.14116494154104 326.0170569626488 121.41856784596288 297.3924219348988 C 119.29478940315784 288.3494312661459 119.26635026114127 270.6164389401052 121.36146468450853 261.78621682248576 C 126.43295081452293 240.4115613406723 139.55982586195782 222.92629796685404 157.80545658605968 213.24208164261722 C 168.95650041239162 207.32345255885562 176.2632129266716 205.6048024568965 190.0 205.66943454410898 C 201.62242556647638 205.72411848285122 212.85689654468462 208.070689634054 213.70706199191457 210.6211859757438 C 213.9062178051246 211.2186534153739 211.46610168962067 213.67367537128123 208.28458173523916 216.07679032220454 L 202.5 220.4460902329742 L 192.0 220.1563713893271 C 183.63192128448452 219.92547709513593 180.18023920484293 220.28089464478407 175.0 221.90685078013055 C 157.66875173531287 227.34672495096734 144.4078848152965 240.4239237104736 137.8241053421088 258.5678448490696 C 135.0026993214543 266.34322197814737 134.30099837282816 286.4855252242637 136.53749337983425 295.5 C 139.86174610101992 308.89881922804585 150.40662376484596 323.56055096849394 162.12903132999037 331.0827991763107 C 179.36563522395787 342.14349741851913 201.75837645632183 341.70856300592675 219.03305645651608 329.97755178896637 C 222.2545190557155 327.78989830503485 225.72667736365534 326.0 226.74896380749354 326.0 C 229.0113256069541 326.0 235.0 331.96591870063725 235.0 334.2196840051397 C 235.0 338.06240136771027 219.28594495693034 348.0864620057024 208.0 351.44309556148085 C 201.53946224729344 353.3645702711188 185.6271983113082 354.23758958733293 178.5 353.06160000132206 Z" fill="rgb(9,25,59)" stroke="none" /><path d="M 246.0 353.86735817070473 C 239.7177478042528 352.8406827434716 230.96089101529105 350.1800813297003 229.5388888888889 348.8659682256647 C 228.9388619929033 348.31146609648476 229.40319356411263 347.15236199144294 230.77481727798732 345.7807382775683 L 232.97185677819687 343.5836987773587 L 241.591287851679 345.3751827220127 C 270.2933946753842 351.340699832603 297.1157942944596 341.9515695715132 313.77632528273875 320.106946883044 C 323.03443884155547 307.9680782214371 327.3104748371496 295.1799821161079 327.3543250970125 279.5 C 327.4122289290829 258.7947395487309 319.2960220363138 241.4093610094513 303.20002169163115 227.76010307483767 C 296.15261091997036 221.78396457249534 284.4456918157699 215.71049423301565 275.936110863454 213.61577079754878 C 266.4303140046576 211.2758182705693 250.38230362724886 211.47850226034157 240.43833703277326 214.06410241367018 C 211.91896656187322 221.47962296694337 191.40774782077244 245.86029224960186 189.35462989930932 274.7847736265172 C 188.09884141117058 292.4764173254962 194.86052583738197 312.37214510172373 206.2302063687696 324.4398380068904 C 209.72102301585403 328.14496438831895 209.80484344016398 330.75989309888286 206.459705296542 331.59946932844866 C 203.34099937936094 332.3822146868322 201.36135221049884 330.73544981488095 195.40067978025604 322.4000447922571 C 190.2456043154572 315.1911866601992 185.61494903256016 304.73794561117086 183.39398876605702 295.296140980591 C 181.08330654827756 285.47290803370913 181.9096736497258 265.8701286230158 185.00838590616468 257.0 C 192.16530554672093 236.51316788952906 205.214685610515 221.22181635600816 223.07244644906203 212.39627724005186 C 245.45957093767785 201.3322673311735 271.43965333650243 201.4383335256279 294.0 212.68584582461682 C 301.8889625204608 216.61890608732594 305.0482269781565 218.96170638859263 312.6296177024344 226.50092036180223 C 320.6249196314872 234.45174287125485 322.39639880367656 236.88425828706636 326.8874883848623 246.07918624047412 C 334.8079071396886 262.2952243521475 336.8952314536241 277.8754818609209 333.41368161328745 294.7921583320839 C 325.31746916202644 334.1312495301984 286.3552186007376 360.4623992494511 246.0 353.86735817070473 Z" fill="rgb(164,45,126)" stroke="none" /><path d="M 861.1683826967071 315.39661850984044 C 846.15499109378 307.9151298348017 842.3008908383338 285.3546746995824 853.7509645192465 271.977838789389 C 857.7438172879515 267.3130883441964 860.9194267808238 265.4747374173487 867.5523204223905 263.9882747471959 C 873.2768240917809 262.70538654341465 881.6299401014338 264.13447045158546 885.3053248239958 267.0255284957014 C 886.6400932040553 268.0754574564751 887.9799016283729 268.6867650382939 888.2826768780346 268.38398978863205 C 888.5854521276964 268.0812145389702 888.5854059574554 264.55738275822216 888.282574277499 260.5532524980808 C 887.9797425975426 256.54912223793946 888.0448505026532 251.18658713763162 888.427258511078 248.63650783073007 L 889.1225457991231 244.0 L 895.5612728995616 244.0 C 899.1025728048027 244.0 902.0341814542809 244.1125 902.0759587872908 244.25 C 902.5235007431841 245.7229762409819 902.9646927107556 313.004539435392 902.5379588171056 314.7047826944975 C 902.0113273018297 316.80304978132756 901.4057725136937 317.0 895.4809479717851 317.0 C 889.7323526393391 317.0 889.0 316.7806672676173 889.0 315.05901699437493 C 889.0 312.3700401863453 887.4930448005089 311.70075474158887 885.8633068303602 313.6659144762539 C 881.7287615681573 318.65140418027704 869.4296252630844 319.51336936379477 861.1683826967071 315.39661850984044 Z" fill="rgb(164,23,119)" stroke="none" /><path d="M 881.6535115671104 303.491372311689 C 887.8416109016649 299.4367739020943 889.8811027259271 289.60758982027437 886.0802089937903 282.15722261628815 C 883.8254021210626 277.73743601876885 880.5660886600077 276.0 874.5296722608177 276.0 C 869.4745561992975 276.0 865.0412798282226 279.07191455410606 863.0062957921139 283.98480061329286 C 861.2998899207136 288.1044288109403 862.153389193098 296.9919124463963 864.5673215537711 300.2397540270151 C 868.6858674726528 305.7810794199532 876.026831306392 307.1781148158068 881.6535115671104 303.491372311689 Z" fill="rgb(164,23,119)" stroke="none" /><path d="M 237.4271903717059 319.6708569728545 C 237.14666835211673 318.93982830792453 237.04829151046917 314.3273283079245 237.2085751680446 309.4208569728545 L 237.5 300.5 L 247.75 300.21501690551275 L 258.0 299.9300338110255 L 258.0 310.46501690551275 L 258.0 321.0 L 247.96861520366127 321.0 C 240.54743120361752 321.0 237.8045162373313 320.65415241681177 237.4271903717059 319.6708569728545 Z" fill="rgb(43,29,74)" stroke="none" /><path d="M 193.6801002907969 286.3467669574636 C 192.66603405819666 285.33270072486334 192.8879352379952 275.72564748431034 193.96475637335482 274.02278498105443 C 194.73347534622928 272.80714881691824 199.02484907977663 272.47944850148144 218.19944359883775 272.17216204737235 C 231.014749619477 271.9667876942673 242.0129521650467 271.3800553815482 242.6398937001038 270.8683124635521 C 244.47411345462243 269.3711250594063 240.43641960768224 255.61639232638146 235.79434363142195 247.548388968953 C 233.56386161374974 243.67177503602883 228.98516438035935 237.8795379276525 225.61946089055442 234.6767509503389 L 219.5 228.85350190067783 L 221.8607839623097 226.9267509503389 C 223.15921514158006 225.86703792765252 224.83088245026045 225.0 225.5756002038217 225.0 C 226.32031795738297 225.0 227.4112978656632 224.1 228.0 223.0 C 229.852517247648 219.53853985987587 233.583439672345 220.519594899737 238.45816620988887 225.75 C 242.94189119825887 230.5608745930112 250.9948546752184 241.49951301494477 251.00616074157483 242.7944055154632 C 251.00954914944103 243.18248248195843 251.69952758866995 244.81780908362362 252.53944616208358 246.42846463027473 C 257.0896819161092 255.1541467234869 259.2353827294782 264.2630305057328 259.3681183860056 275.4173997545026 L 259.5 286.5 L 226.9301002907969 286.76343362413024 C 209.0166554507352 286.9083221174019 194.0541554507352 286.7208221174019 193.6801002907969 286.3467669574636 Z" fill="rgb(43,29,74)" stroke="none" /><path d="M 373.236852489782 282.76690910304967 L 373.5 248.5 L 398.5 248.5 L 423.5 248.5 L 423.5 254.0 L 423.5 259.5 L 406.0 260.0 L 388.5 260.5 L 388.5 268.0 L 388.5 275.5 L 403.7991188058053 275.776310710483 L 419.0982376116105 276.05262142096603 L 418.7991188058053 281.776310710483 L 418.5 287.5 L 403.25 287.77604606942714 L 388.0 288.0520921388542 L 388.0 296.50348738586837 L 388.0 304.9548826328825 L 406.25 305.2274413164413 L 424.5 305.5 L 424.5 311.0 L 424.5 316.5 L 398.736852489782 316.76690910304967 L 372.973704979564 317.0338182060994 L 373.236852489782 282.76690910304967 Z" fill="rgb(7,23,58)" stroke="none" /><path d="M 621.5 315.6418221261564 C 611.0174883082578 310.73885780863503 605.6431750135613 302.1745072167929 605.7229685185696 290.5 C 605.778537226655 282.3697983814053 607.5316404316304 277.63106016356465 612.5310844768215 272.09727322881145 C 622.7994068316668 260.73146783616284 644.2617776239836 260.79919171470357 654.5888127720207 272.2299851510089 C 659.8329300015446 278.0345960530887 661.3704086936499 282.30267652171926 661.3633935348398 291.0363959230217 C 661.3582494917626 297.4406171305305 660.925040682293 299.36706828753313 658.4797104241244 303.8599455453581 C 653.3069919537874 313.3639334418291 644.974188600447 318.0077063323136 633.1242734767686 317.990231084296 C 628.287643243011 317.9830984329629 625.1506873174241 317.34935083474437 621.5 315.6418221261564 Z" fill="rgb(11,26,59)" stroke="none" /><path d="M 641.7271714760107 302.8319726841927 C 646.9008294406866 298.06436938405676 648.441775603503 289.8405747929772 645.3731520362473 283.3739306487363 C 642.8828699540489 278.12605071448996 639.5373099299618 276.0 633.7695118075985 276.0 C 628.0301595822843 276.0 623.8597104690162 278.43682312778 621.3746456382262 283.24240860562736 C 619.26994129489 287.31245800722877 619.9507441943515 296.09976147685313 622.6567966195562 299.7914711547672 C 627.3126295871182 306.14315283876107 636.5378744205385 307.61398764072334 641.7271714760107 302.8319726841927 Z" fill="rgb(11,26,59)" stroke="none" /><path d="M 194.03518375848802 285.06574145408933 C 193.4658326913196 284.0018992538385 193.0 281.4973155994983 193.0 279.5 C 193.0 271.74498219356263 192.0977407525998 272.0 219.53518375848802 272.0 L 244.0 272.0 L 244.0 269.4684545755903 C 244.0 265.8872975019008 240.38168887883765 255.54035946582758 236.71577602621562 248.63845638753673 C 235.0034440357829 245.41460740068197 230.5342821173124 239.49155378857563 226.78430509628114 235.47611502730047 L 219.96616505804252 228.17531727952746 L 225.7017948316703 224.58765863976373 C 228.8563912071656 222.61444638789368 231.94550493520714 221.0 232.56649200509602 221.0 C 234.60823848025228 220.99999999999994 244.55357350859347 232.36213255865587 248.7596403489028 239.5 C 254.25488784756664 248.825659741526 257.7262664536322 259.62396369666567 259.05248846180245 271.5176261652854 C 260.7432580175199 286.6805794898693 261.99624789210054 285.56774804390267 242.36085470907705 286.34214733773933 C 233.18670168422787 286.7039663019827 218.7932794649305 287.0 210.3754719995273 287.0 C 196.26721965568527 287.0 194.98941662267038 286.84874187039173 194.03518375848802 285.06574145408933 Z" fill="rgb(11,27,61)" stroke="none" /><path d="M 671.2333965933568 290.75 L 671.5 264.5 L 678.0 264.5 C 683.9793923101997 264.5 684.5255939513006 264.6802103541616 684.8195509530758 266.75 C 685.2102377317485 269.5008766397101 685.4672431602477 269.5155447520879 689.0148329502726 266.98943800779136 C 695.5266305894086 262.3526291016524 707.6087053079384 262.48997485276914 714.8516732014247 267.2831442058945 C 721.6673510965746 271.7935464178368 722.457370342633 274.76898233390835 722.8082864470086 297.25 L 723.1165728940172 317.0 L 716.0582864470086 317.0 L 709.0 317.0 L 708.9944230655973 302.25 C 708.9913557516758 294.1375 708.5258556465924 285.83296868262926 707.9599783876342 283.7954859613983 C 706.0303836252301 276.8478379950995 698.7717633034356 273.99818510036346 691.967266977106 277.5169269039901 C 686.5514140041732 280.31757332133225 685.5594652982894 283.78248521389924 685.1728687718487 301.25 L 684.8242848223858 317.0 L 677.8955390045497 317.0 L 670.9667931867136 317.0 L 671.2333965933568 290.75 Z" fill="rgb(8,23,57)" stroke="none" /><path d="M 553.6713686301205 314.8513136692022 C 552.525462267174 310.46936100575334 554.4735780307569 307.14563354809854 567.046143144683 292.0322871385438 C 574.9113699198758 282.57758193192467 579.4857080123669 276.3001840602509 578.8130578415162 275.8844633921267 C 578.2078144511241 275.5104024053982 572.7946074411352 275.1647400243353 566.7837089304296 275.11632476754244 C 560.7728104197241 275.06790951074964 555.4325780529907 274.76734793953557 554.9165258932445 274.4484101648446 C 553.9809216140158 273.8701749202613 553.8582430947741 269.0704662338424 554.6941982170255 265.75 C 555.0970321277135 264.1499184134623 557.0136910231214 264.0 577.0673876705571 264.0 L 599.0 264.0 L 599.0 268.59219572290476 C 599.0 273.00190262128564 598.4833942492962 273.812886394269 586.0 289.0 C 578.85 297.6985847048048 573.0 305.08209662949764 573.0 305.40780427709524 C 573.0 305.7335119246929 579.075 306.0 586.5 306.0 L 600.0 306.0 L 600.0 311.5 L 600.0 317.0 L 577.116631363961 317.0 C 554.5464334172991 317.0 554.2255729177037 316.97059412055216 553.6713686301205 314.8513136692022 Z" fill="rgb(9,24,58)" stroke="none" /><path d="M 758.0 282.45619044727937 L 758.0 247.9123808945588 L 765.25 248.2061904472794 L 772.5 248.5 L 772.7655313556515 276.7253031512852 L 773.0310627113032 304.95060630257035 L 789.2655313556515 305.2253031512852 L 805.5 305.5 L 805.7999038559878 311.25 L 806.0998077119758 317.0 L 782.0499038559878 317.0 L 758.0 317.0 L 758.0 282.45619044727937 Z" fill="rgb(162,19,115)" stroke="none" /><path d="M 861.429136551174 315.6192310350016 C 851.5655794593573 311.02629763654124 846.3136142106055 300.83721951469516 847.2273196144597 288.0669881341695 C 848.2525425955657 273.73815235173095 858.1357724514249 263.80002310225393 871.459797339395 263.69990377229874 C 883.3889503501952 263.61026578254604 888.3434485693163 266.95545911878753 888.7093128958836 275.3464847056139 C 889.0169072877151 282.4011009247971 888.438811910986 283.7957572492118 886.2310527195798 281.3252926455483 C 882.9192745997814 277.61943982790575 879.5591544921549 276.0 875.181785813231 276.0 C 866.6198468416169 276.0 861.9968641883572 281.31515808902117 862.0037380604376 291.1511291225332 C 862.010293814794 300.5318986799776 868.0621115191077 306.7915198943971 876.0845893404462 305.715479817796 C 884.0121995259333 304.65216416130835 889.7774429643451 296.67003285057575 888.5465148273144 288.4616159205677 C 888.1327059520137 285.7021406306462 888.2598225017113 284.0 888.8797101060635 284.0 C 890.8506037756287 284.0 891.001636139132 286.0014982765664 889.9487840096687 298.1674905030623 C 888.9969379506472 309.1663301604211 888.6121952278022 310.78188521532905 886.3910494470708 313.1066062168651 C 881.3244360175638 318.40948311419356 869.8925601496903 319.56019680922435 861.429136551174 315.6192310350016 Z" fill="rgb(162,21,118)" stroke="none" /><path d="M 500.05794360191317 315.81189673430583 C 492.9553792333622 312.1153215679207 491.67637655344447 308.52147181967905 491.1743629380213 290.8500615218363 L 490.7555145492763 276.10615517606055 L 487.12775727463816 275.8030775880303 L 483.5 275.5 L 483.5 270.5 L 483.5 265.5 L 487.49327604390976 265.0 L 491.4865520878195 264.5 L 491.49327604390976 258.8334306273455 C 491.4969742197594 255.71681747238554 491.79788640158387 252.86893107080175 492.16196978129756 252.50479417938152 C 492.5260531610112 252.1406572879613 495.45105316101115 251.7656135056558 498.66196978129756 251.671363552036 L 504.5 251.5 L 505.0 258.0 L 505.5 264.5 L 512.3006350043311 264.7968441441343 L 519.101270008662 265.09368828826865 L 518.8006350043311 270.2968441441343 L 518.5 275.5 L 512.25 275.79771740564684 L 506.0 276.09543481129367 L 506.0 289.39272984353477 C 506.0 305.1866862570017 506.63731918685914 306.4121188117945 514.5536902130541 305.8397012619645 L 519.251661525387 305.5 L 520.5932274168308 309.9968890601483 C 522.4452105350347 316.20468151890464 521.1275830102355 317.36409126885286 511.7328527737474 317.7933296748441 C 505.7092348564944 318.0685444056577 503.75734843510475 317.737275699871 500.05794360191317 315.81189673430583 Z" fill="rgb(12,26,59)" stroke="none" /><path d="M 822.4674197806074 316.00227933263943 C 815.5665118223828 312.58630196449946 814.5732496338858 309.77073865045935 814.0 292.0 L 813.5 276.5 L 810.0087384152628 276.1686475500904 C 805.7800186596431 275.7673036183921 805.3581851392687 275.17447670538024 805.4377767435401 269.74481215896964 C 805.499185031939 265.5555963562752 805.5523899331165 265.49345125836044 809.5 265.0 L 813.5 264.5 L 813.806646952024 258.524007252665 C 813.9753027756374 255.23721124163072 814.5454840324109 252.28090631639964 815.0737164115208 251.95444075215153 C 815.6019487906307 251.6279751879034 818.6139576622198 251.39217192420415 821.7670694594967 251.43043349948653 L 827.5 251.5 L 827.7956899107763 258.25 L 828.0913798215527 265.0 L 834.5456899107763 265.0 L 841.0 265.0 L 841.0 270.5 L 841.0 276.0 L 834.5 276.0 L 828.0 276.0 L 828.0 288.7774937565946 C 828.0 304.78284253904974 828.7466396856697 306.32764018162163 836.2427512102533 305.83174747803207 L 841.257578158355 305.5 L 842.61360841682 310.0 C 843.3594250589757 312.475 843.9764699733458 314.6009439341958 843.9848193376424 314.7243198537684 C 843.9931687019391 314.847695773341 842.6723469670978 315.635195773341 841.0496599268843 316.4743198537684 C 836.7912034753617 318.67645326912697 827.3871467726417 318.4375641044334 822.4674197806074 316.00227933263943 Z" fill="rgb(162,20,117)" stroke="none" /><path d="M 889.4485395079744 316.6367469579628 C 889.0695351945947 315.5644183367476 887.8541300333619 282.6400546173996 888.1145489975652 280.5 C 888.181477397031 279.95 888.4283087010355 271.4924005730482 888.663063006464 261.70533460677376 L 889.089889016334 243.9106692135475 L 895.794944508167 244.20533460677376 L 902.5 244.5 L 902.7624741889538 280.75 L 903.0249483779075 317.0 L 899.7624741889538 317.10962724691774 C 897.9681133850293 317.1699222327225 895.0038201701784 317.3439583638058 893.1751559337297 317.49637420488057 C 891.3464916972811 317.64879004595537 889.6695143056911 317.26195778484237 889.4485395079744 316.6367469579628 Z" fill="rgb(166,23,119)" stroke="none" /><path d="M 529.6448229990997 316.2343285348959 C 528.8263946052886 314.91008357635167 529.1085106882185 266.4424600070696 529.9425017502562 265.09303412237915 C 530.4261772796582 264.31043067628 532.899885324248 264.0007646778505 537.0910577273094 264.1981570050876 L 543.5 264.5 L 543.5 290.5 L 543.5 316.5 L 536.8360427261005 316.7937285525027 C 533.1708662254557 316.95527925637924 529.9348173483054 316.70354924845617 529.6448229990997 316.2343285348959 Z" fill="rgb(14,28,59)" stroke="none" /><path d="M 530.6348586918014 254.9274198509671 C 528.5229251516706 253.26617268618685 528.0 252.00691479817982 528.0 248.5824074130792 C 528.0 242.97999121179194 530.6081245627533 240.5 536.5 240.5 C 541.9392068202175 240.5 545.0 243.04701207136165 545.0 247.57320009387632 C 545.0 252.2106524003725 544.1514995083894 253.87029626698916 540.9284785846602 255.53698516127298 C 537.0145662622383 257.5609478830022 533.7360281975183 257.3668001396843 530.6348586918014 254.9274198509671 Z" fill="rgb(14,28,59)" stroke="none" /><path d="M 435.0 280.45431008922367 L 435.0 243.90862017844734 L 441.75 244.20431008922367 L 448.5 244.5 L 448.7624741889538 280.75 L 449.02494837790755 317.0 L 442.0124741889538 317.0 L 435.0 317.0 L 435.0 280.45431008922367 Z" fill="rgb(7,23,55)" stroke="none" /><path d="M 461.81483624584826 291.75 C 461.62161656580093 277.3600503659646 461.87180216496415 265.94362136789624 462.3965265848424 265.20640006379267 C 463.0207430661822 264.32939554297576 465.27894502146546 264.0073520705465 469.40862944862334 264.20640006379267 L 475.5 264.5 L 475.7666034066432 290.75 L 476.0332068132863 317.0 L 469.09354251627235 317.0 L 462.15387821925844 317.0 L 461.81483624584826 291.75 Z" fill="rgb(9,24,57)" stroke="none" /><path d="M 464.5 255.84526764121568 C 459.67049085523445 253.20373142460076 458.4587343997158 247.1249503710008 461.9116468777614 242.86078396230977 C 463.4149491262391 241.00428427086766 464.7974728625633 240.5 468.3838690999836 240.5 C 474.3538794372916 240.5 477.44333155054636 243.34349996709253 477.291537957856 248.69852685062233 C 477.10903428242756 255.13695465868096 470.23090027236657 258.9798264896386 464.5 255.84526764121568 Z" fill="rgb(9,24,57)" stroke="none" /><path d="M 685.9031077507889 305.75 C 685.7353959296648 282.8154345627599 685.9642401459072 281.8217973262353 692.3043340447018 277.9559971211353 C 696.1219305925987 275.6282610097419 698.8030067870867 275.49759874168086 702.5766277174193 277.4553768134298 C 707.4701348555819 279.99415883364645 707.9261506995641 282.0080512460501 707.9645645842706 301.25 L 708.0 319.0 L 697.0 319.0 L 686.0 319.0 L 685.9031077507889 305.75 Z" fill="rgb(253,253,254)" stroke="none" /><path d="M 531.2052730791742 316.9640631921774 L 528.9105461583483 316.0313572783728 L 529.3924824150665 297.2656786391864 C 529.6575473562616 286.9445553876339 529.9026744706332 275.21693954015063 529.9372093358925 271.20431008922367 L 530.0 263.90862017844734 L 536.75 264.20431008922367 L 543.5 264.5 L 543.7675546077105 289.93244539228954 C 543.9147096419512 303.92029035804876 543.6897096419513 315.6802057926485 543.2675546077105 316.0655908025113 C 541.9090710166718 317.3057494401369 533.5734792872016 317.92663521557995 531.2052730791742 316.9640631921774 Z" fill="rgb(11,26,58)" stroke="none" /><path d="M 462.0 290.5 L 462.0 264.0 L 469.0 264.0 L 476.0 264.0 L 476.0 290.5 L 476.0 317.0 L 469.0 317.0 L 462.0 317.0 L 462.0 290.5 Z" fill="rgb(6,23,56)" stroke="none" /><path d="M 133.46173110699024 284.7035472536909 C 133.1392546512112 283.4186987138455 133.0159429656833 280.14728072455557 133.18770513915052 277.4337294997133 L 133.5 272.5 L 155.0 272.5 L 176.5 272.5 L 176.5 279.5 L 176.5 286.5 L 155.27402596783972 286.7698177539776 L 134.04805193567944 287.0396355079552 L 133.46173110699024 284.7035472536909 Z" fill="rgb(15,30,65)" stroke="none" /><path d="M 628.0710848547451 304.29653161183705 C 623.0886966171978 301.6860797365303 620.7406471122489 297.91768771159053 620.225446150088 291.70504141417587 C 619.4426372541179 282.2653952443892 624.8676476270629 276.0114608170246 633.8456295006001 276.00373806043757 C 650.2207468488467 275.9896523731254 651.7293543182029 303.06771513550916 635.488769613002 305.49653323398644 C 632.658194126784 305.9198525352817 630.5043673193032 305.571415557028 628.0710848547451 304.29653161183705 Z" fill="rgb(251,252,252)" stroke="none" /><path d="M 237.9273272934696 320.25 C 237.8588475175091 319.54327206289116 237.89272274572087 302.4038474809956 237.96593965387595 300.7137880230222 C 237.9846728442442 300.28137143568443 242.3875 300.0563714356844 247.75 300.2137880230222 L 257.5 300.5 L 257.78498309448725 310.75 L 258.0699661889745 321.0 L 248.03498309448725 321.0 C 242.51574239251926 321.0 237.9672972820613 320.6625 237.9273272934696 320.25 Z" fill="rgb(160,19,116)" stroke="none" /><path d="M 504.7063120011612 31.37297866782791 C 503.5168218346947 30.183488501361367 503.87957692565993 10.192459541721817 505.1043874339275 9.435485017834424 C 505.7118005225876 9.060083083830916 509.06323876075186 8.5238070967413 512.5520279631814 8.243760602079726 C 518.5925613848916 7.7588845856503 518.9237017850943 7.848295331197532 519.4908150710066 10.11729257862025 C 519.8183587778809 11.427781660379113 519.9544205397167 16.775 519.7931745417527 22.0 L 519.5 31.5 L 512.4563120011612 31.789645334494576 C 508.58228360179993 31.948950268466593 505.0947836017999 31.761450268466593 504.7063120011612 31.37297866782791 Z" fill="rgb(254,254,254)" stroke="none" /><path d="M 532.2413839080953 255.71545797050027 C 528.619381959025 253.63867035940885 526.7227715490715 250.2427211019236 527.4831425412442 247.19565540488531 C 528.4284873277135 243.407336675769 530.7577238778935 241.13607739179312 534.3976938425247 240.45321491023168 C 541.0440633874057 239.20634846768093 546.7869680903669 244.14047266553422 545.5014838305071 249.99324416395308 C 544.3786791913342 255.10534020094352 536.8463048388933 258.35583278907023 532.2413839080953 255.71545797050027 Z" fill="rgb(18,31,60)" stroke="none" /><path d="M 466.0 256.2937718631933 C 462.6459651789553 255.06768565184447 460.0 251.60266110168624 460.0 248.43646993560031 C 460.0 239.09881783135788 473.74081004865735 236.92768079857186 477.08979242838075 245.73617198427905 C 479.4321408022311 251.89701508988583 472.3683962217955 258.6217747649393 466.0 256.2937718631933 Z" fill="rgb(13,26,56)" stroke="none" /><path d="M 737.25 551.3541856619204 C 735.4319185508268 550.5966240968303 735.690770328486 545.3326401672141 737.5817874682358 544.6069888041843 C 739.9688729970721 543.6909781392054 757.30769452208 543.9087146144465 758.8300758433955 544.8738193617883 C 759.5855420003485 545.3527427197689 760.0175547230032 546.9661751163137 759.8300758433955 548.6085065872712 L 759.5 551.5 L 749.0 551.6875189952538 C 743.225 551.7906544426434 737.9375 551.6406544426434 737.25 551.3541856619204 Z" fill="rgb(254,254,254)" stroke="none" /><path d="M 87.0 155.08700335222164 L 81.5 154.5 L 81.19624805436143 149.20696813751684 L 80.89249610872287 143.91393627503368 L 88.69624805436143 144.20696813751684 L 96.5 144.5 L 96.81794152621966 148.9637357625234 C 97.0573529935743 152.32494982441614 96.70140076417377 153.7451727309447 95.37681189111478 154.7137357625234 C 94.40932275238629 155.42118109313554 93.36624906558744 155.92665150849976 93.05887036489511 155.83700335222164 C 92.7514916642028 155.74735519594356 90.025 155.40985519594358 87.0 155.08700335222164 Z" fill="rgb(254,254,254)" stroke="none" /><path d="M 800.4146179675877 349.6380938129038 C 799.1464322574516 346.33325482763684 800.419460924488 344.50158757772624 804.0183922638687 344.4528882276011 C 807.3121054131853 344.408318972246 807.5269838823117 344.1924479137522 808.0 340.4528882276011 C 808.4750553984427 336.697206443676 808.674612210901 336.5 812.0 336.5 L 815.5 336.5 L 815.804252617653 342.39574738234705 C 815.9715915573621 345.6384084426379 815.7465915573621 348.62553408457194 815.304252617653 349.0338043644226 C 814.8619136779438 349.4420746442733 811.4621361741533 350.08734456796464 807.7491914981184 350.46773752818115 C 802.1905902629488 351.03721888677956 800.8952888395868 350.89070202648645 800.4146179675877 349.6380938129038 Z" fill="rgb(254,254,254)" stroke="none" /><path d="M 585.0350410971473 110.065474888936 C 584.3598475602496 108.80386422495513 584.3298857754144 107.26253397940168 584.9489055930171 105.63438847462214 C 585.6929542191367 103.67739228240767 586.8403411751941 102.99652885747993 590.257851289765 102.48404156614438 C 597.8084228657658 101.35176343227097 600.3159415751692 102.07758811456138 601.3467211807902 105.69381840068205 C 602.9232220163675 111.2245739924899 601.9665523433562 112.0 593.5665685548267 112.0 C 587.1783941424603 112.0 585.917334102658 111.71405444972679 585.0350410971473 110.065474888936 Z" fill="rgb(254,254,254)" stroke="none" /><path d="M 801.25 111.35874049077754 C 800.5625 111.06976655418322 800.0 109.28469545215466 800.0 107.39191581960296 C 800.0 103.16957565678901 802.8350674233092 101.76021182081965 810.4356210667595 102.20417784326806 L 815.5 102.5 L 815.5 107.0 L 815.5 111.5 L 809.0 111.69207382411088 C 805.425 111.79771442737184 801.9375 111.64771442737185 801.25 111.35874049077754 Z" fill="rgb(254,254,254)" stroke="none" /><path d="M 728.4287579454783 109.5721717139779 C 727.6405758154162 106.43180397303433 728.6429236307619 103.3510006678623 730.7110359480821 102.55739150884602 C 731.6102319690791 102.21233761982953 734.7425046703155 102.42754617025268 737.6716419508294 103.0356327320086 C 742.0291481326708 103.94024753773088 743.1080921698077 104.58249216166317 743.6065198814873 106.56838634430312 C 744.7668047432444 111.19132945756635 743.6418385413652 112.0 736.0504368245536 112.0 C 729.4601924584314 112.0 729.0014261156158 111.85386344381149 728.4287579454783 109.5721717139779 Z" fill="rgb(254,254,254)" stroke="none" /><path d="M 799.8893090394149 431.25 C 799.5523696490357 428.96702638183837 800.3565199136073 425.40285497602247 801.3523876499238 424.76531277451704 C 802.7428640988107 423.87514695827764 812.2120503369605 423.76040493666 814.4182125317642 424.6069888041843 C 815.4305400117262 424.99545530732985 816.0 426.43549703154196 816.0 428.6069888041843 L 816.0 432.0 L 808.0 432.0 C 803.6 432.0 799.9501890677367 431.6625 799.8893090394149 431.25 Z" fill="rgb(254,254,254)" stroke="none" /><path d="M 734.883678910553 509.5503455772197 C 734.5846086632495 509.25127532991615 734.84881945098 506.1926006556903 735.4708139943987 502.7532907456066 C 736.5999973835667 496.5094873846931 736.6069461450602 496.5 740.0508565821253 496.5 L 743.5 496.5 L 743.5 503.0 L 743.5 509.5 L 739.4637214982797 509.7970548316131 C 737.2437683223336 509.9604349890003 735.1827491578566 509.84941582452325 734.883678910553 509.5503455772197 Z" fill="rgb(254,254,254)" stroke="none" /><path d="M 167.40198059830777 104.60516135645544 C 167.10759320334964 103.83800010250593 167.00921636170204 101.47550010250593 167.1833653946465 99.35516135645544 L 167.5 95.5 L 172.0 95.5 L 176.5 95.5 L 176.80225958082661 100.75 L 177.10451916165323 106.0 L 172.5208747844879 106.0 C 169.52260407153724 106.0 167.75210021807504 105.51755846018054 167.40198059830777 104.60516135645544 Z" fill="rgb(254,254,254)" stroke="none" /><path d="M 360.0 428.0 L 360.0 423.90456518870633 L 366.25 424.20228259435316 L 372.5 424.5 L 372.5 428.0 L 372.5 431.5 L 366.25 431.79771740564684 L 360.0 432.09543481129367 L 360.0 428.0 Z" fill="rgb(254,254,254)" stroke="none" /><path d="M 736.2000961440122 503.25 L 736.5 497.5 L 740.25 497.189634738274 L 744.0 496.87926947654796 L 744.0 502.939634738274 L 744.0 509.0 L 739.9500961440122 509.0 L 735.9001922880242 509.0 L 736.2000961440122 503.25 Z" fill="rgb(254,254,254)" stroke="none" /><path d="M 729.189634738274 428.25 C 729.4758809254512 424.7914196294234 729.763316880765 424.47484631248386 732.8883726529427 424.17632129526675 C 739.0747237655013 423.58536205900947 741.0 424.6160992853695 741.0 428.5190520282149 L 741.0 432.0 L 734.939634738274 432.0 L 728.879269476548 432.0 L 729.189634738274 428.25 Z" fill="rgb(254,254,254)" stroke="none" /><path d="M 240.4300369930896 104.67827514926978 C 240.12411994784966 103.88106810830872 240.01471374226088 101.2648260466026 240.1869120917812 98.86440390103394 C 240.49262430662006 94.60281618713206 240.58245264717067 94.5 244.0 94.5 L 247.5 94.5 L 247.5 100.0 C 247.5 105.47659518770585 247.48614062720904 105.5013356541181 244.2431249013084 105.81387124823586 C 242.09554668331265 106.02083744606065 240.79680282785884 105.63405159393525 240.4300369930896 104.67827514926978 Z" fill="rgb(254,254,254)" stroke="none" /><path d="M 584.6666666666667 431.33333333333337 C 583.4806959869175 430.1473626535842 583.9595970783017 426.27842087768374 585.4449579440613 425.0456808491281 C 586.2396848132952 424.38611612916213 587.9271848132952 423.99351600721315 589.1949579440613 424.1732361336859 C 591.0645037253356 424.4382638394349 591.5586379389125 425.20849511217546 591.810365261726 428.25 C 592.1130866702939 431.9076428554416 592.037148573657 432.0 588.7270319283928 432.0 C 586.86049770111 432.0 585.0333333333334 431.7 584.6666666666667 431.33333333333337 Z" fill="rgb(254,254,254)" stroke="none" /></svg>