<?xml version="1.0" encoding="utf-8" ?>
<svg baseProfile="tiny" height="559" version="1.2" width="1024" xmlns="http://www.w3.org/2000/svg" xmlns:ev="http://www.w3.org/2001/xml-events" xmlns:xlink="http://www.w3.org/1999/xlink"><defs /><path d="M 3.2499999999999996 555.8708606485303 L -8.881784197001252e-16 554.9428161313639 L -8.881784197001252e-16 279.06598210445736 L -8.881784197001252e-16 3.18914807755084 L 511.99980545610117 3.34457403877542 L 1023.9996109122023 3.5 L 1023.9998054561012 279.56254646109534 L 1024.0 555.6250929221907 L 516.9905745197689 555.7481503217527 C 238.1353905056418 555.8158318915118 9.197890505641796 556.0799396463007 8.2405745197689 556.3350564435057 C 7.283258533896005 556.5901732407108 5.0375 556.3812851329718 3.2499999999999996 555.8708606485303 Z" fill="rgb(254,254,254)" stroke="none" /><path d="M 266.0 355.92913816083507 C 272.52971293510126 355.3249820946608 278.4572412889773 354.24596178260816 279.71481670565504 353.43255528210375 C 280.9329658937653 352.6446498769467 282.8991010641209 352.0 284.0840059731119 352.0 C 285.26891088210294 352.0 288.77224336455816 350.4700621926855 291.8691892674569 348.6001382059677 C 294.9661351703556 346.73021421925 299.21356065013407 344.4922873752188 301.30791255585353 343.626967441454 C 306.9554413610486 341.2935872495671 326.9992252620688 320.44051272776517 327.00050422404695 316.8970081004039 C 327.0012876226921 314.7265161141067 331.00468185529525 304.6805246607809 332.55939518365744 302.9477021301287 C 335.4450024691929 299.7315173661777 336.87378905880695 277.84072323571036 335.1159741214924 263.777721383354 C 334.6833636271848 260.31671871825495 333.611167746512 257.1553543694881 332.40272563157123 255.77772138335402 C 331.30383212336 254.52497462250932 329.5706922180516 251.025 328.5513036197747 248.0 C 325.30391334428964 238.3634829740614 321.9325313647884 233.2116499545084 312.5962610243632 223.61898480468938 C 306.2666881320068 217.11558772171878 303.06833003183783 214.99999999999991 299.5660285351548 214.99999999999997 C 298.3530818408171 215.0 296.47152358274866 213.97739072096422 295.38478796166936 212.72753493547606 C 294.29805234059006 211.47767914998792 291.40440138604566 209.8702934845464 288.95445250712623 209.1555667900505 C 286.5045036282068 208.4408400955546 280.39050834279504 206.54304651237254 275.36779631732225 204.93824771631262 C 265.7250244722777 201.8573008953267 252.18946979270078 200.77419942625454 248.38312688020736 202.7789616137738 C 247.34740709609332 203.3244647142018 243.8 204.3185304585757 240.5 204.98799660127133 C 237.2 205.65746274396693 233.6 206.5660107656509 232.5 207.0069922050135 C 227.0936998852576 209.17433584703647 218.48617846583016 209.5308108674253 212.65072924038128 207.8290371182876 C 205.25617904616198 205.672587645242 193.55826200133134 203.6175886079449 189.0 203.67426104712064 C 184.0037600679676 203.73637882437274 169.89941942884482 206.43663937546475 167.3157414540893 207.82568857070066 C 166.11439925383843 208.4715598568153 164.34340230345384 209.00000000000003 163.3801926754569 209.00000000000003 C 162.41698304745992 209.00000000000003 160.69989939311975 209.8589178037853 159.56445122136756 210.90870623063392 C 158.4290030496154 211.9584946574826 154.71272689047225 214.2245556508712 151.30605975660498 215.94439732705303 C 147.8993926227377 217.66423900323488 144.8573305366478 219.87415117285235 144.54592178751628 220.85531325953627 C 144.23451303838476 221.8364753462202 142.4092861479125 223.38813397162076 140.4898620309113 224.30344353820416 C 138.5704379139101 225.21875310478757 137.0 226.64862676101984 137.0 227.48094055205365 C 137.0 228.31325434308744 135.48632347151568 230.6830347242983 133.63627438114597 232.74711917696663 C 129.74813119714366 237.0850883355276 127.00000000000003 242.07435249100024 127.00000000000003 244.79535251100367 C 127.00000000000004 245.83742231162836 126.11694032273252 247.48918290030562 125.03764516162778 248.46593159695317 C 122.45107030789194 250.8067496680559 121.33606425368308 254.62305595353922 120.06081993419463 265.5 C 118.62774259457137 277.72314955583244 118.75753908688606 286.9207901453682 120.50232093829685 296.7856494288486 C 122.00392548213576 305.27560335198706 122.91934148519493 307.7233835547495 126.14909338022099 311.8848586918015 C 127.16709202109944 313.19653097229235 128.0 315.04462709317704 128.00000000000003 315.9917389604341 C 128.00000000000003 316.9388508276911 130.25000000000006 320.723735173527 133.00000000000006 324.40259306229154 C 135.75000000000006 328.08145095105607 138.00000000000003 331.5360312298419 138.0 332.0794381262601 C 138.0 332.62284502267823 139.575 333.99672340734065 141.5 335.13250120328775 C 143.42499999999998 336.26827899923484 145.0 337.5283046691201 145.0 337.9325582474772 C 145.0 338.9253564857696 155.347979809939 346.0 156.8001315833151 346.0 C 157.43470093465226 346.0 158.69102235129384 347.125 159.59195695362973 348.5 C 160.50047687176436 349.88657665517144 162.1898306737506 351.0 163.38510941857638 351.0 C 164.57040867196113 351.0 168.78795788325775 351.9 172.75744099923548 353.0 C 177.5783826143937 354.33595121121147 182.88409940533634 354.98020771023283 188.737341514143 354.9403890494152 C 197.0165731090101 354.8840667739005 200.44659498794346 354.43935509673054 211.75 351.9567352091177 C 222.87681530926272 349.5129005466328 227.3519358475601 349.6062398998491 232.58360041208937 352.3912698257809 C 235.57145798336134 353.98182913014324 239.24351370993207 355.04617751281415 241.9920433944215 355.118314788426 C 244.47141952748967 355.18338792206026 247.85 355.58014626726856 249.5 356.0 C 253.79422335686334 357.09269436700697 253.40628915751577 357.0943604113004 266.0 355.92913816083507 Z" fill="rgb(254,254,254)" stroke="none" /><path d="M 242.5 343.0188972605703 C 239.63289813757459 342.4941940920475 239.5139385468088 342.2711927475567 239.81464429215842 337.98493632114855 C 240.15399353780916 333.1478558613924 240.35917682013837 333.41576039602137 230.6124953874608 325.9698374694573 C 226.23247440352057 322.6237448646646 225.1797702534896 322.3679512923958 224.3788409513612 324.4551395968853 C 223.69013574933317 326.24987658439983 213.80087333367092 329.24455434108114 211.49053035269162 328.3579925548479 C 210.56357322023896 328.00228572782066 208.96498598040296 325.75122097374145 207.9381142641671 323.3556264346719 C 206.66166046587367 320.3777805166098 205.46439396210965 319.0 204.1531531834475 319.0 C 202.62945865664975 319.0 201.69626847408995 317.30421987426865 199.61316660777163 310.75 C 198.17103086930982 306.2125 196.99310376228138 301.059860551107 196.99555081437506 299.29969011357116 C 196.99817778784217 297.41010180082077 196.34860657704803 295.73484213986717 195.409531930128 295.20930954537846 C 194.46705242331333 294.68187149549254 193.95777737456189 293.36159283944403 194.159531930128 291.9687260451525 C 194.70382876114454 288.21102659676205 198.92079932508557 287.8076176785205 227.86651143804568 288.7442083649125 C 249.44013601013006 289.44226187166606 255.2879323909188 289.3472205132091 258.64742142538665 288.2439413738544 L 262.7948428507733 286.881899856887 L 262.4582382766358 278.6909499284435 C 262.24010445978143 273.3828724130597 261.2203330817085 267.76144924734194 259.56081685124917 262.71910342271576 C 258.15236758306213 258.4396103052095 256.9974903795188 254.3896103052095 256.99442306559735 253.7191034227158 C 256.97896339397107 250.33965922759336 254.700656919223 245.0735006960161 252.1058404441086 242.41945986518263 C 250.50575523195414 240.7828541450484 248.69232370379746 237.57109394897464 248.07599260376043 235.28221498501875 C 247.34158432137556 232.55483084294838 246.2423552934979 230.89430825260752 244.88640615848144 230.46394671525078 C 243.748464713615 230.10277813083428 242.22351043953043 228.38813933536886 241.49761888273792 226.65363828088311 C 240.7717273259454 224.9191372263974 238.7253422988059 222.42784569169206 236.95009660020568 221.11743487042682 C 234.13329687079582 219.03819319156165 233.93655944070554 218.61500730367644 235.40475040451634 217.7933663308882 C 236.33005569548743 217.27553945540723 241.18405729907394 216.66007352684517 246.19142063470855 216.425664267417 C 251.1987839703432 216.19125500798881 255.8698331238864 215.52299205584484 256.5715298648046 214.94063548487486 C 257.4724763603302 214.19291630482678 259.11852648297673 214.22513365501703 262.1736710605097 215.05028350970355 C 264.55315197722933 215.69294649432936 269.4522125864346 216.2945263499796 273.06047241429906 216.38712763337077 C 279.0585160872655 216.54105960292125 280.0177003158066 216.88060489571225 284.2489149833346 220.34776720076286 C 286.7942985684397 222.4335176794373 290.1420859820051 224.476325101964 291.68844256903554 224.88733925082212 C 293.557630589473 225.3841604431134 294.6111623760723 226.397175612698 294.8316527478485 227.909668176092 C 295.0635419649374 229.50035312778695 296.51025287175247 230.7805175165739 299.64108204464605 232.16543212115198 C 302.103859146568 233.2548355308947 304.3716470140371 234.8049216574668 304.6806106390218 235.61006795797883 C 304.9895742640064 236.41521425849086 306.5529566397484 237.75170479647775 308.1547936962262 238.580046931283 C 310.043735360394 239.5568566288061 311.2767647239586 241.1338236197927 311.6634896736332 243.06744836816588 C 311.99852831151793 244.74264155758956 313.51716812351384 246.94413057158354 315.1298773196312 248.09248080879416 C 317.7377922606854 249.94948004237872 318.0 250.6781135513394 318.0 256.06809421063815 C 318.0 261.71664622967484 318.118509293092 262.0 320.4809479717849 262.0 C 323.31769872386513 262.0 323.49257105692755 262.50421002031044 324.84476402260503 274.58220635067437 C 325.9546688749108 284.4960478462818 324.30683540573153 295.0543415075455 321.2306056151655 297.73948924229944 C 320.1212980850266 298.70777015903474 318.4155826404844 301.75 317.44012684951605 304.5 C 316.4646710585477 307.25 314.8228714607247 310.4489305987536 313.79168329879815 311.6087346638968 C 312.76049513687167 312.7685387290401 311.44911784710916 315.41125904478764 310.8775115437704 317.48144647666925 C 309.69197761668914 321.77509653192106 305.8598493242169 325.76758658034976 302.07793740679017 326.64925336907345 C 299.30788369892537 327.2950284189765 296.47744078112044 330.12642238953947 294.97957588536735 333.75 C 294.32775883506076 335.3268509404983 293.21105415549664 336.0 291.2469917072375 336.0 C 289.681966181633 336.0 287.6883258232726 336.88312581726694 286.732028336491 338.0 C 285.79017897536994 339.1 284.3243381058365 340.0 283.47460418197227 340.0 C 282.6248702581081 340.0 280.87089139757677 340.6937144109958 279.5768733807916 341.5415875799907 C 277.75329923008803 342.73643925438654 273.6563987051648 343.1376900946923 261.36205667513656 343.32554851941245 C 252.63792550381146 343.4588538670995 244.15 343.32086080062055 242.5 343.0188972605703 Z" fill="rgb(254,254,254)" stroke="none" /><path d="M 173.33783137264237 334.8514280854912 C 170.84773065630117 334.29241203192015 168.58177849813683 333.0106586206905 167.6973457669639 331.6608436594163 C 166.79569039230333 330.28474362180674 163.8547754704937 328.649215677447 160.15808108710226 327.46804026602507 C 154.13573401371048 325.5437675119401 154.0835173386184 325.49409046493355 151.95918505722864 319.66790855025135 C 150.4347116656058 315.48689629454304 148.9878617502588 313.33029415590545 146.91694099351244 312.1521916704288 C 145.09767194740363 311.1172484559241 144.0102831635263 309.6783500044083 144.00632262906453 308.3006858248158 C 144.00284518307905 307.0910630284645 142.66002890343808 304.8410630284645 141.0222864520846 303.3006858248158 C 138.45066619052 300.8819506787118 138.00743914419644 299.6817346837104 137.7722864520846 294.5 L 137.5 288.5 L 154.7688976852309 288.226304947798 C 164.26679141210792 288.07577266908686 173.48175637933429 288.326777776697 175.24659761240065 288.78409407582046 C 179.4314924586147 289.8685092557436 181.47410664402608 293.49865719201705 183.52695387324383 303.5 C 184.43008538087983 307.9 185.75468361977977 312.175 186.4705055152437 313.0 C 187.18632741070766 313.825 188.94950553847076 316.84991953493306 190.38867913249504 319.7220434109624 C 191.8278527265193 322.5941672869917 194.36131922737226 325.9465920104766 196.01860468994607 327.17187612981763 C 200.41164191674756 330.41978897961405 202.59718657230422 334.00685453600045 200.85547685060277 335.11048195240915 C 199.0736660955691 336.2395192286013 178.66517336322778 336.04739163670706 173.33783137264237 334.8514280854912 Z" fill="rgb(254,254,254)" stroke="none" /><path d="M 257.8599335952607 320.6505649806595 C 258.8880786936884 319.8356234530632 259.12065954377204 317.30433650838296 258.8132352156067 310.2753344100587 C 258.2970455146784 298.4730853407944 257.5770868973611 297.6013768452962 248.58600331891864 297.8924491784152 C 244.99790297305856 298.00860834099245 241.19544533687449 297.6397829284554 240.13609746073183 297.07283715055513 C 236.89093015699757 295.33607631602024 235.67827730225136 298.1601705496504 235.44955547400951 307.98711995504146 C 235.21985926061262 317.8559334610024 236.26571836578762 321.08615952352284 240.00799684226584 322.0662593337146 C 243.46557216467096 322.97179561021363 256.20610211320457 321.9614460580822 257.8599335952607 320.6505649806595 Z" fill="rgb(254,254,254)" stroke="none" /><path d="M 841.5626732948659 316.8246910212297 C 843.6497606615842 314.67549411230743 843.7343640716314 314.1416259310902 842.6833763493232 309.752781023349 C 841.6344011378466 305.37234020799406 841.2743545857859 304.96493566328894 838.0232847605002 304.4797337433161 C 836.0854781422252 304.1905281764561 832.925 303.62677671594906 831.0 303.22695271996713 L 827.5 302.5 L 827.2161431395739 291.7475206682924 C 827.0600218663394 285.83365703585326 827.3819108023856 280.1549102300127 827.9314518863431 279.12808332198017 C 828.6417167006397 277.8009413767477 830.4171781242458 277.1182856528893 834.0718988320547 276.76711326720715 C 839.9591909136203 276.2014190402656 840.9633683827931 275.1249966755065 840.984687225483 269.3569888041844 C 841.002293523199 264.5934439303869 840.1498986124003 264.00758870736155 833.1682125317643 263.98468722548296 C 830.6006956392939 263.9762651994985 827.9005497391125 263.58937103490814 827.1678883091389 263.1249224152821 C 826.4120820953663 262.6458018579134 825.5931104247902 259.60430468967735 825.2748614679399 256.0945989208791 L 824.7139463176021 249.90872746215987 L 819.1069731588011 250.20436373107992 L 813.5 250.5 L 813.7871378203522 256.7216269722188 C 814.0679001253527 262.8051109501575 814.0123909334255 262.9570494904413 811.2871378203522 263.56457203269827 C 804.7681975662542 265.0177960055441 804.755558867929 265.02779433964474 805.395134159104 268.22567079552005 C 805.7278103715968 269.88905185798404 806.0 272.101030381211 806.0 273.14117862491327 C 806.0 274.31794778243744 807.3221559840634 275.66284949487505 809.5 276.7013909223043 L 813.0 278.3704245947821 L 813.0 291.6961107129612 C 813.0 307.32956386072823 814.5860749584926 312.2871460093711 820.8381419221139 316.1957298914461 C 827.7544681246475 320.51958650969596 837.6819769880389 320.8208728007271 841.5626732948659 316.8246910212297 Z" fill="rgb(254,254,254)" stroke="none" /><path d="M 882.5794944692605 316.7960592437585 C 886.0858609880627 313.7174286646243 886.2827782393692 313.66623708846424 887.6142906975667 315.4871888788634 C 888.376430813905 316.52947759410387 889.0 317.7462509344125 889.0 318.19112963510486 C 889.0 319.6429914057471 901.6553196998265 319.1202406416348 902.9030315050774 317.61683988856794 C 904.1884892413875 316.06795807093096 904.3898127318555 253.1424906056066 903.1290436903533 246.97469883343769 L 902.4187744595552 243.5 L 895.7864565457829 243.40128550378623 C 888.0052077632088 243.285470480521 888.0438093007378 243.22798182841674 887.9983419087755 255.0 C 887.9624967955943 264.28070218056473 887.3113144036763 265.490716170495 882.8607872407082 264.5465004882621 C 875.9843879654159 263.08761622685347 867.6625360084647 262.8473623822523 863.1510847042998 263.977476689856 C 858.3209969101061 265.1874091384588 854.0 268.36123636355984 854.0 270.6990648737732 C 854.0 271.441805124968 852.875 272.4772259317701 851.5 273.0 C 850.125 273.5227740682299 848.9934510289024 274.74913618705125 848.9854467308942 275.72524915293627 C 848.9774424328859 276.70136211882135 848.2628571225383 279.525 847.397479374566 282.0 C 846.2244122723494 285.3549985365227 845.9931835564838 288.321288614092 846.4887213907687 293.6578937013095 C 847.4443982006787 303.94988226937505 851.7355967435956 311.1762831021732 860.0542609450829 316.50233339624396 C 864.4726212488094 319.3312021454798 866.058712206006 319.73874351612153 873.2152037716938 319.88399864952476 C 878.3029949685074 319.9872654223894 879.3310027129708 319.64827278257457 882.5794944692605 316.7960592437585 Z" fill="rgb(254,254,254)" stroke="none" /><path d="M 423.5 311.5 L 423.5 304.5 L 407.0 304.0 L 390.5 303.5 L 389.6031517378906 297.1968482621094 C 389.01550837659363 293.06682378583184 389.0564345879738 290.5435654120262 389.7218581408441 289.8781418591559 C 390.2894899666657 289.31051003333425 396.19833418439947 288.8234654574027 403.11870640295353 288.77388829615677 C 409.9284178813291 288.72510390229195 416.5125 288.3171596647997 417.75 287.8673455461741 C 420.9309800654609 286.7111033283873 420.646153330309 282.75472422665865 417.0958777659034 278.7812759552153 L 414.1917555318068 275.5309988255121 L 403.21604958823036 275.8561124669369 C 392.6995780218291 276.16762303249595 392.172554055395 276.08444291232684 390.620171822327 273.86810681077543 C 388.2498361439096 270.48397858193755 388.50871435009157 265.3332956175852 391.1193629460219 263.9361188899238 C 392.3166824667747 263.29533292869627 399.5653305443661 262.64827912394276 407.7807432274509 262.4488333453446 C 418.2929752300252 262.1936276268449 422.5509098059132 261.7361316670567 423.14606750691195 260.79789821390875 C 424.32468202841153 258.9398771035693 424.19413704581297 249.23801728153776 422.98042834045305 248.48790404918373 C 422.4196639277023 248.14133258242236 411.78613602027133 247.9052654291094 399.35036632393985 247.9633103751549 C 378.56164419075833 248.06034339233366 372.12423942900256 248.76334299376555 373.37306164371967 250.80017328999958 C 373.609054563176 251.1850779804998 374.1227023540702 263.425 374.51450117904005 278.0 C 375.35407990550857 309.2325080076971 375.5457448541028 312.9934082687511 376.4417187302413 315.816371979238 C 377.0870900032053 317.849756804273 377.82227301176783 317.9634632349036 392.30922224006906 318.2705053937865 C 400.6641500080311 318.44758305304777 411.1 318.57166020005275 415.5 318.5462323871308 L 423.5 318.5 L 423.5 311.5 Z" fill="rgb(254,254,254)" stroke="none" /><path d="M 519.8801236005359 318.09524942323833 C 520.9111187261743 317.44225092191874 521.0864362380232 315.99155287989646 520.5731631349395 312.36056219775537 C 519.3728830089301 303.86955433602543 519.4894675059393 304.0016821295219 513.1826123294429 303.98468722548296 C 510.0571755482493 303.9762651994985 506.93512546737537 303.6107400101604 506.2447232608341 303.1724090269537 C 505.40970152911075 302.64226023368883 504.856842114191 298.78818276288024 504.593365034787 291.6605085989466 C 504.1173886251215 278.7842281821149 504.5772465687407 278.0 512.6036527754834 278.0 C 518.881159510106 278.0 519.5 277.2187451617149 519.5 269.2937102150984 L 519.5 264.5 L 512.7075096282234 264.2033415141214 C 506.55640165598516 263.93469507111695 505.8274331416101 263.676314088352 504.9874480568658 261.46698588767435 C 504.47728389709624 260.1251524603617 504.11665994812586 257.5168532015094 504.18606150359824 255.67076531244706 C 504.3681194020532 250.82800812698747 503.46453335664313 250.0 497.9976869742741 250.0 C 492.0888773776817 250.0 490.0 252.25793397955195 490.0 258.6449541605334 C 490.0 262.6185126267371 489.79786932911304 262.909488954368 486.25 264.0432503410568 C 484.1875 264.7023453197973 482.14095655994987 265.5687871971398 481.70212568877747 265.96867673515123 C 480.48119242562353 267.08126582269904 482.99940946301166 272.03821472057103 487.12015346116834 276.6337172762351 L 490.8268189345947 280.7674345524702 L 490.2803185007823 288.740709403114 C 489.50756118506536 300.0150032368349 490.635851678983 307.75172682325336 493.43601525196107 310.3794217897231 C 494.6788844828313 311.5457398053754 496.22461488953695 313.5023252583825 496.870971711307 314.7273894630722 C 497.51732853307703 315.95245366776186 499.498278597848 317.3743689475291 501.2730829663535 317.8872011958882 C 505.4326158897694 319.0891041543734 518.0875590073458 319.2306010498008 519.8801236005359 318.09524942323833 Z" fill="rgb(254,254,254)" stroke="none" /><path d="M 599.5787770454704 317.7541791788793 C 599.9891859070278 317.343977727263 599.9143556060706 314.4654155985162 599.4124874877875 311.3573744483309 L 598.5 305.7063905389032 L 588.8774621393339 305.909228837357 C 581.1322057214377 306.0724949793709 578.9374192174022 305.79456207454507 577.6274621393339 304.48460499647683 C 576.7323579627002 303.5895008198431 576.0 302.63470205994554 576.0 302.3628299744821 C 576.0 300.72731841443584 578.4605169591038 297.81321771767665 580.9117321551664 296.5456450765254 C 582.9114593971943 295.51154593017907 583.9575194617548 294.0399777470892 584.4109353133827 291.6230634693568 C 584.9084090115367 288.9713006790886 585.7435008542702 287.9364644916159 588.0288475247685 287.13978835175243 C 589.6629813861458 286.5701262197406 591.0 285.42301945219873 591.0 284.5906622016595 C 591.0 283.7583049511202 592.7668276261539 281.3280274102724 594.9262836136753 279.19004544421995 C 598.7704313050272 275.38412465377786 600.630505078249 270.51246605538665 599.8288612136859 266.3498642303307 C 599.4945698412865 264.61402873234664 598.0556955411936 264.5 576.4863049569677 264.5 L 553.5 264.5 L 553.2394807474282 269.0 C 552.8613252012718 275.53195470547536 553.866812440795 276.52363808259554 560.7129050715907 276.3708251891411 C 563.8958072822159 276.29977904316877 569.0294770990652 275.91136719359605 572.121060220145 275.5076877456462 C 579.7605913194467 274.51016590134117 580.2191052261404 275.854492233275 574.4282489327124 282.27218167650756 C 571.8337872188818 285.1474817544284 569.0987133958513 288.95366404595165 568.3503071037558 290.73036454655926 C 567.6019008116601 292.5070650471668 565.7544155029125 294.7242488435923 564.2447841954274 295.65743964972705 C 562.7351528879423 296.5906304558618 559.5875 299.283101295463 557.25 301.64070818217414 C 553.2195620566594 305.705815455621 553.0 306.2305046191453 553.0 311.79696641233966 C 553.0 315.0253015522195 553.1877916150322 317.8541666666667 553.4173147000718 318.08333333333337 C 554.1715152155467 318.8363626772009 598.8145342179671 318.51803577797773 599.5787770454704 317.7541791788793 Z" fill="rgb(254,254,254)" stroke="none" /><path d="M 647.3706580190025 315.25 C 649.4050719596879 313.4625 651.70487969658 312.0 652.4813418787626 312.0 C 654.3683456698036 312.0 660.5340992131834 302.5064570262724 661.8986296738904 297.5 C 663.5607338058177 291.401746315453 663.3071691665393 282.49981719682995 661.4269120130139 280.9393423583176 C 660.5617136201715 280.22129146840587 659.0255170885085 278.02869134645687 658.0131419426518 276.0668976428754 C 657.0007667967951 274.10510393929394 654.1085209000312 270.78998955218884 651.5859288387321 268.6999767826419 C 645.5571669036653 263.7050393838621 638.4911371195526 262.3380771723151 626.7783807163215 263.90082055481014 C 618.9936146278671 264.93948227287063 618.2787914686811 265.2436900605903 614.7901252585058 269.00267074611236 C 612.7496941506839 271.20120183575057 610.6295389835775 273.0 610.0786693316024 273.0 C 609.5277996796274 273.0 608.5975146224044 274.78100009914255 608.0113692044403 276.9577779980945 C 607.4252237864761 279.1345558970465 606.5500368711023 281.16005851859313 606.0665093924986 281.4588949348648 C 604.1003090555042 282.67407357181867 603.7970421640139 291.8717944356721 605.5467913823468 297.2213184615556 C 607.3761656751489 302.8142809439174 611.727928677799 311.0 612.8719336372285 311.0 C 613.2469731497778 311.0 616.0014747846625 312.8391296784225 618.9930483814164 315.08695484093903 L 624.4322731027875 319.173909681878 L 634.05199834209 318.83695484093903 C 643.2664921381731 318.51419424080177 643.827541393569 318.3630935751592 647.3706580190025 315.25 Z" fill="rgb(254,254,254)" stroke="none" /><path d="M 684.234687225483 316.61471234183443 C 684.6387651994986 316.0016205538255 684.9762651994986 309.81393811372476 684.984687225483 302.86430691938835 C 684.9958837962936 293.6251953422382 685.4015566666538 289.4586638375727 686.4938392584252 287.36430691938835 C 687.3154508505589 285.7889381137248 687.9904508505589 283.70136211882135 687.9938392584252 282.72524915293627 C 688.0019509372773 280.38848356406885 691.8843284761547 279.0 698.4101120990624 279.0 C 707.4039662905387 279.0 709.1670211683045 282.75628673710486 709.6452449292401 302.9370770427122 C 709.8860762362491 313.1000310880487 710.3592958608175 317.6175733536588 711.2436800192481 318.19637252212794 C 711.9346560086617 318.64859266231485 714.975 318.90190799309437 718.0 318.75929547941575 L 723.5 318.5 L 723.5607385061319 301.0 C 723.6541738072294 274.07938779962046 720.5667076365594 266.6129972523796 708.1964363353709 263.84465184348005 C 703.9485366303965 262.8940135462746 701.245377896314 262.8937855663019 695.7064957231867 263.84359846238044 C 691.8186835042108 264.5102842787046 688.0635843782093 265.53226650943714 687.3618309987389 266.1146700862305 C 686.4430935805706 266.87715442065434 685.4517250986598 266.72938124789766 683.8204516382638 265.5867928402001 C 681.3996595268466 263.89120404340855 673.4124857131511 263.45244747775024 671.1431077130125 264.8903928353855 C 670.1663100072019 265.5093208968778 670.0016767025057 266.69554745503655 670.5553864657595 269.12508006086847 C 670.9784305376135 270.9812860273908 671.2432768552243 282.54211396342 671.1439338382279 294.8158088076 C 671.0445908212316 307.08950365178003 671.239796920015 317.5789825726069 671.5777251688577 318.12576196499305 C 672.3752133364123 319.4161249257224 683.2434900510382 318.1186172488765 684.234687225483 316.61471234183443 Z" fill="rgb(254,254,254)" stroke="none" /><path d="M 805.3654005674673 317.72207992609833 C 806.7605135492701 316.70194840715453 807.0512255693156 315.2394414306902 806.8065302025723 310.47207992609833 L 806.5 304.5 L 791.2963128178142 304.0 C 782.4680521984877 303.70966711845824 775.6433185742482 303.0491467768916 775.0211484658078 302.42483564799363 C 772.6952731895661 300.0909565373012 771.5986753486545 264.41536549354953 773.5135953285385 253.37964588432294 C 773.9403127891377 250.92046518904363 773.8273610033306 249.01133722102452 773.2334311085908 248.64426835914065 C 771.9800530483548 247.86963811716146 759.1138038950264 247.55286277164114 758.3879047337409 248.27876193292573 C 758.0919061103509 248.57476055631543 757.9960371993269 258.1956294673393 758.1748627092431 269.6584706240899 C 758.3536882191595 281.1213117808404 758.5 296.575 758.5 304.0 L 758.5 317.5 L 771.0 318.0473011504671 C 795.7062447601272 319.12904164494233 803.5426871716177 319.05488050165064 805.3654005674673 317.72207992609833 Z" fill="rgb(254,254,254)" stroke="none" /><path d="M 448.20106689132604 294.75 C 448.3116536815553 281.9625 448.47212317789445 266.775 448.5576657720797 261.0 C 448.72292092258317 249.84358718311822 447.3346366247944 244.0 444.5189080154418 244.0 C 442.12284210457966 244.0 436.66592343651314 246.49011128951744 435.20719204758234 248.24913957249106 C 433.2361814065287 250.62590577493543 433.3776875200503 303.78457868994855 435.35924953889435 305.37157932982564 C 436.66826539695205 306.41994873971095 437.243314463683 308.1336251534206 438.6740973956506 315.25 C 439.1763369355677 317.7480203138908 439.6289292833096 318.0 443.6134993589932 318.0 L 448.0 318.0 L 448.20106689132604 294.75 Z" fill="rgb(254,254,254)" stroke="none" /><path d="M 472.3623104128066 315.25 C 473.3780676334144 313.2740572671849 473.9401414048633 306.7297549173488 474.3591947998053 292.0 C 474.6799623247563 280.725 475.2221351368297 270.10090683854077 475.5640232710797 268.3909040856462 C 476.09812379018985 265.71952340142167 475.8558034079627 265.1935006297873 473.8428190303125 264.6545587689386 C 469.56570640251965 263.50943560540316 461.0039890709612 263.9047769638994 460.94763516365646 265.25 C 460.9188345036675 265.9375 460.96108171926437 272.35 461.0415178649829 279.5 C 461.12195401070136 286.65 461.1916842313696 297.675 461.1964739109124 304.0 C 461.2012635904552 310.325 461.66411649680725 316.0625 462.2250359250282 316.75 C 462.7859553532491 317.4375 464.97823324313117 318.0 467.09676456921056 318.0 C 470.28943545822835 318.0 471.1905732340845 317.5293690422203 472.3623104128066 315.25 Z" fill="rgb(254,254,254)" stroke="none" /><path d="M 543.133368636039 316.25 C 543.3350158862175 315.2875 543.5 303.25 543.5 289.5 L 543.5 264.5 L 536.5 264.5 L 529.5 264.5 L 529.5 291.2497784625381 L 529.5 317.9995569250761 L 536.133368636039 317.9997784625381 C 541.6446345348375 317.99996252465286 542.8287567496062 317.70396944630784 543.133368636039 316.25 Z" fill="rgb(254,254,254)" stroke="none" /><path d="M 625.9944163461762 298.1525913518621 C 619.6374034838334 291.9514785427228 618.7640981801394 289.7318020980511 622.0 288.0 C 623.2935419708002 287.3077173463052 624.0 285.90617664403203 624.0 284.0322039120691 C 624.0 280.45740389924845 626.0479727304015 279.6496631736146 634.8128723936616 279.76749996177267 C 642.3054986749265 279.86823209217613 645.4681446435001 281.5907232175002 646.3614549561134 286.0572747805673 C 648.078711503708 294.6435575185395 645.8541710723027 299.90950447384887 639.3642184061937 302.6211798395344 C 633.9822064713112 304.8699280095879 632.3064686416161 304.30984621177834 625.9944163461762 298.1525913518621 Z" fill="rgb(254,254,254)" stroke="none" /><path d="M 872.3695844392948 301.2039375774609 C 870.7574442172156 296.043284801635 869.9421560864648 295.0 867.5214387911499 295.0 C 865.0838151742755 295.0 865.0 294.78311068614056 865.0 288.47524915293627 C 865.0 282.2966137418508 865.1458779762247 281.89084706459454 867.75 280.82599056481354 C 872.3140580895846 278.95969287303853 882.2208598417849 278.7217918971821 884.3803395405885 280.4266312050029 C 887.0973966672416 282.57165984022436 887.8789893304445 294.3995419207219 885.5954769294449 298.8153679775575 C 884.6897164573954 300.5669155899009 883.622695773341 302.0557276755256 883.2243198537684 302.1238392789458 C 882.8259439341958 302.19195088236603 880.3404227271402 302.39622279222345 877.700939393645 302.5777768564068 C 873.8704187597048 302.84125515922636 872.7944518561857 302.56398875930415 872.3695844392948 301.2039375774609 Z" fill="rgb(254,254,254)" stroke="none" /><path d="M 145.35573299436538 270.2274383169771 C 139.11445607114155 269.9559309238916 138.14319083842616 269.6555645654474 137.67128740523657 267.85100306476886 C 137.37418918431476 266.7148977226825 137.53898572734164 264.7125594275392 138.03750194529633 263.4013624088948 C 138.53601816325101 262.0901653902504 138.69504578787289 260.3688769983826 138.39089666667826 259.576277093633 C 138.04065583245233 258.663564110092 138.9370373380351 257.56679945286885 140.83567614073306 256.5849751701237 C 142.75353047087515 255.59321415195333 144.06637821640527 253.97426704889654 144.4800322071168 252.09091276550188 C 144.83565021170313 250.47179459614043 146.22312305788716 248.42859885913842 147.5633051986369 247.5504777943863 C 149.00356037302186 246.60678635962492 150.0 244.9910654591719 150.0 243.59939173558794 C 150.0 242.30441546800097 150.675 240.6846891869864 151.5 240.0 C 152.325 239.31531081301358 153.0 237.69378410376135 153.0 236.39660731277274 C 153.0 234.62890701138622 153.68887253886996 233.89494358986218 155.75 233.46660314610625 C 159.45791755116295 232.6960292348719 166.9245889756877 228.8561144748855 168.34794619585253 226.9878073356896 C 168.98157578813363 226.1561013703189 171.64395804443993 224.9186013703189 174.2643512098665 224.2378073356896 C 180.1384644946686 222.71167708325518 198.62196589907853 222.57931098142762 199.53512624394125 224.05683545659403 C 200.81837643375155 226.1331778797769 198.95772341840703 229.82739205221753 195.6439246536161 231.7825811728855 C 193.74970377353293 232.90019884364784 191.98989531987039 234.90412424246463 191.62464167708282 236.35941067097326 C 191.2672878970149 237.78322153933357 189.85420960386992 240.5995984003328 188.48446769231614 242.6180259176382 C 187.11472578076237 244.63645343494358 185.50016161981702 248.13561795146356 184.89654733465977 250.39394706546037 C 184.29293304950255 252.65227617945717 183.39427678254887 255.53367385950662 182.89953340809603 256.79705302112586 C 182.40479003364322 258.06043218274505 182.0 259.9031877797946 182.0 260.89206545901374 C 182.0 261.88094313823285 181.1 263.5045136816767 180.0 264.5 C 178.9 265.4954863183233 178.0 267.0998346240022 178.0 268.06521845706425 C 178.0 269.5604180366491 176.7777415676698 269.8876010917828 169.75 270.2736386515619 C 161.1114384934988 270.74815940219867 157.15349715211414 270.7406634518511 145.35573299436538 270.2274383169771 Z" fill="rgb(254,254,254)" stroke="none" /><path d="M 198.03247942646485 268.0606883634821 C 197.34657356670135 266.7790615411336 197.33281790395952 265.91234121203837 197.99191817851067 265.5049948403714 C 200.5365124073772 263.9323491193551 200.89229065375483 261.2694194625536 199.0236227939905 257.78289028341095 C 197.14241209429596 254.27295888370912 197.14368861517693 254.2534848837696 199.5689992791851 249.46288408691152 C 200.9060496756333 246.8218720344273 202.0 244.1169032480032 202.0 243.45184233930246 C 202.0 242.78678143060174 203.3113961030679 241.69944263558534 204.9142135623731 241.03553390593277 C 206.5170310216783 240.37162517628016 208.3474459630807 238.57540480611186 208.9818023210451 237.04393308333658 C 210.6551510070169 233.00411199108427 216.04189199122925 230.92763704235156 220.45519769303726 232.62118134222405 C 221.34552263926707 232.96283108044727 222.76119161202274 234.5713021180833 223.60112874360541 236.1955614258597 C 224.4410658751881 237.81982073363608 226.4046735994716 239.59371087474284 227.96470146423545 240.13753951720804 C 230.12813704314212 240.8917172216658 230.95857597586573 241.96565395729513 231.4647658665297 244.66387804804296 C 232.22297516943343 248.70548109989477 234.7818654900295 254.72127592672163 236.77669780725012 257.15190554661837 C 237.55450471209875 258.0996345788608 237.99763077287957 260.444181963544 237.81621330188955 262.65190554661837 C 237.52732706319588 266.16744877687665 237.19753100007486 266.5587917354452 234.0 267.1803046729058 C 222.36159412184128 269.44249378835855 217.36425422481244 270.0 208.72498841929206 270.0 C 200.1945331699674 270.0 198.94951780627204 269.77419025000796 198.03247942646485 268.0606883634821 Z" fill="rgb(254,254,254)" stroke="none" /><path d="M 472.941533170198 255.53023437272702 C 475.5281539566034 254.19264077949728 475.7620546971691 253.63059524145942 475.54253171853486 249.28023437272702 C 475.1919499550266 242.33263738426342 475.2268646524576 242.42439649375652 472.45294697887414 241.1605150203081 C 466.28492722906503 238.35017714911348 460.46111331837375 240.57383938895728 458.9108162901889 246.3312030129615 C 457.51551487742427 251.5129568654981 458.7863541012945 254.3292160882362 463.1495194206294 255.72443431974952 C 467.89033519775137 257.24041460479054 469.70396523749173 257.20444581771125 472.941533170198 255.53023437272702 Z" fill="rgb(254,254,254)" stroke="none" /><path d="M 543.25 254.82571080976328 C 545.5289394289119 253.65879182107778 545.6558898309962 245.38142639320068 543.4432960313509 242.22250624340543 C 540.9393026729599 238.64755494595389 529.6736604999403 239.3021232114022 528.4706535215548 243.09246256602736 C 527.4356644553962 246.3534243555702 527.7170739672853 252.95416869857664 528.9546620334561 254.44537109230046 C 530.9539967143164 256.85442200629217 538.8763729488412 257.06520361535416 543.25 254.82571080976328 Z" fill="rgb(254,254,254)" stroke="none" /><path d="M 180.5 353.60228748976306 C 179.95 353.3948424629923 176.8 352.6432668051567 173.5 351.93211936123953 C 167.34819587362915 350.60641033701296 154.94077746562542 345.1613670293305 151.99305271640367 342.49371279475486 C 151.08525898363916 341.67217075763966 149.94722564133912 341.0 149.46408973351464 341.0 C 148.0996652827996 341.0 133.0 324.97858360845805 133.0 323.53086858628416 C 133.0 322.82358005081426 132.3688067764075 321.72104558228693 131.59734839201667 321.08079198955676 C 129.41755856565356 319.2717271119643 125.01665821975925 309.36217386338996 122.23522454734045 300.0 C 120.12029356648011 292.8812425950587 119.71100267018693 289.4687608896195 119.71649783637903 279.0 C 119.7212257899728 269.99284463109336 120.17682643750399 265.2425759328064 121.34697634190513 262.0 C 122.24013075784082 259.525 122.97744243288584 256.881270537954 122.98544673089408 256.1250456398977 C 123.00812144596158 253.98279855305427 128.0757163491759 243.05630031894898 131.72676935620984 237.2774368524086 C 135.22138937940662 231.74617451724507 145.43841104485827 220.94143031959103 150.5609755183145 217.35981443651988 C 156.63829888484457 213.11064626910834 165.67344813485184 209.19708633337095 174.5 206.9906656244971 C 181.959129636352 205.12606681498843 185.12647427273956 204.84115127119645 193.0 205.3265153139822 C 202.97695482770447 205.94154539041918 213.24415781054688 208.2324734316406 213.82435605271576 209.97306815814724 C 214.01262689038876 210.53788067116628 215.02916666666667 211.00000000000003 216.08333333333331 211.0 C 217.1375 211.0 218.0 211.45 218.0 212.0 C 218.0 213.53450763891618 220.5916158515536 213.19734039779462 225.26089841557044 211.0553626667416 C 230.6845471145499 208.5673284612737 244.47277098713437 205.36224643350442 253.60457474372083 204.46685580467272 C 268.79306981620635 202.9775951376165 286.1448063333863 207.85811664099245 302.60181849412896 218.24830652536895 C 310.6081770575209 223.30314788682125 322.79813307973103 237.27452423024891 325.9425373295215 245.0 C 326.5021864660045 246.375 327.7087185409234 248.85 328.6237197182301 250.5 C 330.3406519311291 253.5961032854865 330.9136180056724 255.636508221599 333.37466321071764 267.4187129639215 C 336.3712483696661 281.7648045343469 332.6812014557773 302.4625092293428 324.8917331480046 315.0 C 324.3791655639907 315.825 323.2903910106096 317.9562984974226 322.4722341404911 319.73621888316137 C 320.7158854308299 323.55719868174106 303.6569150771304 341.0 301.67636511342175 341.0 C 300.92485061936304 341.0 299.4954863183233 341.9 298.5 343.0 C 297.50451368167666 344.1 296.24069043175064 345.0 295.69150388905325 345.0 C 295.14231734635587 345.0 292.2485387996124 346.1564072091543 289.26088489629 347.56979379812066 C 279.01998483890867 352.4145151977284 268.8020961395502 354.33505242910456 256.5 353.72747480516693 C 250.45 353.4286765692301 242.4391099499413 352.36742057582916 238.69802211098067 351.36912815316487 C 232.11105047857964 349.61142447124394 231.90558955371029 349.4610272278201 232.19802211098067 346.61113301186833 C 232.3726896912626 344.9089144510961 231.9730147745633 343.49222688079345 231.25 343.25077416801105 C 230.5625 343.0211817089383 230.0 343.37331744711577 230.0 344.03329803062763 C 230.0 344.7677615629379 229.168361758179 345.0157844422888 227.85621045408251 344.6726491681325 C 226.60459180454563 344.3453435387381 223.79547578751993 345.0818732430897 221.10621045408251 346.44244987206963 C 212.83543027588834 350.6268752889168 202.14951647232516 353.21333307168317 191.5 353.60844567316315 C 186.0 353.8125036990639 181.05 353.8097325165338 180.5 353.60228748976306 Z" fill="rgb(183,171,190)" stroke="none" /><path d="M 179.97202503935324 353.0726676632935 C 157.19563777095414 349.9337461923962 137.26580054276667 334.6725402739216 126.9875710740268 312.5 C 121.28077349332422 300.18910544582735 119.77994400882959 293.3493468997687 119.75446279585414 279.53641907937475 C 119.71936761104082 260.51192228101144 124.69341840646764 245.7951008897031 135.9268086018731 231.6869831780608 C 142.89146594077909 222.94000618809324 148.512282379106 218.24269989178708 158.15882215939132 213.10772900580076 C 169.208895702359 207.22563996418282 175.64046335258075 205.65399248045213 189.0 205.571236787327 C 200.73353324192232 205.4985533775749 214.0 208.11440694427012 214.0 210.5006833656755 C 214.0 211.06479687833902 211.41338955937692 213.545416830788 208.25197679861537 216.01317214889548 L 202.50395359723075 220.5 L 192.4990111545946 220.15025027440242 C 185.20918422390895 219.895414728543 180.8666089740362 220.262579681581 176.49703435597922 221.50321820741658 C 161.41890711322415 225.78429982060376 148.14728281407963 236.961033277094 141.2184626142711 251.21316057733105 C 137.35633692976538 259.15729901905473 134.420805969094 268.7624179072821 135.1690205936397 271.00706178091906 C 135.40284144788637 271.7085243436591 142.12610097611667 272.0866480390809 154.88989001898094 272.116185709979 C 165.54124519071775 272.1408348343593 174.873392506703 272.3979217441979 175.62799516561483 272.68748995406486 C 176.58932288349365 273.05638601224075 177.0 275.095549367732 177.0 279.4999999999998 C 177.0 284.52325717137194 176.65436107097102 285.91865649350893 175.27941567249573 286.44627254812985 C 174.33309429236837 286.80941013420414 164.9955942923684 287.03715226543864 154.52941567249573 286.9523661730954 L 135.5 286.79820964156227 L 135.74264422359627 291.4008725924174 C 136.46435814506233 305.0908994070478 150.5880152582947 325.2378082138863 164.75806322392992 332.7903651229499 C 173.72321706303737 337.568742354458 179.3608537531501 338.9784836331587 189.5 338.9773068337203 C 202.858338455681 338.9757563989195 210.96588271861148 336.33175567642127 222.0662691223104 328.35692212831054 L 226.9533361417538 324.8459140785785 L 231.72666807087688 329.44716975323036 L 236.5 334.04842542788214 L 231.88893516122283 338.3108357377601 C 226.21221002336893 343.5583290175008 216.96766097443623 348.5784665497664 208.54631722477802 350.98675446389973 C 200.96081578558218 353.1560129553842 187.6352578533794 354.12877396026556 179.97202503935324 353.0726676632935 Z" fill="rgb(10,25,59)" stroke="none" /><path d="M 373.23687236791403 282.75 L 373.5 248.5 L 398.5 248.5 L 423.5 248.5 L 423.79920939199604 254.2267252572712 L 424.0984187839921 259.9534505145424 L 406.29920939199604 260.2267252572712 L 388.5 260.5 L 388.5 268.0 L 388.5 275.5 L 403.75 275.77604606942714 L 419.0 276.0520921388542 L 419.0 282.02604606942714 L 419.0 288.0 L 403.5 288.0 L 388.0 288.0 L 388.0 296.5 L 388.0 305.0 L 406.5 305.0 L 425.0 305.0 L 425.0 311.0 L 425.0 317.0 L 398.98687236791403 317.0 L 372.97374473582806 317.0 L 373.23687236791403 282.75 Z" fill="rgb(7,23,57)" stroke="none" /><path d="M 861.3149340051409 315.5663202239898 C 855.3096795350342 312.770302445495 849.7298028602113 305.9264868394454 848.0585865510911 299.3071799468222 C 842.5412785153165 277.4543803357648 859.3874044671504 258.6100862622951 879.2725374974232 264.390851260374 C 882.278735163083 265.2647766304732 885.3023224840636 266.65935002102054 885.9916204329354 267.4899032393681 C 888.4736393984747 270.4805531364148 889.1360392978193 268.9380333226273 888.8859179242509 260.75 C 888.7473100696112 256.2125 888.7162753233931 250.5875 888.816951821544 248.25 L 889.0 244.0 L 895.5 244.0 L 902.0 244.0 L 902.0 280.5 L 902.0 317.0 L 895.5 317.0 C 889.2333333333333 317.0 889.0 316.9102564102564 889.0 314.5 C 889.0 311.60843093704904 887.831479549709 311.2926852921003 885.8724447154422 313.6549039983087 C 881.8313913631218 318.5276360471033 869.7027737094128 319.4716582996786 861.3149340051409 315.5663202239898 Z" fill="rgb(163,20,117)" stroke="none" /><path d="M 879.2821186308964 304.6288786211859 C 884.9033222701146 302.2337149714624 887.3232626906506 298.6790422533541 887.7976798131238 292.12029255974034 C 888.5375020945937 281.8923540388394 883.9503889534772 275.98117897299807 875.2996599268843 276.014741802397 C 873.2098469670979 276.0228497937154 870.3885068936519 276.591905712984 869.0300153192264 277.27931051188284 C 859.6539472557106 282.02365659617027 859.6344192469585 299.56981393979055 869.0 304.24844600092075 C 873.2210551105925 306.35709940885835 875.065961170496 306.42535989793726 879.2821186308964 304.6288786211859 Z" fill="rgb(163,20,117)" stroke="none" /><path d="M 621.4790467684213 315.64235477579416 C 616.0725965382204 313.124732987859 610.7642770035873 308.3909775351523 608.5849343132206 304.1438805893041 C 607.8387641526422 302.68974626518684 606.6798566276921 298.8395620376732 606.0095842577759 295.5879156392738 C 603.4960094908453 283.39398268777614 609.9232096620519 270.8797331090033 621.2123245539879 265.9870192489034 C 632.367624177933 261.15230106186186 647.0115256880676 263.8428341224085 654.4689155231785 272.0972732288115 C 659.6291921441411 277.8090825993483 661.2948026347257 282.36960778355035 661.3726335685935 291.0 C 661.4311430019179 297.4879005410422 661.0439978733657 299.22271368195925 658.5037569592413 303.8555533171376 C 653.1767329291783 313.57087123316705 645.192757748679 318.0082485094856 633.0718611680918 317.990231084296 C 628.2970303818394 317.9831334116187 625.127054760872 317.34112273134684 621.4790467684213 315.64235477579416 Z" fill="rgb(10,26,59)" stroke="none" /><path d="M 639.4732049067997 304.5756423719919 C 648.5697705816744 300.7748545508864 649.5119040917951 284.0610103213026 640.9723428038143 277.9803063392477 C 634.8757302529424 273.6391352925208 624.3105236648821 276.61922746808085 621.4398243972242 283.48977790398203 C 615.8317934974555 296.9116850946953 626.8846714191129 309.83546750552927 639.4732049067997 304.5756423719919 Z" fill="rgb(10,26,59)" stroke="none" /><path d="M 197.50325016233 286.2707587303473 C 193.8166558798928 285.7156640875635 193.03491300578045 284.56837767521176 193.01531277451704 279.68425854591067 C 192.98334869684982 271.7192319558002 192.00939716015432 272.0 219.6711077403732 272.0 L 244.27184796377043 272.0 L 243.66720731090618 267.58866550266237 C 242.1997720540836 256.88255809760165 234.02975059126646 241.94772602659907 225.1083293749342 233.66296204381214 C 219.1481819723971 228.1281472048665 219.19687669627643 227.92546134270407 227.5499532022685 223.5 L 233.21246555463364 220.5 L 239.35623277731682 227.12835682792507 C 247.1670502265215 235.55525245964165 251.45553009409093 242.72914466909558 255.23229943337574 253.6862968014717 C 258.66974745808346 263.6590109310009 261.1173261116312 282.94877810940153 259.23330603893123 285.2188834207161 C 258.38476920492184 286.2413077577192 251.7898193240227 286.5516111012361 229.3223798081428 286.62624217017117 C 213.47007091366427 286.67889947262205 199.1514625730485 286.5189319247013 197.50325016233 286.2707587303473 Z" fill="rgb(11,27,61)" stroke="none" /><path d="M 715.25 317.20228259435316 L 709.0 316.90456518870633 L 709.0 300.90262266746896 C 709.0 283.8140956249649 708.3112244103979 280.732252528975 703.78320502064 277.56070429370186 C 700.9555970249709 275.5801705599035 695.7498377965886 275.56088351306494 691.967266977106 277.51692690399005 C 686.6153228709783 280.2845247618996 685.6136579257713 283.78747868149145 685.180826758938 301.25 L 684.7904426469713 317.0 L 677.8786179168425 317.0 L 670.9667931867136 317.0 L 671.2333965933568 290.75 L 671.5 264.5 L 677.7653766937597 264.2018834687987 L 684.0307533875194 263.9037669375974 L 684.6474663135782 266.987331567891 C 685.1959595217846 269.7297976089232 685.4431496892294 269.91438693634524 686.8820896198184 268.65603715357196 C 690.6828627525338 265.33226946580965 695.6096868699598 263.7066768353484 701.9832304682323 263.6734555371687 C 712.2235533774309 263.62007913586586 718.7474809266358 267.9680960221856 721.8276682191388 276.89922326522657 C 723.1296191628797 280.67428251926884 723.506952904062 316.67308992764623 722.25 317.19098300562507 C 721.8375 317.36094235253125 718.6875 317.3660271674589 715.25 317.20228259435316 Z" fill="rgb(7,23,57)" stroke="none" /><path d="M 553.8940374093154 315.25 C 553.567397872863 309.8554623136422 554.5048335237009 307.1687488657312 558.3357509477073 302.5199406250447 C 560.6109658752254 299.7589732812701 562.7200632722855 297.275 563.0226340522855 297.0 C 564.6601358246306 295.51171026033984 580.0 276.1696385842376 580.0 275.5931983961518 C 580.0 275.2176928308002 574.3483284648376 274.97893574340526 567.4407299218612 275.0626270908297 C 560.5331313788848 275.1463184382542 554.732426299879 275.0539647122184 554.5502741907371 274.857396588528 C 554.3681220815953 274.6608284648376 554.452046785331 272.1375 554.7367735323724 269.25 L 555.2544585269928 264.0 L 577.1272292634965 264.0 L 599.0 264.0 L 599.0 268.55338246209544 C 599.0 273.4876955820059 599.1831056094541 273.2175396574156 580.6472381665235 295.6312385512231 C 576.4939529146143 300.6534197543957 573.374253087729 305.0409197543957 573.7145718845563 305.3812385512231 C 574.0548906813838 305.7215573480504 580.1083333333333 306.0 587.1666666666667 306.0 L 600.0 306.0 L 600.0 311.5 L 600.0 317.0 L 577.0 317.0 C 555.8022714631179 317.0 553.991696810724 316.86287064954536 553.8940374093154 315.25 Z" fill="rgb(9,24,58)" stroke="none" /><path d="M 758.0 282.45619044727937 L 758.0 247.9123808945588 L 765.25 248.2061904472794 L 772.5 248.5 L 772.7655313556515 276.7253031512852 L 773.0310627113032 304.95060630257035 L 789.2655313556515 305.2253031512852 L 805.5 305.5 L 805.7999038559878 311.25 L 806.0998077119758 317.0 L 782.0499038559878 317.0 L 758.0 317.0 L 758.0 282.45619044727937 Z" fill="rgb(162,19,115)" stroke="none" /><path d="M 861.429136551174 315.6192310350016 C 851.5215464852779 311.0057938248433 846.3950299320031 301.26815082900225 847.2155254133772 288.6209624244845 C 847.7237986358122 280.7863949575919 849.5836812097072 276.243337171699 854.3619530962702 271.16468083887054 C 858.385495928078 266.8881993475955 861.9720871779052 265.0419677546703 868.1549982806173 264.0645810482371 C 874.6247163225885 263.0418562664073 881.5040484707865 264.3843415997346 885.5303291890241 267.4553356162303 C 888.307895599433 269.57388879811543 888.8407979047734 270.7143828214572 889.3858894703129 275.706835775598 C 889.7337731142917 278.8930760990191 890.2928166262716 283.7411100574014 890.6282083858239 286.480244572003 C 890.9636001453762 289.2193790866047 890.6643283454652 294.61937908660474 889.9631599415771 298.480244572003 C 889.2619915376891 302.34111005740135 888.6071145601095 306.71511788319776 888.507877769178 308.20026196266167 C 887.9315747307355 316.8250173329788 872.8766516250327 320.94972933522666 861.429136551174 315.6192310350016 Z" fill="rgb(162,21,118)" stroke="none" /><path d="M 879.9305440765406 304.5359170539104 C 881.4877173990654 303.7306714335611 883.9403704319675 301.67114505668656 885.3808841496565 299.9591917719669 C 890.2952661447066 294.11878060789235 888.254258760628 280.3471777100694 881.9763641329628 276.9873504678439 C 878.9111225165527 275.3468829388998 869.7572087198677 275.84910334286405 867.4692429941113 277.78326928470574 C 863.3126191821179 281.2971332030774 862.0 284.29447042747216 862.0 290.27216617028967 C 862.0 297.20466526881336 863.9003553556397 301.35874892661906 868.2985485148422 304.0404844880994 C 872.1143630613316 306.36712299507906 876.0640676876814 306.5353497010513 879.9305440765406 304.5359170539104 Z" fill="rgb(162,21,118)" stroke="none" /><path d="M 500.05794360191317 315.81189673430583 C 492.9502050873883 312.1126286504727 491.67652611603614 308.5267365811138 491.1728550973105 290.7969839338061 L 490.7524988678546 276.0 L 487.48323823811165 276.0 C 483.8395015219786 276.0 483.385918375087 275.26840570520943 483.45328546812823 269.5 C 483.49891153288667 265.59320158586246 483.59320158586246 265.4883498017672 487.5 265.0 L 491.5 264.5 L 491.22509038297125 259.5 C 491.0738900936054 256.75 491.29889009360545 253.9977455743882 491.72509038297125 253.38387905419603 C 492.15129067233704 252.77001253400385 495.12611675081223 252.05478743829295 498.3358150018049 251.7944899526163 C 503.8517657045025 251.34716189036473 504.22428587485183 251.45971723369868 505.1323184086123 253.84802378866647 C 505.66069703136367 255.23776488417073 505.95958028055145 258.20298997988164 505.79650340680735 260.4374128902462 L 505.5 264.5 L 512.3006350043311 264.7968441441343 L 519.101270008662 265.09368828826865 L 518.8006350043311 270.2968441441343 L 518.5 275.5 L 512.25 275.79771740564684 L 506.0 276.09543481129367 L 506.0 289.39272984353477 C 506.0 305.1866862570017 506.63731918685914 306.4121188117945 514.5536902130541 305.8397012619645 L 519.251661525387 305.5 L 520.5932274168308 309.9968890601483 C 522.4452105350347 316.20468151890464 521.1275830102355 317.36409126885286 511.7328527737474 317.7933296748441 C 505.7092348564944 318.0685444056577 503.75734843510475 317.737275699871 500.05794360191317 315.81189673430583 Z" fill="rgb(12,27,59)" stroke="none" /><path d="M 822.318860070239 315.9823247083432 C 815.1605412123229 312.34731491549803 814.5679554623345 310.6745747947034 814.0 292.5 L 813.5 276.5 L 809.5 276.0 L 805.5 275.5 L 805.5 270.5 L 805.5 265.5 L 809.5 265.0 L 813.5 264.5 L 813.7977174056468 258.25 C 813.9614619787526 254.8125 814.4114619787526 251.97754530936498 814.7977174056468 251.95010068747777 C 815.183972832541 251.92265606559056 818.2 251.81015606559055 821.5 251.70010068747777 L 827.5 251.5 L 827.7956899107763 258.25 L 828.0913798215527 265.0 L 834.5456899107763 265.0 L 841.0 265.0 L 841.0 270.5 L 841.0 276.0 L 834.5 276.0 L 828.0 276.0 L 828.0 289.34501243788793 C 828.0 305.20250546351946 828.6288507903929 306.41142481645375 836.5801406678859 305.8397012619645 L 841.3045624350506 305.5 L 842.7683526460967 309.8482142857143 C 844.8355085405979 315.98873683016035 843.2738903840951 317.36032289412077 833.7328527737475 317.7841912428373 C 827.9048968380952 318.0431029209717 825.687862597138 317.6931114755259 822.318860070239 315.9823247083432 Z" fill="rgb(162,20,117)" stroke="none" /><path d="M 888.4227892763768 311.0203211020664 C 887.9868422709868 307.16705894783735 887.1751446597989 304.6377679704006 886.1992382896171 304.0916233072666 C 884.8313560451144 303.32611791611754 884.8575093743063 302.8200491698338 886.4369650781373 299.4915933477333 C 887.7617557740334 296.69980419269416 888.1135001342809 294.01445911687125 887.8244516016109 288.89901383641194 C 887.4735279577083 282.6885318754051 887.1144576042077 281.71330476450015 883.992941523311 278.4927175002337 C 881.2520631394749 275.66484867395815 880.7624936243874 274.6000786370987 881.5957641535263 273.2790704946032 C 883.0588720207237 270.9595627977277 885.0 270.50854110870074 885.0 272.4880952380953 C 885.0 273.944123543807 885.1765765366804 273.96628060617684 886.4702703899588 272.6725867528984 C 887.5854578680095 271.5573992748476 888.0080978804065 267.97789712903597 888.2202703899588 257.8511581814697 L 888.5 244.5 L 895.5 244.5 L 902.5 244.5 L 902.5 280.5 L 902.5 316.5 L 895.8046846748105 316.7944433645052 L 889.1093693496208 317.08888672901037 L 888.4227892763768 311.0203211020664 Z" fill="rgb(166,25,120)" stroke="none" /><path d="M 888.8533960826142 308.29568991077633 C 888.772763928052 303.4580604598493 888.6108395263968 295.45 888.4935640789361 290.5 C 888.3762886314753 285.55 888.717510681436 280.94334369345364 889.251835301071 280.2629859854526 C 889.7925279787281 279.57451980331217 889.8884050147673 277.8007393094582 889.468044773148 276.2629859854526 C 888.574466276471 272.9941152230033 887.9763669503707 248.80637683689645 888.7189024468917 245.96691673623124 C 889.1613855991371 244.27485856271034 890.1094194183025 244.0 895.5031320049677 244.0 C 901.7516987884991 244.0 901.7745489835816 244.01054516481148 902.2285294813163 247.1037120057333 C 902.4790699909328 248.8107536088866 902.6426447024797 265.1232536088866 902.5920288403095 283.3537120057333 L 902.5 316.5 L 895.75 316.79568991077633 L 889.0 317.09137982155266 L 888.8533960826142 308.29568991077633 Z" fill="rgb(166,23,119)" stroke="none" /><path d="M 435.0 280.45431008922367 L 435.0 243.90862017844734 L 441.75 244.20431008922367 L 448.5 244.5 L 448.7624741889538 280.75 L 449.02494837790755 317.0 L 442.0124741889538 317.0 L 435.0 317.0 L 435.0 280.45431008922367 Z" fill="rgb(7,23,55)" stroke="none" /><path d="M 462.66666666666663 316.33333333333337 C 461.8335610823527 315.50022774901936 461.77740494897876 267.7436483410708 462.6069888041843 265.5817874682359 C 463.35087393242225 263.6432538980243 472.94290819843894 263.34290819843926 474.7999999999999 265.19999999999993 C 475.670092226614 266.07009222661384 476.0 273.3555555555541 476.0 291.69999999999993 L 476.0 317.0 L 469.66666666666663 317.0 C 466.18333333333334 317.0 463.0333333333333 316.7 462.66666666666663 316.33333333333337 Z" fill="rgb(8,24,56)" stroke="none" /><path d="M 464.5 255.89548884809568 C 460.1573627913799 253.41120464449676 458.66627276613326 248.36060922412892 460.99232321998954 244.0143441946597 C 462.2533830145628 241.6580324146908 468.03083017132724 239.71864980077112 471.3257177633181 240.54561394471875 C 477.15284456416396 242.00812967310026 479.53131841020814 249.91312603423629 475.3902201341177 254.05422431032673 C 472.9513319299683 256.49311251447614 467.2343341917674 257.4597142055546 464.5 255.89548884809568 Z" fill="rgb(8,24,56)" stroke="none" /><path d="M 692.0 319.0589806390757 L 686.5 318.5 L 686.1948597177818 302.0 C 685.9370622508801 288.05999125072293 686.1510165929271 285.00395948677874 687.5738670260213 282.3028529527828 C 689.389037858514 278.85697439666296 693.2388100316101 277.0 698.5674357969909 277.0 C 706.8801190325325 277.0 707.7911664330904 279.23123166863996 708.0975008491764 300.3399304312969 C 708.2317587867755 309.59129172947075 707.9291605816069 317.4352705777668 707.4200721741424 317.9002996186626 C 706.0819613169223 319.1226028560207 698.345710095907 319.70391319994826 692.0 319.0589806390757 Z" fill="rgb(253,253,254)" stroke="none" /><path d="M 529.6681277488283 315.29383664365685 C 529.3961670418344 314.3072264896456 529.4720816454868 302.475 529.836826868056 289.0 L 530.5 264.5 L 537.0 264.5 L 543.5 264.5 L 543.5 290.5 L 543.5 316.5 L 536.8313008807723 316.79383664365685 C 531.1206735302349 317.04545866826106 530.0915621804413 316.8299582194716 529.6681277488283 315.29383664365685 Z" fill="rgb(8,23,55)" stroke="none" /><path d="M 462.0 290.45431008922367 L 462.0 263.90862017844734 L 468.75 264.20431008922367 L 475.5 264.5 L 475.7666034066432 290.75 L 476.0332068132863 317.0 L 469.0166034066432 317.0 L 462.0 317.0 L 462.0 290.45431008922367 Z" fill="rgb(6,23,56)" stroke="none" /><path d="M 627.0963988161111 303.735258197603 C 620.8512306001434 300.52574270647546 617.979805686911 289.90674669085143 621.5596350453418 283.25940589503807 C 623.7688340323424 279.15717165927106 629.4949026126175 275.9982595340854 634.7101619327036 276.00462746290975 C 645.759705434974 276.01811916145164 650.9827734307958 293.2172265692044 642.5102762701038 301.6897237298962 C 639.6664846497171 304.53351535028304 638.5165372414501 304.99792258290057 634.35 304.985258197603 C 631.6825 304.9771502062846 628.41837946725 304.4146502062846 627.0963988161111 303.735258197603 Z" fill="rgb(252,252,253)" stroke="none" /><path d="M 237.38254592676014 319.55451541423804 C 236.96818786775845 318.47471562127123 237.42691669418573 302.04934716850823 237.92269509930003 300.2137880230222 C 237.96521279468502 300.0563714356844 242.3875 300.0563714356844 247.75 300.2137880230222 L 257.5 300.5 L 257.78498309448725 310.75 L 258.0699661889745 321.0 L 248.00359829814852 321.0 C 240.14693788486764 321.0 237.81546946458036 320.68269606947854 237.38254592676014 319.55451541423804 Z" fill="rgb(161,22,118)" stroke="none" /><path d="M 531.8880528986101 255.50035833068077 C 530.4514819928456 254.71959680627592 528.6838083010872 252.65085927454794 527.9598891391468 250.90316381572973 C 526.8496948415964 248.22291768571424 526.8719488087373 247.31883301342734 528.1020632322152 245.12723103371508 C 530.0703378782505 241.6205047255456 533.7938437325438 239.82787892156676 537.8740282315948 240.42266568617637 C 542.4879643334808 241.09525981195537 545.0 243.615954259056 545.0 247.57320009387632 C 545.0 252.21065240037248 544.1514995083894 253.87029626698916 540.9284785846602 255.53698516127298 C 537.4373610107917 257.34231222141295 535.2609525168924 257.3334946117147 531.8880528986101 255.50035833068077 Z" fill="rgb(15,29,58)" stroke="none" /><path d="M 463.0767252819435 254.4111063580068 C 457.6477856327078 249.8429548161204 459.60416122936783 241.72768931080785 466.4436831604594 240.4445872621809 C 476.1708061305116 238.61976799325174 481.7960164921282 250.10445362568205 473.61771135122524 255.0914099039319 C 469.40373972998884 257.6610000415984 466.73425467340235 257.4887144377798 463.0767252819435 254.4111063580068 Z" fill="rgb(13,26,56)" stroke="none" /><path d="M 585.2 110.8 C 583.6414528348238 109.24145283482375 583.6660439115144 105.80277234450165 585.25 103.80827586044903 C 586.6569019392771 102.03672361118322 593.9732980276789 100.84465960553578 598.2229410442596 101.69458820885194 C 601.524346693139 102.35486933862778 602.8323498373975 105.87777528910605 601.1483548219528 109.57374174933403 C 600.1354044185949 111.79692571505151 599.471933081873 112.0 593.2214387911498 112.0 C 589.2492086202554 112.0 585.8987787109162 111.49877871091616 585.2 110.8 Z" fill="rgb(254,254,254)" stroke="none" /><path d="M 800.9738863016586 109.95120610831842 C 799.3704554470614 106.95516815095003 800.5679690127846 103.14653693176368 803.331500133808 102.45293477267185 C 804.597072610529 102.1352963007679 807.8527192754444 102.01594296568331 810.5662705002867 102.18770513915052 L 815.5 102.5 L 815.5 107.0 L 815.5 111.5 L 808.8089174867192 111.79434687685267 C 802.8365929742782 112.05707492785166 801.9949516793288 111.85908421836206 800.9738863016586 109.95120610831842 Z" fill="rgb(254,254,254)" stroke="none" /><path d="M 729.2 110.8 C 727.5162963303121 109.1162963303121 727.704962130164 104.48974911479739 729.5187090969494 102.98447282863091 C 731.4411897080864 101.38895563270783 741.9539596019596 102.32229486615118 743.1409853136452 104.19387862464802 C 744.3512751930481 106.10214300263466 744.1800198247867 109.41998017521337 742.8 110.8 C 742.14 111.46 739.08 112.0 736.0 112.0 C 732.92 112.0 729.86 111.46 729.2 110.8 Z" fill="rgb(254,254,254)" stroke="none" /><path d="M 168.0613356914917 105.57390498702543 C 167.41038113482577 104.78955272988941 167.0177810128768 102.2020527298894 167.18889097604955 99.82390498702543 C 167.48323842685534 95.73295836549622 167.6786192071505 95.48285474214573 170.8153240877673 95.18176946218694 C 175.23398862414479 94.75763174454559 177.0 96.44392304060965 177.0 101.08726095695417 C 177.0 103.86264521923717 176.4628761900418 105.21709242241083 175.06574145408933 105.96481624151201 C 172.35594766329922 107.41505386719449 169.45498794567968 107.2531532233904 168.0613356914917 105.57390498702543 Z" fill="rgb(254,254,254)" stroke="none" /><path d="M 728.3895339723797 430.5727259692141 C 728.0883009331611 429.78772525228186 727.9899240915136 428.10022525228186 728.1709187687184 426.8227259692141 C 728.4697220662557 424.7137081556677 729.0750467298452 424.47260777271435 734.75 424.20228259435316 L 741.0 423.90456518870633 L 741.0 427.95228259435316 L 741.0 432.0 L 734.9686152036613 432.0 C 730.6664642416425 432.0 728.7802025873077 431.5907920604934 728.3895339723797 430.5727259692141 Z" fill="rgb(254,254,254)" stroke="none" /></svg>