<?xml version="1.0" encoding="utf-8" ?>
<svg baseProfile="tiny" height="559" version="1.2" width="1024" xmlns="http://www.w3.org/2000/svg" xmlns:ev="http://www.w3.org/2001/xml-events" xmlns:xlink="http://www.w3.org/1999/xlink"><defs /><path d="M 4.75 555.1952088091083 L 0.0 554.8904176182166 L -8.881784197001252e-16 279.46436647611023 L -1.7763568394002505e-15 4.038315334003869 L 512.0 4.14603012870117 L 1024.0 4.253744923398472 L 1023.9999833828119 279.87687246169924 L 1023.9999667656238 555.5 L 516.7499833828119 555.5 C 237.76249252226535 555.5 7.3625 555.3628439640987 4.75 555.1952088091083 Z" fill="rgb(247,245,247)" stroke="none" /><path d="M 272.7184116578658 353.8211516144754 C 276.3130953235952 353.5365395009786 278.6668021598067 352.722199949978 280.28286287923333 351.20398973330845 C 281.68694948338515 349.8849188581322 283.90699543934585 349.0 285.8121364950515 349.0 C 287.8271214277553 349.0 290.73947336981064 347.75752410829705 293.74768527368394 345.6145135474508 C 296.3614583731578 343.7524959985488 299.9096264638918 341.9283541055257 301.6325032530929 341.56086489628854 C 303.35538004229403 341.1933756870513 305.9463514509679 339.5668445906984 307.3902174945904 337.94635134883765 C 308.83408353821284 336.32585810697697 310.41725436008596 335.0 310.9083748765306 335.0 C 311.3994953929753 335.0 312.1979455298769 333.3125 312.68270851408977 331.25 C 313.3954370554045 328.2175848521137 314.06958908108317 327.44085982548944 316.2057345211864 327.1909415607628 C 317.6586358408767 327.02095941918225 319.5615595364952 325.7918971288931 320.4344538447832 324.45969202678685 C 321.7894163700017 322.3917578311805 321.83809503204276 321.4497396767234 320.76728863780653 318.01875046602413 C 320.0774534656814 315.80843770971086 319.0245300387199 314.0 318.42745880011427 314.0 C 317.4830718670019 314.0 314.04777579617837 320.59429594947454 312.69701281033883 325.0 C 312.4440726558169 325.825 309.67597395092616 327.78830399405155 306.545682355026 329.36289776455897 C 303.4057685162296 330.94233169875673 300.3804513605346 333.2656551036797 299.79740202391304 334.5453090058869 C 299.2161394377011 335.82104141810987 297.46385473859914 337.39365151392815 295.9034360259087 338.0399981077053 C 294.34301731321824 338.6863447014824 292.54629097570285 339.8417596428848 291.91071083143 340.60758686637735 C 291.2751306871571 341.3734140898698 289.79771069106465 342.0143115173417 288.62755528455784 342.03180337187047 C 287.45739987805104 342.04929522639924 285.6264916642028 342.72429522639925 284.55887036489503 343.53180337187047 C 283.49124906558734 344.3393115173417 281.37040821115215 345.0 279.8458906883724 345.0 C 278.32137316559266 345.0 274.8239109278875 345.88691828687564 272.0737523823608 346.97092952639036 C 266.9615116963844 348.985986575271 264.05520350272184 349.29475639194726 253.75 348.9176678923559 C 252.5125 348.87238523315165 249.5905474148388 348.36475598151975 247.2567720329751 347.7896028887295 C 244.0361960316573 346.9959000062161 242.6474280093223 347.04771933232934 241.4944408492599 348.00461368533405 C 239.5111440370627 349.65060384520797 241.08339415101537 351.63976905260944 245.05763047730647 352.51265777614685 C 246.6633193721761 352.8653262172682 248.21136704379882 353.5329820665931 248.49773641424585 353.99633744131336 C 248.99349146971377 354.79848597115506 261.5187820440044 354.7078917427295 272.7184116578658 353.8211516144754 Z" fill="rgb(247,245,247)" stroke="none" /><path d="M 167.63364089923905 342.5123332218491 C 167.94762011784795 341.6941164938661 167.80657541392006 339.3316164938661 167.32020822384374 337.2623332218491 C 166.59637707199894 334.1827428941334 165.942613316084 333.4425727573571 163.7175678752516 333.18354057626806 C 162.22248287360225 333.00948789321546 160.51895694077996 331.96967991376664 159.93195469120207 330.8728561774928 C 158.32044983682914 327.861731813544 154.39454589353426 328.7312644034066 154.8429466091237 332.0 C 155.371157944095 335.8505362126266 157.84987288762102 338.1507131092299 160.1465335091143 336.9215776458478 C 162.83168360615565 335.4845289248088 164.0 336.58734895258124 164.0 340.55901699437493 C 164.0 344.1638029643028 166.4869063844484 345.5006754653717 167.63364089923905 342.5123332218491 Z" fill="rgb(247,245,247)" stroke="none" /><path d="M 215.0 340.1069888041843 C 215.0 336.7966517569914 217.17423574017033 335.48769686282327 220.0851549540515 337.0455735483631 C 221.5861733486911 337.848894214366 221.80412560181028 338.49747756904645 221.0478965282977 339.91050451823685 C 219.67176445731667 342.48183081346843 220.59840431526843 343.0 226.5728287874436 343.0 L 231.81232424155385 343.0 L 232.46849713651233 338.2290531773204 C 232.8319394103661 335.58651220223214 232.66178492835647 332.240626270104 232.08708586279909 330.7290531773204 C 231.16661774545588 328.30803855884034 230.53515059299107 328.0 226.49263221616724 328.0 C 221.94062011149794 328.0 217.06696240895204 329.58268374172854 213.73402282421492 332.1432625933413 C 212.2961699107507 333.2479138083848 212.0891709887795 334.3825653396858 212.61994680610013 338.25 C 213.33249191003014 343.44187487833744 215.0 344.74291464580875 215.0 340.1069888041843 Z" fill="rgb(247,245,247)" stroke="none" /><path d="M 151.4365242045313 328.1027059945313 C 152.48513799967597 326.40601323291514 150.70866974059962 320.73657619554905 148.98736771960046 320.2864456053972 C 148.04724122877627 320.0405970053436 146.28669315695612 318.0755723168346 145.0750386711112 315.9197240753772 C 142.93139239542998 312.10562021348994 140.42009015502472 310.97990984497534 138.45 312.95 C 137.85 313.54999999999995 137.47800823106758 312.1684210526316 137.44030805575485 309.2 C 137.40747748642002 306.615 136.86761206248667 301.3826802833278 136.24060711368077 297.57262285183947 C 135.4408020647967 292.71252856383444 135.3940115469753 288.3052282065099 136.08381407381472 282.80394635920277 C 136.7704291939638 277.32808457326576 136.73511437147337 273.7300063567553 135.96674732079697 270.8765089772065 C 135.3615918297576 268.6291330565704 135.15904596048705 266.0500374782569 135.5166453890846 265.14518546984317 C 135.87424481768218 264.24033346142943 136.37003799159112 260.35 136.61840799777116 256.5 C 137.16777346743174 247.98424928306383 137.51206091638358 246.87552979793503 139.38400516001644 247.59386220400043 C 141.42210093718236 248.3759529358067 144.33150930216024 246.61760338645848 145.92455391536456 243.64097229865231 C 147.09385842569844 241.45610683554966 147.0474294237433 240.90457228088582 145.56981160459804 239.4269544617409 C 144.2736105586788 238.13075341582197 143.92895784654772 236.27434655351377 144.11918186757197 231.6134108461041 C 144.33936049062595 226.21851696953206 144.14881035400694 225.5 142.497910107363 225.5 C 141.21882899543618 225.5 140.35519008652673 226.54947090808292 139.76731832777608 228.81814211351997 C 139.15442540326168 231.18337315101178 138.08617551964338 232.42259995029536 136.0475536868077 233.1332673485465 C 130.9237178599762 234.91944613730956 130.05552076869708 240.07296120152182 130.56276590393628 265.6903177544523 C 130.8441661494862 279.9018496618709 130.64220418021947 288.1030959889071 130.00107639900864 288.4993347488272 C 129.3556569838099 288.8982258844191 128.98089555625194 284.92259059388186 128.9462262555693 277.30901699437493 C 128.8327563023547 252.3903764933581 128.58379482936954 248.5 127.10261669273666 248.5 C 124.22968478818318 248.5 121.73462872641718 261.36493688632453 121.67223095926984 276.5 C 121.58946235821101 296.5761671150507 122.06277749718684 302.28602341526516 123.92485619016993 303.6746354754432 C 124.79118528557647 304.32068498693695 125.5 306.11090611644113 125.5 307.65290465211905 C 125.5 309.6669398572712 126.06326794454876 310.560403691662 127.5 310.8253338415931 C 130.30119444825405 311.34186777869456 131.1129782720159 312.323924804782 131.90752906276222 316.1573505153327 C 132.49907023235878 319.01132681840915 133.03160142393537 319.5104456975647 135.55017854742954 319.57145124164174 C 142.1235371262397 319.73067261817744 147.0 322.00965322244383 147.0 324.9224447154422 C 147.0 327.80462460913054 150.2021173102165 330.10001830547986 151.4365242045313 328.1027059945313 Z" fill="rgb(247,245,247)" stroke="none" /><path d="M 683.0 310.58333333333337 C 683.0 306.50416666666666 682.5665852759256 303.0166666666667 682.0368561687235 302.83333333333337 C 681.4260952785604 302.62195580406245 681.4074982826786 300.14830087338356 681.9860262908434 296.0722640271333 C 682.4877989652114 292.53700924205657 682.669656041817 289.2745092420566 682.390153127745 288.8222640271333 C 681.5176211285274 287.4104775961276 679.0 287.9238596024021 679.0 289.5135688444382 C 679.0 290.34603170887925 678.4375 291.9459964748696 677.75 293.06904610219465 C 676.6951902673139 294.79210599629187 676.7732663742396 295.2662030539876 678.25 296.10516737132764 C 680.1847025493753 297.20431374090856 680.6056254649279 299.0 678.9285714285714 299.0 C 678.3392857142858 299.0 677.1607142857143 298.30357142857144 676.3095238095239 297.45238095238096 C 675.4583333333333 296.6011904761904 674.5303998792727 296.1362667873939 674.2474494671669 296.4192171994997 C 673.9644990550612 296.7021676116055 673.6518344973975 300.0898321692692 673.5526393390254 303.9473606609746 C 673.4534441806533 307.80488915268 673.0635204918567 311.26981284147655 672.6861422528108 311.6471910805225 C 671.6076732542095 312.7256600791238 671.8826064559777 315.4826064559777 673.2 316.8 C 673.86 317.46 676.335 318.0 678.7 318.0 L 683.0 318.0 L 683.0 310.58333333333337 Z" fill="rgb(247,245,247)" stroke="none" /><path d="M 722.426700413306 299.75 C 722.2828114186611 277.54330792329387 722.2976880416314 277.734066542001 720.75 278.2501572288629 C 719.807909293365 278.5643059634884 719.4924991904991 283.5113819435526 719.4695494352455 298.3334905621963 C 719.4430330081244 315.45913563443196 719.6397331337649 318.0 720.9920253807344 318.0 C 722.3435191740242 318.0 722.529613292355 315.6327617178581 722.426700413306 299.75 Z" fill="rgb(247,245,247)" stroke="none" /><path d="M 836.0351837584881 316.06574145408933 C 835.4658326913196 315.0018992538385 835.0 313.36600107067886 835.0 312.43041215817914 C 835.0 310.1077703805917 828.1649504403349 304.0 825.5657414540893 304.0 C 824.5158209182919 304.0 824.9902229105264 307.5902229105264 826.2 308.8 C 827.5926042453575 310.19260424535753 826.470506995992 311.63017677604716 823.5828662996282 312.15293533508276 C 820.8559176514544 312.64660331381657 820.3915745580143 315.02813240299065 822.8946438766816 315.6826997339164 C 824.0525897445067 315.9855093806195 825.0 316.6307786141395 825.0 317.116631363961 C 825.0 317.60248411378245 827.7158326913196 318.0 831.0351837584881 318.0 C 836.6921155444971 318.0 837.0054879185751 317.87877136147745 836.0351837584881 316.06574145408933 Z" fill="rgb(247,245,247)" stroke="none" /><path d="M 902.636256056398 316.25 C 902.362070449804 315.2875 901.607977461174 311.8 900.9604938594423 308.5 C 900.3130102577106 305.2 899.4172322703512 301.8313602815082 898.9698761097545 301.01413395890705 C 897.9596450624705 299.16865271495027 897.3740839390563 301.6290782744289 896.5338238605614 311.25 L 895.9443007679075 318.0 L 899.5395380545108 318.0 C 902.4868190073582 318.0 903.0449290521822 317.68460396527985 902.636256056398 316.25 Z" fill="rgb(247,245,247)" stroke="none" /><path d="M 558.1535273017819 315.9178346816018 C 559.6325102276282 315.1263070406078 560.0172708512029 314.20494856216817 559.5861516140751 312.48723270292953 C 559.2619705693545 311.19559253977883 559.4186251407152 309.02913176092136 559.9342728837655 307.67287541657964 C 560.594099392954 305.9374001792443 560.4854678556588 304.6785946340377 559.5675421841297 303.4232564772419 C 558.3321766898249 301.73379349489994 558.2034842357311 301.75126913579874 557.1316350667466 303.75403762790074 C 556.509235780036 304.91700133305704 556.0 306.9965430986928 556.0 308.37524155153574 C 556.0 309.7539400043786 555.55 311.1600813061875 555.0 311.5 C 553.660396653719 312.3279203994448 553.7162419821847 317.0 555.0657414540893 317.0 C 555.6518992538385 317.0 557.0414028853002 316.5130256067208 558.1535273017819 315.9178346816018 Z" fill="rgb(247,245,247)" stroke="none" /><path d="M 191.9889943361189 307.19098300562507 C 191.96583472060638 299.4239143219851 190.9335238556937 296.2204465850559 188.29097648672473 295.715291647747 C 185.61078960848369 295.20294146233397 185.5720007080302 295.7554977651263 187.56900023479804 306.0 C 188.90123072794188 312.8342721575245 192.00831771323283 313.6714877084173 191.9889943361189 307.19098300562507 Z" fill="rgb(247,245,247)" stroke="none" /><path d="M 660.2645239828596 294.2954220994129 C 661.5588216219572 291.51113986460945 660.4988760948747 282.07030466630334 658.6887534462876 280.26018201771626 C 654.9389173492084 276.5103459206368 652.4376821267502 290.01316285657504 655.6203201677424 296.8249946624134 C 657.3669282552512 300.56327729763217 657.5615811878689 300.6941807038154 658.3698534546318 298.6740460372252 C 658.8482728546793 297.47832071675134 659.7008745923819 295.5079399447358 660.2645239828596 294.2954220994129 Z" fill="rgb(247,245,247)" stroke="none" /><path d="M 608.7956899107763 289.67030286670945 C 609.0188350958989 284.6364957810791 609.44818106026 283.0 610.5456899107763 283.0 C 611.3455604598494 283.0 612.0 282.55 612.0 282.0 C 612.0 280.52272539339566 609.7525153612321 280.78461660280914 607.2225062434054 282.55670396864906 C 605.3619806596894 283.85986681398987 605.0 285.05425033736503 605.0 289.8900373019824 C 605.0 293.06718345255877 605.309375 295.9760416666667 605.6875 296.3541666666667 C 607.4438661465279 298.11053281319454 608.5245583322235 295.7866080897327 608.7956899107763 289.67030286670945 Z" fill="rgb(247,245,247)" stroke="none" /><path d="M 187.0 287.9595074925337 C 187.0 284.3636410376608 186.3812138952001 282.0820619880114 184.8409729498032 279.998774620311 C 182.63669049392365 277.01732304359416 180.23909598669528 276.8179225752424 181.88144643930087 279.7526400172685 C 182.44819793224448 280.76536874943235 182.3681468961898 282.29266046124445 181.66774317872495 283.82987917307383 C 180.70274418994012 285.94782124771865 180.85575565206707 286.49226879722 182.7739162325479 287.7658797844434 C 183.99826230464654 288.5788151692369 185.0 290.08905669333444 185.0 291.12197206021574 C 185.0 292.1548874270971 185.45 293.0 186.0 293.0 C 186.55 293.0 187.0 290.73177837164013 187.0 287.9595074925337 Z" fill="rgb(247,245,247)" stroke="none" /><path d="M 679.0 285.58499006651607 C 679.0 282.889176809005 677.2213963939915 281.0 674.683368636039 281.0 C 673.154214231379 281.0 672.9087962888548 281.45487263478014 673.4694236139421 283.25 C 673.8559011019674 284.4875 674.1250295788337 286.75334866451425 674.0674868958674 288.28521925447603 C 673.9641674378859 291.0357347134972 673.994245161265 291.04987667487006 676.4814319179643 289.4202093209921 C 677.9009059976462 288.49013418244334 679.0 286.81645837023376 679.0 285.58499006651607 Z" fill="rgb(247,245,247)" stroke="none" /><path d="M 234.60493679203918 286.2643835184239 L 239.70987358407837 285.7587358415237 L 240.6310306953346 281.12936792076187 L 241.55218780659084 276.5 L 243.09950982812813 279.5 C 243.95053693997363 281.15 244.47637888547618 283.2455435425015 244.2680474848005 284.1567634277811 C 243.80712163529776 286.1728051686996 245.26308192031792 287.2200124074017 247.39144412062143 286.40328319897395 C 248.52423422300066 285.96859085032247 248.70861849738873 285.3240657739516 248.05146159605238 284.0961568717962 C 247.54991067211125 283.1590003979935 247.51596346984473 281.7831875575878 247.97602336879345 281.03879500422795 C 249.12863081662042 279.17383697795765 249.20468159488314 244.6033963517633 248.06238339220096 241.78207561377053 C 247.55420083773635 240.52693402619673 246.87369829860438 238.2625 246.55015552746323 236.75 C 246.22661275632208 235.2375 245.29546935626695 234.0 244.48094797178516 234.0 C 242.20242453085558 234.0 239.0 230.2751960994158 239.0 227.625 C 239.0 225.83495318283653 238.32268578829456 225.11366111226548 236.25 224.69644312079933 C 234.66871724087872 224.37814132106368 232.7957061388847 222.9438065254398 231.84279152362734 221.32144312079933 C 230.25938789860126 218.62565479424126 230.2846919081734 218.37581732471554 232.41096581547976 215.7116117254461 C 233.9219829543236 213.81831834115224 235.18031607466975 213.13196336285017 236.33090922755378 213.57348738298322 C 237.26291758167065 213.9311325456333 238.58223915033707 213.78418071320635 239.26273493570133 213.24692775536784 C 239.9432307210656 212.70967479752932 242.4496643502357 212.0221664014022 244.83258744496828 211.71913131952977 C 250.37212950703827 211.01467065689837 250.8758343356402 210.4313898911958 248.22973845971592 207.78529401527152 C 246.1582730516295 205.71382860718506 245.99131123448416 205.69788810049778 244.11848120412267 207.39277598392493 C 242.53258394636592 208.82799327698248 241.76358287848345 208.94384091331187 240.01926490124742 208.0103102622565 C 238.67173503060147 207.28913416140935 237.4304622740082 207.20705121598365 236.68607771239672 207.789893097163 C 236.03373497057854 208.30066762208318 233.954527751844 209.01223933959278 232.06561722632006 209.37116358051765 C 230.17670670079607 209.73008782144254 227.92670670079607 210.6469517287005 227.06561722632006 211.40863892997976 C 226.204527751844 212.17032613125903 224.6 212.95707873253517 223.5 213.1569780439267 C 222.33759096846333 213.3682187393444 221.36617350386993 214.45844290097426 221.1804490469242 215.76021566868292 C 220.81603477488915 218.3144542611707 221.25527221063138 218.48203796930986 223.93236759343463 216.81016423179176 C 225.4120271579285 215.88610153972795 226.1677302460797 215.89431430950518 227.31556418156106 216.8469318659659 C 229.46247991880918 218.62871367283222 228.26612654397917 221.64542975495758 224.54097141441218 223.84332507060424 C 220.28811143173934 226.35257386935277 219.30275684641214 229.78441031962078 222.4874996010755 230.9952473567998 C 223.76843162940386 231.48225684594541 225.6221983622183 233.24471376123245 226.60698122955208 234.91181827965988 C 227.59176409688584 236.57892279808732 229.6422250227934 238.37683244080307 231.16356106490224 238.90717304125042 C 232.98818803032617 239.54324142696618 234.15749141642019 240.8292791075359 234.59912224709652 242.68571433921372 C 235.29386146940297 245.60611364001193 237.718253174381 249.0 239.10967450345603 249.0 C 239.54950916203356 249.0 240.20878204469608 247.40401728561298 240.57472535381726 245.45337174580663 C 241.66179663588713 239.65878363620646 242.49625185537184 242.55931015885596 242.55556155170714 252.3386638439875 C 242.58612040514606 257.3773987297944 242.9822939810499 263.40819425139347 243.4359472759379 265.7404316697633 C 244.8737219840594 273.13204991932236 244.9615913089127 273.1071436794825 219.10763265951698 272.6362037693939 C 206.67343469678264 272.4097100184753 195.78984231301715 272.59834797744395 194.92187180670476 273.05539923376864 C 193.0102545102411 274.06200842222205 192.49436785265553 283.68582424672655 194.2393187097658 285.78836140442905 C 195.13098481896998 286.86275333886465 199.0389819770523 287.1150690431199 212.43741697095538 286.9633023762723 C 221.82183763692993 286.85700322675086 231.79722155641764 286.5424897407191 234.60493679203918 286.2643835184239 Z" fill="rgb(247,245,247)" stroke="none" /><path d="M 332.6910447137525 271.51603688731973 C 331.87845656875544 270.9218579287379 330.9805106098869 267.64234553609833 330.5630389003878 263.7440530974129 C 330.1658141459866 260.03482389383583 329.5016293575079 257.0 329.0870727037686 257.0 C 327.3669178817908 257.0 327.22982257836645 258.39993355416516 328.57625721383863 262.2161359760594 C 329.3593157462274 264.43556036478134 330.0 268.86831846354 330.0 272.06670952885645 C 330.0 275.26510059417296 330.3908914854786 278.1235502351888 330.868647745508 278.418819842225 C 331.34640400553735 278.71408944926117 332.1234555709481 280.87814709672995 332.5954290019763 283.2278368366 C 333.41758151660576 287.3208708957944 333.46704828068107 287.1864515015661 333.7751931069348 280.0219837899068 C 334.0143906113701 274.4605637976571 333.73652618161003 272.28051160137113 332.6910447137525 271.51603688731973 Z" fill="rgb(247,245,247)" stroke="none" /><path d="M 256.6976730659874 281.0933803668115 C 257.513516605151 278.6697395685579 257.9279153678644 275.2947395685579 257.6185592053505 273.5933803668115 C 257.30920304283654 271.89202116506516 256.81890994817155 268.25 256.52901899498374 265.5 C 255.5680188289469 256.38363942530736 253.76193131943717 248.91258410206387 252.61251606109028 249.29900755711105 C 251.85028208575667 249.55526401809314 251.5 255.40315862062565 251.5 267.8722573275834 C 251.5 285.0408115187766 251.6051765997716 286.0553062662764 253.3571605882995 285.7857444167756 C 254.55172045103325 285.6019483501183 255.74355383659108 283.92779919806685 256.6976730659874 281.0933803668115 Z" fill="rgb(247,245,247)" stroke="none" /><path d="M 615.4210099089144 276.56936125825086 C 616.00686715062 273.44647367699986 616.4237021482849 273.08717850369544 619.7843728974865 272.808316072622 C 623.1696204921084 272.5274142989965 623.5278626511516 272.21102229286646 623.8133584840882 269.25 C 624.0891627376286 266.3894939996121 623.8356750921286 266.0 621.6982171758895 266.0 C 618.0488890858132 266.0 614.1824197579582 269.6088282574193 612.9573384905323 274.15843275081426 C 611.8352370980062 278.32559918558354 612.2989046553503 281.5513347410977 613.8795741923099 280.57442724227514 C 614.3711090991101 280.2706419632156 615.0647551715821 278.46836227040467 615.4210099089144 276.56936125825086 Z" fill="rgb(247,245,247)" stroke="none" /><path d="M 690.0024173317024 272.0 C 690.4163986122797 272.0 691.3153108130136 272.675 692.0 273.5 C 693.3679035879632 275.1482229915689 700.5246983752456 275.5780711781356 701.4579376015645 274.06805839031705 C 701.7747219762374 273.55549050499144 700.7887796237061 272.99299050499144 699.2669545959394 272.81805839031705 C 696.8319699892119 272.5381595854725 696.5 272.0800816667007 696.5 269.0 C 696.5 264.4180212638733 693.419972580346 263.7795116255742 689.3796948858999 267.52391462037895 L 686.537611594514 270.1578685197306 L 684.4812412463118 267.57893425986526 C 682.7437192635645 265.399873969245 681.6166621411498 265.0 677.2124354490549 265.0 C 672.61137205964 265.0 672.0 265.242292997163 672.0 267.06574145408933 C 672.0 270.7356916129527 673.8873337096622 273.0 676.9462901164948 273.0 C 679.7882358541781 273.0 684.8926594795316 277.5974585616518 685.0809386672346 280.3267252819435 C 685.1254549342136 280.97202637687457 686.0816428554286 279.3625 687.2058007143792 276.75 C 688.3299585733297 274.1375 689.5884360511251 272.0 690.0024173317024 272.0 Z" fill="rgb(247,245,247)" stroke="none" /><path d="M 718.5432878038055 273.1970880797636 C 718.1874194064783 271.5768298797205 716.7585814790782 269.18215216175605 715.3680924095829 267.8755820398426 C 713.270578005046 265.90465705281923 711.7889375272669 265.5 706.669965232523 265.5 C 700.7623833294432 265.5 697.4429908228816 267.1970366948766 702.2103890562994 267.7799546602846 C 708.0054295044753 268.48852420327523 709.0 269.0325806580971 709.0 271.4940520282149 C 709.0 273.70023434016645 709.3111869744658 273.88776260510684 712.0599043090813 273.33801913818377 C 714.4952879550834 272.8509424089833 715.4345472141971 273.17539056737144 716.6619032888048 274.927686825127 C 718.6093527299151 277.7080603763941 719.3786412462986 277.0004273908663 718.5432878038055 273.1970880797636 Z" fill="rgb(247,245,247)" stroke="none" /><path d="M 815.3930285281974 261.5529549620152 C 815.5537021589739 256.35856856304343 815.3128916103434 251.52167744246526 814.8578939756853 250.80430802739693 C 814.3732104143514 250.04013446603645 814.0242842882939 252.26570145754377 814.015312774517 256.17857142857144 C 813.9984067500833 263.5520289054016 812.6059228330636 266.0 808.4285714285714 266.0 C 806.4772813452065 266.0 806.0 266.51309113947195 806.0 268.6107839623098 L 806.0 271.2215679246196 L 807.8853844009545 268.8932167482901 C 809.5017359383621 266.89710709469387 810.001164607623 266.7560771075963 811.3853844009545 267.9048775014225 C 812.2734229804295 268.64188406262656 813.0136839086554 270.42728930893537 813.0304086859007 271.87244471544216 C 813.056664801762 274.14118451592003 813.2001125032675 274.26083753531543 814.0808560129299 272.74864693461825 C 814.6418772655505 271.78540274865827 815.2323548974208 266.74734136098687 815.3930285281974 261.5529549620152 Z" fill="rgb(247,245,247)" stroke="none" /><path d="M 901.6892054313631 255.36753437220582 C 902.0337451426402 254.46967827691904 901.7576759725939 252.84162428861293 901.0757183868158 251.7496366204145 C 900.1863854251293 250.325588193743 900.1417614208465 249.45823857915352 900.9178977517913 248.68210224820865 C 903.4980428974176 246.10195710258247 902.0262444540155 245.0 896.0 245.0 C 890.7303693608523 245.0 890.0 245.23594140212478 890.0 246.93826369043848 C 890.0 248.43170618678067 890.6311103539725 248.8333218665814 892.75 248.68826369043848 C 895.2117892362369 248.51973077164004 895.4775356643272 248.80817558298173 895.2856536574361 251.44049688545343 C 895.1677631690259 253.05777017245282 895.5603632909748 254.9702701724528 896.1580983728782 255.69049688545343 C 897.6738995112495 257.51692552332986 900.9375330222739 257.32636127102114 901.6892054313631 255.36753437220582 Z" fill="rgb(247,245,247)" stroke="none" /><path d="M 536.1785714285714 250.5 C 536.2767857142858 248.025 536.3892857142857 244.99366276936448 536.4285714285714 243.76369504303216 C 536.5169798575403 240.99578013186024 533.8390694298075 240.30378771304962 531.6213775536232 242.52147958923393 C 529.702923134974 244.43993400788324 529.419733731731 252.01973373173095 531.2 253.8 C 531.86 254.46 533.21 255.0 534.2 255.0 C 535.6402116402116 255.0 536.0356932896616 254.10052910052912 536.1785714285714 250.5 Z" fill="rgb(247,245,247)" stroke="none" /><path d="M 151.99557952076117 231.5053263516371 C 152.67783744416622 230.68325584503754 152.981041070063 229.0355028986899 152.66936535608735 227.8436531375313 C 152.35768964211172 226.65180337637267 152.56893035028574 224.80546100825657 153.13878915202963 223.74067009727327 C 154.15416835709468 221.84341669792923 154.20404503253636 221.8463026044852 155.63195290119523 223.88492665697999 C 156.73641388471293 225.461765594184 156.82773390906087 226.45336504343967 156.0093211105616 227.98258334560086 C 155.14167607725685 229.60379291996466 155.23503496936632 230.0 156.4846881427739 230.0 C 158.44887699858884 230.0 166.22008796978668 225.18454121008295 167.34769679159612 223.26869767443043 C 168.47575102287792 221.35209737380606 168.91543444144435 212.4812040407292 167.95907364715026 210.93377977005355 C 166.50903989626673 208.58757587628946 164.0 210.78650074064635 164.0 214.40351554248676 C 164.0 216.30997236682708 163.4865970619544 219.1365955251795 162.8591045821209 220.68490033882549 L 161.71820916424178 223.5 L 160.82637812322704 219.51727354110616 C 159.6182511861274 214.12203733962303 158.61020264587245 213.40879445711863 156.31571532126208 216.32576240805582 C 154.86921540039216 218.16468906716352 153.71141378820275 218.66748950716322 151.77555302120226 218.29742627352874 C 148.35818406033314 217.6441548039381 146.99664291458225 220.19697587766433 147.49573882774433 226.32186233173292 C 148.04322347784014 233.04057356288192 149.41244649761538 234.6178112347052 151.99557952076117 231.5053263516371 Z" fill="rgb(247,245,247)" stroke="none" /><path d="M 209.0 229.03220391206906 C 209.0 228.53861819804385 210.0125 227.82622463183756 211.25 227.44910709827732 C 216.61963042935923 225.81275818219652 218.80111726396063 219.95646691830515 215.60795402951416 215.75 C 213.82306450425736 213.3987018703497 213.44169805259077 213.5194330085885 212.05139658151228 216.8759176758535 C 211.3962123234284 218.45767239757294 209.36197460885052 220.9463273441127 207.53086832689473 222.4062620014974 C 203.86595965240576 225.32828091583457 202.10633383712144 229.82964994799545 204.13812757543053 231.08536753639967 C 205.51394702473462 231.93567071845277 209.0 230.46351420419825 209.0 229.03220391206906 Z" fill="rgb(247,245,247)" stroke="none" /><path d="M 311.84011175969545 228.08288391802898 C 312.09793702068976 226.26605209089004 311.0193549977252 224.63543145277526 307.3820483398548 221.34309958671184 C 302.3201192619022 216.76126143703712 302.08241541989395 216.64740782344754 299.5817874682358 217.6069888041843 C 297.1040057659895 218.55780285643735 297.63254785377626 219.73119476116437 303.1813700785407 225.59825609003929 C 308.6112747838418 231.33957967646947 311.2697029047078 232.10241620988745 311.84011175969545 228.08288391802898 Z" fill="rgb(247,245,247)" stroke="none" /><path d="M 296.0 218.06509966117451 C 296.0 214.9356163331105 293.8624649256019 212.0 291.58376784143866 212.0 C 290.22761422245986 212.0 288.8399186938125 211.55 288.5 211.0 C 287.5456672944307 209.4558572458133 285.0 209.8181881847684 285.0 211.49816340458835 C 285.0 212.32215327711194 287.1375 214.33860312655938 289.75 215.9791630700271 C 294.8134192381345 219.15881580842608 296.0 219.55483696515037 296.0 218.06509966117451 Z" fill="rgb(247,245,247)" stroke="none" /><path d="M 824.4419539093763 317.1503199746494 C 816.1683401916889 314.5359488545571 813.0 306.5568870468908 813.0 288.3352142979086 L 813.0 277.0906261173121 L 809.5 276.4340221593982 C 806.0185970277049 275.7809070249118 806.0 275.7490264059891 806.0 270.4340221593982 C 806.0 265.1450135875778 806.0347373259026 265.0841093556907 809.4128318311866 264.45037500644014 C 812.7349040335101 263.8271505045769 812.8438897498362 263.6530867905174 813.5110187286164 257.90506194778413 L 814.1963737948595 252.0 L 820.4815555334687 252.0 C 827.3915237605725 252.0 827.9559094820904 252.57838808523414 827.9863453167076 259.69098300562507 C 828.0028485498334 263.5476478080637 828.7373060027495 264.0642793342009 835.3511802753328 264.8715498435216 L 840.5 265.5 L 840.5 270.48622696186067 L 840.5 275.4724539237213 L 835.0459517124435 276.2573670320983 C 832.0462251542874 276.6890692417057 829.2109592974443 277.59526710886837 828.7453609194588 278.27114007023766 C 828.2797625414731 278.94701303160696 828.1077928732036 284.6619445101953 828.363206101082 290.97098780043405 C 828.7877490249322 301.4577574457809 829.02583834744 302.60250430611234 831.1381190609618 304.31292546087525 C 832.8836419213106 305.7263641233364 834.3765964519586 306.035489792249 837.2434189642105 305.57706638262493 C 841.3177190841071 304.9255595157672 841.7010743649199 305.3446914836974 843.3824090429945 312.288978599849 C 843.9863203982742 314.78326715432576 843.6881987800499 315.2323321607405 840.5609536649215 316.538978599849 C 837.0288909852347 318.01476861732937 828.2333370960616 318.34835544581034 824.4419539093763 317.1503199746494 Z" fill="rgb(164,24,119)" stroke="none" /><path d="M 863.8174137103633 316.65400327188763 C 859.5644525414853 315.6058792650843 857.1460411312155 313.9043737450888 851.6310884978159 308.08015205304264 C 849.4929799232855 305.8221420269343 847.0386804351846 296.43737781219306 847.0156209489412 290.4315012274278 C 846.9763279260299 280.19757650960173 852.7632391252431 270.2757509521545 861.431786445539 265.71457118641024 C 867.0290142352616 262.7694454121101 876.755936688022 262.77540713272293 883.25 265.7279437710191 L 888.0 267.8875391365338 L 888.0 258.5088692294414 C 888.0 253.35060078054062 888.4474293168234 247.9533710364408 888.9942873707189 246.5150253536641 C 889.9285601644516 244.05770168469894 890.3359860320486 243.9179636864727 895.7442873707189 244.19992569248961 L 901.5 244.5 L 901.7624741889538 280.75 L 902.0249483779075 317.0 L 895.4810893926151 317.0 C 890.8475714074972 317.0 888.7830208747716 316.5981363998972 888.4089867926439 315.6234192062286 C 887.972164864636 314.48507950900506 886.8372398906381 314.5716131500473 881.851277210983 316.1234192062286 C 875.1065758681436 318.2226062766934 870.7074943321628 318.35203403721994 863.8174137103633 316.65400327188763 Z" fill="rgb(164,24,119)" stroke="none" /><path d="M 758.0 282.5 L 758.0 248.0 L 764.8930111958157 248.0 C 770.2560452077352 248.0 771.9207500157278 248.35109456047928 772.3930111958157 249.5817874682358 C 772.726855038117 250.45177057576552 773.0 263.05177057576554 773.0 277.5817874682358 L 773.0 304.0 L 777.75 304.0539117415592 C 786.4745967615562 304.15293452173125 803.484637734063 305.0669695373436 804.75 305.50475747799345 C 805.5472210104972 305.7805786825794 806.0 307.94082626223246 806.0 311.4686152036613 L 806.0 317.0 L 782.0 317.0 L 758.0 317.0 L 758.0 282.5 Z" fill="rgb(164,24,119)" stroke="none" /><path d="M 884.2951749616964 300.71082678128516 C 886.8150574380142 297.60749491491913 888.0009170372251 294.3935063478272 887.9944230655973 290.6849003388255 C 887.9860988436134 285.93106687000636 886.0882605812167 280.0 884.5754407581364 280.0 C 883.8436375281477 280.0 882.7296974390182 279.3792316260166 882.1000183378485 278.62051472448127 C 879.0373392783958 274.93021221631767 870.1284593499373 276.16892943058804 865.5788844079242 280.9176624201068 C 860.823221034685 285.881505380248 861.0356899848751 297.00736118184346 865.9714490710984 301.47416176445734 C 867.0143363824118 302.41796180988047 869.5848960596793 303.7809624943867 871.6838039094705 304.5030521744711 C 874.8986244286224 305.6090505728449 876.0515477847287 305.5878941229187 879.0 304.3687980322339 C 880.925 303.572868573919 883.3078287327634 301.92678151099204 884.2951749616964 300.71082678128516 Z" fill="rgb(164,24,119)" stroke="none" /><path d="M 177.5194112266924 352.9322948727886 C 153.61609597569714 348.93703800028 131.82300464178633 329.3885373805435 123.4432760783373 304.42575923432776 C 118.34114093661124 289.2267624350212 118.35538915308328 269.7844918575968 123.4799313261885 254.40818347641655 C 130.8876096128003 232.18127190540747 148.48286425515522 214.73370112905536 170.5 207.7827726613638 C 179.88701037545601 204.81924287250146 199.6306720865251 204.73012832223196 207.92513766898082 207.61385139635473 C 210.90896338692028 208.65123312835962 213.5071321987239 209.98200643541082 213.69884613965553 210.57112541202406 C 213.89056008058716 211.16024438863732 211.41183346377915 213.68896598748753 208.19056476897106 216.19050674280237 L 202.3337125965927 220.73876266155656 L 192.91685629829635 220.26122831003846 C 176.6900130513117 219.4383554932858 163.54351426624152 224.41237108530908 152.50015345149515 235.5530039702214 C 143.46917901899906 244.66352498218737 137.417459914209 256.10146068102773 135.54263561173946 267.60323553327294 L 134.87379573308067 271.7064710665459 L 140.18689786654033 272.3445434380478 C 143.10910403994316 272.6954832423738 152.3625 272.986527252401 160.75 272.9913079047749 L 176.0 273.0 L 176.0 279.36915762302465 L 176.0 285.7383152460493 L 172.25 286.3581519591436 C 170.1875 286.6990621513454 160.92294597607565 286.9829412209843 151.66210216905705 286.98899433611894 L 134.82420433811407 287.0 L 135.52923124504173 291.25 C 136.42298538727366 296.63767395564844 140.36404437144202 307.22094199781134 143.21976970587804 311.9020709907032 C 146.7511470212052 317.69073439480576 156.02679703086002 326.99312429421093 162.427870232207 331.1655447242848 C 170.59552314573486 336.4894772603141 179.27068880842566 339.0 189.5 339.0 C 201.77578795410662 339.0 209.86442076123737 336.1167574607519 224.1745427482371 326.64004757484383 C 226.8357317566658 324.87770647059904 226.8694338703321 324.88724664687857 230.9245427482371 328.55079390145806 C 233.16604423670668 330.5758558348041 235.0 333.04529617715 235.0 334.0384391066714 C 235.00000000000009 338.86001070501277 216.38863103481134 349.7587791576082 203.5 352.4847558122773 C 195.9453257156872 354.08258770590834 185.48008564929478 354.26286089941465 177.5194112266924 352.9322948727886 Z" fill="rgb(10,26,60)" stroke="none" /><path d="M 821.5884103969395 315.733549580118 C 815.0596161818512 312.0055548113473 813.638948957184 307.90296685817174 813.0261742083314 291.007613463829 L 812.5 276.5 L 809.25 276.1866415159119 C 806.0202891848039 275.87523927434484 806.0 275.8393430243072 806.0 270.4366415159119 C 806.0 265.05270943180653 806.0293256228204 265.0 809.0247508470637 265.0 C 812.5375457591076 265.0 814.0 262.33535084654557 814.0 255.93490033882549 L 814.0 252.0 L 820.383368636039 252.0 C 827.4032643580575 252.0 827.9558263380009 252.5589580207584 827.9863453167076 259.69098300562507 C 828.0028485498334 263.5476478080637 828.7373060027495 264.0642793342009 835.3511802753328 264.8715498435216 L 840.5 265.5 L 840.814136481977 269.8858635180231 C 840.9869115470643 272.29808845293576 840.7320859938984 274.6679140061017 840.2478574749416 275.1521425250585 C 839.5384240769444 275.8615759230556 835.1510975410552 276.54861293036737 828.75 276.95265897293655 C 828.3375 276.97869653782146 828.0 282.42045454545456 828.0 289.04545454545456 C 828.0 300.43622011625996 828.1308132415022 301.22172233241133 830.4067992825184 303.4977083734275 C 832.3453399409353 305.43624903184445 833.4935488293423 305.7941669180234 836.3084702535605 305.33736805574347 C 839.2276378717547 304.8636523650236 840.0554760595553 305.15979193205084 841.333948436419 307.1351142277706 C 842.175782008303 308.43580140249674 843.1606422832822 310.70494254319397 843.5225268252615 312.1776500959867 C 844.0827649679775 314.45756771730237 843.7288560045922 315.0888537168753 841.1399092867689 316.4276500959867 C 836.4736574906268 318.8406626797099 826.4037905058059 318.48317091356563 821.5884103969395 315.733549580118 Z" fill="rgb(168,32,125)" stroke="none" /><path d="M 860.8913041526819 316.1758364056377 C 856.9218941727906 314.3324885496119 852.2896420856013 309.413343565645 849.4255832220886 304.0 C 847.1725980440233 299.7416438004996 846.7833008700361 284.4455678324061 848.7893135428598 279.0 C 849.4984359914326 277.075 852.1277808793159 273.2727446496217 854.6323021826001 270.55054366582596 C 858.4897935130435 266.35777969095153 860.0176503840502 265.43501978841095 864.6258758918875 264.5148545400913 C 869.3379178989611 263.57395933082734 876.2145970143409 263.7992044283115 885.5 265.19858487572844 C 887.35073657906 265.4775048737141 887.5187161563974 264.86563046100525 887.7507802150001 257.0 C 888.1372398673504 243.90125118132562 888.0864489111849 244.0 894.437264559979 244.0 C 903.7792204430365 244.0 903.0019778285128 240.73941715324457 902.984687225483 279.8569888041843 C 902.9762651994986 298.91064496188295 902.6354982883496 315.02481479701163 902.2274274229296 315.66625510447034 C 901.1519920685743 317.35671537205087 890.492906850987 317.6539657836871 888.55720652475 316.0474771986926 C 887.2462317274835 314.95946475251077 886.2518845212808 315.0139920941746 882.7054986678572 316.3683692086861 C 877.1084650733634 318.50589584082525 865.6918024114353 318.40513199817093 860.8913041526819 316.1758364056377 Z" fill="rgb(168,32,125)" stroke="none" /><path d="M 881.0875480707225 301.71998468077356 C 885.5880302962833 298.6871101469611 886.9675525139749 295.65479273890145 886.9852581976029 288.7562724214994 C 886.9996111849322 283.1640356693946 886.8905427262499 282.93325440185595 882.8499615002231 280.0062724214994 C 877.9642795514911 276.46710262741675 874.5277813843832 276.2357768815879 869.0731412104362 279.0788942959448 C 864.4742026139988 281.47599511178606 863.6923190991853 283.27225583091536 863.8044831544966 291.1828501015154 C 863.9030381603297 298.1336389466508 864.9113897463776 300.21440007205837 869.2072593852525 302.3316268831283 C 873.7504990898675 304.57077046064325 877.1142468261972 304.397592002772 881.0875480707225 301.71998468077356 Z" fill="rgb(168,32,125)" stroke="none" /><path d="M 619.9051583722633 314.75 C 614.9556427312775 312.2385982674743 612.7685159335199 310.37716658233234 610.2813040989254 306.5592781378994 C 597.7075161310235 287.25842120335915 610.0718342121942 263.8817503089115 632.909824530815 263.7765325394878 C 641.6746321442898 263.73615186265715 647.2052352453919 265.54827669093595 652.4754226021669 270.1872811318349 C 658.8569924873117 275.8045635988496 661.3684210526316 281.67440763757895 661.3684210526316 290.97246875839994 C 661.3684210526316 297.4348421400531 660.9433262586252 299.3334716599303 658.4852509011815 303.8497658637857 C 653.2767098929643 313.4195715634845 645.1996815671201 318.0 633.5330344175907 318.0 C 627.3648726063926 318.0 625.3751289643309 317.5254824144869 619.9051583722633 314.75 Z" fill="rgb(12,27,61)" stroke="none" /><path d="M 554.3522282769479 315.4755088852726 C 553.1578903885683 312.36311423869154 554.9554409545818 306.8896676029069 558.688136718801 302.27289643984807 C 560.7846615234605 299.6798173698709 563.175 296.7024157153671 564.0 295.6564483187286 C 564.825 294.6104809220901 566.2073591230314 293.02238429720586 567.0719091622922 292.1273447078747 C 570.1600291195992 288.93031793917913 578.0 278.13223361479174 578.0 277.0759563583173 C 578.0 276.4830321786293 575.8675688556018 275.92321260659963 573.25 275.8289557345803 C 570.6375 275.73488138859943 567.6 275.5735873528094 566.5 275.47052454393577 C 565.4 275.36746173506214 562.338983188628 275.21943165450097 559.6977404191734 275.1415688093555 L 554.8954808383468 275.0 L 555.1977404191734 269.75 L 555.5 264.5 L 575.0 264.2162889819557 C 585.725 264.06024792203135 595.5125 264.181321334728 596.75 264.4853410101706 C 598.6103179721196 264.9423699120726 599.0 265.7222483951281 599.0 268.98831128164886 C 599.0 272.5448393834823 597.7540524894957 274.4955225876766 586.4980648810849 288.5616196680696 C 579.6220005656817 297.1543253067306 574.2485582131503 304.5931586426853 574.5570818754599 305.09236041463566 C 574.8656055377694 305.5915621865861 580.1539763412811 306.00689074853267 586.3090169943749 306.01531277451704 C 592.4640576474687 306.0237348005015 598.0916918369766 306.4058339954157 598.8148707488367 306.86442209654876 C 599.6645636955395 307.40323630778215 600.0183458467856 309.2551752155139 599.8148707488367 312.0991093220317 L 599.5 316.5 L 577.2259812672934 316.76919565412595 C 557.7886185772953 317.00410851949647 554.8755847678997 316.83935403875915 554.3522282769479 315.4755088852726 Z" fill="rgb(12,27,61)" stroke="none" /><path d="M 641.1362605815095 302.8670678597223 C 644.9413621467716 300.2094222995616 647.3212556554261 293.62795791773806 646.4875459204269 288.0683830753046 C 645.546389597852 281.79230305113424 639.8018966491817 276.0 634.5187761813568 276.0 C 628.6828594555523 276.0 624.0220709360124 278.7410681006777 621.89510580297 283.4241386500588 C 619.7313810893784 288.18814503914984 619.5745185659521 290.84783042422646 621.1476088041799 296.09833768527267 C 623.7552079550998 304.8017279569123 633.5954272609231 308.13390813997347 641.1362605815095 302.8670678597223 Z" fill="rgb(12,27,61)" stroke="none" /><path d="M 245.3601971707518 353.5914701710608 C 237.27485164928024 352.0472518746871 230.94163056914354 350.16627195990634 229.57362873059287 348.9028263066641 C 228.33704595737552 347.76075537834504 231.78926393384396 344.0 234.0742206087109 344.0 C 235.0445556251786 344.0 238.68731122222815 344.7307726372983 242.1692330465988 345.6239391939962 C 251.62851038206935 348.0503894685079 266.6925050786519 347.84400457533104 276.3093170451059 345.15620153668806 C 291.3426076338747 340.95454674024984 303.8524507719554 332.87670762710223 312.5594055208437 321.74884308204776 C 319.2840933615067 313.15440133325785 322.0218539931928 307.97511920544923 325.12634058506274 297.97477699820786 C 328.13939088895114 288.2689743687407 328.3349353292307 271.8090830249874 325.5537229708502 262.0 C 321.12837613092677 246.39220419959213 311.0680381668085 232.495915382493 297.81733755855464 223.6878852573007 C 284.20997672172484 214.64277528775673 274.9400469719598 211.8764490462182 258.11661127982745 211.84042105016738 C 227.91423492120418 211.7757415687531 201.96367806539502 230.2606536672966 192.42710584933258 258.63189224773714 C 185.19874976277595 280.13620327583016 190.7288122179477 307.51838081384005 205.63156499090206 324.0139466890414 C 209.71520847882653 328.53405187981826 209.90908728966642 330.7337295581371 206.30360349575756 331.63864838644395 C 203.98215078423397 332.2212959277338 203.0744490173113 331.70249397083444 199.77589475979676 327.90770041465885 C 191.2831752899791 318.13732387922647 185.137802862642 305.24421903238493 182.93789949005486 292.58127537039604 C 181.1842298011523 282.4869136138632 182.20152402560038 265.134475426254 185.02386721063993 257.0 C 190.22899817873454 241.99792294047128 199.54901724839715 228.53881462887486 210.43614347201304 220.3019443319215 C 249.66328279861807 190.62387758434497 305.9751172586427 203.29784726786866 327.12112550392317 246.56395371193506 C 333.4097520931809 259.4308922017817 335.46673587521116 269.4768373626798 334.68406228787 283.5 C 333.5974752360489 302.96838016989545 325.4892402834402 320.7584322506983 311.8737133944072 333.54755007320415 C 301.64309786521295 343.15720737592756 288.5700422421939 350.21068691659553 275.98865916744256 352.909090565694 C 267.2287303031256 354.787884325718 253.25458736044067 355.09921795218605 245.3601971707518 353.5914701710608 Z" fill="rgb(162,42,124)" stroke="none" /><path d="M 861.5 315.62257619516845 C 852.7180773090993 311.4812217286554 848.0230905045953 304.054953741245 847.2365039121502 293.0613744716325 C 846.136833484068 277.6920379768551 855.1206464681783 265.63013339283424 869.1957845189604 263.5782643621985 C 874.1728609727787 262.8527077813785 880.9485753492315 264.1688507728785 884.7394321129252 266.59752723346674 C 885.9711197750341 267.3866287527883 887.321119775034 267.91249938316247 887.7394321129252 267.7661286342984 C 888.1577444508164 267.6197578854343 888.5609114114485 263.45 888.6353586921077 258.5 C 888.8798301382305 242.24509253268707 888.053539128199 244.0 895.4626244417962 244.0 L 901.9252488835924 244.0 L 902.2126244417962 278.75 C 902.3706809988083 297.8625 902.3350158862175 314.2875 902.133368636039 315.25 C 901.8305081294037 316.695609783314 900.6564315793291 317.0 895.383368636039 317.0 C 889.6666666666666 317.0 889.0 316.7911238705837 889.0 315.0 C 889.0 312.49655311279554 889.0633237756657 312.49089518785354 883.4039752811572 315.5 C 877.0499946863902 318.87844428604296 868.5056040507087 318.92625930047353 861.5 315.62257619516845 Z" fill="rgb(164,21,118)" stroke="none" /><path d="M 882.0 303.10206387074874 C 889.9178048704833 297.57786341599876 889.8646237247465 281.5669549872452 881.914814966753 277.45594910730284 C 877.7128327538003 275.28301965569904 870.7896324733855 275.59103473077334 867.6096762730347 278.09238864252166 C 861.885695318141 282.59487271784207 860.3485236624732 292.5207644158329 864.2943899092988 299.5 C 867.8841784050816 305.8494244462942 875.7644099091484 307.45259412237573 882.0 303.10206387074874 Z" fill="rgb(164,21,118)" stroke="none" /><path d="M 373.23687236791403 282.75 L 373.5 248.5 L 398.5 248.5 L 423.5 248.5 L 423.5 254.0 L 423.5 259.5 L 406.0 260.0 L 388.5 260.5 L 388.5 268.0 L 388.5 275.5 L 403.75 275.77604606942714 L 419.0 276.0520921388542 L 419.0 282.02604606942714 L 419.0 288.0 L 403.5 288.0 L 388.0 288.0 L 388.0 296.4774413164413 L 388.0 304.9548826328825 L 406.25 305.2274413164413 L 424.5 305.5 L 424.79990385598785 311.25 L 425.09980771197576 317.0 L 399.03677622390194 317.0 L 372.97374473582806 317.0 L 373.23687236791403 282.75 Z" fill="rgb(7,23,57)" stroke="none" /><path d="M 621.5 315.6418221261564 C 611.0435542734325 310.7510495906154 605.6687976025574 302.2021001549636 605.6932418471241 290.5 C 605.7101758158512 282.3932656100371 607.4433351325272 277.7288035738379 612.5310844768215 272.09727322881145 C 622.2126473158144 261.38094048018405 642.7218510927027 260.73084227666624 653.3432470736138 270.80361434890165 C 654.9070329641014 272.28662645700575 657.3587069603328 275.75 658.7914115096837 278.5 C 660.9335731731663 282.61176510694133 661.3928657532231 284.8388179653466 661.3768344853286 291.0363959230217 C 661.3603078239805 297.4254895842216 660.9192645159923 299.3776810078898 658.4797104241244 303.8599455453581 C 653.3069919537874 313.3639334418291 644.974188600447 318.0077063323136 633.1242734767686 317.990231084296 C 628.287643243011 317.9830984329629 625.1506873174241 317.34935083474437 621.5 315.6418221261564 Z" fill="rgb(10,26,59)" stroke="none" /><path d="M 641.7271714760107 302.8319726841927 C 646.9008294406866 298.06436938405676 648.441775603503 289.8405747929772 645.3731520362473 283.3739306487363 C 642.8338002902041 278.02264407388776 639.5610893099938 276.0 633.4418665901421 276.0 C 627.4165929250408 276.0 623.1885183908995 278.71644921918704 621.0035906283488 283.99133145634306 C 619.3269560092751 288.0390854928549 620.2199248198219 296.46560714681846 622.6814499893517 299.8244916639651 C 627.3125924029486 306.14393651152784 636.5501965769657 307.60263258902705 641.7271714760107 302.8319726841927 Z" fill="rgb(10,26,59)" stroke="none" /><path d="M 194.07149782351115 285.1335949052586 C 192.70835386407668 282.5865371184423 192.68845809388014 276.4506384682249 194.03518375848802 273.93425854591067 C 195.0155732160446 272.10238408782476 196.37253281070616 272.0 219.6711077403732 272.0 L 244.27184796377043 272.0 L 243.65023908193064 267.46486877565803 C 242.17343045967843 256.69037521415885 233.35653078687608 241.00717632426205 224.09926568527374 232.68826751561488 C 219.1813173259988 228.26882360022321 219.3296013805674 227.85499187052127 227.38919768340054 223.5067122003955 L 232.9372978777724 220.51342440079097 L 238.04512500448416 225.5067122003955 C 249.39143308870683 236.5985875364302 257.0300991057316 253.38068059127818 259.0734760919104 271.70584486998337 C 260.645149320711 285.8007330404118 260.7010297780591 285.7033361621378 250.75761016475315 286.19998861696706 C 246.2159245741389 286.4268360583264 231.84467402058002 286.7301738985456 218.82149782351115 286.8740727063431 C 196.01915080535247 287.1260258782303 195.10334793880952 287.0616244818914 194.07149782351115 285.1335949052586 Z" fill="rgb(11,27,61)" stroke="none" /><path d="M 671.0 290.45431008922367 L 671.0 263.90862017844734 L 677.75 264.20431008922367 C 683.8832041698037 264.472980695704 684.5291996585767 264.70559861006546 684.8195509530758 266.75 C 685.2102377317485 269.5008766397101 685.4672431602478 269.51554475208786 689.0148329502726 266.98943800779136 C 695.5266305894087 262.3526291016524 707.6087053079384 262.4899748527691 714.8516732014247 267.2831442058945 C 721.6673510965745 271.79354641783675 722.457370342633 274.76898233390847 722.8082864470086 297.25 L 723.1165728940172 317.0 L 716.0582864470086 317.0 L 709.0 317.0 L 709.0 301.46788136910357 C 709.0 284.71014075859944 708.1168908831469 280.59613602806036 703.8831272301303 277.63069253356906 C 698.8751049393995 274.1229371793623 690.4189985552055 276.48387497251576 687.277653264646 282.2669269039901 C 685.8665738281238 284.86465014230043 685.4529504771276 288.59512342022776 685.1728687718487 301.25 L 684.8242848223858 317.0 L 677.9121424111929 317.0 L 671.0 317.0 L 671.0 290.45431008922367 Z" fill="rgb(8,23,57)" stroke="none" /><path d="M 553.8444753612492 314.75 C 553.4915768179276 309.64455993049376 554.3392802050518 307.47263179695295 558.8078540376291 302.0331677348622 C 573.8722322581535 283.6957412944838 580.0643241310728 275.9897523183829 579.7991441826481 275.9097422800342 C 579.6346148821916 275.860100534053 574.325 275.62124816353287 568.0 275.3789592344339 C 561.675 275.136670305335 556.05 274.78430092861015 555.5 274.5959161750455 C 554.6570933425375 274.3072056969653 554.4136406325563 270.5851744290555 554.88869706988 265.25 C 554.9740662744632 264.291251603943 560.1260282293973 264.0 577.0 264.0 L 599.0 264.0 L 599.0 268.5922947022903 C 599.0 273.0002095193334 598.4780521147699 273.8210859249858 586.0 289.03761802949793 C 578.85 297.75678377320247 573.0 305.1402511571718 573.0 305.44532332720763 C 573.0 305.75039549724346 579.075 306.0 586.5 306.0 L 600.0 306.0 L 600.0 311.5 L 600.0 317.0 L 577.0 317.0 L 554.0 317.0 L 553.8444753612492 314.75 Z" fill="rgb(9,24,58)" stroke="none" /><path d="M 758.0 282.45619044727937 L 758.0 247.9123808945588 L 765.25 248.2061904472794 L 772.5 248.5 L 772.7655313556515 276.7253031512852 L 773.0310627113032 304.95060630257035 L 789.2655313556515 305.2253031512852 L 805.5 305.5 L 805.7999038559878 311.25 L 806.0998077119758 317.0 L 782.0499038559878 317.0 L 758.0 317.0 L 758.0 282.45619044727937 Z" fill="rgb(162,19,115)" stroke="none" /><path d="M 861.429136551174 315.6192310350016 C 838.945248769595 305.1496815450996 843.8580754077398 268.01846265796564 868.3147386768433 263.57774483379274 C 873.4178533719044 262.6511469518246 882.460536987886 264.63190528537854 885.6493579583238 267.3748136088291 C 887.6400733190931 269.08715487329493 888.3086224457512 270.7232472918888 888.5799413376351 274.5466205228777 C 888.7732706158117 277.27097923529493 888.6836740562426 280.3123105321794 888.3808378719259 281.30513451595425 C 887.8535759169824 283.0337202719171 887.7596156243263 283.03135101440233 886.1651133138569 281.24926387196786 C 881.3231328457196 275.8376498030946 873.6169314538072 274.34106841178175 867.9204504183895 277.70606254728034 C 862.1697370783013 281.1030924933147 860.0788475555272 291.94900775939783 863.82726529727 298.9383364233077 C 865.811289875751 302.63776397159154 871.0586555245981 306.0 874.8482437660512 306.0 C 882.5707890383649 306.0 889.6897783077467 296.78257737959296 888.4341484500258 288.40943757404557 C 888.0078159576323 285.56644882182104 888.147532161674 284.0 888.8274392305623 284.0 C 890.9793714268102 284.0 891.1707242364349 286.4176682061124 889.9456637192545 298.1283307985373 C 888.5591191151932 311.38266052330926 887.2740874935783 314.1518788687624 881.3642184061937 316.6211798395344 C 876.155956904096 318.79733044338064 867.2981831944954 318.35213358671854 861.429136551174 315.6192310350016 Z" fill="rgb(163,21,118)" stroke="none" /><path d="M 500.05794360191317 315.81189673430583 C 492.2161842348164 311.7306027912998 490.92915442772266 306.26166541333794 490.99720379098585 277.310365261726 C 490.99874170594364 276.6560661556754 489.3125 275.98106615567536 487.25 275.810365261726 L 483.5 275.5 L 483.5 270.5 L 483.5 265.5 L 487.5 265.0 L 491.5 264.5 L 491.2380291252407 259.5 C 491.09394514412304 256.75 491.31894514412306 253.98510414983872 491.7380291252407 253.35578699964162 C 492.1571131063583 252.7264698494445 495.2 252.0514698494445 498.5 251.85578699964162 L 504.5 251.5 L 505.0 258.0 L 505.5 264.5 L 512.3006350043311 264.7968441441343 L 519.101270008662 265.09368828826865 L 518.8006350043311 270.2968441441343 L 518.5 275.5 L 512.25 275.79771740564684 C 508.254167450695 275.98805802964335 505.9800788731027 276.52905821781013 505.9447658411225 277.29771740564684 C 505.9143870537399 277.95897283254106 505.9390478309759 283.891816549905 505.99956756831364 290.4818145553444 C 506.1333389078156 305.0481841280221 506.8236452178292 306.3164583866748 514.3492088917378 305.8223018229063 L 519.257578158355 305.5 L 520.5961857333149 309.9968890601483 C 522.4441172032283 316.20478969242043 521.126095457329 317.36415923406554 511.7328527737474 317.7933296748441 C 505.7092348564944 318.0685444056577 503.75734843510475 317.737275699871 500.05794360191317 315.81189673430583 Z" fill="rgb(12,26,59)" stroke="none" /><path d="M 822.127096130268 315.8339005892027 C 815.2416399174859 312.4257023364961 814.0487391041468 308.7338935477128 814.0219620004909 290.75 L 814.0 276.0 L 810.1069888041843 276.0 C 805.8085487162936 276.0 805.4019059499057 275.43007039868587 805.4692616613464 269.5 C 805.513623555417 265.5943303955935 805.6088521139659 265.4882087005508 809.5073474957082 265.0 L 813.5 264.5 L 813.797532540151 258.2571221200532 C 814.1328971241355 251.22044592318554 814.5926969673981 250.87188579346034 823.0 251.28101436665048 L 827.5 251.5 L 827.7956899107763 258.25 L 828.0913798215527 265.0 L 834.5456899107763 265.0 L 841.0 265.0 L 841.0 270.5 L 841.0 276.0 L 834.5 276.0 L 828.0 276.0 L 828.0 288.7774937565946 C 828.0 304.78284253904974 828.7466396856697 306.32764018162163 836.2427512102533 305.83174747803207 L 841.257578158355 305.5 L 842.61360841682 310.0 C 843.3594250589757 312.475 843.9764699733458 314.6009439341958 843.9848193376424 314.7243198537684 C 843.9931687019391 314.847695773341 842.6723469670978 315.635195773341 841.0496599268843 316.4743198537684 C 836.6470676662752 318.7509887927732 827.387248188161 318.4375974973904 822.127096130268 315.8339005892027 Z" fill="rgb(161,20,117)" stroke="none" /><path d="M 890.8009027963466 317.1904317227586 C 889.3402535008693 316.9177186734507 889.1428571428571 315.0086086369078 889.1428571428571 301.1547174370443 C 889.1428571428571 292.5053371323843 889.05742481203 284.99464285714294 888.953007518797 284.4642857142858 C 888.848590225564 283.93392857142857 888.8164473684211 274.59193954015063 888.8815789473684 263.70431008922367 L 889.0 243.90862017844734 L 895.75 244.20431008922367 L 902.5 244.5 L 902.7624741889538 280.75 C 902.969595015257 309.3552125103013 902.758704325886 317.0293535654435 901.7624741889538 317.1391885318933 C 898.9458139466021 317.4497270026245 892.3547159428597 317.4805390897715 890.8009027963466 317.1904317227586 Z" fill="rgb(166,23,119)" stroke="none" /><path d="M 435.0 280.45431008922367 L 435.0 243.90862017844734 L 441.75 244.20431008922367 L 448.5 244.5 L 448.7624741889538 280.75 L 449.02494837790755 317.0 L 442.0124741889538 317.0 L 435.0 317.0 L 435.0 280.45431008922367 Z" fill="rgb(7,23,55)" stroke="none" /><path d="M 461.97787619708896 316.25 C 461.9340471373252 314.7641887696708 461.9140542975573 267.45765443071843 461.9565144149702 265.70431008922367 C 461.9946801269885 264.1282985451255 462.82577117918805 263.9447938386393 468.75 264.20431008922367 L 475.5 264.5 L 475.7666034066432 290.75 L 476.0332068132863 317.0 L 469.0166034066432 317.0 C 465.1574715329894 317.0 461.99004428869006 316.6625 461.97787619708896 316.25 Z" fill="rgb(8,24,56)" stroke="none" /><path d="M 464.5 255.84526764121568 C 457.49608091681847 252.0144216148619 458.79767079634377 242.34380557016067 466.58008591838404 240.3905437123397 C 470.2171805689706 239.47769106404607 475.7882352501634 242.3128171761333 477.091108737003 245.73963413832544 C 479.7148793604382 252.64067385408413 471.1739468038258 259.49563285673133 464.5 255.84526764121568 Z" fill="rgb(8,24,56)" stroke="none" /><path d="M 530.233306605613 290.79607043948204 L 530.5 264.5 L 537.0 264.5 L 543.5 264.5 L 543.5 290.5 L 543.5 316.5 L 536.733306605613 316.79607043948204 L 529.9666132112262 317.092140878964 L 530.233306605613 290.79607043948204 Z" fill="rgb(8,23,54)" stroke="none" /><path d="M 532.5 255.84526764121568 C 529.2680244625756 254.0775144022404 528.0 251.85666544286326 528.0 247.9638579270072 C 528.0 243.02228676883044 530.8724337661201 240.5 536.5 240.5 C 542.2331768504778 240.5 545.0 243.00656017467895 545.0 248.20044210756663 C 545.0 255.0644613961113 538.4246968924078 259.0858250031835 532.5 255.84526764121568 Z" fill="rgb(8,23,54)" stroke="none" /><path d="M 685.8602226514934 305.7838317103739 C 685.6858124292158 289.2086421960907 685.9369852220575 285.0142955693519 687.2520640781912 282.54140434800127 C 691.1666857304026 275.1802993667207 702.193185297596 274.0673139986651 706.474326048917 280.6011606483595 C 707.7830235220631 282.5984854496382 708.000435552301 285.9714311070246 707.7730742576297 300.75003247399 L 707.5 318.5 L 696.75 318.7838317103739 L 686.0 319.0676634207477 L 685.8602226514934 305.7838317103739 Z" fill="rgb(253,253,253)" stroke="none" /><path d="M 461.83333333333337 316.0072276415136 C 461.65 315.46120284434613 461.62739663731867 303.51598195582585 461.78310363848595 289.4622923336907 L 462.06620727697185 263.9101293843541 L 468.78310363848595 264.2050646921771 L 475.5 264.5 L 475.7666034066432 290.75 L 476.0332068132863 317.0 L 469.0999367399765 317.0 C 465.2866381996561 317.0 462.0166666666667 316.55325243868117 461.83333333333337 316.0072276415136 Z" fill="rgb(6,23,56)" stroke="none" /><path d="M 530.0 290.45431008922367 L 530.0 263.90862017844734 L 536.75 264.20431008922367 L 543.5 264.5 L 543.7666034066432 290.75 L 544.0332068132864 317.0 L 537.0166034066432 317.0 L 530.0 317.0 L 530.0 290.45431008922367 Z" fill="rgb(6,21,54)" stroke="none" /><path d="M 629.5 305.3268382293047 C 621.5324546369262 303.2293882631471 617.3030630791584 290.09980358093594 622.0965433044873 282.3437896519532 C 627.7109744585821 273.259449217132 641.5997424124112 274.0111270787366 645.6131392960202 283.61653786445834 C 648.3427988965398 290.1495328630993 646.7641174162559 298.1929937382123 641.8676482341878 302.7000016221494 C 639.4353025085624 304.9388804865364 633.1208912214574 306.28003495725875 629.5 305.3268382293047 Z" fill="rgb(251,252,252)" stroke="none" /><path d="M 870.270174652825 304.9312533286928 C 862.8560858030966 302.6862889705901 859.5306838633333 290.760583356312 863.9197910062097 282.15722261628815 C 866.1641208406822 277.7579727103243 869.4569431103569 275.98619693529326 875.2970530211257 276.0354354157294 C 883.4370403350723 276.1040643648814 887.9825095401198 281.03184442311345 887.9934107942973 289.7996599268842 C 888.0075434687928 301.1664880490577 880.1086700094962 307.91032086628974 870.270174652825 304.9312533286928 Z" fill="rgb(253,248,253)" stroke="none" /><path d="M 135.25 286.34819735359827 C 134.4339085471698 286.01205645255186 134.0 283.612549594835 134.0 279.4357186948816 C 134.0 273.6316825299552 134.20875773876796 272.9867933361354 136.25 272.4850748784753 C 137.4875 272.18090883060034 147.05 272.0598354179036 157.5 272.2160228502604 L 176.5 272.5 L 176.5 279.5 L 176.5 286.5 L 156.5 286.68153068693164 C 145.5 286.781372564744 135.9375 286.63137256474397 135.25 286.34819735359827 Z" fill="rgb(15,30,65)" stroke="none" /><path d="M 237.42543494265993 319.66628239808944 C 237.03198795540868 318.64097598459557 237.3275877655077 307.55225329600813 237.93066479604408 300.7137880230222 C 237.96879915821984 300.28137143568443 242.3875 300.0563714356844 247.75 300.2137880230222 L 257.5 300.5 L 257.78498309448725 310.75 L 258.0699661889745 321.0 L 248.00359829814852 321.0 C 240.5359989063914 321.0 237.80510351250248 320.65568283137577 237.42543494265993 319.66628239808944 Z" fill="rgb(161,22,118)" stroke="none" /><path d="M 815.4100277648222 143.62613193624134 C 815.1070081421909 142.83647545756594 815.0032893222113 140.68702293722438 815.1795414982009 138.84957077992678 C 815.4480401627982 136.05043682469486 815.9864265130443 135.40561659950703 818.5 134.87268912630066 C 823.3615009399292 133.84195442713542 835.6554297830636 133.91849633114649 838.4925368168789 134.99716250283478 C 840.8353696352209 135.8879059527455 841.08244141406 136.4481958014542 840.8076364780534 140.24716250283478 L 840.5 144.5 L 828.2304862666213 144.78093549418924 C 818.3038444600796 145.0082261661882 815.8557692579361 144.78771564753845 815.4100277648222 143.62613193624134 Z" fill="rgb(254,254,254)" stroke="none" /><path d="M 532.5 255.84526764121568 C 529.2680244625756 254.0775144022404 528.0 251.85666544286326 528.0 247.9638579270072 C 528.0 243.45491367873183 530.4471191034935 241.01690523245324 535.6723839804174 240.3200383349625 C 541.448304313798 239.5497333307794 545.0 242.69766753649586 545.0 248.58727858302314 C 545.0 252.52575798029352 544.6315212067798 253.25406275389508 541.75 255.01096037355268 C 538.1150471236618 257.2272342086993 535.4638379670729 257.4663610268006 532.5 255.84526764121568 Z" fill="rgb(14,28,57)" stroke="none" /><path d="M 466.0 256.2937718631933 C 462.6459651789553 255.06768565184447 460.0 251.60266110168624 460.0 248.43646993560031 C 460.0 239.09881783135788 473.74081004865735 236.92768079857186 477.08979242838075 245.73617198427905 C 479.4321408022311 251.89701508988583 472.3683962217955 258.6217747649393 466.0 256.2937718631933 Z" fill="rgb(13,26,56)" stroke="none" /><path d="M 585.3940416116279 110.58447268879942 C 585.0952877739959 109.8059326676391 584.9969109323483 107.89343266763909 585.1754264079666 106.33447268879942 C 585.4695831119597 103.76562801332226 585.9847598274748 103.4177397100989 590.6727921103623 102.62221402335857 C 597.5057723955465 101.46270593854943 600.611406632124 102.3155846897658 601.4298034413212 105.57633730121086 C 602.7998623971179 111.03508697831482 601.5938717026054 112.0 593.4012275331042 112.0 C 587.8870184515778 112.0 585.7953355215434 111.63022785497031 585.3940416116279 110.58447268879942 Z" fill="rgb(254,254,254)" stroke="none" /><path d="M 800.8034863644386 109.46804466696179 C 799.0011011389099 105.51223999956781 800.7454638251199 103.65316777651319 807.2443431051074 102.60363627648675 C 814.9820257557594 101.35404518097668 816.1864184861131 102.00622723414602 815.8079448873536 107.24085074325791 L 815.5 111.5 L 808.7493853096416 111.79570392274543 C 802.3082637450254 112.07785080875531 801.9439708303529 111.9711354099689 800.8034863644386 109.46804466696179 Z" fill="rgb(254,254,254)" stroke="none" /><path d="M 728.6666666666667 111.33333333333334 C 727.5479473515499 110.21461401821652 727.9242674476737 104.47573255232628 729.2 103.2 C 731.9814321540769 100.41856784592298 742.7091150773282 102.99284080722332 743.6302036276284 106.66274990512146 C 744.7602322927038 111.16514272880212 743.5976886297717 112.0 736.1980514630054 112.0 C 732.4224564916858 112.0 729.0333333333334 111.7 728.6666666666667 111.33333333333334 Z" fill="rgb(254,254,254)" stroke="none" /><path d="M 664.500232851673 462.0010601667227 C 664.0827192330173 460.1001331124037 664.2873695091888 458.3586672114787 665.0339932618233 457.45904062523937 C 666.4389404750603 455.7661827958028 673.5636999573123 455.5034213912077 677.4983068348663 456.99935625976354 C 679.704171031793 457.83802433262906 680.0764198303651 458.5213890363018 679.8134064960409 461.24935625976354 L 679.5 464.5 L 672.3386843052917 464.79201954148334 L 665.1773686105835 465.0840390829667 L 664.500232851673 462.0010601667227 Z" fill="rgb(254,254,254)" stroke="none" /><path d="M 800.6228486004518 70.45954249833295 C 799.4982455882267 67.52887402600722 799.9706247495958 63.948502748565346 801.5624811945254 63.33765011548775 C 802.4218458515145 63.00788095497858 805.9093458515144 63.134504113331005 809.3124811945254 63.61903491182645 L 815.5 64.5 L 815.5 68.0 L 815.5 71.5 L 808.3728486004518 71.79132996656874 C 802.5425563752455 72.02964942182305 801.1323634331133 71.78731686851644 800.6228486004518 70.45954249833295 Z" fill="rgb(254,254,254)" stroke="none" /><path d="M 440.44165229025486 470.7085441284819 C 440.1421236584558 469.92798502608747 440.032717452867 466.41174296438135 440.19852738894645 462.89467288024605 L 440.5 456.5 L 444.0 456.5 L 447.5 456.5 L 447.5 464.0 L 447.5 471.5 L 444.2431249013084 471.81387124823584 C 442.1233870437409 472.01815441757043 440.7961036981564 471.6322296911351 440.44165229025486 470.7085441284819 Z" fill="rgb(254,254,254)" stroke="none" /><path d="M 521.2006518261354 471.1695340739351 C 520.2899415203074 470.5747761803366 519.990839342882 468.25402745539776 520.2006518261354 463.410484156894 L 520.5 456.5 L 524.0 456.5 L 527.5 456.5 L 527.5 464.0 C 527.5 471.2642533554557 527.4214177851519 471.5081426864949 525.0 471.7590499170411 C 523.625 471.90152737141375 521.9152933217609 471.63624524201606 521.2006518261354 471.1695340739351 Z" fill="rgb(254,254,254)" stroke="none" /><path d="M 729.1865467774876 428.30179715202615 C 729.4765028180902 424.7849915484971 729.754000287399 424.47573629218266 732.8883726529427 424.17632129526675 C 734.7519776120612 423.99829800766344 737.3668373512401 424.12623827777395 738.6991720733403 424.4606330066234 C 740.7277270284848 424.9697678906206 741.0710647513351 425.59147471840146 740.8107994203976 428.28431171135674 C 740.5038042539311 431.4606392611753 740.4288420414475 431.5036940641669 734.6865467774876 431.80179715202615 L 728.8730935549752 432.1035943040523 L 729.1865467774876 428.30179715202615 Z" fill="rgb(254,254,254)" stroke="none" /><path d="M 537.4055272954424 384.61440390103394 C 537.1130905839085 383.8523260466026 537.0147137422608 381.2648260466026 537.1869120917812 378.86440390103394 C 537.481029971336 374.7644396826905 537.6795025820329 374.5 540.4625726415154 374.5 C 542.8967434092383 374.5 543.5783726742502 375.03507738482546 544.2842400358547 377.5 C 545.5472174717717 381.9103776624127 543.7233065389992 386.0 540.493366050725 386.0 C 539.0874914468536 386.0 537.6979640069765 385.37648175546525 537.4055272954424 384.61440390103394 Z" fill="rgb(254,254,254)" stroke="none" /></svg>