<?xml version="1.0" encoding="utf-8" ?>
<svg baseProfile="tiny" height="512" version="1.2" width="512" xmlns="http://www.w3.org/2000/svg" xmlns:ev="http://www.w3.org/2001/xml-events" xmlns:xlink="http://www.w3.org/1999/xlink"><defs /><path d="M 0.0 256.0 L 0.0 0.0 L 256.0 0.0 L 512.0 0.0 L 512.0 256.0 L 512.0 512.0 L 256.0 512.0 L 0.0 512.0 L 0.0 256.0 Z" fill="rgb(0,0,0)" stroke="none" /><path d="M 328.2931885903601 397.70346337223975 C 336.45837382350743 395.3466401758651 351.5395344860424 388.47540397175266 355.0 385.5353807186149 C 355.825 384.8344579167388 356.9992788268751 384.08975610882845 357.609508504167 383.8804878121474 C 359.51151714646716 383.2282250270707 365.89898810992173 377.77051938858426 372.62691702799333 371.04902514955813 C 384.5705105536558 359.11685463265843 393.68304706639077 342.87511706641317 398.16412034127654 325.5327680886895 C 400.6288123718376 315.99408244474745 401.0 312.70292161592806 401.0 300.38824456498514 C 401.0 288.55034269421463 400.58737611671773 284.59669119835286 398.4922312247015 276.35947606310935 C 395.91086795221685 266.21065786027367 392.9281469244435 258.4925124088175 389.7916276949522 253.84562950060018 C 388.8062324627285 252.38572572593026 387.9978631939333 250.58572572593027 387.995251542074 249.84562950060018 C 387.9846312492832 246.8360252233685 368.8056137102519 223.99999999999994 366.2885938969396 224.0 C 365.54534397765 224.0 364.7024113886389 223.38807144629953 364.41541036580384 222.6401587695545 C 363.8610395984044 221.1954917071893 350.93796827283427 212.01538378102558 349.4056863820408 211.97776415441115 C 348.90755887191835 211.96553443933732 347.375 211.0755405698523 346.0 210.0 C 344.625 208.92445943014772 342.7822444029504 208.03446556066268 341.90498756211207 208.02223584558885 C 339.9203021514857 207.99456762352065 336.41204658514766 204.25471701333504 337.4225273939787 203.243869196427 C 337.83150691006756 202.83474113839213 375.2537480484587 202.3798343312141 420.58306325707014 202.2329651804758 C 465.91237846568157 202.08609602973746 503.0 201.72464413498128 503.0 201.4297387476842 C 503.0 201.13483336038718 500.525 197.54684924754244 497.5 193.45644071914035 C 494.475 189.36603219073825 492.0 185.56498408549444 492.0 185.00966715193192 C 492.0 184.45435021836937 491.5560390093883 184.0 491.0134200208629 184.0 C 490.4708010323375 183.99999999999997 489.4155078315765 182.53749999999997 488.6683240191719 180.75 C 487.9211402067673 178.9625 486.56510119737897 176.88239987805102 485.654903998309 176.12755528455784 C 484.74470679923905 175.37271069106464 484.0 174.28860158612542 484.0 173.71842394024844 C 484.0 173.14824629437146 482.2 170.2976544859417 480.0 167.3837754770712 C 477.8 164.46989646820066 476.0 161.61650557313988 476.0 161.04290682138057 C 476.0 160.46930806962126 475.54635634110934 160.0 474.99190298024297 160.0 C 474.4374496193766 160.0 473.26358875311365 158.2 472.3833232774365 156.0 C 471.50305780175927 153.79999999999998 470.3675783022969 151.99999999999997 469.8600355008534 152.0 C 469.35249269941 152.00000000000003 468.65513730896856 151.21250000000003 468.310356855428 150.25 C 467.9655764018874 149.2875 466.06719956024045 146.2679108100943 464.091741651768 143.53980180020955 C 459.90704558361125 137.76073305963797 458.59996844234803 135.64785378012476 456.56400931526576 131.37128536502377 C 455.74478605625217 129.65049231578683 454.3827471725391 127.97711547413984 453.5372562403478 127.65267016136377 C 452.6917653081565 127.32822484858771 452.0 126.52703732938778 452.0 125.8722534520306 C 451.99999999999994 125.21746957467343 450.19999999999993 122.29765448594168 447.99999999999994 119.38377547707114 C 445.79999999999995 116.4698964682006 443.99999999999994 113.6646505350225 443.99999999999994 113.14989562556423 C 443.99999999999994 112.63514071610595 443.3674332158181 111.97123895756451 442.5942960351514 111.674558384361 C 441.82115885448474 111.3778778111575 440.8845819565543 109.75099017888623 440.5130140397505 108.05925253486927 C 440.1414461229466 106.36751489085232 438.9740129071285 104.52127588845295 437.918718004599 103.95649919620399 C 436.86342310206953 103.39172250395504 436.0 102.42302513465867 436.0 101.80383837554538 C 436.0 101.18465161643209 433.61454402344714 97.48798430775167 430.6989867187714 93.58902213403334 C 427.7834294140956 89.69005996031501 424.8172287683219 85.06983479066058 424.1074297281631 83.32185509035685 C 423.39763068800426 81.57387539005312 422.18308666455715 79.90049854840578 421.4084430093917 79.60323988669609 C 420.63379935422626 79.3059812249864 420.0 78.5270373293872 420.0 77.8722534520312 C 420.0 77.2174695746752 418.2 74.29765448594316 416.0 71.38377547707111 C 413.8 68.46989646819907 412.0 65.66465053501886 412.0 65.14989562555957 C 412.00000000000006 64.63514071610027 411.3674332158185 63.97123895756068 410.5942960351521 63.674558384360495 C 409.82115885448576 63.37787781116031 408.87872563866733 61.72432653819812 408.50000000000006 60.000000000000085 C 408.1212743613328 58.27567346180205 407.19957941078724 56.630080207911 406.4517889987877 56.343126102464424 C 405.70399858678826 56.05617199701785 404.13026331532836 54.1910808368813 402.95459950665463 52.19847907993875 C 400.95882579543866 48.81589455697474 400.74436659185653 48.70573144896133 399.72165265253295 50.537783397294334 C 399.11919569143976 51.61700252878245 397.35918874648894 53.85 395.8105261081978 55.5 C 394.2618634699066 57.15 392.7211590899784 59.34883744018851 392.3867385972462 60.38630542264113 C 392.05231810451403 61.42377340509375 390.1931688862565 64.34877340509375 388.25529589000723 66.88630542264113 C 386.31742289375796 69.4238374401885 384.2388745269583 72.625 383.63629951934115 74.0 C 383.0337245117241 75.375 382.3039890416919 76.725 382.0146651414919 77.0 C 380.8268242931842 78.12903300784616 376.0 84.909465756034 376.0 85.44904020068486 C 376.0 85.76940640923254 373.975 88.81446850660885 371.5 92.2158448615211 C 369.025 95.61722121643336 367.0 98.98512826778249 367.0 99.70008275340805 C 367.0 100.41503723903362 366.4375 101.03552631578947 365.75 101.07894736842104 C 364.75 101.14210526315787 364.75 101.25877192982453 365.75 101.66228070175433 C 366.4375 101.93969298245607 367.0 102.6057243141353 367.0 103.14235032770819 C 367.0 103.67897634128107 366.50014772929165 103.80910829609822 365.88921717620366 103.43153244952407 C 364.86271544797756 102.79711949196982 360.11763169660236 107.52678048712258 360.03596291905023 109.26576210811487 C 360.0161833135726 109.68693126757805 357.975 112.81446850661084 355.5 116.21584486152108 C 353.025 119.61722121643132 351.0 122.98512826777961 351.0 123.7000827534062 C 351.0 124.4150372390328 350.4375 125.03552631578947 349.75 125.07894736842104 C 348.75 125.14210526315787 348.75 125.25877192982455 349.75 125.66228070175438 C 350.4375 125.93969298245615 351.0 126.56504350831464 351.0 127.0519485369955 C 351.00000000000006 127.53885356567635 350.37599150241743 127.69777587923133 349.61331444981647 127.40510923378437 C 348.37339006804086 126.92930560473246 344.0 131.67667070749954 344.0 133.49842648089066 C 344.0 133.8777534960407 341.975 136.85081208593232 339.5 140.1052233473165 C 337.025 143.35963460870067 335.0 146.29451974579854 335.0 146.6271903186451 C 335.0 146.95986089149164 333.425 149.3776252481013 331.5 151.99999999999994 C 329.575 154.62237475189858 328.0 157.0401391085082 328.0 157.3728096813547 C 328.0 157.7054802542012 325.975 160.64036539129916 323.5 163.89477665268345 C 321.025 167.14918791406774 319.0 170.10120001826547 319.0 170.4548035509006 C 319.0 171.51039565348182 310.6029133892111 183.4341609440751 309.25 184.29969011357025 C 308.5625 184.73951967603386 308.0 185.5759051676135 308.0 186.15832453930278 C 308.0 186.74074391099202 305.8882092608233 190.09338335988542 303.3071316907184 193.60863442573253 L 298.61426338143684 200.0 L 292.34585677351004 200.0 C 281.83551150914974 199.99999999999994 266.72266914088084 204.14038921327673 255.80188202888914 210.01176847848103 C 253.76791714477815 211.10529581531648 251.4277776958849 212.0 250.6015721424597 212.0 C 249.77536658903452 212.00000000000003 248.7395196760344 212.56250000000003 248.2996901135706 213.25 C 247.85986055110675 213.9375 244.9125 216.24229985491627 241.75 218.3717774553695 C 238.5875 220.50125505582275 236.0 222.63875505582274 236.0 223.1217774553695 C 236.0 223.60479985491628 235.5285714285713 224.0 234.95238095238065 224.0 C 233.96031985360403 224.0 224.0 233.4094336017854 224.0 234.3466256975267 C 224.0 234.58965078354703 222.61665828882332 236.26936163827855 220.92590730849628 238.079316485819 C 219.23515632816924 239.88927133335943 216.98044369367727 242.97436119804397 215.91543478740303 244.93507174067352 C 214.85042588112879 246.89578228330308 213.4313226858297 249.4 212.76187213118288 250.5 C 209.1994843652798 256.3534965955187 208.41833443015759 257.91363485377974 206.75355897571 262.5 C 205.7553540021039 265.25 203.78891069139678 271.98524852020387 202.3836849519164 277.4672189337864 C 200.07040342098747 286.49163440992817 199.8658265325266 288.85639499135965 200.2209196167357 302.4672189337864 C 200.68421189480293 320.22535028321465 202.98325352922927 330.6784467716286 209.2083441803478 343.3305137689059 C 213.8907745810069 352.84723030516744 220.8849193118929 364.0 222.17062908078015 364.0 C 222.6613063623237 364.0 223.35315582797733 364.7875 223.70807233778828 365.75 C 225.01936581418943 369.3061038614644 244.15837883653202 386.0 246.92404364168277 386.0 C 247.51581963875725 386.0 248.0 386.45 248.0 387.0 C 248.0 387.55 248.87344235253127 388.0 249.94098300562507 388.0 C 251.00852365871884 388.0 252.12995288592506 388.4012511919879 252.4330479549722 388.8916693155287 C 253.51092784407456 390.6357156118863 265.62410565126896 395.7589830291311 273.5 397.80193470673305 C 285.3592176433829 400.8781324700384 285.18443877938256 400.8619111714226 303.0 400.53984190107644 C 317.11768443352867 400.2846227548381 320.7695848519838 399.87509858988943 328.2931885903601 397.70346337223975 Z" fill="rgb(0,0,0)" stroke="none" /><path d="M 201.9876673468549 149.0 C 201.91907240422267 104.95968567304587 201.57178855726903 66.94871068798665 201.10366225902044 52.24371382344914 L 201.0 48.98742764689828 L 125.25 49.24371382344914 L 49.5 49.5 L 49.35334638110645 123.27016721503988 C 49.272686890714986 163.84375918331182 48.92591607129282 198.15903787303267 48.58274456016828 199.52634208108623 L 47.95879635812367 202.01234973209267 L 125.01411751081423 201.75617486604634 L 202.0694386635048 201.5 L 201.9876673468549 149.0 Z" fill="rgb(0,0,0)" stroke="none" /><path d="M -7.82119210940125e-15 358.5673876705571 L -1.56423842188025e-14 205.13477534111422 L 2.0960811260076633 204.46950503523195 C 3.2489257453118876 204.1036063669967 30.136425745311882 203.85906011749543 61.84608112600767 203.92606892522912 C 93.55573650670345 203.9930777329628 150.8875 204.0982914544408 189.25 204.1598771951802 C 247.4395574768954 204.25329256176246 259.0 204.49793447065832 259.0 205.63592563462208 C 258.99999999999994 206.3861665355757 258.6624999999996 206.8874999999944 258.24999999999926 206.7499999999969 C 257.8374999999989 206.61249999999941 256.48749999999893 207.51250000000113 255.24999999999932 208.7500000000007 C 254.01249999999973 209.9875000000003 251.87500000000006 210.99999999999994 250.50000000000003 210.99999999999997 C 249.125 211.0 248.0 211.4252338564533 247.99999999999997 211.9449641254518 C 247.99999999999994 212.4646943944503 245.41610756508368 214.7402129037539 242.25801681129713 217.00167192390424 C 239.0999260575106 219.26313094405458 236.15256550640296 221.7628970876013 235.7083266977246 222.55670779845244 C 235.26408788904627 223.35051850930358 234.3004644377458 224.0 233.56694125039024 224.0 C 232.83341806303466 224.0 231.9979074409411 224.9 231.7102509790712 226.0 C 231.42259451720128 227.1 230.50043485516872 228.0 229.66100728566545 228.00000000000003 C 228.8215797161622 228.00000000000006 227.86232071872539 228.85842850136729 227.52932062469472 229.90761889192723 C 227.19632053066402 230.95680928248717 226.26599607891336 232.06768612413416 225.46193295413764 232.37623409558717 C 224.65786982936194 232.68478206704017 224.0 233.57820860379067 224.0 234.3616263994771 C 223.99999999999997 235.14504419516354 223.37858690931154 236.02448096865177 222.61908202069233 236.31593034056203 C 221.85957713207313 236.6073797124723 219.0987722446903 240.3680246743546 216.48396004873052 244.6729191447449 C 213.86914785277074 248.9778136151352 210.89056094345918 253.71927837163923 209.86487802803816 255.20950749253166 C 208.83919511261715 256.6997366134241 207.9972276662911 258.4997366134241 207.99383925842474 259.20950749253166 C 207.99045085055837 259.9192783716392 207.30529593255739 261.80851173734874 206.47127277397811 263.40780386077495 C 205.63724961539884 265.0070959842012 203.8400219491077 270.71364515778185 202.47743351555334 276.08902424650967 C 199.12220692389786 289.3253136605349 198.91597846276014 311.57006213781665 202.04234100660108 323.02009948509414 C 204.66984105297436 332.6430952954219 208.8887747708675 343.77063353748605 211.19269282063698 347.15437049939976 C 212.18671176928663 348.61427427406966 213.0 350.1130138467965 213.0 350.48490288323717 C 213.0 351.5028478870277 220.12268498333017 362.1889898602122 222.45745230985096 364.6738889642188 C 223.58085353943292 365.8695278945391 225.76578361763362 368.2320278945391 227.31285248363028 369.9238889642188 C 228.85992134962694 371.61575003389845 230.54742134962694 373.0 231.06285248363028 373.0 C 231.57828361763362 373.0 232.0 373.4715846624407 232.0 374.0479659165349 C 232.0 375.4190683889123 237.14038505444873 379.9277060911901 238.75 379.9683987572687 C 239.4375 379.9857794407709 239.99999999999997 380.43259029042713 239.99999999999994 380.96131175650476 C 239.99999999999991 382.364424145551 255.3782670378716 391.1787464275888 263.3697762729379 394.35610710122796 C 275.8981179525441 399.3372763632273 285.14345442709043 400.98531398612334 300.6020890206722 400.9929939646353 C 312.5091331758644 400.9989094834154 316.32265322423655 400.59286487907417 325.1020890206722 398.38435609721256 C 342.5258539108123 394.00132526639436 356.9942799132713 385.8253701866072 370.8358376925265 372.54069662051427 C 377.47616766221057 366.16752552046614 386.3065400321478 354.9844574890053 387.8098602646312 351.0442476329674 C 388.13391008367216 350.1949114348354 389.89197126053745 346.85562287972164 391.7166628798874 343.6236063993814 C 393.702416976534 340.1063052301287 396.269954188647 332.8801616715833 398.11228309468095 325.6236063993814 C 401.0769717496974 313.9463065320577 401.1719112395814 312.91099172328063 400.69124827765575 297.5 C 400.2769330810977 284.2162469947658 399.770470152182 280.1418765026171 397.70793826267305 273.5 C 394.979784982706 264.7146535731552 391.96326964890864 256.7795260560635 391.05536485062004 256.0 C 390.7350755959027 255.725 389.3540910821288 253.25361188776438 387.9865103755669 250.50802641725417 C 383.5797500229401 241.66091623345326 369.9426247939121 225.34316869172886 365.5455023107158 223.65583447546751 C 364.6954760398221 223.32964878992405 363.99999999999994 222.37364643431243 364.0 221.5313847963306 C 364.0 220.68912315834876 363.39474440295044 220.00000000000003 362.65498756211207 220.00000000000006 C 361.91523072127376 220.00000000000009 360.49548631832334 219.1000000000001 359.5 218.00000000000009 C 358.5045136816767 216.90000000000006 357.15451368167675 216.00000000000006 356.5 216.00000000000006 C 355.8454863183233 216.00000000000006 354.49548631832334 215.10000000000005 353.5 214.00000000000003 C 352.5045136816767 212.9 350.9446219297128 212.0 350.0335738845247 212.00000000000003 C 347.41542856595106 212.00000000000009 343.8290977963821 208.11382566449524 344.4991075945163 206.00281172070135 C 344.89374700983603 204.75941302589024 344.50214991043015 204.00629112836472 343.29157432601386 203.68047647388903 C 342.30620844670625 203.4152748230119 379.075 203.26617603193714 425.0 203.34914582705622 C 470.925 203.4321156221753 509.2875 203.8856449618871 510.25 204.35698880419355 C 511.90533634253666 205.1676200686099 512.0 213.51154530502305 512.0 358.6069888041935 L 512.0 512.0 L 256.0 512.0 L 0.0 512.0 L -7.82119210940125e-15 358.5673876705571 Z" fill="rgb(0,0,0)" stroke="none" /><path d="M 252.1860255542265 206.35550791298292 C 252.57118566003848 204.12302064731745 247.75909496696005 203.45435186981774 222.2020410710034 202.18905396858707 C 209.50811057978066 201.56059328316147 204.53414113005383 200.95568373133767 203.51416361361288 199.91632678528907 C 202.35883904554063 198.7390512126308 202.0715642540187 186.066270645782 201.81212254260947 124.83284001528911 C 201.64045514417427 84.31590202369811 201.12476318699643 50.790902023698116 200.66614041554763 50.33284001528911 C 199.7235533343547 49.39140544554966 51.14596693353497 49.520699733131686 50.20289143392239 50.46377523274427 C 49.86826248891524 50.798404177751415 49.4377399555986 84.43696444433687 49.24617469321875 125.21613138071193 C 49.054609430838894 165.995298317087 48.52644275539606 200.02378246302928 48.072470970012446 200.83498503836148 C 47.320271576293145 202.17909078456503 32.820782059948385 202.53982818717253 0.75 202.0123358163629 C 0.3374999999999999 202.00555111736332 0.0 156.55 0.0 101.0 L 0.0 0.0 L 256.0 0.0 L 512.0 0.0 L 512.0 101.5 C 512.0 201.74949892720676 511.97577757158365 203.0 510.0339269291736 203.0 C 506.52445055763286 203.0 501.47283881829577 199.91102489386688 499.4631464633028 196.53614660105325 C 498.38341590848626 194.72295404823063 495.3906630260973 190.14806047320258 492.8125845024384 186.36971643432423 C 490.23450597877957 182.59137239544592 486.7682752894076 177.475 485.10984963716743 175.0 C 483.45142398492726 172.525 480.9223207519368 168.925 479.48962023052206 167.0 C 478.05691970910726 165.075 474.46159060537235 159.675 471.5 155.0 C 468.5384093946277 150.325 464.9384093946277 144.925 463.5 143.0 C 462.0615906053724 141.075 458.46159060537235 135.675 455.5 131.0 C 452.5384093946277 126.325 448.9218185842433 120.925 447.4631315324791 119.0 C 445.04863183255674 115.81363324866066 436.90085723321806 103.58196223447457 426.5 87.52955059002149 C 424.3 84.13412799879436 421.71250000000003 80.56879974430372 420.75 79.60659891337565 C 419.7875 78.64439808244757 419.00000000000006 77.31681546082086 419.0 76.65641530976073 C 419.0 75.9960151587006 417.7420959922174 73.89065801584348 416.2046577604831 71.97784388118934 C 414.66721952874883 70.0650297465352 411.87727894103773 66.025 410.00478978779176 63.0 C 408.13230063454574 59.975 405.6082467161716 56.279126221529815 404.39578108029355 54.786947158955144 C 403.1833154444155 53.29476809638047 401.9890007659389 51.494768096380476 401.7417484614566 50.786947158955144 C 401.0770613094318 48.88411562003047 397.54885531289545 52.33659436891146 393.9272992515744 58.43367182804012 C 392.272179172727 61.220152322618056 389.39131801067106 65.525 387.5253855581167 68.0 C 385.65945310556225 70.475 384.1029053516683 73.00739987805102 384.06639054946345 73.62755528455783 C 384.02987574725853 74.24771069106464 383.3278575471551 75.31293925951253 382.50635010478914 75.99472988110871 C 381.68484266242314 76.67652050270489 379.6411460973229 79.54412062465387 377.9648021823443 82.36717459655088 C 376.2884582673656 85.19022856844789 373.4731007202105 89.54704435461731 371.7084520775552 92.04898745470513 C 368.11304880139903 97.1465996373071 367.13587403077 98.62365950313814 363.23080093811313 104.8634794278511 C 361.7288604221509 107.26339311316923 358.87930253038405 111.31339311316923 356.89845006752006 113.8634794278511 C 354.91759760465607 116.413565742533 352.66759760465607 119.67479550434446 351.89845006752006 121.11065667632101 C 351.12930253038405 122.54651784829758 349.1591945195033 125.69651784829759 347.5204322655629 128.110656676321 C 345.8816700116225 130.52479550434447 344.08167001162246 133.2228826786152 343.5204322655629 134.1064059524782 C 342.1154746981048 136.31814726594902 334.6731576659697 147.27187356271244 333.7409574794199 148.5 C 333.32348409310083 149.05 329.7234840931008 154.45 325.7409574794199 160.5 C 321.75843086573894 166.55 318.27372527576085 171.725 317.99716727946856 172.0 C 317.4697277646463 172.52446817130837 310.22235112380173 183.12679894998865 308.5 185.89359404752162 C 304.9819146368783 191.54506731616738 300.6505727164879 197.13134045907265 298.7600696332023 198.45550036243682 C 297.2919341483209 199.48382248419048 294.2620556706547 200.0 289.69410672841207 200.0 C 283.082454949898 200.0 269.17416870906766 202.8142423001413 264.0 205.1990188271481 C 262.625 205.8327569035444 260.34611542490364 206.4403711965511 258.9358120553414 206.5492728116074 C 257.52550868577913 206.6581744266637 255.35922018518107 207.06860027165123 254.12183760956788 207.46133024491303 C 252.30089598730436 208.03927466462363 251.93189960211822 207.8284874438217 252.1860255542265 206.35550791298292 Z" fill="rgb(0,0,0)" stroke="none" /><path d="M 290.0 398.96112399746517 C 280.6295150630745 398.1153770215332 271.1073025158412 396.103919680775 266.5 393.9970206156779 C 261.21389536003124 391.5797083411609 250.19982514748705 386.2061733767561 246.75 384.36140784955234 C 245.2375 383.5526109567799 244.0 382.4654227344964 244.0 381.94543402225577 C 244.0 381.4254453100151 243.35668858036883 381.0 242.57041906748626 381.0 C 239.87845082172365 381.0 221.54992267029084 361.80641779031646 217.4365303368716 354.67986367403 C 205.06027527604408 333.2376951914929 201.99986137964927 322.3806204965739 202.00017137824273 299.9180870304059 C 202.00034847456843 287.08566705550453 203.9067035220044 273.8979312662189 206.518264705072 268.6629327789992 C 207.3332191172824 267.0293179348456 208.00000000000003 265.25563161582556 208.00000000000006 264.7214076256213 C 208.00000000000006 262.9973263354422 213.2466448747573 251.99999999999994 214.06917591447285 251.99999999999997 C 214.5070027239 252.0 215.1713704423575 250.9875 215.54554862215616 249.75 C 216.4513710107533 246.75422080600205 222.1427805762958 238.2377616412478 225.7368727623251 234.5 C 231.09842177231843 228.92412960215051 240.80640325672772 220.0 241.5104818199539 220.0 C 241.89518978644432 220.0 244.0752119087008 218.7466375650215 246.35497542496825 217.21475014449223 C 251.00267201630726 214.09172975579602 263.29592660128264 208.0 264.95055894628274 208.0 C 265.54267725470817 207.99999999999997 266.8085317088777 207.602502135208 267.76356884443726 207.11667141157335 C 268.71860597999677 206.63084068793873 270.625 205.77677848103622 272.0 205.21875539623443 C 274.8887769623818 204.0463886821598 288.8555003903409 201.99009449144282 294.0 201.9797371376489 C 298.4203762087081 201.97083765202942 302.1196674347112 201.00264297108416 301.50893962320526 200.01446461419272 C 301.0216778394684 199.22605848668758 303.2468904092588 195.8195794265427 334.5064774419038 149.5 C 344.8994396894599 134.1 363.66043741921516 106.20057040660555 376.1975835080267 87.50126757023455 C 388.7347295968383 68.80196473386354 399.4726247666479 53.34245841111748 400.05957277427035 53.14680907524328 C 401.4064923631497 52.69783587895006 402.0297488508885 53.514084569571466 413.3098100501071 70.5 C 418.4232507468852 78.2 423.37901976335667 85.625 424.32263008671043 87.0 C 425.26624041006414 88.375 429.1488690014116 94.225 432.950693623038 100.0 C 436.7525182446644 105.775 440.24853774522677 110.95 440.7196258465099 111.5 C 443.40385420527815 114.6338630572525 498.9999999999999 198.2404488567515 498.99999999999994 199.14318159898903 C 499.0 200.27592824831194 502.1340786676596 200.22593738572755 432.5 200.2039055674605 C 398.95 200.19329054221708 364.8987601894633 200.41717298566945 356.8305781988073 200.70142210846575 L 342.1611563976146 201.21823869536811 L 342.74092797344196 204.85911934768404 C 343.3015884881414 208.37998533283312 346.1494678357503 211.98081470797462 348.40300968740934 212.01819726902357 C 350.9739881379046 212.06084558230447 368.6506276878876 226.12434320568275 373.9382955906059 232.3340175693948 C 374.7972330157727 233.34272723256194 376.55325908321066 235.36772723256195 377.8405757404681 236.8340175693948 C 379.1278923977256 238.30030790622766 382.0799082780007 242.425 384.4006110299684 246.0 C 388.27957669901735 251.97547542661047 389.5760215543711 254.49250417999258 394.31050059083947 265.2399058583543 C 395.21663386175055 267.2968540804492 396.9096412587914 273.5968540804492 398.0727392509302 279.2399058583543 C 400.80326978706825 292.4877364802976 400.3542721652328 314.17210064061084 397.1024844439452 326.0984136539065 C 394.55278059475313 335.4497516879363 388.4971501242581 349.16601053574624 384.55917790057896 354.509532891533 C 375.6495807979342 366.5991639490513 373.2184043376928 369.51742935565926 368.58641571838837 373.6824559954507 C 357.176120771562 383.9424515022068 336.8720548925796 394.9789821067592 326.5 396.5590570604974 C 324.3 396.8942042356932 321.15 397.56119793807494 319.5 398.04126528801237 C 315.6089952396714 399.1733527691546 298.3232468047861 399.71235094702706 290.0 398.96112399746517 Z" fill="rgb(0,171,82)" stroke="none" /><path d="M 278.5 397.5593869691344 C 259.5069925624739 393.2606309616277 243.40749375539062 384.4764592726321 230.06153951017222 371.1305050274136 C 211.86710652932712 352.93607204656865 200.9949237607821 326.8250382299832 201.00319485519822 301.34291627061054 C 201.01230615733962 273.2722280770969 210.7549081791344 249.26452539101675 229.9792664686732 229.9401318039282 C 244.26927248913051 215.5757667342525 261.9946353598415 206.3241039425298 282.6880098652289 202.42907188164332 C 294.5068502216753 200.204458293421 314.0820106868237 200.91403631801663 326.0 203.99908385962195 C 351.6060200197523 210.62736544608862 375.12701328031324 228.9947987450309 387.8066154696186 252.2635799417282 C 407.4721289692912 288.3524511785992 403.30211523414994 331.99861775392463 377.1311669040641 364.0 C 372.8401020506381 369.24703976658435 371.4130253922171 370.692509281791 364.47017504678473 376.8241728669477 C 342.61002696764234 396.1302312254135 308.5168120967652 404.35320052139065 278.5 397.5593869691344 Z" fill="rgb(0,255,0)" stroke="none" /><path d="M 50.46243204118139 199.75637364070028 C 50.19860256484052 199.06536813831514 50.09912511525344 165.2 50.241371042099 124.5 L 50.5 50.5 L 125.5 50.5 L 200.5 50.5 L 200.5 125.5 L 200.5 200.5 L 125.7210609990824 200.75637364070028 C 66.42785167125936 200.95965568972736 50.84278454968008 200.75256890994697 50.46243204118139 199.75637364070028 Z" fill="rgb(255,0,0)" stroke="none" /><path d="M 302.3758432197775 199.53704843983024 C 301.8001385551527 198.03678613246856 398.5957143604288 51.876166757616424 400.5 51.37028140200586 C 401.8315438096676 51.01654848522746 500.2238305667342 198.828817540928 499.46939314364045 200.0495229338786 C 499.1046472802959 200.63969413802596 461.7427022785939 201.0 400.9095982092864 201.0 C 315.8482490887103 201.0 302.863249542835 200.80720895751446 302.3758432197775 199.53704843983024 Z" fill="rgb(0,0,255)" stroke="none" /></svg>