<?xml version="1.0" encoding="UTF-8"?>
<!-- Generator: visioncortex VTracer 0.6.4 -->
<svg version="1.1" xmlns="http://www.w3.org/2000/svg" width="1024" height="559">
<path d="M0 0 C337.92 0 675.84 0 1024 0 C1024 184.47 1024 368.94 1024 559 C686.08 559 348.16 559 0 559 C0 374.53 0 190.06 0 0 Z " fill="#FEFEFE" transform="translate(0,0)"/>
<path d="M0 0 C14.94653 11.45093 26.97427 28.89695 29.5 47.875 C31.44135 68.62981 27.79506 89.8027 14.54883 106.48242 C8.46531 113.75458 2.05882 119.97788 -6.125 124.8125 C-6.75406 125.18504 -7.38313 125.55758 -8.03125 125.94141 C-25.70038 135.48723 -47.29445 139.08819 -66.77197 133.3252 C-69.94012 132.27836 -73.04047 131.08587 -76.125 129.8125 C-75.47547 127.27726 -75.32511 126.93257 -72.9375 125.5 C-69.919 124.76215 -68.54153 125.11702 -65.70068 126.23438 C-51.2514 131.53588 -30.76965 128.5192 -17.10547 122.28906 C1.41746 113.3686 12.93183 99.30228 20.125 80.1875 C25.81902 63.74831 23.31403 45.28987 15.875 29.8125 C7.253 13.64882 -6.62489 1.30154 -24.07812 -4.59766 C-40.35082 -9.28693 -58.82728 -9.0496 -74.41016 -2.28516 C-76.23519 -1.33504 -76.23519 -1.33504 -76.87109 0.44141 C-76.95488 0.89387 -77.03867 1.34633 -77.125 1.8125 C-76.23684 1.72355 -75.34867 1.63461 -74.43359 1.54297 C-71.14369 1.55358 -69.68492 2.53088 -67.39722 4.80835 C-66.79841 5.46009 -66.79841 5.46009 -66.1875 6.125 C-65.75929 6.57432 -65.33108 7.02364 -64.88989 7.48657 C-49.14369 24.53587 -45.125 45.11551 -45.125 67.8125 C-67.235 67.8125 -89.345 67.8125 -112.125 67.8125 C-113.115 66.4925 -114.105 65.1725 -115.125 63.8125 C-115.00383 64.46734 -114.88266 65.12219 -114.75781 65.79688 C-114.59023 66.70953 -114.42266 67.62219 -114.25 68.5625 C-114.15614 69.05766 -114.06228 69.55282 -113.96558 70.06299 C-113.48686 72.6304 -113.08587 75.15957 -112.79297 77.75781 C-111.19497 90.92816 -104.31458 100.58124 -95.125 109.8125 C-99.125 112.8125 -99.125 112.8125 -100.88281 112.58594 C-103.80838 111.57677 -105.18434 109.82233 -107 107.4375 C-107.34587 106.99052 -107.69174 106.54354 -108.0481 106.08301 C-113.27269 99.14906 -116.948 91.75853 -119.9375 83.625 C-120.14464 83.06716 -120.35177 82.50932 -120.56519 81.93457 C-125.35368 68.17245 -124.39665 51.56188 -120.125 37.8125 C-119.70734 36.39904 -119.70734 36.39904 -119.28125 34.95703 C-113.01864 15.81829 -97.97614 1.23082 -80.4375 -7.9375 C-54.58151 -20.6608 -23.07161 -16.91597 0 0 Z " fill="#FAF8FB" transform="translate(305.125,219.1875)"/>
<path d="M0 0 C-1.62697 1.72865 -3.27619 3.37067 -5 5 C-5.56251 5.5497 -6.12503 6.09941 -6.70459 6.66577 C-11.57521 10.91887 -15.14158 11.56786 -21.52661 11.27148 C-22.03302 11.23628 -22.53943 11.20107 -23.06119 11.16479 C-37.84766 10.19756 -49.41408 13.17188 -60.80225 22.93506 C-66.53384 28.03111 -70.58858 33.54039 -74.3125 40.1875 C-74.63823 40.75026 -74.96396 41.31301 -75.29956 41.89282 C-78.81478 48.5402 -79.30211 54.07653 -81 62 C-67.14 62 -53.28 62 -39 62 C-39 66.95 -39 71.9 -39 77 C-52.86 77 -66.72 77 -81 77 C-78.81774 88.54459 -78.81774 88.54459 -74.375 98.75 C-73.85559 99.68103 -73.85559 99.68103 -73.32568 100.63086 C-67.80582 110.16404 -60.52029 117.48621 -51 123 C-50.57445 123.25685 -50.1489 123.51369 -49.71045 123.77832 C-38.3667 130.37539 -22.94985 129.59472 -10.45312 126.82422 C-3.18004 124.38055 3.44841 120.29393 9 115 C12.78799 115.53748 14.73309 117.36381 17.25 120.0625 C17.79527 120.62808 17.79527 120.62808 18.35156 121.20508 C19.24139 122.13003 20.12168 123.06412 21 124 C15.76526 132.47834 2.81966 139.81664 -6.8125 142.125 C-26.44136 146.55256 -45.73874 144.48377 -63 134 C-66.22057 131.91828 -69.14084 129.55382 -72 127 C-72.67418 126.40703 -73.34836 125.81406 -74.04297 125.20312 C-88.02705 112.11164 -96.29478 93.39481 -97.45703 74.36328 C-97.79721 63.63245 -96.89811 54.00883 -93 44 C-92.71117 43.20844 -92.71117 43.20844 -92.4165 42.40088 C-85.67525 23.94551 -72.11611 8.89597 -54.43896 0.30762 C-37.45612 -7.42301 -16.91031 -7.95779 0 0 Z " fill="#0A1A3C" transform="translate(216,210)"/>
<path d="M0 0 C4.95 0 9.9 0 15 0 C15 24.42 15 48.84 15 74 C10.38 74 5.76 74 1 74 C0.67 72.35 0.34 70.7 0 69 C-0.39832 69.27715 -0.79664 69.5543 -1.20703 69.83984 C-1.73684 70.20207 -2.26664 70.5643 -2.8125 70.9375 C-3.59561 71.47697 -3.59561 71.47697 -4.39453 72.02734 C-10.1382 75.50709 -18.84555 74.79306 -25.23047 73.57422 C-31.48208 71.24238 -36.31439 65.81387 -39.4375 60.0625 C-42.25653 52.90463 -42.62993 43.31893 -40.11719 35.99219 C-37.06065 29.37306 -32.31124 23.453 -25.75 20.0625 C-19.17818 17.7049 -12.25955 18.14806 -5.9375 20.9375 C-4.61466 21.6049 -3.29976 22.2887 -2 23 C-1.34 23.33 -0.68 23.66 0 24 C0 16.08 0 8.16 0 0 Z " fill="#A51477" transform="translate(888,244)"/>
<path d="M0 0 C14.94653 11.45093 26.97427 28.89695 29.5 47.875 C31.44135 68.62981 27.79506 89.8027 14.54883 106.48242 C8.46531 113.75458 2.05882 119.97788 -6.125 124.8125 C-6.75406 125.18504 -7.38313 125.55758 -8.03125 125.94141 C-25.70038 135.48723 -47.29445 139.08819 -66.77197 133.3252 C-69.94012 132.27836 -73.04047 131.08587 -76.125 129.8125 C-75.47547 127.27726 -75.32511 126.93257 -72.9375 125.5 C-69.919 124.76215 -68.54153 125.11702 -65.70068 126.23438 C-51.2514 131.53588 -30.76965 128.5192 -17.10547 122.28906 C1.41746 113.3686 12.93183 99.30228 20.125 80.1875 C25.81902 63.74831 23.31403 45.28987 15.875 29.8125 C7.253 13.64882 -6.62489 1.30154 -24.07812 -4.59766 C-42.89989 -10.02149 -63.23169 -8.58561 -80.55176 0.56641 C-98.37023 10.50579 -108.98605 24.96965 -114.87109 44.25781 C-119.54434 63.2731 -114.91477 81.39504 -105.125 97.8125 C-103.01175 101.0096 -100.62065 103.90618 -98.125 106.8125 C-97.11612 108.13912 -96.11356 109.47067 -95.125 110.8125 C-97.21928 112.08403 -98.54444 112.86387 -101.02344 112.64453 C-103.808 111.54209 -105.23497 109.75582 -107 107.4375 C-107.34587 106.99052 -107.69174 106.54354 -108.0481 106.08301 C-113.27269 99.14906 -116.948 91.75853 -119.9375 83.625 C-120.14464 83.06716 -120.35177 82.50932 -120.56519 81.93457 C-125.35368 68.17245 -124.39665 51.56188 -120.125 37.8125 C-119.70734 36.39904 -119.70734 36.39904 -119.28125 34.95703 C-113.01864 15.81829 -97.97614 1.23082 -80.4375 -7.9375 C-54.58151 -20.6608 -23.07161 -16.91597 0 0 Z " fill="#99166F" transform="translate(305.125,219.1875)"/>
<path d="M0 0 C1.99212 2.17076 3.52028 4.45792 5 7 C5.32098 7.51176 5.64195 8.02352 5.97266 8.55078 C9.28978 14.76846 9.08802 22.91841 7.30859 29.59375 C4.04462 37.56932 -1.06738 43.5162 -8.96094 47.11719 C-17.21808 49.91062 -27.98983 49.20143 -35.81641 45.45312 C-41.9717 41.35694 -46.67577 35.68822 -48.59375 28.44531 C-49.94555 20.30851 -49.84626 13.68122 -45.69531 6.32812 C-41.70854 0.8532 -36.08132 -4.71757 -29.35938 -6.41406 C-18.81629 -7.79592 -8.69659 -6.80508 0 0 Z " fill="#0A1A3B" transform="translate(654,270)"/>
<path d="M0 0 C16.83 0 33.66 0 51 0 C51 3.96 51 7.92 51 12 C39.12 12 27.24 12 15 12 C15 17.28 15 22.56 15 28 C25.23 28 35.46 28 46 28 C46 31.96 46 35.92 46 40 C35.77 40 25.54 40 15 40 C15 45.61 15 51.22 15 57 C27.21 57 39.42 57 52 57 C52 61.29 52 65.58 52 70 C34.84 70 17.68 70 0 70 C0 46.9 0 23.8 0 0 Z " fill="#06173A" transform="translate(373,248)"/>
<path d="M0 0 C1.65702 1.25887 2.96141 2.38865 4.375 3.875 C4.76075 4.27284 5.1465 4.67067 5.54395 5.08057 C21.20935 21.81318 25 42.71354 25 65 C2.89 65 -19.22 65 -42 65 C-42 60.05 -42 55.1 -42 50 C-25.17 50 -8.34 50 9 50 C6.95829 38.96013 6.95829 38.96013 3 28.875 C2.7102 28.30862 2.42041 27.74224 2.12183 27.15869 C-1.48745 20.52767 -6.65911 15.25943 -12 10 C-12.77784 9.22185 -13.55523 8.44325 -14.33203 7.66406 C-14.88246 7.11492 -15.43289 6.56578 -16 6 C-14.28176 4.79332 -12.55336 3.61074 -10.8125 2.4375 C-10.32975 2.09525 -9.84699 1.75301 -9.34961 1.40039 C-5.95858 -0.85271 -4.00017 -1.5884 0 0 Z " fill="#0C1C3E" transform="translate(235,222)"/>
<path d="M0 0 C5.26214 3.42422 8.16095 7.00628 10 13 C10.37865 16.08146 10.35174 19.11405 10.29297 22.21484 C10.28872 23.07058 10.28448 23.92633 10.28011 24.808 C10.26343 27.51816 10.2258 30.22756 10.1875 32.9375 C10.17244 34.78449 10.15875 36.6315 10.14648 38.47852 C10.11356 42.98597 10.06185 47.49285 10 52 C5.38 52 0.76 52 -4 52 C-4.02973 50.49433 -4.02973 50.49433 -4.06006 48.95825 C-4.13634 45.22135 -4.22502 41.48483 -4.31738 37.74829 C-4.35558 36.13346 -4.39045 34.51854 -4.42188 32.90356 C-4.46773 30.57734 -4.52569 28.25167 -4.58594 25.92578 C-4.59749 25.20788 -4.60904 24.48998 -4.62094 23.75032 C-4.73885 19.71327 -5.14154 16.61258 -7 13 C-10.54604 10.88077 -16.06268 11.42764 -20 12 C-22.21582 13.32234 -23.56536 14.87793 -25 17 C-25.34276 17.45599 -25.68552 17.91198 -26.03867 18.38179 C-27.11057 20.18613 -27.26956 21.19991 -27.31885 23.27808 C-27.33872 23.91851 -27.35859 24.55895 -27.37906 25.2188 C-27.39639 26.24551 -27.39639 26.24551 -27.41406 27.29297 C-27.43343 27.999 -27.45279 28.70503 -27.47275 29.43245 C-27.53245 31.68401 -27.57889 33.93562 -27.625 36.1875 C-27.66319 37.71552 -27.70224 39.24351 -27.74219 40.77148 C-27.83977 44.51421 -27.91941 48.25671 -28 52 C-32.62 52 -37.24 52 -42 52 C-42 34.51 -42 17.02 -42 -1 C-37.38 -1 -32.76 -1 -28 -1 C-27.67 0.65 -27.34 2.3 -27 4 C-26.52949 3.65066 -26.05898 3.30133 -25.57422 2.94141 C-24.9516 2.48637 -24.32898 2.03133 -23.6875 1.5625 C-23.07262 1.11004 -22.45773 0.65758 -21.82422 0.19141 C-15.85588 -3.70654 -6.27749 -3.08705 0 0 Z " fill="#081739" transform="translate(713,265)"/>
<path d="M0 0 C14.85 0 29.7 0 45 0 C45 11.46099 45 11.46099 40.0625 16.4375 C39.04851 17.54339 38.03551 18.65017 37.02344 19.75781 C36.51394 20.29954 36.00443 20.84127 35.47949 21.39941 C33.27465 23.78472 31.22897 26.28742 29.1875 28.8125 C28.85178 29.21976 28.51606 29.62703 28.17017 30.04663 C24.97762 33.94223 22.03123 37.95836 19 42 C28.24 42 37.48 42 47 42 C47 45.96 47 49.92 47 54 C31.16 54 15.32 54 -1 54 C-1 44 -1 44 0.43359 41.44141 C1.42553 40.51135 1.42553 40.51135 2.4375 39.5625 C3.17965 38.82418 3.91913 38.08318 4.65625 37.33984 C5.04297 36.96199 5.42969 36.58413 5.82812 36.19482 C7.85127 34.13206 9.63184 31.87752 11.4375 29.625 C12.18457 28.70417 12.93197 27.7836 13.67969 26.86328 C14.05577 26.39874 14.43186 25.93419 14.81934 25.45557 C16.89165 22.90074 18.97808 20.35745 21.0625 17.8125 C22.36188 16.22438 23.66125 14.63625 25 13 C16.75 12.67 8.5 12.34 0 12 C0 8.04 0 4.08 0 0 Z " fill="#0F1E3F" transform="translate(554,264)"/>
<path d="M0 0 C4.95 0 9.9 0 15 0 C15 4.29 15 8.58 15 13 C19.29 13 23.58 13 28 13 C28 16.96 28 20.92 28 25 C23.71 25 19.42 25 15 25 C15.09689 28.8092 15.19957 32.6173 15.31738 36.42578 C15.35569 37.72158 15.39054 39.01749 15.42188 40.31348 C15.4675 42.17552 15.52549 44.03682 15.58594 45.89844 C15.59749 46.47871 15.60904 47.05898 15.62094 47.65683 C15.72738 51.24125 15.72738 51.24125 18 54 C20.44013 54.24287 20.44013 54.24287 23.125 54.125 C24.03508 54.10695 24.94516 54.08891 25.88281 54.07031 C26.58148 54.04711 27.28016 54.02391 28 54 C28.50615 55.2684 29.00469 56.53983 29.5 57.8125 C29.77844 58.5202 30.05687 59.22789 30.34375 59.95703 C31 62 31 62 31 65 C26.92387 66.93404 23.54802 67.33664 19.0625 67.3125 C18.4676 67.32861 17.8727 67.34473 17.25977 67.36133 C12.42489 67.36661 8.31965 66.22633 4.76196 62.81177 C0.48607 58.06135 -0.30448 52.43894 -0.19531 46.28906 C-0.19107 45.36956 -0.19107 45.36956 -0.18674 44.43149 C-0.17565 42.49578 -0.15056 40.56056 -0.125 38.625 C-0.11496 37.30339 -0.10583 35.98178 -0.09766 34.66016 C-0.07574 31.43992 -0.04129 28.22004 0 25 C-2.64 25 -5.28 25 -8 25 C-8 21.04 -8 17.08 -8 13 C-5.36 13 -2.72 13 0 13 C0 8.71 0 4.42 0 0 Z " fill="#101F3E" transform="translate(491,251)"/>
<path d="M0 0 C4.62 0 9.24 0 14 0 C14 18.81 14 37.62 14 57 C24.89 57 35.78 57 47 57 C47 60.96 47 64.92 47 69 C31.49 69 15.98 69 0 69 C0 46.23 0 23.46 0 0 Z " fill="#A10F71" transform="translate(758,248)"/>
<path d="M0 0 C4.62 0 9.24 0 14 0 C14 4.62 14 9.24 14 14 C18.29 14 22.58 14 27 14 C27 17.63 27 21.26 27 25 C22.71 25 18.42 25 14 25 C14.33 34.57 14.66 44.14 15 54 C18.96 54 22.92 54 27 54 C30.34821 62.03571 30.34821 62.03571 29 66 C22.83772 67.88079 14.79134 68.20747 8.63281 66.24609 C4.89653 64.20156 2.03661 61.61712 0.43678 57.57805 C-0.0242 55.91257 -0.12057 54.539 -0.11353 52.81372 C-0.11341 51.8831 -0.11341 51.8831 -0.1133 50.93367 C-0.10814 50.27107 -0.10297 49.60846 -0.09766 48.92578 C-0.09624 48.24195 -0.09483 47.55812 -0.09337 46.85356 C-0.08778 44.67316 -0.07523 42.49287 -0.0625 40.3125 C-0.05748 38.83268 -0.05292 37.35287 -0.04883 35.87305 C-0.03781 32.24866 -0.02056 28.62435 0 25 C-2.64 25 -5.28 25 -8 25 C-8 21.37 -8 17.74 -8 14 C-5.36 14 -2.72 14 0 14 C0 9.38 0 4.76 0 0 Z " fill="#A31475" transform="translate(814,251)"/>
<path d="M0 0 C4.62 0 9.24 0 14 0 C14 24.09 14 48.18 14 73 C9.38 73 4.76 73 0 73 C0 48.91 0 24.82 0 0 Z " fill="#071737" transform="translate(435,244)"/>
<path d="M0 0 C4.95 0 9.9 0 15 0 C15 17.82 15 35.64 15 54 C10.05 54 5.1 54 0 54 C0 36.18 0 18.36 0 0 Z " fill="#101F3F" transform="translate(461,264)"/>
<path d="M0 0 C4.62 0 9.24 0 14 0 C14 17.49 14 34.98 14 53 C9.38 53 4.76 53 0 53 C0 35.51 0 18.02 0 0 Z " fill="#061536" transform="translate(530,264)"/>
<path d="M0 0 C0.53609 0.00282 1.07218 0.00564 1.62451 0.00854 C5.81526 0.17992 8.18694 1.17217 11.10156 4.11328 C11.45992 4.5709 11.81828 5.02852 12.1875 5.5 C12.55875 5.92023 12.93 6.34047 13.3125 6.77344 C15.40873 10.90975 14.79218 16.96271 14.1875 21.5 C12.89024 25.23752 10.29445 28.19237 6.73438 30.02734 C2.68874 31.26351 -1.67533 31.35856 -5.62109 29.77344 C-8.99674 27.70259 -11.22695 25.16705 -12.8125 21.5 C-13.12833 19.38596 -13.29105 17.66066 -13.25 15.5625 C-13.2446 15.03471 -13.2392 14.50692 -13.23364 13.96313 C-13.05835 9.47835 -11.92868 6.65787 -8.8125 3.5 C-8.39227 2.96504 -7.97203 2.43008 -7.53906 1.87891 C-5.14643 -0.03195 -2.94353 -0.034 0 0 Z " fill="#F8F9FA" transform="translate(632.8125,275.5)"/>
<path d="M0 0 C3.60754 1.32348 5.43577 2.85208 7.13281 6.30469 C8.83864 11.6066 9.11955 18.23121 6.875 23.4375 C4.91318 26.57096 2.45335 28.66949 -1 30 C-5.36791 30.76712 -9.43918 30.69309 -13.375 28.5 C-17.39065 25.3321 -18.56298 20.83253 -19.31641 15.94922 C-19.62334 10.85021 -18.2423 6.9528 -15 3 C-10.52803 -1.14286 -5.79587 -0.75489 0 0 Z " fill="#FCF4FA" transform="translate(880,276)"/>
<path d="M0 0 C6.6 0 13.2 0 20 0 C20 6.6 20 13.2 20 20 C13.4 20 6.8 20 0 20 C0 13.4 0 6.8 0 0 Z " fill="#9F0F72" transform="translate(238,301)"/>
<path d="M0 0 C2.19826 0.95258 3.63686 2.02087 5 4 C5.67492 6.33474 5.92509 8.57561 6 11 C0 17 0 17 -2.75 17.25 C-6.29166 17.19026 -8.20861 16.15336 -11 14 C-12.03505 11.75101 -12.10879 9.76569 -12.0625 7.3125 C-12.05348 6.68988 -12.04445 6.06727 -12.03516 5.42578 C-12 4 -12 4 -9.9375 2 C-6.7649 -0.51651 -3.92135 -0.86843 0 0 Z " fill="#0A1838" transform="translate(472,240)"/>
<path d="M0 0 C1.98618 1.15487 3.3311 2.38167 5 4 C5.60906 10.97039 5.60906 10.97039 4.17969 13.38672 C1.70787 15.84938 -0.3774 16.91699 -3.8125 17.375 C-6.43766 17.3105 -7.87274 16.69993 -9.875 15 C-12.01599 12.62644 -12.30688 10.85052 -12.3125 7.6875 C-12.07889 4.0765 -12.07889 4.0765 -9.9375 2 C-6.79288 -0.49432 -3.89162 -0.92193 0 0 Z " fill="#0A1A3A" transform="translate(540,240)"/>
<path d="M0 0 C0.99 0.495 0.99 0.495 2 1 C2 23.11 2 45.22 2 68 C18.5 68 35 68 52 68 C52 68.66 52 69.32 52 70 C34.84 70 17.68 70 0 70 C0 46.9 0 23.8 0 0 Z " fill="#242B44" transform="translate(373,248)"/>
<path d="M0 0 C4.62 0 9.24 0 14 0 C14 24.42 14 48.84 14 74 C9.38 74 4.76 74 0 74 C0 73.34 0 72.68 0 72 C3.96 72 7.92 72 12 72 C12 48.57 12 25.14 12 1 C8.37 1 4.74 1 1 1 C1 8.92 1 16.84 1 25 C0.67 25 0.34 25 0 25 C0 16.75 0 8.5 0 0 Z " fill="#9C387C" transform="translate(889,244)"/>
<path d="M0 0 C2.20349 3.30523 2.24563 4.27661 2.22705 8.11401 C2.22734 8.62164 2.22763 9.12926 2.22794 9.65227 C2.22655 11.32434 2.211 12.99597 2.19531 14.66797 C2.19158 15.82953 2.18873 16.9911 2.18674 18.15266 C2.17911 21.2056 2.15947 24.25835 2.13733 27.31122 C2.11685 30.42816 2.10773 33.54512 2.09766 36.66211 C2.07623 42.77483 2.0421 48.88739 2 55 C3.03556 55.03758 3.03556 55.03758 4.09204 55.07593 C6.68462 55.17179 9.27702 55.27097 11.86938 55.37231 C12.98555 55.41529 14.10176 55.45698 15.21802 55.49731 C21.19909 55.71427 27.08827 55.99068 33 57 C33 57.33 33 57.66 33 58 C22.11 58 11.22 58 0 58 C0 38.86 0 19.72 0 0 Z " fill="#FEEFFE" transform="translate(773,247)"/>
<path d="M0 0 C2 4 2 4 2 7 C3.03556 7.03758 3.03556 7.03758 4.09204 7.07593 C6.68462 7.17179 9.27702 7.27097 11.86938 7.37231 C12.98555 7.41529 14.10176 7.45698 15.21802 7.49731 C21.19909 7.71427 27.08827 7.99068 33 9 C33 9.33 33 9.66 33 10 C22.11 10 11.22 10 0 10 C0 6.7 0 3.4 0 0 Z " fill="#F6CDEA" transform="translate(773,295)"/>
<path d="M0 0 C0.33 0 0.66 0 1 0 C1.33 10.23 1.66 20.46 2 31 C-0.76667 26.84999 -1.12655 23.79461 -1.13281 18.86719 C-1.1341 17.89652 -1.13539 16.92586 -1.13672 15.92578 C-1.13462 15.42514 -1.13253 14.9245 -1.13037 14.40869 C-1.12499 12.87262 -1.13035 11.33684 -1.13672 9.80078 C-1.13543 8.8327 -1.13414 7.86461 -1.13281 6.86719 C-1.13168 5.98144 -1.13056 5.09569 -1.12939 4.18311 C-1 2 -1 2 0 0 Z " fill="#2D3247" transform="translate(120,266)"/>
<path d="M0 0 C4.29 0 8.58 0 13 0 C13 3.63 13 7.26 13 11 C8.38 11 3.76 11 -1 11 C-0.67 10.34 -0.34 9.68 0 9 C3.63 9 7.26 9 11 9 C11 6.36 11 3.72 11 1 C7.37 1 3.74 1 0 1 C0 0.67 0 0.34 0 0 Z " fill="#8C1D68" transform="translate(828,265)"/>
<path d="M0 0 C0.33 0 0.66 0 1 0 C1.33 3.63 1.66 7.26 2 11 C4.97 11 7.94 11 11 11 C11.99 12.485 11.99 12.485 13 14 C8.71 14 4.42 14 0 14 C0 9.38 0 4.76 0 0 Z " fill="#F1C8E8" transform="translate(828,251)"/>
<path d="M0 0 C1.98618 1.15487 3.3311 2.38167 5 4 C5 4.66 5 5.32 5 6 C4.34 6 3.68 6 3 6 C2.76539 5.51918 2.53078 5.03836 2.28906 4.54297 C1.08848 2.79269 1.08848 2.79269 -1.16406 2.48828 C-1.97617 2.43027 -2.78828 2.37227 -3.625 2.3125 C-4.44227 2.24676 -5.25953 2.18102 -6.10156 2.11328 C-6.72805 2.0759 -7.35453 2.03852 -8 2 C-8.66 3.32 -9.32 4.64 -10 6 C-10.66 5.34 -11.32 4.68 -12 4 C-8.24475 0.35854 -5.2864 -1.25236 0 0 Z " fill="#2A3042" transform="translate(540,240)"/>
<path d="M0 0 C-1.08609 2.76458 -1.88242 3.91955 -4.375 5.625 C-8.35106 8.5274 -9.46952 13.5197 -11 18 C-11.33 18 -11.66 18 -12 18 C-11.55281 10.44241 -8.34766 6.14827 -3.14844 0.88281 C-2 0 -2 0 0 0 Z " fill="#891765" transform="translate(860,267)"/>
<path d="M0 0 C0.33 0.66 0.66 1.32 1 2 C0.54109 2.02578 0.08219 2.05156 -0.39062 2.07812 C-3.70145 2.38417 -6.04454 2.61771 -8.4375 5.0625 C-8.95312 5.70188 -9.46875 6.34125 -10 7 C-10.66 6.67 -11.32 6.34 -12 6 C-9.31209 -0.20288 -6.28027 -0.30971 0 0 Z " fill="#252D41" transform="translate(472,240)"/>
<path d="M0 0 C-1.95532 1.17199 -3.91392 2.33771 -5.875 3.5 C-6.43059 3.83387 -6.98617 4.16773 -7.55859 4.51172 C-8.09355 4.82754 -8.62852 5.14336 -9.17969 5.46875 C-9.67195 5.76201 -10.16421 6.05527 -10.67139 6.35742 C-12 7 -12 7 -14 7 C-13.67 6.01 -13.34 5.02 -13 4 C-11.68 4 -10.36 4 -9 4 C-9 3.34 -9 2.68 -9 2 C-4.17857 -1.34821 -4.17857 -1.34821 0 0 Z " fill="#F9DDF5" transform="translate(301,335)"/>
<path d="M0 0 C2.97 0 5.94 0 9 0 C7.03618 1.5056 5.21737 2.89132 3 4 C2.67 5.98 2.34 7.96 2 10 C1.67 10 1.34 10 1 10 C0.67 6.7 0.34 3.4 0 0 Z " fill="#040B25" transform="translate(483,265)"/>
<path d="M0 0 C0.66 0 1.32 0 2 0 C0.61398 4.85107 -2.00198 7.04549 -6 10 C-5.50202 5.68414 -2.7971 3.09642 0 0 Z " fill="#131B36" transform="translate(574,283)"/>
<path d="M0 0 C0.66 0.33 1.32 0.66 2 1 C1.49234 7.54705 1.49234 7.54705 -0.5625 9.4375 C-1.03688 9.62312 -1.51125 9.80875 -2 10 C-2.66 9.34 -3.32 8.68 -4 8 C-3.52562 7.60813 -3.05125 7.21625 -2.5625 6.8125 C-0.6482 4.59192 -0.38733 2.86624 0 0 Z " fill="#242A42" transform="translate(476,245)"/>
<path d="M0 0 C0.33 0.99 0.66 1.98 1 3 C0.56688 3.35063 0.13375 3.70125 -0.3125 4.0625 C-2.64068 6.73559 -3.73255 9.71901 -5 13 C-5.66 12.67 -6.32 12.34 -7 12 C-5.46501 7.39503 -2.91152 3.85609 0 0 Z " fill="#F5D2EC" transform="translate(202,238)"/>
<path d="M0 0 C0.66 0.66 1.32 1.32 2 2 C0.02 5.3 -1.96 8.6 -4 12 C-5 8 -5 8 -4.00391 5.85938 C-3.52824 5.16328 -3.05258 4.46719 -2.5625 3.75 C-1.85287 2.69039 -1.85287 2.69039 -1.12891 1.60938 C-0.75637 1.07828 -0.38383 0.54719 0 0 Z " fill="#F7D7F1" transform="translate(195,233)"/>
<path d="M0 0 C0.66 0.33 1.32 0.66 2 1 C-0.31 3.64 -2.62 6.28 -5 9 C-5.66 8.34 -6.32 7.68 -7 7 C-4.69 4.69 -2.38 2.38 0 0 Z " fill="#F6D8F0" transform="translate(311,322)"/>
<path d="M0 0 C0.33 0 0.66 0 1 0 C1.39619 5.28254 0.06334 9.16099 -2 14 C-3.26255 11.23483 -2.82344 9.34129 -2.125 6.4375 C-1.94195 5.65246 -1.75891 4.86742 -1.57031 4.05859 C-1 2 -1 2 0 0 Z " fill="#870E60" transform="translate(186,255)"/>
<path d="M0 0 C1.65 0 3.3 0 5 0 C3.35 1.32 1.7 2.64 0 4 C-0.33 3.34 -0.66 2.68 -1 2 C-0.67 1.34 -0.34 0.68 0 0 Z M-4 3 C-3.01 3.33 -2.02 3.66 -1 4 C-1.66 5.98 -2.32 7.96 -3 10 C-3.33 10 -3.66 10 -4 10 C-4 7.69 -4 5.38 -4 3 Z " fill="#06112B" transform="translate(532,242)"/>
<path d="M0 0 C0.66 0.33 1.32 0.66 2 1 C1.67 1.99 1.34 2.98 1 4 C2.32 4.66 3.64 5.32 5 6 C-0.75 5.125 -0.75 5.125 -3 4 C-2.625 2.5625 -2.625 2.5625 -2 1 C-1.34 0.67 -0.68 0.34 0 0 Z " fill="#811661" transform="translate(232,345)"/>
<path d="M0 0 C1.43656 -0.08131 2.87445 -0.13934 4.3125 -0.1875 C5.51326 -0.23971 5.51326 -0.23971 6.73828 -0.29297 C9.47852 0.06198 10.29171 0.89366 12 3 C10.56163 2.88541 9.12429 2.75791 7.6875 2.625 C6.88699 2.55539 6.08648 2.48578 5.26172 2.41406 C2.98713 1.99764 1.78854 1.42389 0 0 Z " fill="#EEC6E6" transform="translate(235,344)"/>
<path d="M0 0 C0.66 0 1.32 0 2 0 C2.22451 1.0801 2.42886 2.16439 2.625 3.25 C2.74102 3.85328 2.85703 4.45656 2.97656 5.07812 C3 7 3 7 1 11 C0.67 7.37 0.34 3.74 0 0 Z " fill="#131D33" transform="translate(256,261)"/>
<path d="M0 0 C0.76312 0.30937 1.52625 0.61875 2.3125 0.9375 C4.20228 1.68462 6.06486 2.3889 8 3 C8.33 4.32 8.66 5.64 9 7 C8.01 7.495 8.01 7.495 7 8 C6.40188 7.23687 5.80375 6.47375 5.1875 5.6875 C3.56871 3.65969 1.88396 1.78976 0 0 Z " fill="#1B243B" transform="translate(638,275)"/>
<path d="M0 0 C1.42945 2.35439 2.08661 3.48032 1.625 6.25 C1.41875 6.8275 1.2125 7.405 1 8 C0.34 8 -0.32 8 -1 8 C-1.02692 6.85429 -1.04636 5.70841 -1.0625 4.5625 C-1.0799 3.60537 -1.0799 3.60537 -1.09766 2.62891 C-1 1 -1 1 0 0 Z " fill="#942A74" transform="translate(842,309)"/>
<path d="M0 0 C0.33 0 0.66 0 1 0 C1 3.96 1 7.92 1 12 C-0.32 11.67 -1.64 11.34 -3 11 C-2.34 10.34 -1.68 9.68 -1 9 C-0.53994 6.79749 -0.53994 6.79749 -0.375 4.375 C-0.30023 3.55773 -0.22547 2.74047 -0.14844 1.89844 C-0.09945 1.27195 -0.05047 0.64547 0 0 Z " fill="#FFEFFF" transform="translate(812,252)"/>
<path d="M0 0 C0.66 0.66 1.32 1.32 2 2 C-0.97 4.475 -0.97 4.475 -4 7 C-3.43629 3.73046 -2.50038 2.17424 0 0 Z " fill="#0D152F" transform="translate(562,298)"/>
<path d="M0 0 C1.65 0 3.3 0 5 0 C3.35 1.65 1.7 3.3 0 5 C-0.66 4.67 -1.32 4.34 -2 4 C-1.34 2.68 -0.68 1.36 0 0 Z " fill="#181F35" transform="translate(206,214)"/>
</svg>
