<?xml version="1.0" encoding="UTF-8"?>
<!-- Generator: visioncortex VTracer 0.6.4 -->
<svg version="1.1" xmlns="http://www.w3.org/2000/svg" width="1024" height="559">
<path d="M0 0 C337.92 0 675.84 0 1024 0 C1024 184.47 1024 368.94 1024 559 C686.08 559 348.16 559 0 559 C0 374.53 0 190.06 0 0 Z " fill="#FEFEFE" transform="translate(0,0)"/>
<path d="M0 0 C1.29067 -0.01837 1.29067 -0.01837 2.60742 -0.03711 C10.25518 -0.0544 17.15945 1.29278 24.375 3.8125 C25.50615 4.20309 25.50615 4.20309 26.66016 4.60156 C27.20543 4.79492 27.7507 4.98828 28.3125 5.1875 C26.68571 6.91597 25.03573 8.55792 23.3125 10.1875 C22.77609 10.71473 22.23968 11.24195 21.68701 11.78516 C16.6943 16.14691 13.15722 16.70223 6.63306 16.3064 C5.57852 16.22591 4.52399 16.14542 3.4375 16.0625 C-11.17387 15.51515 -22.252 19.15911 -33.4375 28.6875 C-34.89144 30.1514 -36.3127 31.64904 -37.6875 33.1875 C-38.25469 33.81141 -38.82188 34.43531 -39.40625 35.07812 C-46.89718 44.17426 -49.87259 54.92788 -52.6875 66.1875 C-38.8275 66.5175 -24.9675 66.8475 -10.6875 67.1875 C-10.6875 72.1375 -10.6875 77.0875 -10.6875 82.1875 C-24.5475 82.1875 -38.4075 82.1875 -52.6875 82.1875 C-48.62714 101.13584 -42.48706 115.28718 -26.125 126.1875 C-17.12242 131.71868 -9.14822 133.83108 1.375 133.625 C2.91124 133.63563 2.91124 133.63563 4.47852 133.64648 C13.7266 133.56966 20.74873 131.43826 28.6875 126.6875 C29.68523 126.09969 30.68297 125.51188 31.71094 124.90625 C34.29814 123.35387 34.29814 123.35387 35.91406 121.40625 C37.3125 120.1875 37.3125 120.1875 39.23438 120.24609 C41.93278 121.46849 43.5239 123.10947 45.5625 125.25 C46.62211 126.35021 46.62211 126.35021 47.70312 127.47266 C48.23422 128.03855 48.76531 128.60445 49.3125 129.1875 C37.71654 141.50821 23.04355 148.66758 6.03125 149.43359 C-14.59554 149.94411 -31.6808 143.8643 -46.875 129.5625 C-54.80355 121.2637 -61.29422 111.18805 -64.6875 100.1875 C-65.05746 99.03121 -65.42742 97.87492 -65.80859 96.68359 C-71.51092 77.51387 -69.67284 57.12843 -60.6875 39.1875 C-50.14581 20.11864 -34.36147 7.72141 -13.6875 1.1875 C-9.12841 -0.12019 -4.7123 0.00345 0 0 Z " fill="#08183B" transform="translate(187.6875,204.8125)"/>
<path d="M0 0 C4.95 0 9.9 0 15 0 C15.02255 9.50075 15.04092 19.00148 15.05181 28.50224 C15.05704 32.91337 15.06414 37.32448 15.07544 41.7356 C15.08627 45.98901 15.09228 50.24241 15.09488 54.49584 C15.09673 56.12222 15.10035 57.7486 15.10573 59.37497 C15.11294 61.6451 15.11399 63.91516 15.11353 66.1853 C15.11575 67.47992 15.11797 68.77454 15.12025 70.10838 C15 73 15 73 14 74 C11.81361 74.07259 9.625 74.08374 7.4375 74.0625 C5.64119 74.04896 5.64119 74.04896 3.80859 74.03516 C2.41834 74.01775 2.41834 74.01775 1 74 C0.67 72.35 0.34 70.7 0 69 C-0.68062 69.61875 -1.36125 70.2375 -2.0625 70.875 C-7.90393 75.10072 -13.34002 75.35838 -20.28516 74.53906 C-28.00314 73.00657 -32.6088 68.8936 -37.6875 63.0625 C-42.14906 56.05147 -42.02989 47.02542 -41 39 C-39.11637 32.84318 -35.92594 28.1681 -31 24 C-30.38125 23.44313 -29.7625 22.88625 -29.125 22.3125 C-23.6703 18.94342 -17.27236 18.11289 -11 19 C-7.85608 20.08394 -4.93971 21.45246 -2 23 C-1.34 23.33 -0.68 23.66 0 24 C0 16.08 0 8.16 0 0 Z " fill="#A61477" transform="translate(888,244)"/>
<path d="M0 0 C0 0.66 0 1.32 0 2 C0.73477 2.2475 1.46953 2.495 2.22656 2.75 C14.48943 8.27693 22.44892 24.10425 27 36 C33.65516 55.41215 32.22599 75.1888 24 94 C17.58992 106.27432 8.73939 117.4139 -3 125 C-3.99 125 -4.98 125 -6 125 C-6 125.66 -6 126.32 -6 127 C-28.19643 136.50203 -49.41821 141.00801 -72.9375 132.3125 C-73.94813 131.87937 -74.95875 131.44625 -76 131 C-73.8125 128.4375 -73.8125 128.4375 -71 126 C-68.6875 126.0625 -68.6875 126.0625 -66 127 C-59.49442 128.95094 -53.52545 129.35083 -46.75 129.3125 C-45.21702 129.30513 -45.21702 129.30513 -43.65308 129.29761 C-36.39302 129.18477 -29.85143 128.54248 -23 126 C-22.00098 125.64809 -21.00195 125.29617 -19.97266 124.93359 C-12.88248 122.22449 -6.98503 118.63526 -1 114 C-0.38641 113.56301 0.22719 113.12602 0.85938 112.67578 C14.10213 102.56147 21.80768 84.02735 24 68 C25.40656 49.41714 19.64963 33.84036 9 19 C8.2575 17.94813 7.515 16.89625 6.75 15.8125 C-6.6397 2.11849 -23.88813 -5.86634 -42.92993 -6.34399 C-61.05358 -6.5348 -74.47036 -2.87879 -89 8 C-89.83016 8.61617 -90.66031 9.23234 -91.51562 9.86719 C-101.99329 18.40319 -109.16756 30.14712 -113 43 C-113.24363 43.80437 -113.48727 44.60875 -113.73828 45.4375 C-118.35744 64.03982 -113.66173 82.86471 -104 99 C-101.99696 101.77455 -99.9231 104.41209 -97.69922 107.01172 C-96 109 -96 109 -94 112 C-96.08851 113.26802 -97.42198 114.04767 -99.89453 113.84375 C-104.48973 112.00226 -107.15681 106.87449 -110 103 C-110.46793 102.39156 -110.93586 101.78312 -111.41797 101.15625 C-114.5856 96.64571 -116.39223 91.64957 -118.25 86.5 C-118.50862 85.78771 -118.76724 85.07542 -119.03369 84.34155 C-125.34057 66.04993 -123.13235 44.85004 -114.75 27.625 C-111.47485 21.4736 -107.65705 16.17035 -103 11 C-102.4702 10.38898 -101.94039 9.77797 -101.39453 9.14844 C-73.77652 -20.71993 -32.59452 -18.89237 0 0 Z " fill="#A21475" transform="translate(304,218)"/>
<path d="M0 0 C5.50268 4.24165 10.77778 9.25076 12 16.3125 C12.90473 26.19278 11.44856 34.34962 5.125 42.1875 C-0.1324 47.80245 -4.88264 50.07274 -12.48828 50.51562 C-22.47478 50.63803 -29.80094 50.03726 -37.46484 42.98438 C-43.40607 36.51403 -45.50759 28.80267 -45.30859 20.1875 C-44.49927 12.6475 -41.45174 6.85514 -35.86328 1.78125 C-24.74448 -6.98326 -11.94233 -6.71756 0 0 Z " fill="#0B193C" transform="translate(650,267.6875)"/>
<path d="M0 0 C16.83 0 33.66 0 51 0 C51 3.96 51 7.92 51 12 C39.12 12 27.24 12 15 12 C15 17.28 15 22.56 15 28 C25.23 28 35.46 28 46 28 C46 31.96 46 35.92 46 40 C35.77 40 25.54 40 15 40 C15 45.61 15 51.22 15 57 C27.21 57 39.42 57 52 57 C52 61.29 52 65.58 52 70 C34.84 70 17.68 70 0 70 C0 46.9 0 23.8 0 0 Z " fill="#08183C" transform="translate(373,248)"/>
<path d="M0 0 C9.91465 3.82212 16.50428 17.05519 20.98047 26.20312 C26.7344 39.57254 27.37109 51.24562 27.37109 65.91406 C5.26109 65.91406 -16.84891 65.91406 -39.62891 65.91406 C-39.62891 60.96406 -39.62891 56.01406 -39.62891 50.91406 C-22.79891 50.91406 -5.96891 50.91406 11.37109 50.91406 C7.56814 33.16695 2.85614 23.26527 -9.62891 10.91406 C-10.78326 9.75777 -10.78326 9.75777 -11.96094 8.57812 C-12.51137 8.02898 -13.0618 7.47984 -13.62891 6.91406 C-11.91228 5.70851 -10.18002 4.52519 -8.44141 3.35156 C-7.47848 2.69027 -6.51555 2.02898 -5.52344 1.34766 C-2.62891 -0.08594 -2.62891 -0.08594 0 0 Z " fill="#071638" transform="translate(232.62890625,221.0859375)"/>
<path d="M0 0 C4.18667 4.18667 6.49585 8.94041 6.7666 14.89258 C6.76598 16.5431 6.74399 18.19373 6.70312 19.84375 C6.69747 20.72027 6.69181 21.59679 6.68597 22.49988 C6.66377 25.27133 6.6136 28.04144 6.5625 30.8125 C6.54241 32.70311 6.52417 34.59373 6.50781 36.48438 C6.46395 41.09426 6.39504 45.70315 6.3125 50.3125 C1.6925 50.3125 -2.9275 50.3125 -7.6875 50.3125 C-7.71723 48.7614 -7.71723 48.7614 -7.74756 47.17896 C-7.82382 43.33024 -7.91251 39.4819 -8.00488 35.63354 C-8.04309 33.97021 -8.07795 32.30679 -8.10938 30.64331 C-8.15521 28.24759 -8.21317 25.85242 -8.27344 23.45703 C-8.28499 22.71726 -8.29654 21.97748 -8.30844 21.21529 C-8.42269 17.18852 -8.77475 13.89413 -10.6875 10.3125 C-12.53338 9.41454 -12.53338 9.41454 -14.6875 9.3125 C-15.40809 9.22227 -16.12867 9.13203 -16.87109 9.03906 C-21.24844 8.84182 -23.06321 8.82104 -26.625 11.625 C-30.13414 16.19751 -31.00647 18.97058 -31.10156 24.60547 C-31.12093 25.3115 -31.14029 26.01753 -31.16025 26.74495 C-31.21995 28.99651 -31.26639 31.24812 -31.3125 33.5 C-31.35069 35.02802 -31.38974 36.55601 -31.42969 38.08398 C-31.52727 41.82671 -31.60691 45.56921 -31.6875 49.3125 C-36.3075 49.3125 -40.9275 49.3125 -45.6875 49.3125 C-45.6875 31.8225 -45.6875 14.3325 -45.6875 -3.6875 C-41.0675 -3.6875 -36.4475 -3.6875 -31.6875 -3.6875 C-31.3575 -2.0375 -31.0275 -0.3875 -30.6875 1.3125 C-30.22859 0.96316 -29.76969 0.61383 -29.29688 0.25391 C-28.68328 -0.20113 -28.06969 -0.65617 -27.4375 -1.125 C-26.83422 -1.57746 -26.23094 -2.02992 -25.60938 -2.49609 C-17.39881 -7.58598 -7.52632 -4.72583 0 0 Z " fill="#08183C" transform="translate(716.6875,267.6875)"/>
<path d="M0 0 C14.85 0 29.7 0 45 0 C45 11.46099 45 11.46099 40.0625 16.4375 C39.04851 17.54339 38.03551 18.65017 37.02344 19.75781 C36.51394 20.29954 36.00443 20.84127 35.47949 21.39941 C33.27506 23.78427 31.23359 26.29155 29.1875 28.8125 C28.52105 29.62332 27.85461 30.43414 27.16797 31.26953 C24.37278 34.78996 21.6971 38.40387 19 42 C27.91 42 36.82 42 46 42 C46 45.96 46 49.92 46 54 C30.49 54 14.98 54 -1 54 C-1 44 -1 44 0.65234 41.22266 C1.40645 40.5098 2.16055 39.79695 2.9375 39.0625 C3.75992 38.23879 4.58234 37.41508 5.42969 36.56641 C6.27789 35.71949 7.12609 34.87258 8 34 C9.54505 32.18703 11.06621 30.35342 12.5625 28.5 C13.66271 27.14068 13.66271 27.14068 14.78516 25.75391 C15.51605 24.84512 16.24695 23.93633 17 23 C17.76184 22.06027 18.52367 21.12055 19.30859 20.15234 C22.99525 15.80237 22.99525 15.80237 26 11 C17.42 11 8.84 11 0 11 C0 7.37 0 3.74 0 0 Z " fill="#07183C" transform="translate(554,264)"/>
<path d="M0 0 C4.95 0 9.9 0 15 0 C15 18.81 15 37.62 15 57 C25.89 57 36.78 57 48 57 C48 61.29 48 65.58 48 70 C32.16 70 16.32 70 0 70 C0 46.9 0 23.8 0 0 Z " fill="#A60F75" transform="translate(758,248)"/>
<path d="M0 0 C4.62 0 9.24 0 14 0 C14 4.62 14 9.24 14 14 C18.29 14 22.58 14 27 14 C27 17.63 27 21.26 27 25 C22.71 25 18.42 25 14 25 C14.11341 29.45891 14.24017 33.91673 14.375 38.375 C14.40594 39.64602 14.43687 40.91703 14.46875 42.22656 C14.50742 43.43828 14.54609 44.65 14.58594 45.89844 C14.63307 47.57946 14.63307 47.57946 14.68115 49.29443 C14.73411 52.1471 14.73411 52.1471 17 54 C19.44013 54.24287 19.44013 54.24287 22.125 54.125 C23.03508 54.10695 23.94516 54.08891 24.88281 54.07031 C25.58148 54.04711 26.28016 54.02391 27 54 C30.05873 60.36216 30.05873 60.36216 29.80469 63.12109 C29 65 29 65 25.5625 66.8125 C18.98563 68.95381 12.69431 68.03139 6.5 65.125 C3.59443 63.61268 2.92157 62.88236 1 60 C-1.05051 53.12981 -1.28436 46.24129 -1.1875 39.125 C-1.18686 38.20203 -1.18621 37.27906 -1.18555 36.32812 C-1.15906 32.26731 -0.99439 28.97756 0 25 C-2.97 25 -5.94 25 -9 25 C-9 21.37 -9 17.74 -9 14 C-4 13 -4 13 0 14 C0 9.38 0 4.76 0 0 Z " fill="#A71578" transform="translate(814,251)"/>
<path d="M0 0 C4.95 0 9.9 0 15 0 C15 4.29 15 8.58 15 13 C19.29 13 23.58 13 28 13 C28 16.96 28 20.92 28 25 C21.565 25.495 21.565 25.495 15 26 C14.97305 29.91671 14.95318 33.83324 14.9375 37.75 C14.92912 38.86117 14.92074 39.97234 14.91211 41.11719 C14.90889 42.18711 14.90566 43.25703 14.90234 44.35938 C14.89711 45.3439 14.89187 46.32842 14.88647 47.34277 C14.92182 50.25652 14.92182 50.25652 16 54 C19.96 54 23.92 54 28 54 C31 60.5 31 60.5 31 65 C25.58812 68.34893 19.11438 67.54031 13 67 C8.20211 65.77485 5.17347 63.78803 2.5625 59.5625 C0.35024 54.51854 -0.12466 50.30639 -0.09766 44.82422 C-0.09443 43.66729 -0.09121 42.51035 -0.08789 41.31836 C-0.07951 40.12018 -0.07113 38.92199 -0.0625 37.6875 C-0.05799 36.46998 -0.05348 35.25246 -0.04883 33.99805 C-0.03707 30.99865 -0.02063 27.99935 0 25 C-2.64 25 -5.28 25 -8 25 C-8 21.37 -8 17.74 -8 14 C-5.36 14 -2.72 14 0 14 C0 9.38 0 4.76 0 0 Z " fill="#151F43" transform="translate(491,251)"/>
<path d="M0 0 C4.62 0 9.24 0 14 0 C14 24.09 14 48.18 14 73 C9.38 73 4.76 73 0 73 C0 48.91 0 24.82 0 0 Z " fill="#06163A" transform="translate(435,244)"/>
<path d="M0 0 C0.33 0 0.66 0 1 0 C1 3.3 1 6.6 1 10 C3.47267 9.65555 3.47267 9.65555 6 9 C6.33 8.34 6.66 7.68 7 7 C7.99 7 8.98 7 10 7 C10.33 6.01 10.66 5.02 11 4 C11.66 4.33 12.32 4.66 13 5 C14.41883 5.11747 15.84271 5.17685 17.26611 5.20532 C18.58726 5.23524 18.58726 5.23524 19.93509 5.26576 C20.88721 5.28247 21.83934 5.29919 22.82031 5.31641 C23.79411 5.33719 24.7679 5.35797 25.77121 5.37938 C28.88907 5.44489 32.00701 5.50376 35.125 5.5625 C37.23569 5.60568 39.34636 5.6493 41.45703 5.69336 C46.63793 5.80057 51.81892 5.90183 57 6 C57 10.95 57 15.9 57 21 C43.14 21 29.28 21 15 21 C14.67 21.66 14.34 22.32 14 23 C13.01 22.67 12.02 22.34 11 22 C10.67 22.99 10.34 23.98 10 25 C9.34 25 8.68 25 8 25 C8 24.01 8 23.02 8 22 C7.34 22 6.68 22 6 22 C5.34 21.34 4.68 20.68 4 20 C3.34 20 2.68 20 2 20 C1.90235 24.78479 2.22887 29.27686 3 34 C-1.0015 29.9985 -1.10304 23.55424 -1.23047 18.10547 C-1.22656 16.46609 -1.2122 14.8267 -1.1875 13.1875 C-1.18686 12.35541 -1.18621 11.52332 -1.18555 10.66602 C-1.15852 6.92102 -1.02179 3.6229 0 0 Z " fill="#111C40" transform="translate(120,266)"/>
<path d="M0 0 C4.62 0 9.24 0 14 0 C14 17.82 14 35.64 14 54 C9.38 54 4.76 54 0 54 C0 36.18 0 18.36 0 0 Z " fill="#071638" transform="translate(530,264)"/>
<path d="M0 0 C4.62 0 9.24 0 14 0 C14 17.49 14 34.98 14 53 C9.38 53 4.76 53 0 53 C0 35.51 0 18.02 0 0 Z " fill="#051639" transform="translate(462,264)"/>
<path d="M0 0 C3.50402 2.52289 5.37156 5.05524 7 9 C7.67002 14.59391 7.75476 19.46352 5.25 24.5625 C0.48121 29.72869 0.48121 29.72869 -3.36719 30.43359 C-9.07514 30.44248 -12.58252 29.9865 -17 26 C-21.09609 20.37523 -20.7672 14.71087 -20 8 C-18.83081 4.76225 -17.18657 2.74914 -14.23047 0.88281 C-9.69083 -0.91396 -4.77676 -0.64692 0 0 Z " fill="#F9F8FA" transform="translate(640,276)"/>
<path d="M0 0 C3.8075 1.58646 5.87898 3.49057 8 7 C8.75495 12.64512 9.4458 19.65638 6.3125 24.6875 C2.59706 28.40294 -0.10028 30.15951 -5.375 30.5625 C-9.85073 30.38317 -12.45097 29.02834 -15.62109 25.90234 C-18.88979 21.39284 -19.26398 16.17521 -18.875 10.75 C-16.46395 0.41693 -9.38135 -0.89412 0 0 Z " fill="#FBF9FC" transform="translate(880,276)"/>
<path d="M0 0 C0.33 0 0.66 0 1 0 C1 1.65 1 3.3 1 5 C-15.83 5 -32.66 5 -50 5 C-48.99699 6.22428 -48.99699 6.22428 -46.98155 6.12025 C-45.65252 6.11692 -45.65252 6.11692 -44.29663 6.11353 C-42.79519 6.11341 -42.79519 6.11341 -41.26341 6.1133 C-40.17488 6.10814 -39.08636 6.10297 -37.96484 6.09766 C-36.85646 6.09624 -35.74807 6.09483 -34.60609 6.09337 C-31.04987 6.08775 -27.49371 6.07519 -23.9375 6.0625 C-21.5332 6.05749 -19.12891 6.05292 -16.72461 6.04883 C-10.81638 6.03777 -4.9082 6.02102 1 6 C1 7.32 1 8.64 1 10 C-2.92439 11.66489 -6.891 12.87204 -11 14 C-8.69215 15.15392 -6.5277 15.53437 -4 16 C-4 16.33 -4 16.66 -4 17 C2.27 17.33 8.54 17.66 15 18 C15 14.04 15 10.08 15 6 C15.33 6 15.66 6 16 6 C16 10.29 16 14.58 16 19 C-6.11 19 -28.22 19 -51 19 C-51 14.05 -51 9.1 -51 4 C-34.17 4 -17.34 4 0 4 C0 2.68 0 1.36 0 0 Z " fill="#192247" transform="translate(244,268)"/>
<path d="M0 0 C0.33 0 0.66 0 1 0 C1.33 20.46 1.66 40.92 2 62 C7.46084 63.51465 7.46084 63.51465 10 62 C9.34 60.68 8.68 59.36 8 58 C10.97 57.505 10.97 57.505 14 57 C13.505 55.515 13.505 55.515 13 54 C25.54 54 38.08 54 51 54 C51 57.96 51 61.92 51 66 C34.17 66 17.34 66 0 66 C0 44.22 0 22.44 0 0 Z " fill="#031232" transform="translate(374,251)"/>
<path d="M0 0 C0.33 0 0.66 0 1 0 C1 2.31 1 4.62 1 7 C1.66 7 2.32 7 3 7 C3.33 8.65 3.66 10.3 4 12 C4.94875 12.12375 5.8975 12.2475 6.875 12.375 C10 13 10 13 12 15 C12.19531 17.38281 12.19531 17.38281 12.125 20.125 C12.09793 21.49012 12.09793 21.49012 12.07031 22.88281 C12.04711 23.58148 12.02391 24.28016 12 25 C12.66 25 13.32 25 14 25 C14.33 26.32 14.66 27.64 15 29 C18.96 29 22.92 29 27 29 C30 35.5 30 35.5 30 40 C24.58812 43.34893 18.11438 42.54031 12 42 C7.26657 40.79131 4.91055 39.10173 1.80469 35.34375 C-1.4897 29.27076 -0.41046 21.7738 -0.25 15.0625 C-0.22991 13.60094 -0.21166 12.13935 -0.19531 10.67773 C-0.1515 7.11793 -0.08262 3.55914 0 0 Z " fill="#081739" transform="translate(492,276)"/>
<path d="M0 0 C0.83265 0.00524 1.66531 0.01047 2.52319 0.01587 C3.33281 0.01837 4.14242 0.02086 4.97656 0.02344 C6.0116 0.03254 7.04664 0.04165 8.11304 0.05103 C11.39241 0.07165 14.67179 0.09228 18.05054 0.11353 C18.05054 7.04353 18.05054 13.97353 18.05054 21.11353 C11.12054 21.11353 4.19054 21.11353 -2.94946 21.11353 C-2.97009 17.83415 -2.99071 14.55478 -3.01196 11.17603 C-3.02562 9.62347 -3.02562 9.62347 -3.03955 8.03955 C-3.0433 6.82513 -3.0433 6.82513 -3.04712 5.58618 C-3.05236 4.75353 -3.05759 3.92087 -3.06299 3.06299 C-2.90877 0.41469 -2.6483 0.15422 0 0 Z " fill="#A70F76" transform="translate(239.949462890625,299.886474609375)"/>
<path d="M0 0 C0.99 0.495 0.99 0.495 2 1 C4.481 1.08649 6.93345 1.11565 9.41406 1.09766 C10.1437 1.09624 10.87334 1.09483 11.62509 1.09337 C13.95844 1.08777 16.29168 1.07521 18.625 1.0625 C20.20573 1.05749 21.78646 1.05292 23.36719 1.04883 C27.24483 1.03779 31.1224 1.02053 35 1 C35 1.66 35 2.32 35 3 C37.64 3 40.28 3 43 3 C42.67 3.99 42.34 4.98 42 6 C43.98 6.66 45.96 7.32 48 8 C45.25789 10.74211 43.68862 10.25798 39.85547 10.26562 C38.62119 10.2682 37.38691 10.27078 36.11523 10.27344 C34.81908 10.2657 33.52293 10.25797 32.1875 10.25 C30.26067 10.2616 30.26067 10.2616 28.29492 10.27344 C27.05678 10.27086 25.81863 10.26828 24.54297 10.26562 C23.40884 10.26337 22.2747 10.26111 21.1062 10.25879 C18.00946 10.00079 15.79637 9.31509 13 8 C12.67 8.66 12.34 9.32 12 10 C7.32308 8.52308 7.32308 8.52308 5.6875 5.875 C5.34719 4.94688 5.34719 4.94688 5 4 C4.01 4 3.02 4 2 4 C1.67 25.45 1.34 46.9 1 69 C17.83 69 34.66 69 52 69 C52 69.33 52 69.66 52 70 C34.84 70 17.68 70 0 70 C0 46.9 0 23.8 0 0 Z " fill="#192348" transform="translate(373,248)"/>
<path d="M0 0 C2.625 2.1875 2.625 2.1875 4 5 C4 8.57962 3.42897 10.38954 1.375 13.3125 C-1.86184 15.61236 -4.03615 16 -8 16 C-11.4375 14.625 -11.4375 14.625 -14 12 C-14.81196 8.83335 -14.75576 6.1742 -14 3 C-10.30979 -1.99965 -5.52673 -1.7702 0 0 Z " fill="#0F1A3C" transform="translate(474,241)"/>
<path d="M0 0 C1.74609 1.3125 1.74609 1.3125 3 3 C3.7767 9.99029 3.7767 9.99029 1.125 13.4375 C-2.40724 16.03474 -4.59637 16.51807 -9 16 C-11.87459 14.00028 -13.62908 12.51061 -14.48438 9.02734 C-14.72902 5.39159 -14.25429 3.33632 -12.0625 0.4375 C-7.90972 -1.51176 -4.36782 -1.36597 0 0 Z " fill="#0E193A" transform="translate(542,241)"/>
<path d="M0 0 C4.62 0 9.24 0 14 0 C14.02255 9.50075 14.04092 19.00148 14.05181 28.50224 C14.05704 32.91337 14.06414 37.32448 14.07544 41.7356 C14.08627 45.98901 14.09228 50.24241 14.09488 54.49584 C14.09673 56.12222 14.10035 57.7486 14.10573 59.37497 C14.11294 61.6451 14.11399 63.91516 14.11353 66.1853 C14.11575 67.47992 14.11797 68.77454 14.12025 70.10838 C14 73 14 73 13 74 C10.81361 74.07259 8.625 74.08374 6.4375 74.0625 C5.23996 74.05348 4.04242 74.04445 2.80859 74.03516 C1.41834 74.01775 1.41834 74.01775 0 74 C0.33 72.02 0.66 70.04 1 68 C1.33 69.32 1.66 70.64 2 72 C5.3 72 8.6 72 12 72 C11.67 48.9 11.34 25.8 11 2 C8.36 2 5.72 2 3 2 C1.78578 2.98886 1.78578 2.98886 1.91821 4.90186 C1.93618 5.71542 1.95415 6.52897 1.97266 7.36719 C1.9849 8.25277 1.99715 9.13836 2.00977 10.05078 C2.04478 11.92586 2.08381 13.80087 2.12695 15.67578 C2.13791 16.56395 2.14887 17.45211 2.16016 18.36719 C2.17699 19.183 2.19383 19.99882 2.21118 20.83936 C2 23 2 23 0 26 C0 17.42 0 8.84 0 0 Z " fill="#964682" transform="translate(889,244)"/>
<path d="M0 0 C0.33 0 0.66 0 1 0 C1 18.81 1 37.62 1 57 C11.89 57 22.78 57 34 57 C34 61.29 34 65.58 34 70 C18.16 70 2.32 70 -14 70 C-14 69.67 -14 69.34 -14 69 C-8.08956 67.27514 -3.03655 66.77357 3.09375 67.02344 C3.92588 67.04846 4.75801 67.07349 5.61536 67.09927 C8.24403 67.18071 10.87187 67.27759 13.5 67.375 C15.29424 67.43332 17.08851 67.49062 18.88281 67.54688 C23.25568 67.68618 27.62787 67.83932 32 68 C32 64.7 32 61.4 32 58 C21.44 58 10.88 58 0 58 C0 38.86 0 19.72 0 0 Z " fill="#984B85" transform="translate(772,248)"/>
<path d="M0 0 C16.17 0 32.34 0 49 0 C49 3.63 49 7.26 49 11 C37.45 11 25.9 11 14 11 C14 10.01 14 9.02 14 8 C14.99 8.33 15.98 8.66 17 9 C19.13795 9.08338 21.27842 9.10734 23.41797 9.09766 C24.67158 9.09443 25.9252 9.09121 27.2168 9.08789 C28.52713 9.07951 29.83746 9.07113 31.1875 9.0625 C32.52278 9.05748 33.85807 9.05292 35.19336 9.04883 C38.46228 9.03703 41.73112 9.02056 45 9 C42.4744 8.15813 40.42667 7.73749 37.8125 7.4375 C36.55437 7.29313 35.29625 7.14875 34 7 C34.33 6.01 34.66 5.02 35 4 C34.505 2.515 34.505 2.515 34 1 C22.78 1.33 11.56 1.66 0 2 C0 1.34 0 0.68 0 0 Z " fill="#030F2D" transform="translate(374,248)"/>
<path d="M0 0 C0 3.3 0 6.6 0 10 C-2.85423 10.02718 -5.7082 10.04693 -8.5625 10.0625 C-9.76229 10.07507 -9.76229 10.07507 -10.98633 10.08789 C-15.77163 10.10742 -20.28145 9.80437 -25 9 C-25 8.01 -25 7.02 -25 6 C-23.98937 5.73188 -22.97875 5.46375 -21.9375 5.1875 C-19.25711 4.43785 -17.06247 3.56472 -14.5 2.375 C-10.7107 0.88635 -8.02918 0.84503 -4 1 C-1 0 -1 0 0 0 Z " fill="#05183D" transform="translate(258,275)"/>
<path d="M0 0 C1.4218 0.03928 1.4218 0.03928 2.87231 0.07935 C4.41436 0.10352 4.41436 0.10352 5.98755 0.12817 C7.0594 0.17007 8.13126 0.21196 9.2356 0.25513 C10.31905 0.27769 11.40251 0.30024 12.5188 0.32349 C15.19582 0.38245 17.87213 0.47213 20.5481 0.56763 C20.5481 3.86763 20.5481 7.16763 20.5481 10.56763 C14.9381 10.23763 9.3281 9.90763 3.5481 9.56763 C3.5481 9.23763 3.5481 8.90763 3.5481 8.56763 C4.7856 8.42325 6.0231 8.27888 7.2981 8.13013 C10.11314 7.78074 12.81825 7.36383 15.5481 6.56763 C15.5481 5.90763 15.5481 5.24763 15.5481 4.56763 C14.76435 4.89763 13.9806 5.22763 13.1731 5.56763 C7.09607 7.24405 0.66298 7.19826 -5.4519 5.56763 C-3.16681 0.73313 -3.16681 0.73313 0 0 Z " fill="#06183E" transform="translate(404.451904296875,305.432373046875)"/>
<path d="M0 0 C1.08668 0.01805 2.17336 0.03609 3.29297 0.05469 C4.54014 0.08949 4.54014 0.08949 5.8125 0.125 C5.8125 3.425 5.8125 6.725 5.8125 10.125 C3.54373 10.37376 1.2723 10.59839 -1 10.8125 C-2.26457 10.94012 -3.52914 11.06773 -4.83203 11.19922 C-8.1875 11.125 -8.1875 11.125 -10.13672 9.64453 C-10.48348 9.14309 -10.83023 8.64164 -11.1875 8.125 C-9.22706 1.18804 -7.12894 -0.15331 0 0 Z " fill="#09173C" transform="translate(513.1875,265.875)"/>
<path d="M0 0 C14.85 0 29.7 0 45 0 C45 3.3 45 6.6 45 10 C44.34 10.33 43.68 10.66 43 11 C43 8.36 43 5.72 43 3 C29.8 3 16.6 3 3 3 C2.67 5.31 2.34 7.62 2 10 C10.25 10 18.5 10 27 10 C27 10.33 27 10.66 27 11 C18.09 11 9.18 11 0 11 C0 7.37 0 3.74 0 0 Z " fill="#101232" transform="translate(554,264)"/>
<path d="M0 0 C0.66 0 1.32 0 2 0 C14.26746 14.00641 19.79501 32.92776 19.25781 51.24609 C18.60235 60.79004 16.59428 69.13645 13 78 C11.70318 74.10955 12.64929 72.61896 13.9375 68.75 C19.54165 49.74547 16.5649 29.61647 7.26953 12.39062 C6 10 6 10 5 7 C4.34 7 3.68 7 3 7 C0 2.61538 0 2.61538 0 0 Z " fill="#91186B" transform="translate(316,231)"/>
<path d="M0 0 C4.29 0.33 8.58 0.66 13 1 C13 2.65 13 4.3 13 6 C12.67 5.505 12.34 5.01 12 4.5 C9.35 2.2 9.35 2.2 2 3 C1.67 19.17 1.34 35.34 1 52 C4.96 52 8.92 52 13 52 C13 41.44 13 30.88 13 20 C13.66 19.67 14.32 19.34 15 19 C14.67 30.22 14.34 41.44 14 53 C9.38 53 4.76 53 0 53 C0 35.51 0 18.02 0 0 Z " fill="#000319" transform="translate(671,264)"/>
<path d="M0 0 C0.33 0 0.66 0 1 0 C1 3.96 1 7.92 1 12 C-14.51 12 -30.02 12 -46 12 C-46 8.7 -46 5.4 -46 2 C-45.34 2 -44.68 2 -44 2 C-44 4.64 -44 7.28 -44 10 C-29.48 10 -14.96 10 0 10 C-0.495 5.545 -0.495 5.545 -1 1 C-0.67 0.67 -0.34 0.34 0 0 Z " fill="#40354F" transform="translate(599,306)"/>
<path d="M0 0 C0.66 0.33 1.32 0.66 2 1 C0.58532 1.96126 -0.83184 2.91888 -2.25 3.875 C-3.03891 4.40867 -3.82781 4.94234 -4.64062 5.49219 C-7 7 -7 7 -9.17188 8.00781 C-11.33585 8.9982 -11.33585 8.9982 -13 12 C-15 13.33333 -17 14.66667 -19 16 C-22.55503 19.15105 -24.39695 21.56079 -26 26 C-26.66 26.33 -27.32 26.66 -28 27 C-27.01 27 -26.02 27 -25 27 C-24.67 26.34 -24.34 25.68 -24 25 C-23.34 25 -22.68 25 -22 25 C-23.39373 29.43459 -25.60582 31.87378 -29 35 C-29.33 33.68 -29.66 32.36 -30 31 C-32.72426 33.35277 -33.81418 35.62496 -35 39 C-35.66 39 -36.32 39 -37 39 C-32.08379 21.83186 -16.57104 9.31682 -1.73828 0.68359 C-1.16465 0.45801 -0.59102 0.23242 0 0 Z " fill="#932472" transform="translate(225,211)"/>
<path d="M0 0 C4.62 0 9.24 0 14 0 C14 4.62 14 9.24 14 14 C13.34 14 12.68 14 12 14 C12 10.04 12 6.08 12 2 C8.7 2.33 5.4 2.66 2 3 C1.67 6.96 1.34 10.92 1 15 C-1.64 15.33 -4.28 15.66 -7 16 C-7 18.31 -7 20.62 -7 23 C-5.35 23.33 -3.7 23.66 -2 24 C-2 24.33 -2 24.66 -2 25 C-4.31 25 -6.62 25 -9 25 C-9 21.37 -9 17.74 -9 14 C-4 13 -4 13 0 14 C0 9.38 0 4.76 0 0 Z " fill="#94397B" transform="translate(814,251)"/>
<path d="M0 0 C14.99141 0.25979 31.32512 4.43743 43.33203 13.82031 C44.93971 15.51214 45.81426 17.1854 46.75 19.3125 C45.73293 18.64154 45.73293 18.64154 44.69531 17.95703 C30.21389 8.55012 18.08624 3.55129 0.8125 2.75 C-0.49944 2.68522 -0.49944 2.68522 -1.83789 2.61914 C-3.97512 2.51403 -6.11254 2.41286 -8.25 2.3125 C-5.49147 -0.44603 -3.85798 0.01298 0 0 Z " fill="#942773" transform="translate(258.25,208.6875)"/>
<path d="M0 0 C0.83265 0.00524 1.66531 0.01047 2.52319 0.01587 C3.42231 0.01909 4.32144 0.02231 5.2478 0.02563 C6.66609 0.0382 6.66609 0.0382 8.11304 0.05103 C9.06243 0.05554 10.01183 0.06005 10.98999 0.0647 C13.34357 0.07652 15.69702 0.09301 18.05054 0.11353 C17.72054 0.77353 17.39054 1.43353 17.05054 2.11353 C11.11054 2.11353 5.17054 2.11353 -0.94946 2.11353 C-0.61946 7.72353 -0.28946 13.33353 0.05054 19.11353 C6.98054 19.60853 6.98054 19.60853 14.05054 20.11353 C14.05054 20.44353 14.05054 20.77353 14.05054 21.11353 C8.44054 21.11353 2.83054 21.11353 -2.94946 21.11353 C-2.9763 17.80097 -2.99622 14.48863 -3.01196 11.17603 C-3.02034 10.2305 -3.02872 9.28497 -3.03735 8.31079 C-3.04058 7.41167 -3.0438 6.51255 -3.04712 5.58618 C-3.05236 4.75353 -3.05759 3.92087 -3.06299 3.06299 C-2.90877 0.41469 -2.6483 0.15422 0 0 Z " fill="#94407E" transform="translate(239.949462890625,299.886474609375)"/>
<path d="M0 0 C3.96 0 7.92 0 12 0 C12 22.44 12 44.88 12 68 C11.67 68 11.34 68 11 68 C11 46.88 11 25.76 11 4 C10.34 4 9.68 4 9 4 C8.67 3.34 8.34 2.68 8 2 C5.67843 1.59271 3.34312 1.25561 1 1 C0.67 1.66 0.34 2.32 0 3 C0 2.01 0 1.02 0 0 Z " fill="#041234" transform="translate(436,245)"/>
<path d="M0 0 C4.29 0 8.58 0 13 0 C13 4.29 13 8.58 13 13 C12.67 13 12.34 13 12 13 C12 9.04 12 5.08 12 1 C8.37 1 4.74 1 1 1 C1 4.63 1 8.26 1 12 C1.99 12 2.98 12 4 12 C4 13.32 4 14.64 4 16 C1.33333 16 -1.33333 16 -4 16 C-4.33 16.66 -4.66 17.32 -5 18 C-5.66 17.67 -6.32 17.34 -7 17 C-7 18.65 -7 20.3 -7 22 C-6.34 22.33 -5.68 22.66 -5 23 C-5.99 23 -6.98 23 -8 23 C-8.33 19.7 -8.66 16.4 -9 13 C-6.36 12.67 -3.72 12.34 -1 12 C-0.67 8.04 -0.34 4.08 0 0 Z " fill="#020924" transform="translate(492,252)"/>
<path d="M0 0 C0.99 0.33 1.98 0.66 3 1 C1.68 1.33 0.36 1.66 -1 2 C-0.19002 4.1521 -0.19002 4.1521 1.85547 4.81641 C3.00982 5.18572 3.00982 5.18572 4.1875 5.5625 C5.32252 5.93568 5.32252 5.93568 6.48047 6.31641 C12.56006 7.96591 18.61545 8.27498 24.875 8.5625 C25.75414 8.60568 26.63328 8.64887 27.53906 8.69336 C29.69256 8.79869 31.84626 8.89978 34 9 C33.67 9.66 33.34 10.32 33 11 C19.74732 11.50755 7.34815 10.29206 -5 5 C-3.35 3.35 -1.7 1.7 0 0 Z " fill="#942C75" transform="translate(233,344)"/>
<path d="M0 0 C4.29 0 8.58 0 13 0 C13 17.16 13 34.32 13 52 C12.67 52 12.34 52 12 52 C12 37.48 12 22.96 12 8 C11.34 7.67 10.68 7.34 10 7 C10.66 5.35 11.32 3.7 12 2 C8.37 2.33 4.74 2.66 1 3 C0.67 2.01 0.34 1.02 0 0 Z " fill="#071235" transform="translate(530,264)"/>
<path d="M0 0 C1.20681 2.89775 1.00904 3.97572 -0.10938 6.98047 C-0.65078 8.03879 -1.19219 9.09711 -1.75 10.1875 C-2.28109 11.25355 -2.81219 12.31961 -3.35938 13.41797 C-5 16 -5 16 -8 17 C-9.64478 18.66047 -9.64478 18.66047 -11.25 20.6875 C-15.38405 25.55571 -19.92303 30.62675 -26 33 C-26.99 32.67 -27.98 32.34 -29 32 C-28.35934 31.5643 -27.71867 31.12859 -27.05859 30.67969 C-24.35081 28.81531 -21.67092 26.91678 -19 25 C-18.37094 24.55656 -17.74187 24.11313 -17.09375 23.65625 C-9.47393 17.76167 -4.08014 8.57345 0 0 Z " fill="#932371" transform="translate(322,307)"/>
<path d="M0 0 C2 3 2 3 3.3125 6.125 C4.71014 9.23424 4.71014 9.23424 7.6875 9.875 C8.83219 9.93687 8.83219 9.93687 10 10 C9.76797 10.7309 9.53594 11.4618 9.29688 12.21484 C8.72063 15.03754 8.72063 15.03754 10.32812 17.31641 C10.96234 18.05762 11.59656 18.79883 12.25 19.5625 C13.18586 20.67818 13.18586 20.67818 14.14062 21.81641 C14.75422 22.53699 15.36781 23.25758 16 24 C17.0098 25.32593 18.01321 26.65686 19 28 C11.55642 24.69893 7.51514 17.54967 3.5625 10.75 C3.20833 10.14769 2.85416 9.54537 2.48926 8.9248 C0.61288 5.58675 0 3.93158 0 0 Z " fill="#11132F" transform="translate(125,307)"/>
<path d="M0 0 C1.37563 1.28965 2.70766 2.62689 4 4 C4 4.66 4 5.32 4 6 C4.66 6 5.32 6 6 6 C7.05772 7.63065 8.05273 9.30281 9 11 C10.63474 14.12475 10.63474 14.12475 13.125 14.6875 C14.05312 14.84219 14.05312 14.84219 15 15 C14.01 13.68 13.02 12.36 12 11 C12.33 10.34 12.66 9.68 13 9 C14.98 11.31 16.96 13.62 19 16 C15 18 15 18 13.00391 17.92578 C10.14237 16.60378 8.83418 14.68352 6.9375 12.1875 C6.2659 11.3148 5.5943 10.44211 4.90234 9.54297 C4.27457 8.70379 3.6468 7.86461 3 7 C2.42379 6.29488 1.84758 5.58977 1.25391 4.86328 C0 3 0 3 0 0 Z " fill="#921D6E" transform="translate(191,314)"/>
<path d="M0 0 C0 0.33 0 0.66 0 1 C-4.455 2.485 -4.455 2.485 -9 4 C-4.71 4 -0.42 4 4 4 C0.29354 5.85323 -3.09665 7.03236 -7.0625 8.1875 C-8.29098 8.5523 -9.51945 8.91711 -10.78516 9.29297 C-14 10 -14 10 -17 9 C-14.625 7.4375 -14.625 7.4375 -12 6 C-11.34 6.33 -10.68 6.66 -10 7 C-10.66 5.68 -11.32 4.36 -12 3 C-7.7705 0.58314 -4.87664 -0.34833 0 0 Z " fill="#901268" transform="translate(246,206)"/>
<path d="M0 0 C0.33 0 0.66 0 1 0 C1 3.3 1 6.6 1 10 C-10.55 10 -22.1 10 -34 10 C-34 9.01 -34 8.02 -34 7 C-33.01 7.33 -32.02 7.66 -31 8 C-28.64446 8.15179 -26.28525 8.24899 -23.92578 8.31641 C-23.24195 8.33719 -22.55812 8.35797 -21.85356 8.37938 C-19.67331 8.44466 -17.49294 8.50366 -15.3125 8.5625 C-13.83267 8.60571 -12.35285 8.64932 -10.87305 8.69336 C-7.24882 8.80032 -3.62447 8.90165 0 9 C0 6.03 0 3.06 0 0 Z " fill="#031132" transform="translate(422,249)"/>
<path d="M0 0 C0 0.99 0 1.98 0 3 C-3.05714 6.05714 -6.77228 7.4425 -11 8 C-16.38565 7.93897 -21.25467 7.71162 -26 5 C-23.44759 3.72379 -22.70459 4.29235 -20 5 C-14.58451 5.30384 -9.32016 5.12003 -4 4 C-4 3.34 -4 2.68 -4 2 C-2.68 1.34 -1.36 0.68 0 0 Z " fill="#932973" transform="translate(887,311)"/>
<path d="M0 0 C0.66 0 1.32 0 2 0 C2 0.66 2 1.32 2 2 C2.53625 2.26812 3.0725 2.53625 3.625 2.8125 C5.34266 3.67133 7.0273 4.59727 8.6875 5.5625 C12.52332 7.2271 15.21611 7.3052 19.375 7.1875 C21.24285 7.14689 21.24285 7.14689 23.14844 7.10547 C24.08945 7.07066 25.03047 7.03586 26 7 C23.3017 9.6983 21.29065 9.69801 17.57812 10.02734 C11.82046 9.96628 6.11386 8.4728 1.875 4.4375 C0 2 0 2 0 0 Z " fill="#932471" transform="translate(815,309)"/>
<path d="M0 0 C0.66 0.33 1.32 0.66 2 1 C0.96553 1.72703 0.96553 1.72703 -0.08984 2.46875 C-6.409 6.97624 -12.31189 11.71918 -18 17 C-18 12.92365 -16.76948 11.9772 -14 9 C-6.83962 3 -6.83962 3 -4 3 C-3.67 2.34 -3.34 1.68 -3 1 C-2.01 0.67 -1.02 0.34 0 0 Z " fill="#90176A" transform="translate(223,218)"/>
<path d="M0 0 C4.72225 1.53473 9.35855 3.23945 14 5 C11.07175 5.97608 9.04387 6.08227 6 6 C6 6.66 6 7.32 6 8 C3.5625 7.375 3.5625 7.375 1 6 C0.1875 2.875 0.1875 2.875 0 0 Z " fill="#071131" transform="translate(163,333)"/>
<path d="M0 0 C0.66 0 1.32 0 2 0 C7.37317 6.23938 10.88257 13.44347 14 21 C11 20 11 20 9.64844 17.82031 C9.2282 16.93086 8.80797 16.04141 8.375 15.125 C7.94961 14.2407 7.52422 13.35641 7.08594 12.44531 C6 10 6 10 5 7 C4.34 7 3.68 7 3 7 C0 2.61538 0 2.61538 0 0 Z " fill="#912671" transform="translate(316,231)"/>
<path d="M0 0 C3.63 0 7.26 0 11 0 C11 0.33 11 0.66 11 1 C8.94922 1.22786 6.89844 1.45573 4.84766 1.68359 C2.9886 1.81887 2.9886 1.81887 2 3 C1.93745 4.45441 1.94052 5.91178 1.97266 7.36719 C1.9849 8.25277 1.99715 9.13836 2.00977 10.05078 C2.04478 11.92586 2.08381 13.80087 2.12695 15.67578 C2.13791 16.56395 2.14887 17.45211 2.16016 18.36719 C2.17699 19.183 2.19383 19.99882 2.21118 20.83936 C2 23 2 23 0 26 C0 17.42 0 8.84 0 0 Z " fill="#8F0E66" transform="translate(889,244)"/>
<path d="M0 0 C0.33 0 0.66 0 1 0 C1.01458 0.70085 1.02917 1.40169 1.04419 2.12378 C1.11885 5.31223 1.21545 8.49966 1.3125 11.6875 C1.33506 12.79029 1.35762 13.89309 1.38086 15.0293 C1.41631 16.096 1.45176 17.1627 1.48828 18.26172 C1.51447 19.241 1.54065 20.22029 1.56763 21.22925 C2.06419 24.41134 3.26424 26.32029 5 29 C5 29.66 5 30.32 5 31 C2 30 2 30 0.82471 27.80981 C-0.07674 24.73854 -0.2281 22.23998 -0.19531 19.04297 C-0.18887 17.93115 -0.18242 16.81934 -0.17578 15.67383 C-0.15902 14.52334 -0.14227 13.37285 -0.125 12.1875 C-0.11598 11.01768 -0.10695 9.84785 -0.09766 8.64258 C-0.07414 5.76151 -0.04127 2.88086 0 0 Z " fill="#91146A" transform="translate(826,276)"/>
<path d="M0 0 C7.68396 -0.21377 14.56341 -0.0167 22 2 C18.48861 3.17046 15.71594 2.98998 12.05859 2.83984 C9.77336 2.79322 9.77336 2.79322 8 5 C7.67 3.68 7.34 2.36 7 1 C4.69 1 2.38 1 0 1 C0 0.67 0 0.34 0 0 Z " fill="#0B0F2C" transform="translate(185,205)"/>
<path d="M0 0 C1.1807 2.86841 1.00316 3.99095 -0.03906 6.98047 C-0.8241 8.56795 -0.8241 8.56795 -1.625 10.1875 C-2.13289 11.25355 -2.64078 12.31961 -3.16406 13.41797 C-5 16 -5 16 -7.71094 16.86328 C-8.84402 16.93096 -8.84402 16.93096 -10 17 C-9.52949 16.27555 -9.05898 15.55109 -8.57422 14.80469 C-3.93179 7.5999 -3.93179 7.5999 0 0 Z " fill="#952D76" transform="translate(322,307)"/>
<path d="M0 0 C3.35829 1.43714 5.39971 3.20977 7.8125 5.9375 C8.4377 6.62715 9.06289 7.3168 9.70703 8.02734 C10.34705 9.00381 10.34705 9.00381 11 10 C10.67 10.99 10.34 11.98 10 13 C8.62437 11.71035 7.29234 10.37311 6 9 C6 8.34 6 7.68 6 7 C4.35456 5.31237 2.68711 3.64597 1 2 C0.67 1.34 0.34 0.68 0 0 Z " fill="#040D2C" transform="translate(233,222)"/>
<path d="M0 0 C2.16874 0.50604 3.99968 0.99984 6 2 C6 2.66 6 3.32 6 4 C6.7425 4.22688 7.485 4.45375 8.25 4.6875 C11.5114 6.24408 12.92895 8.08519 15 11 C9.11798 8.28522 4.43919 4.70032 0 0 Z " fill="#922471" transform="translate(298,216)"/>
<path d="M0 0 C0.99 0.33 1.98 0.66 3 1 C3.12117 1.64066 3.24234 2.28133 3.36719 2.94141 C4.35679 8.04929 5.48511 13.0225 7 18 C3.85121 16.42561 3.45978 13.28472 2.375 10.125 C2.14555 9.48691 1.91609 8.84883 1.67969 8.19141 C0.67513 5.32723 0 3.05749 0 0 Z " fill="#901268" transform="translate(184,296)"/>
<path d="M0 0 C0.66 0 1.32 0 2 0 C0.60627 4.43459 -1.60582 6.87378 -5 10 C-5.12375 9.36062 -5.2475 8.72125 -5.375 8.0625 C-5.58125 7.38188 -5.7875 6.70125 -6 6 C-6.66 5.67 -7.32 5.34 -8 5 C-6 3 -6 3 -3.4375 2.5 C-2.63313 2.335 -1.82875 2.17 -1 2 C-0.67 1.34 -0.34 0.68 0 0 Z " fill="#94166C" transform="translate(201,236)"/>
<path d="M0 0 C0.66 0.33 1.32 0.66 2 1 C2 1.99 2 2.98 2 4 C-2.29 4 -6.58 4 -11 4 C-11 3.34 -11 2.68 -11 2 C-7.37 2 -3.74 2 0 2 C0 1.34 0 0.68 0 0 Z " fill="#8A1366" transform="translate(839,272)"/>
<path d="M0 0 C0 3.24793 -0.65073 5.07659 -2 8 C-2.66 8.66 -3.32 9.32 -4 10 C-4.99 9.67 -5.98 9.34 -7 9 C-2.85714 2.57143 -2.85714 2.57143 0 0 Z " fill="#0A112F" transform="translate(614,270)"/>
<path d="M0 0 C3.465 2.97 3.465 2.97 7 6 C5.25 7.5625 5.25 7.5625 3 9 C0.75 8.6875 0.75 8.6875 -1 8 C-1 7.34 -1 6.68 -1 6 C0.32 5.67 1.64 5.34 3 5 C2.2575 4.31937 2.2575 4.31937 1.5 3.625 C0 2 0 2 0 0 Z " fill="#881265" transform="translate(203,323)"/>
<path d="M0 0 C0.33 0.66 0.66 1.32 1 2 C-0.36328 4.60156 -0.36328 4.60156 -2.3125 7.625 C-2.94801 8.62789 -3.58352 9.63078 -4.23828 10.66406 C-4.81965 11.43492 -5.40102 12.20578 -6 13 C-6.66 13 -7.32 13 -8 13 C-6.40957 7.91061 -3.2553 4.12543 0 0 Z " fill="#8F186B" transform="translate(324,315)"/>
<path d="M0 0 C0.89719 0.30937 0.89719 0.30937 1.8125 0.625 C1.07 1.0375 0.3275 1.45 -0.4375 1.875 C-4.49005 4.4539 -6.82976 6.07479 -7.9375 10.875 C-8.02 11.7825 -8.1025 12.69 -8.1875 13.625 C-8.5175 13.625 -8.8475 13.625 -9.1875 13.625 C-9.50724 9.54826 -9.62553 7.30471 -7.375 3.8125 C-3.04116 -0.52134 -3.04116 -0.52134 0 0 Z " fill="#EADDEE" transform="translate(871.1875,276.375)"/>
<path d="M0 0 C1.514 0.0174 1.514 0.0174 3.05859 0.03516 C4.07051 0.04418 5.08242 0.0532 6.125 0.0625 C7.29869 0.0799 7.29869 0.0799 8.49609 0.09766 C8.49609 1.74766 8.49609 3.39766 8.49609 5.09766 C8.16609 4.60266 7.83609 4.10766 7.49609 3.59766 C4.32037 1.21586 1.39363 1.90597 -2.50391 2.09766 C-2.99891 4.07766 -2.99891 4.07766 -3.50391 6.09766 C-3.54663 4.43154 -3.54454 2.76383 -3.50391 1.09766 C-2.50391 0.09766 -2.50391 0.09766 0 0 Z " fill="#030E2D" transform="translate(675.50390625,264.90234375)"/>
<path d="M0 0 C0.66 0.33 1.32 0.66 2 1 C-0.3125 3.5 -0.3125 3.5 -3 6 C-3.99 6 -4.98 6 -6 6 C-6.33 6.99 -6.66 7.98 -7 9 C-7.33 8.01 -7.66 7.02 -8 6 C-5.38486 3.87961 -2.80362 1.86908 0 0 Z " fill="#060D2A" transform="translate(155,214)"/>
<path d="M0 0 C0.66 0 1.32 0 2 0 C2 0.66 2 1.32 2 2 C0.35547 3.54297 0.35547 3.54297 -1.8125 5.1875 C-2.5202 5.73793 -3.22789 6.28836 -3.95703 6.85547 C-4.63121 7.23316 -5.30539 7.61086 -6 8 C-6.99 7.67 -7.98 7.34 -9 7 C-6.49707 4.31829 -4.34675 2.50027 -1 1 C-0.67 0.67 -0.34 0.34 0 0 Z " fill="#921C6E" transform="translate(307,335)"/>
<path d="M0 0 C4.5172 -0.36626 4.5172 -0.36626 6.8125 1.375 C8 3 8 3 8 5 C4.62537 4.45276 2.91765 3.9451 0 2 C0 1.34 0 0.68 0 0 Z " fill="#07102E" transform="translate(496,312)"/>
<path d="M0 0 C0 1.32 0 2.64 0 4 C-3.63 3.34 -7.26 2.68 -11 2 C-11.33 2.66 -11.66 3.32 -12 4 C-12.33 3.01 -12.66 2.02 -13 1 C-8.62426 0.40668 -4.42472 -0.13827 0 0 Z " fill="#030B28" transform="translate(496,264)"/>
<path d="M0 0 C2.875 0.3125 2.875 0.3125 6 1 C6.66 1.99 7.32 2.98 8 4 C7.01 5.485 7.01 5.485 6 7 C5.34 6.67 4.68 6.34 4 6 C4 4.68 4 3.36 4 2 C2.68 2 1.36 2 0 2 C0 1.34 0 0.68 0 0 Z " fill="#041132" transform="translate(629,306)"/>
<path d="M0 0 C0.66 0.33 1.32 0.66 2 1 C-1.63 3.31 -5.26 5.62 -9 8 C-7 4 -7 4 -4 3 C-3.67 2.34 -3.34 1.68 -3 1 C-2.01 0.67 -1.02 0.34 0 0 Z " fill="#951E70" transform="translate(223,218)"/>
<path d="M0 0 C0.66 0 1.32 0 2 0 C2 0.66 2 1.32 2 2 C2.92813 2.37125 2.92813 2.37125 3.875 2.75 C6.35069 4.20629 6.95125 5.37813 8 8 C2.33846 5.66154 2.33846 5.66154 0.625 2.3125 C0.41875 1.54937 0.2125 0.78625 0 0 Z " fill="#9B4684" transform="translate(815,309)"/>
<path d="M0 0 C0.53625 0.14437 1.0725 0.28875 1.625 0.4375 C4.39916 1.09454 7.18525 1.5522 10 2 C9.34 2.66 8.68 3.32 8 4 C4.375 3.625 4.375 3.625 1 3 C0.67 2.01 0.34 1.02 0 0 Z " fill="#0D102D" transform="translate(463,253)"/>
<path d="M0 0 C3.39418 3.12622 5.60627 5.56541 7 10 C6.34 10 5.68 10 5 10 C3.71094 8.32031 3.71094 8.32031 2.375 6.125 C1.92898 5.4057 1.48297 4.68641 1.02344 3.94531 C0 2 0 2 0 0 Z " fill="#932A74" transform="translate(314,236)"/>
<path d="M0 0 C3.40313 1.05875 6.01353 2.00902 9 4 C9 4.66 9 5.32 9 6 C5.06326 4.68775 2.77281 3.0809 0 0 Z " fill="#0B0F2B" transform="translate(148,339)"/>
<path d="M0 0 C4.875 4.625 4.875 4.625 6 8 C5.34 8 4.68 8 4 8 C4 7.34 4 6.68 4 6 C2.68 6.33 1.36 6.66 0 7 C0 4.69 0 2.38 0 0 Z " fill="#070F2D" transform="translate(142,312)"/>
<path d="M0 0 C0.33 0 0.66 0 1 0 C1.66 3.96 2.32 7.92 3 12 C2.67 11.34 2.34 10.68 2 10 C1.01 9.67 0.02 9.34 -1 9 C-0.67 6.03 -0.34 3.06 0 0 Z " fill="#010923" transform="translate(618,288)"/>
<path d="M0 0 C3.09169 2.52957 3.90931 5.22455 5 9 C4.34 9 3.68 9 3 9 C3 8.01 3 7.02 3 6 C2.01 6 1.02 6 0 6 C0 4.02 0 2.04 0 0 Z " fill="#111330" transform="translate(249,241)"/>
<path d="M0 0 C2.64 0 5.28 0 8 0 C8 0.66 8 1.32 8 2 C5.36 2.33 2.72 2.66 0 3 C0 2.01 0 1.02 0 0 Z " fill="#020B27" transform="translate(176,206)"/>
<path d="M0 0 C0.66 0.66 1.32 1.32 2 2 C1.97656 4.38281 1.97656 4.38281 1.625 7.125 C1.51414 8.03508 1.40328 8.94516 1.28906 9.88281 C1.19367 10.58148 1.09828 11.28016 1 12 C0.34 11.67 -0.32 11.34 -1 11 C-1.14286 3.57143 -1.14286 3.57143 0 0 Z " fill="#131837" transform="translate(721,276)"/>
<path d="M0 0 C0.99 0.33 1.98 0.66 3 1 C3 1.99 3 2.98 3 4 C1.02 4.66 -0.96 5.32 -3 6 C-2.01 4.02 -1.02 2.04 0 0 Z " fill="#171837" transform="translate(580,275)"/>
<path d="M0 0 C2.64 0.33 5.28 0.66 8 1 C7.34 2.32 6.68 3.64 6 5 C5.01 4.34 4.02 3.68 3 3 C3 2.34 3 1.68 3 1 C2.01 0.67 1.02 0.34 0 0 Z " fill="#1E264A" transform="translate(623,264)"/>
<path d="M0 0 C2 2 2 2 2.125 5.125 C2.08375 6.07375 2.0425 7.0225 2 8 C1.01 8 0.02 8 -1 8 C-0.67 5.36 -0.34 2.72 0 0 Z " fill="#040E2C" transform="translate(256,259)"/>
<path d="M0 0 C-1.39333 3.3672 -2.97893 4.98595 -6 7 C-6 4 -6 4 -4.125 1.8125 C-2 0 -2 0 0 0 Z " fill="#141634" transform="translate(147,221)"/>
<path d="M0 0 C0.99 0.33 1.98 0.66 3 1 C2.67 2.98 2.34 4.96 2 7 C0.68 5.35 -0.64 3.7 -2 2 C-1.34 1.34 -0.68 0.68 0 0 Z " fill="#030E2D" transform="translate(618,280)"/>
<path d="M0 0 C0.99 0 1.98 0 3 0 C3.625 1.8125 3.625 1.8125 4 4 C3.01 5.485 3.01 5.485 2 7 C1.34 6.67 0.68 6.34 0 6 C0.33 5.01 0.66 4.02 1 3 C0.34 2.34 -0.32 1.68 -1 1 C-0.67 0.67 -0.34 0.34 0 0 Z " fill="#031131" transform="translate(623,265)"/>
</svg>
