<?xml version="1.0" encoding="UTF-8"?>
<!-- Generator: visioncortex VTracer 0.6.4 -->
<svg version="1.1" xmlns="http://www.w3.org/2000/svg" width="1024" height="559">
<path d="M0 0 C337.92 0 675.84 0 1024 0 C1024 184.47 1024 368.94 1024 559 C686.08 559 348.16 559 0 559 C0 374.53 0 190.06 0 0 Z " fill="#FEFEFE" transform="translate(0,0)"/>
<path d="M0 0 C1.00958 0.00016 2.01916 0.00032 3.05933 0.00049 C11.14129 0.12325 21.83204 0.33204 27.875 6.375 C26.10471 7.66741 24.33375 8.9589 22.5625 10.25 C21.0833 11.32895 21.0833 11.32895 19.57422 12.42969 C13.75032 16.62694 13.75032 16.62694 9.29688 16.39453 C8.39026 16.36182 7.48365 16.32911 6.54956 16.29541 C5.1019 16.24199 5.1019 16.24199 3.625 16.1875 C-10.10095 15.94341 -21.1188 18.72727 -32.125 27.375 C-33.115 28.1175 -34.105 28.86 -35.125 29.625 C-37.20739 31.22425 -37.20739 31.22425 -38.125 33.375 C-38.785 33.375 -39.445 33.375 -40.125 33.375 C-40.38539 33.92285 -40.64578 34.4707 -40.91406 35.03516 C-42.30545 37.72367 -43.90218 40.24134 -45.5 42.8125 C-50.07074 50.58276 -52.36648 58.5824 -54.125 67.375 C-40.265 67.375 -26.405 67.375 -12.125 67.375 C-12.125 72.325 -12.125 77.275 -12.125 82.375 C-25.985 82.375 -39.845 82.375 -54.125 82.375 C-48.86939 102.08354 -42.79092 116.6031 -25.125 127.375 C-12.67316 133.87583 0.50655 135.49713 14.38672 132.65625 C17.01449 131.7266 19.41106 130.67448 21.875 129.375 C22.66906 128.97797 23.46312 128.58094 24.28125 128.17188 C29.1095 125.629 33.50277 122.63092 37.875 119.375 C41.175 122.675 44.475 125.975 47.875 129.375 C40.43937 139.88744 26.77984 146.3876 14.38672 148.98022 C-4.42043 151.93621 -22.13832 148.7993 -38.125 138.375 C-41.71479 135.60013 -44.93748 132.59984 -48.125 129.375 C-48.89586 128.62605 -49.66672 127.87711 -50.46094 127.10547 C-60.52508 116.74936 -65.93785 104.31201 -69.125 90.375 C-69.31707 89.61316 -69.50914 88.85133 -69.70703 88.06641 C-72.80732 68.10287 -68.58949 46.61944 -56.84082 30.12231 C-42.95605 11.53491 -23.40982 -0.03485 0 0 Z " fill="#765E84" transform="translate(189.125,204.625)"/>
<path d="M0 0 C4.95 0 9.9 0 15 0 C15.02255 9.50075 15.04092 19.00148 15.05181 28.50224 C15.05704 32.91337 15.06414 37.32448 15.07544 41.7356 C15.08627 45.98901 15.09228 50.24241 15.09488 54.49584 C15.09673 56.12222 15.10035 57.7486 15.10573 59.37497 C15.11294 61.6451 15.11399 63.91516 15.11353 66.1853 C15.11575 67.47992 15.11797 68.77454 15.12025 70.10838 C15 73 15 73 14 74 C11.81361 74.07259 9.625 74.08374 7.4375 74.0625 C5.64119 74.04896 5.64119 74.04896 3.80859 74.03516 C2.41834 74.01775 2.41834 74.01775 1 74 C0.67 72.35 0.34 70.7 0 69 C-0.68062 69.61875 -1.36125 70.2375 -2.0625 70.875 C-7.26373 74.63759 -12.67264 75.63274 -19 75 C-27.3561 72.66415 -33.33494 70.14515 -37.75 62.4375 C-41.67899 55.06443 -42.13011 47.21063 -41 39 C-39.53755 34.63117 -37.75477 30.70654 -35 27 C-34.01 26.67 -33.02 26.34 -32 26 C-32 25.34 -32 24.68 -32 24 C-30.75264 23.34907 -29.50198 22.70448 -28.25 22.0625 C-27.55391 21.70285 -26.85781 21.3432 -26.14062 20.97266 C-19.86817 18.12258 -13.01661 18.04729 -6.5625 20.375 C-3 22 -3 22 -1 24 C-0.67 16.08 -0.34 8.16 0 0 Z " fill="#765E84" transform="translate(888,244)"/>
<path d="M0 0 C16.61347 13.38383 28.54081 30.35384 31.37109 51.91016 C33.32743 72.42981 28.09937 91.80447 15.55859 108.28516 C1.67667 124.38603 -16.19348 135.01014 -37.62891 136.91016 C-51.2057 137.59117 -63.03351 136.01774 -75.62891 130.91016 C-73.69141 128.28516 -73.69141 128.28516 -70.62891 125.91016 C-68.25352 125.99749 -66.2778 126.50888 -64.00781 127.19922 C-51.35702 130.97992 -34.96081 130.36682 -22.62891 125.91016 C-21.6273 125.55824 -20.6257 125.20633 -19.59375 124.84375 C-12.5085 122.12968 -6.61207 118.54397 -0.62891 113.91016 C-0.01531 113.47316 0.59828 113.03617 1.23047 112.58594 C14.23245 102.65552 21.50064 85.04792 23.91406 69.38672 C25.68691 50.82398 20.83747 33.63635 9.37109 18.91016 C8.62988 18.18055 7.88867 17.45094 7.125 16.69922 C5.37109 14.91016 5.37109 14.91016 5.37109 12.91016 C4.79359 12.64719 4.21609 12.38422 3.62109 12.11328 C1.25263 10.84681 -0.57544 9.38694 -2.62891 7.66016 C-18.1888 -4.52928 -36.36123 -7.79597 -55.62891 -6.08984 C-73.00107 -3.83357 -89.31708 5.36193 -100.26953 19.08594 C-110.69205 33.04144 -116.27457 50.43903 -114.62891 67.91016 C-112.04975 85.48444 -104.65133 98.33833 -93.62891 111.91016 C-96.62891 113.91016 -96.62891 113.91016 -99.04297 113.82812 C-106.36054 111.2305 -110.97661 101.72009 -114.44141 95.22266 C-123.00086 76.8696 -124.52123 56.51747 -118.4375 37.10938 C-110.17085 15.93639 -95.42346 0.44318 -74.75391 -8.96484 C-50.23788 -18.36157 -21.27716 -15.89673 0 0 Z " fill="#765E84" transform="translate(303.62890625,218.08984375)"/>
<path d="M0 0 C5.37614 4.17763 7.84836 9.33024 9.96484 15.67969 C10.75781 24.94827 10.18538 33.12354 4.42188 40.71094 C-0.46442 45.98859 -6.76288 49.9702 -14.03516 50.67969 C-14.66809 50.74285 -15.30102 50.80602 -15.95312 50.87109 C-24.33735 51.33111 -31.9586 48.72085 -38.47266 43.42969 C-43.35894 38.78371 -46.7006 32.6395 -47.27344 25.85938 C-47.47279 16.98274 -45.93935 11.48278 -41.41016 3.99219 C-29.86757 -7.24665 -13.50057 -8.75853 0 0 Z " fill="#765E84" transform="translate(652.03515625,268.3203125)"/>
<path d="M0 0 C16.83 0 33.66 0 51 0 C51 4.29 51 8.58 51 13 C39.12 13 27.24 13 15 13 C15 17.95 15 22.9 15 28 C17.22621 27.9884 19.45242 27.9768 21.74609 27.96484 C23.89396 27.95705 26.04182 27.95098 28.1897 27.94507 C29.68645 27.94003 31.1832 27.9332 32.67993 27.92456 C34.827 27.91248 36.974 27.90677 39.12109 27.90234 C41.06133 27.89449 41.06133 27.89449 43.04077 27.88647 C46 28 46 28 47 29 C47 32.96 47 36.92 47 41 C36.44 41 25.88 41 15 41 C15 46.61 15 52.22 15 58 C27.21 58 39.42 58 52 58 C52 62.29 52 66.58 52 71 C34.84 71 17.68 71 0 71 C0 47.57 0 24.14 0 0 Z " fill="#765E84" transform="translate(373,247)"/>
<path d="M0 0 C14.31435 9.3694 21.88283 24.77561 26.4375 40.8125 C28 49 28 49 28 67 C5.89 67 -16.22 67 -39 67 C-39 62.05 -39 57.1 -39 52 C-22.17 52 -5.34 52 12 52 C9.58535 40.90422 9.58535 40.90422 5.375 30.8125 C5.03235 30.14178 4.6897 29.47107 4.33667 28.78003 C1.0908 22.69447 -3.05829 17.79976 -8 13 C-9.65 11.35 -11.3 9.7 -13 8 C-8.71 5.36 -4.42 2.72 0 0 Z " fill="#765E84" transform="translate(232,220)"/>
<path d="M0 0 C5.71686 5.14518 7.94841 10.4673 9 18 C9.09104 20.59956 9.14046 23.17091 9.13281 25.76953 C9.13377 26.49114 9.13473 27.21275 9.13571 27.95622 C9.13639 29.46976 9.13457 30.9833 9.13037 32.49683 C9.12498 34.82282 9.13035 37.14862 9.13672 39.47461 C9.13606 40.94792 9.13478 42.42122 9.13281 43.89453 C9.13484 44.59238 9.13686 45.29023 9.13895 46.00923 C9.11498 50.88502 9.11498 50.88502 8 52 C5.64686 52.07272 3.29166 52.08371 0.9375 52.0625 C-0.35285 52.05348 -1.6432 52.04445 -2.97266 52.03516 C-3.97168 52.02355 -4.9707 52.01195 -6 52 C-6.02973 50.64636 -6.02973 50.64636 -6.06006 49.26538 C-6.13855 45.88996 -6.22526 42.51496 -6.31738 39.13989 C-6.35546 37.68424 -6.39035 36.22851 -6.42188 34.77271 C-6.46798 32.66977 -6.5259 30.56742 -6.58594 28.46484 C-6.61736 27.20277 -6.64878 25.9407 -6.68115 24.64038 C-7.27647 17.59527 -7.27647 17.59527 -11.1875 12.0625 C-15.35043 10.48984 -18.98458 10.38418 -23.25 11.6875 C-25.69108 13.51831 -26.65195 15.25015 -28 18 C-28.30615 20.63223 -28.46421 23.04105 -28.47656 25.67188 C-28.49993 26.75641 -28.49993 26.75641 -28.52377 27.86285 C-28.57108 30.15856 -28.599 32.45396 -28.625 34.75 C-28.66148 37.06011 -28.70202 39.37005 -28.74765 41.67999 C-28.77491 43.11442 -28.79625 44.54897 -28.81119 45.98358 C-28.8893 50.8893 -28.8893 50.8893 -30 52 C-34.62 52 -39.24 52 -44 52 C-44 34.18 -44 16.36 -44 -2 C-39.38 -2 -34.76 -2 -30 -2 C-29.67 -0.35 -29.34 1.3 -29 3 C-28.29875 2.38125 -27.5975 1.7625 -26.875 1.125 C-19.25344 -4.50832 -8.17859 -5.00193 0 0 Z " fill="#765E84" transform="translate(715,266)"/>
<path d="M0 0 C15.18 0 30.36 0 46 0 C46 10.11033 46 10.11033 42.1875 14.25 C41.37023 15.1691 40.55297 16.0882 39.71094 17.03516 C39.27104 17.51356 38.83115 17.99196 38.37793 18.48486 C35.9489 21.15576 33.64054 23.92876 31.3125 26.6875 C30.87382 27.19765 30.43513 27.70779 29.98315 28.2334 C26.44207 32.37293 23.28984 36.61355 20 41 C33.365 41.495 33.365 41.495 47 42 C47 45.96 47 49.92 47 54 C31.16 54 15.32 54 -1 54 C-1 42.53834 -1 42.53834 4.4375 37.0625 C5.54284 35.86697 6.647 34.67034 7.75 33.47266 C8.57564 32.59891 8.57564 32.59891 9.41797 31.70752 C11.71403 29.22933 13.8182 26.63122 15.9375 24 C18.93136 20.30815 21.95617 16.65259 25 13 C16.75 12.67 8.5 12.34 0 12 C0 8.04 0 4.08 0 0 Z " fill="#765E84" transform="translate(554,264)"/>
<path d="M0 0 C6.93 0.495 6.93 0.495 14 1 C14 19.81 14 38.62 14 58 C24.89 58 35.78 58 47 58 C47 62.29 47 66.58 47 71 C31.16 71 15.32 71 -1 71 C-1.04011 53.57049 -1.04011 53.57049 -1.04883 46.16602 C-1.05482 41.10489 -1.06192 36.04378 -1.07544 30.98267 C-1.08627 26.90431 -1.09228 22.82598 -1.09488 18.74762 C-1.09673 17.18822 -1.10035 15.62883 -1.10573 14.06944 C-1.11294 11.89271 -1.11399 9.71605 -1.11353 7.53931 C-1.11686 5.67732 -1.11686 5.67732 -1.12025 3.77773 C-1 1 -1 1 0 0 Z " fill="#765E84" transform="translate(759,247)"/>
<path d="M0 0 C4.95 0 9.9 0 15 0 C15 4.29 15 8.58 15 13 C19.29 13 23.58 13 28 13 C28 16.96 28 20.92 28 25 C23.71 25 19.42 25 15 25 C15.11359 29.27142 15.24035 33.54174 15.375 37.8125 C15.40594 39.02744 15.43687 40.24238 15.46875 41.49414 C15.50742 42.65752 15.54609 43.8209 15.58594 45.01953 C15.63307 46.62985 15.63307 46.62985 15.68115 48.27271 C15.81592 51.21608 15.81592 51.21608 18 54 C21.7164 54.27028 24.4572 54.18093 28 53 C28.50834 54.24663 29.00631 55.49749 29.5 56.75 C29.77844 57.44609 30.05687 58.14219 30.34375 58.85938 C31 61 31 61 31 65 C23.1853 68.2904 17.18618 68.98366 9.08203 66.04297 C4.7865 63.89117 2.66901 60.66536 0.8833 56.22021 C-0.06697 52.75585 -0.22822 49.8761 -0.19531 46.28906 C-0.18564 44.42314 -0.18564 44.42314 -0.17578 42.51953 C-0.15902 41.23434 -0.14227 39.94914 -0.125 38.625 C-0.11598 37.3166 -0.10695 36.0082 -0.09766 34.66016 C-0.07415 31.43992 -0.04129 28.22005 0 25 C-2.64 25 -5.28 25 -8 25 C-8 21.04 -8 17.08 -8 13 C-5.36 13 -2.72 13 0 13 C0 8.71 0 4.42 0 0 Z " fill="#765E84" transform="translate(491,251)"/>
<path d="M0 0 C1.93166 0.0174 1.93166 0.0174 3.90234 0.03516 C5.1927 0.04418 6.48305 0.0532 7.8125 0.0625 C8.81152 0.0741 9.81055 0.0857 10.83984 0.09766 C11.16984 4.38766 11.49984 8.67766 11.83984 13.09766 C15.79984 13.09766 19.75984 13.09766 23.83984 13.09766 C23.83984 17.05766 23.83984 21.01766 23.83984 25.09766 C19.54984 25.09766 15.25984 25.09766 10.83984 25.09766 C10.95326 29.55657 11.08002 34.01439 11.21484 38.47266 C11.24578 39.74367 11.27672 41.01469 11.30859 42.32422 C11.34727 43.53594 11.38594 44.74766 11.42578 45.99609 C11.47291 47.67711 11.47291 47.67711 11.521 49.39209 C11.57396 52.24476 11.57396 52.24476 13.83984 54.09766 C15.75165 54.37771 15.75165 54.37771 17.83984 54.28516 C18.54109 54.27871 19.24234 54.27227 19.96484 54.26562 C21.93041 54.20472 21.93041 54.20472 23.83984 53.09766 C27.46855 61.35962 27.46855 61.35962 25.83984 66.09766 C18.34024 68.45864 11.90834 68.60451 4.46484 65.84766 C-0.41476 62.59459 -2.42157 59.28512 -3.76758 53.59644 C-4.574 48.46354 -4.36231 43.27898 -4.28516 38.09766 C-4.27613 36.94137 -4.26711 35.78508 -4.25781 34.59375 C-4.23441 31.7615 -4.20162 28.92969 -4.16016 26.09766 C-6.80016 25.76766 -9.44016 25.43766 -12.16016 25.09766 C-12.18703 23.28524 -12.20649 21.4727 -12.22266 19.66016 C-12.23426 18.65082 -12.24586 17.64148 -12.25781 16.60156 C-12.16016 14.09766 -12.16016 14.09766 -11.16016 13.09766 C-8.83198 12.73005 -6.49832 12.39524 -4.16016 12.09766 C-4.17176 11.3152 -4.18336 10.53273 -4.19531 9.72656 C-4.20434 8.71465 -4.21336 7.70273 -4.22266 6.66016 C-4.23426 5.65082 -4.24586 4.64148 -4.25781 3.60156 C-4.11172 -0.1442 -3.82636 0.11824 0 0 Z " fill="#765E84" transform="translate(817.16015625,250.90234375)"/>
<path d="M0 0 C4.95 0 9.9 0 15 0 C15 24.42 15 48.84 15 74 C10.38 74 5.76 74 1 74 C0 73 0 73 -0.12025 70.10838 C-0.11803 68.81377 -0.11581 67.51915 -0.11353 66.1853 C-0.11367 65.47315 -0.11382 64.76099 -0.11397 64.02725 C-0.11327 61.66267 -0.10548 59.29816 -0.09766 56.93359 C-0.09579 55.29835 -0.09437 53.6631 -0.09337 52.02785 C-0.08954 47.71565 -0.07971 43.40349 -0.06866 39.09131 C-0.05845 34.69434 -0.05387 30.29737 -0.04883 25.90039 C-0.03809 17.26691 -0.02049 8.63346 0 0 Z " fill="#765E84" transform="translate(434,244)"/>
<path d="M0 0 C4.95 0 9.9 0 15 0 C15 17.82 15 35.64 15 54 C10.05 54 5.1 54 0 54 C0 36.18 0 18.36 0 0 Z " fill="#765E84" transform="translate(461,264)"/>
<path d="M0 0 C4.95 0 9.9 0 15 0 C15 17.82 15 35.64 15 54 C10.38 54 5.76 54 1 54 C0 53 0 53 -0.12025 50.86766 C-0.11803 49.92834 -0.11581 48.98902 -0.11353 48.02124 C-0.11345 46.96022 -0.11337 45.89919 -0.1133 44.80602 C-0.10814 43.65187 -0.10297 42.49772 -0.09766 41.30859 C-0.09624 40.13362 -0.09483 38.95864 -0.09337 37.74806 C-0.08775 33.97785 -0.07519 30.20769 -0.0625 26.4375 C-0.05749 23.88867 -0.05292 21.33984 -0.04883 18.79102 C-0.03777 12.52732 -0.0205 6.26367 0 0 Z " fill="#765E84" transform="translate(529,264)"/>
<path d="M0 0 C3.24849 2.55869 5.19211 5.05395 6.08203 9.05859 C6.82845 15.90462 6.35143 20.55331 2.08203 26.05859 C-2.24428 29.03894 -5.71896 29.62576 -10.91797 29.05859 C-15.61038 26.9852 -18.63116 23.6322 -20.91797 19.05859 C-21.57207 12.06474 -21.0327 6.82222 -16.41797 1.24609 C-12.2279 -2.07104 -4.71569 -2.31462 0 0 Z " fill="#FDFEFE" transform="translate(640.91796875,276.94140625)"/>
<path d="M0 0 C3.48446 1.30667 4.61063 2.47636 6.8125 5.4375 C8.95907 11.87722 9.24371 18.37439 6.3125 24.5625 C2.78138 28.28449 0.16419 30.14203 -5 30.375 C-9.59252 30.19337 -12.30341 28.45422 -15.75 25.5 C-19.06226 21.52529 -18.32166 16.05772 -18.28906 11.17969 C-17.89591 6.85505 -16.95323 5.12199 -14 2 C-9.53081 -0.97946 -5.23928 -0.48398 0 0 Z " fill="#FEFEFD" transform="translate(880,276)"/>
<path d="M0 0 C6.93 0 13.86 0 21 0 C21 6.93 21 13.86 21 21 C14.07 21 7.14 21 0 21 C0 14.07 0 7.14 0 0 Z " fill="#765E84" transform="translate(237,300)"/>
<path d="M0 0 C3.46895 1.96071 4.71249 3.15544 6 6.9375 C6 10.60292 5.23179 12.13056 3 15 C-0.73739 17.49159 -2.57332 17.45793 -7 17 C-10.79075 14.93981 -11.78313 13.70163 -13.0625 9.5625 C-12.98713 5.26668 -12.0345 3.9478 -9 1 C-5.89951 -0.55024 -3.42106 -0.28992 0 0 Z " fill="#765E84" transform="translate(540,240)"/>
<path d="M0 0 C3.79075 2.06019 4.78313 3.29837 6.0625 7.4375 C5.98713 11.73332 5.0345 13.0522 2 16 C-0.86608 17.43304 -2.81301 17.30644 -6 17 C-9.375 15.5625 -9.375 15.5625 -12 13 C-12.81789 9.83866 -12.76739 7.16837 -12 4 C-8.55771 -0.27679 -5.31657 -0.75951 0 0 Z " fill="#765E84" transform="translate(472,240)"/>
</svg>
