<?xml version="1.0" encoding="UTF-8"?>
<!-- Generator: visioncortex VTracer 0.6.4 -->
<svg version="1.1" xmlns="http://www.w3.org/2000/svg" width="1024" height="559">
<path d="M0 0 C337.92 0 675.84 0 1024 0 C1024 184.47 1024 368.94 1024 559 C686.08 559 348.16 559 0 559 C0 374.53 0 190.06 0 0 Z " fill="#ffffff" transform="translate(0,0)"/>
<path d="M0 0 C-1.34359 2.68717 -3.32573 3.36703 -5.91797 4.70703 C-8.23416 6.02534 -8.23416 6.02534 -10.51953 8.63672 C-14.91755 12.36868 -20.05952 11.31718 -25.5 11 C-40.59175 10.58264 -51.40656 13.82129 -63 24 C-74.11113 34.70533 -79.48117 46.88702 -82 62 C-68.14 62 -54.28 62 -40 62 C-40 66.95 -40 71.9 -40 77 C-53.86 77 -67.72 77 -82 77 C-78.26338 94.43754 -71.90016 110.40117 -56.39453 120.44922 C-43.06669 128.49164 -29.17014 130.28895 -13.7749 127.61328 C-6.72136 125.78925 -0.81752 121.87194 4.87891 117.45312 C8.4233 115.02492 8.4233 115.02492 11 115 C13.35938 116.87109 13.35938 116.87109 15.75 119.4375 C16.54922 120.28184 17.34844 121.12617 18.17188 121.99609 C18.77516 122.65738 19.37844 123.31867 20 124 C12.78887 134.68315 -1.23023 140.56091 -13.41064 143.52246 C-26.14223 145.87047 -40.11336 145.26664 -52 140 C-53.03254 139.5527 -54.06508 139.10539 -55.12891 138.64453 C-61.7738 135.54247 -67.49967 131.83988 -73 127 C-73.67676 126.40574 -74.35352 125.81148 -75.05078 125.19922 C-80.76173 119.84312 -84.93095 113.65761 -89 107 C-89.61875 106.00033 -89.61875 106.00033 -90.25 104.98047 C-93.83968 98.54428 -95.30351 91.11252 -97 84 C-97.29391 82.80697 -97.29391 82.80697 -97.59375 81.58984 C-100.80195 61.13755 -95.59151 40.99691 -83.98438 24.05859 C-82.07995 21.60308 -80.09738 19.29182 -78 17 C-77.39801 16.30648 -76.79602 15.61297 -76.17578 14.89844 C-56.84975 -6.08874 -25.6408 -10.42007 0 0 Z " fill="#091837" transform="translate(217,210)"/>
<path d="M0 0 C4.95 0 9.9 0 15 0 C15 24.42 15 48.84 15 74 C10.38 74 5.76 74 1 74 C0.67 72.35 0.34 70.7 0 69 C-0.92813 69.63937 -1.85625 70.27875 -2.8125 70.9375 C-8.91101 74.88359 -14.92693 74.56749 -22 74 C-29.20255 72.30719 -33.97124 68.09226 -38 62 C-42.00905 54.72379 -41.93626 46.06756 -41 38 C-39.03989 32.24066 -35.56841 27.98272 -31 24 C-30.38125 23.44313 -29.7625 22.88625 -29.125 22.3125 C-23.60291 18.9018 -17.33266 18.27223 -11 19 C-6.95636 20.09002 -3.49795 21.66803 0 24 C0 16.08 0 8.16 0 0 Z " fill="#A01172" transform="translate(888,244)"/>
<path d="M0 0 C13.17606 13.4661 21.7911 31.48614 21.92188 50.47656 C21.80377 58.75548 20.62792 66.52484 18.48438 74.53906 C18.17887 75.69922 17.87336 76.85938 17.55859 78.05469 C11.32554 98.27246 -4.5672 112.60793 -22.78906 122.25781 C-26.9236 124.20069 -31.09319 125.43892 -35.51562 126.53906 C-36.18465 126.74402 -36.85367 126.94898 -37.54297 127.16016 C-52.85468 131.42157 -70.13014 128.37255 -84.51562 122.53906 C-83.51562 119.53906 -83.51562 119.53906 -80.51562 117.53906 C-77.56696 117.87605 -74.87641 118.7266 -72.02734 119.5625 C-55.8341 123.57166 -35.61 121.19597 -21.00781 113.13281 C-4.2581 102.4214 8.40666 88.32241 12.92188 68.47656 C15.76977 54.70812 15.3676 40.50618 9.48438 27.53906 C9.09637 26.63672 8.70836 25.73438 8.30859 24.80469 C0.52304 7.87384 -13.18871 -4.64379 -30.51562 -11.46094 C-47.53052 -17.06884 -69.12365 -16.73116 -85.26172 -8.84644 C-104.96158 1.4073 -116.43959 16.58829 -123.45703 37.32031 C-127.97738 55.78104 -122.91396 74.65559 -113.6626 90.73682 C-110.84832 95.15891 -107.28316 98.91107 -103.51562 102.53906 C-104.70312 104.10156 -104.70312 104.10156 -106.51562 105.53906 C-109.89085 105.51175 -111.22688 104.80179 -113.72656 102.52734 C-128.22682 84.59833 -133.50502 65.31177 -131.51562 42.53906 C-128.47226 21.61962 -116.84665 4.16025 -100.1875 -8.64453 C-92.8779 -13.61378 -84.94253 -16.92978 -76.51562 -19.46094 C-75.56043 -19.80254 -74.60523 -20.14414 -73.62109 -20.49609 C-47.77849 -28.52518 -18.98319 -17.62724 0 0 Z " fill="#95106A" transform="translate(313.515625,226.4609375)"/>
<path d="M0 0 C1.13437 0.04125 2.26875 0.0825 3.4375 0.125 C11.28601 2.0527 17.17026 6.35386 21.84375 12.875 C25.79695 20.14034 26.37972 28.58025 24.34766 36.5625 C21.52831 43.53222 16.77683 49.83313 10.125 53.5 C2.43315 56.44217 -7.19925 56.32371 -15.07422 54.15234 C-22.21771 50.92519 -27.71965 45.41566 -30.9375 38.25 C-33.50973 30.051 -32.67868 21.8415 -29.125 14.11719 C-25.38568 7.08 -19.87752 3.48051 -12.5625 0.6875 C-8.27529 -0.13986 -4.34598 -0.22546 0 0 Z " fill="#081736" transform="translate(637,263)"/>
<path d="M0 0 C16.83 0 33.66 0 51 0 C51 3.96 51 7.92 51 12 C39.12 12 27.24 12 15 12 C15 17.28 15 22.56 15 28 C25.23 28 35.46 28 46 28 C46 31.96 46 35.92 46 40 C35.77 40 25.54 40 15 40 C15 45.61 15 51.22 15 57 C27.21 57 39.42 57 52 57 C52 61.29 52 65.58 52 70 C34.84 70 17.68 70 0 70 C0 46.9 0 23.8 0 0 Z " fill="#061739" transform="translate(373,248)"/>
<path d="M0 0 C10.9625 4.32449 17.71292 18.79904 22.21875 28.88672 C27.07074 41.41009 27.40625 52.20624 27.40625 65.94922 C5.29625 65.94922 -16.81375 65.94922 -39.59375 65.94922 C-39.59375 60.99922 -39.59375 56.04922 -39.59375 50.94922 C-22.76375 50.94922 -5.93375 50.94922 11.40625 50.94922 C7.6033 33.20211 2.8913 23.30043 -9.59375 10.94922 C-10.74811 9.79293 -10.74811 9.79293 -11.92578 8.61328 C-12.47621 8.06414 -13.02664 7.515 -13.59375 6.94922 C-11.87712 5.74367 -10.14487 4.56034 -8.40625 3.38672 C-7.44332 2.72543 -6.48039 2.06414 -5.48828 1.38281 C-2.59375 -0.05078 -2.59375 -0.05078 0 0 Z " fill="#0B1A3A" transform="translate(232.59375,221.05078125)"/>
<path d="M0 0 C4.17937 4.17937 5.87502 8.30327 6.09058 14.12476 C6.09011 15.7382 6.07354 17.35169 6.04297 18.96484 C6.03872 19.82058 6.03448 20.67633 6.03011 21.558 C6.01343 24.26816 5.9758 26.97756 5.9375 29.6875 C5.92244 31.53449 5.90875 33.3815 5.89648 35.22852 C5.86356 39.73597 5.81185 44.24285 5.75 48.75 C1.13 48.75 -3.49 48.75 -8.25 48.75 C-8.25411 47.75146 -8.25822 46.75292 -8.26245 45.72412 C-8.28431 41.99997 -8.33867 38.27687 -8.40259 34.55322 C-8.42571 32.94525 -8.44015 31.33713 -8.44556 29.729 C-8.45489 27.40954 -8.49597 25.09241 -8.54297 22.77344 C-8.53904 22.0607 -8.5351 21.34796 -8.53105 20.61362 C-8.69491 14.93893 -10.33056 12.57053 -14.25 8.75 C-17.68124 7.70454 -20.76237 7.97561 -24.25 8.75 C-27.6433 11.29498 -29.70775 13.8296 -31.25 17.75 C-31.48464 20.24587 -31.62158 22.64212 -31.66406 25.14062 C-31.68343 25.84524 -31.70279 26.54985 -31.72275 27.27582 C-31.78233 29.51709 -31.82884 31.75841 -31.875 34 C-31.9132 35.52346 -31.95225 37.0469 -31.99219 38.57031 C-32.08961 42.29676 -32.16935 46.023 -32.25 49.75 C-36.87 49.75 -41.49 49.75 -46.25 49.75 C-46.25 31.93 -46.25 14.11 -46.25 -4.25 C-41.63 -4.25 -37.01 -4.25 -32.25 -4.25 C-31.92 -2.6 -31.59 -0.95 -31.25 0.75 C-30.79109 0.40066 -30.33219 0.05133 -29.85938 -0.30859 C-29.24578 -0.76363 -28.63219 -1.21867 -28 -1.6875 C-27.39672 -2.13996 -26.79344 -2.59242 -26.17188 -3.05859 C-17.78587 -8.25723 -7.46237 -5.16626 0 0 Z " fill="#071634" transform="translate(717.25,268.25)"/>
<path d="M0 0 C14.85 0 29.7 0 45 0 C45 11.46099 45 11.46099 40.0625 16.4375 C39.04851 17.54339 38.03551 18.65017 37.02344 19.75781 C36.51394 20.29954 36.00443 20.84127 35.47949 21.39941 C33.27506 23.78427 31.23359 26.29155 29.1875 28.8125 C28.52105 29.62332 27.85461 30.43414 27.16797 31.26953 C24.37278 34.78996 21.6971 38.40387 19 42 C28.24 42 37.48 42 47 42 C47 45.96 47 49.92 47 54 C31.16 54 15.32 54 -1 54 C-1 42.53817 -1 42.53817 4.8125 36.6875 C6.00357 35.40585 7.19366 34.12327 8.38281 32.83984 C8.98642 32.20417 9.59002 31.56851 10.21191 30.91357 C12.98026 27.95095 15.58343 24.85674 18.1875 21.75 C18.8726 20.94502 18.8726 20.94502 19.57153 20.12378 C21.53174 17.81171 23.31563 15.52655 25 13 C16.75 12.67 8.5 12.34 0 12 C0 8.04 0 4.08 0 0 Z " fill="#091838" transform="translate(554,264)"/>
<path d="M0 0 C4.95 0 9.9 0 15 0 C15 18.48 15 36.96 15 56 C25.89 56 36.78 56 48 56 C48 60.62 48 65.24 48 70 C32.16 70 16.32 70 0 70 C0 46.9 0 23.8 0 0 Z " fill="#9F0E70" transform="translate(758,248)"/>
<path d="M0 0 C4.95 0 9.9 0 15 0 C15 4.29 15 8.58 15 13 C19.29 13 23.58 13 28 13 C28 16.96 28 20.92 28 25 C23.71 25 19.42 25 15 25 C15.33 34.57 15.66 44.14 16 54 C24.88197 54.74536 24.88197 54.74536 28 53 C28.5056 54.43554 29.00427 55.87352 29.5 57.3125 C29.77844 58.11301 30.05687 58.91352 30.34375 59.73828 C31 62 31 62 31 65 C26.91975 66.936 23.56147 67.29785 19.0625 67.3125 C17.87785 67.32926 16.6932 67.34602 15.47266 67.36328 C10.50674 66.84379 7.22234 65.25629 3.75 61.6875 C0.50073 56.69756 -0.24935 52.17936 -0.19531 46.28906 C-0.18564 44.42314 -0.18564 44.42314 -0.17578 42.51953 C-0.15902 41.23434 -0.14227 39.94914 -0.125 38.625 C-0.11598 37.3166 -0.10695 36.0082 -0.09766 34.66016 C-0.07415 31.43992 -0.04129 28.22005 0 25 C-2.64 25 -5.28 25 -8 25 C-8 21.04 -8 17.08 -8 13 C-5.36 13 -2.72 13 0 13 C0 8.71 0 4.42 0 0 Z " fill="#0E1C39" transform="translate(491,251)"/>
<path d="M0 0 C4.62 0 9.24 0 14 0 C14 4.62 14 9.24 14 14 C18.29 14 22.58 14 27 14 C27 17.63 27 21.26 27 25 C22.71 25 18.42 25 14 25 C14.33 34.57 14.66 44.14 15 54 C18.96 54 22.92 54 27 54 C30 61.625 30 61.625 30 65 C26.285 67.36667 22.95859 67.29953 18.625 67.3125 C17.33852 67.32926 16.05203 67.34602 14.72656 67.36328 C9.50109 66.85388 6.24611 65.34714 2.6875 61.5 C-0.18012 57.25168 -0.11815 53.94681 -0.09766 48.92578 C-0.09624 48.24195 -0.09483 47.55812 -0.09337 46.85356 C-0.08778 44.67316 -0.07523 42.49287 -0.0625 40.3125 C-0.05748 38.83268 -0.05292 37.35287 -0.04883 35.87305 C-0.03781 32.24866 -0.02056 28.62434 0 25 C-2.97 25 -5.94 25 -9 25 C-9 21.37 -9 17.74 -9 14 C-6.03 14 -3.06 14 0 14 C0 9.38 0 4.76 0 0 Z " fill="#9E1271" transform="translate(814,251)"/>
<path d="M0 0 C4.62 0 9.24 0 14 0 C14 24.09 14 48.18 14 73 C9.38 73 4.76 73 0 73 C0 48.91 0 24.82 0 0 Z " fill="#051434" transform="translate(435,244)"/>
<path d="M0 0 C4.95 0 9.9 0 15 0 C15 17.82 15 35.64 15 54 C10.05 54 5.1 54 0 54 C0 36.18 0 18.36 0 0 Z " fill="#06183C" transform="translate(461,264)"/>
<path d="M0 0 C4.62 0 9.24 0 14 0 C14 17.82 14 35.64 14 54 C9.38 54 4.76 54 0 54 C0 36.18 0 18.36 0 0 Z " fill="#06183C" transform="translate(530,264)"/>
<path d="M0 0 C4.43352 0.69348 6.00824 2.08335 8.92188 5.45703 C11.98224 10.36637 11.52732 15.87351 10.92188 21.45703 C8.81146 25.91234 6.5266 28.61514 1.92188 30.45703 C-2.78478 31.16303 -6.13694 30.9102 -10.45312 28.83203 C-14.1706 25.46861 -15.82455 22.85195 -16.35938 17.80078 C-16.52749 12.58921 -16.58917 8.59505 -13.07812 4.45703 C-12.21574 3.42062 -12.21574 3.42062 -11.33594 2.36328 C-7.75221 -0.66243 -4.51956 -0.14881 0 0 Z " fill="#ffffff" transform="translate(636.078125,275.54296875)"/>
<path d="M0 0 C2.85473 1.35761 3.90172 2.50475 6 5 C7.95031 10.56882 8.51293 18.72601 6.02344 24.11328 C3.28294 27.50107 0.13521 29.70588 -4.18359 30.30078 C-8.90734 30.32534 -12.3561 30.33157 -16 27 C-19.66286 21.75874 -20.70133 17.31196 -20 11 C-18.81165 7.24733 -17.50484 4.63512 -15.0625 1.5625 C-10.16878 -0.9343 -5.3718 -0.84932 0 0 Z " fill="#ffffff" transform="translate(881,276)"/>
<path d="M0 0 C6.93 0 13.86 0 21 0 C21 6.93 21 13.86 21 21 C14.07 21 7.14 21 0 21 C0 14.07 0 7.14 0 0 Z " fill="#A61076" transform="translate(237,300)"/>
<path d="M0 0 C3.79075 2.06019 4.78313 3.29837 6.0625 7.4375 C5.98713 11.73332 5.0345 13.0522 2 16 C-0.82001 17.41001 -2.87007 17.24548 -6 17 C-10.63235 14.73529 -10.63235 14.73529 -12 12 C-12.28394 9.06592 -12.48994 6.84954 -12 4 C-8.50759 -0.23322 -5.32511 -0.76073 0 0 Z " fill="#071635" transform="translate(472,240)"/>
<path d="M0 0 C2.9375 1.5 2.9375 1.5 5 4 C5.65352 6.79754 5.63811 9.20036 5 12 C3.12985 14.4312 1.71862 15.64069 -1 17 C-4.61727 17.40192 -6.59782 17.20109 -9.875 15.5625 C-12.57207 12.31015 -12.73269 10.26675 -12.48047 6.12891 C-12 4 -12 4 -9.9375 1.4375 C-6.25456 -0.36479 -4.05704 -0.57958 0 0 Z " fill="#081633" transform="translate(540,240)"/>
<path d="M0 0 C0.33 0 0.66 0 1 0 C1 18.48 1 36.96 1 56 C11.89 56 22.78 56 34 56 C34 60.62 34 65.24 34 70 C18.16 70 2.32 70 -14 70 C-14 69.67 -14 69.34 -14 69 C-4.27149 67.80763 5.40683 67.88486 15.1875 67.9375 C16.82357 67.94253 18.45963 67.94709 20.0957 67.95117 C24.06384 67.96208 28.0319 67.97927 32 68 C32 64.7 32 61.4 32 58 C21.44 58 10.88 58 0 58 C0 38.86 0 19.72 0 0 Z " fill="#A14684" transform="translate(772,248)"/>
<path d="M0 0 C0.33 0 0.66 0 1 0 C1.33 21.45 1.66 42.9 2 65 C17.84 65 33.68 65 50 65 C50 62.36 50 59.72 50 57 C38.12 56.67 26.24 56.34 14 56 C14 55.67 14 55.34 14 55 C26.54 55 39.08 55 52 55 C52 59.29 52 63.58 52 68 C34.84 68 17.68 68 0 68 C0 45.56 0 23.12 0 0 Z " fill="#1C2333" transform="translate(373,250)"/>
<path d="M0 0 C4.62 0 9.24 0 14 0 C14 24.42 14 48.84 14 74 C9.38 74 4.76 74 0 74 C0.33 72.02 0.66 70.04 1 68 C1.33 69.32 1.66 70.64 2 72 C5.3 72 8.6 72 12 72 C11.67 48.9 11.34 25.8 11 2 C8.03 2 5.06 2 2 2 C1.67 9.59 1.34 17.18 1 25 C0.67 25 0.34 25 0 25 C0 16.75 0 8.5 0 0 Z " fill="#8F2A6F" transform="translate(889,244)"/>
<path d="M0 0 C0.99 0.33 1.98 0.66 3 1 C2.67 17.83 2.34 34.66 2 52 C7.445 51.505 7.445 51.505 13 51 C13 34.17 13 17.34 13 0 C13.66 0 14.32 0 15 0 C15 17.82 15 35.64 15 54 C10.05 54 5.1 54 0 54 C0 36.18 0 18.36 0 0 Z " fill="#282A36" transform="translate(461,264)"/>
<path d="M0 0 C1.485 0.99 1.485 0.99 3 2 C2.34 2 1.68 2 1 2 C1 18.5 1 35 1 52 C6.445 51.505 6.445 51.505 12 51 C12 34.17 12 17.34 12 0 C12.66 0 13.32 0 14 0 C14 17.82 14 35.64 14 54 C9.38 54 4.76 54 0 54 C0 36.18 0 18.36 0 0 Z " fill="#080A11" transform="translate(530,264)"/>
<path d="M0 0 C16.83 0 33.66 0 51 0 C51 3.96 51 7.92 51 12 C48.36 12 45.72 12 43 12 C46.75 10 46.75 10 49 10 C49 7.03 49 4.06 49 1 C33.49 1 17.98 1 2 1 C2 22.78 2 44.56 2 67 C1.67 67 1.34 67 1 67 C0.67 44.89 0.34 22.78 0 0 Z " fill="#000312" transform="translate(373,248)"/>
<path d="M0 0 C-1.875 3.875 -1.875 3.875 -3 5 C-3.33 7.31 -3.66 9.62 -4 12 C10.52 12 25.04 12 40 12 C39.505 7.05 39.505 7.05 39 2 C39.99 2 40.98 2 42 2 C42 5.96 42 9.92 42 14 C26.16 14 10.32 14 -6 14 C-6 4 -6 4 -4.125 1.375 C-2 0 -2 0 0 0 Z " fill="#363841" transform="translate(559,304)"/>
<path d="M0 0 C6.93 0 13.86 0 21 0 C21 6.93 21 13.86 21 21 C14.07 21 7.14 21 0 21 C0 14.07 0 7.14 0 0 Z M2 2 C1.97938 4.78438 1.95875 7.56875 1.9375 10.4375 C1.9284 11.31592 1.91929 12.19433 1.90991 13.09937 C1.90277 15.06646 1.94968 17.03354 2 19 C3.82116 20.82116 6.30672 20.13235 8.72656 20.13672 C9.4768 20.13285 10.22703 20.12898 11 20.125 C12.12535 20.1308 12.12535 20.1308 13.27344 20.13672 C16.93606 20.47676 16.93606 20.47676 20 19 C20.0733 16.13531 20.09218 13.30106 20.0625 10.4375 C20.04188 7.65312 20.02125 4.86875 20 2 C14.06 2 8.12 2 2 2 Z " fill="#812462" transform="translate(237,300)"/>
<path d="M0 0 C9.65958 4.33826 15.1089 14.0838 20 23 C20.33 23.99 20.66 24.98 21 26 C20.01 26 19.02 26 18 26 C17.56301 25.05641 17.56301 25.05641 17.11719 24.09375 C13.09237 15.68974 8.73373 8.97115 1.32031 3.22656 C0.88461 2.8218 0.44891 2.41703 0 2 C0 1.34 0 0.68 0 0 Z " fill="#0A0E1F" transform="translate(232,221)"/>
<path d="M0 0 C11.08572 3.62107 20.7028 15.94816 26 26 C25.67 26.99 25.34 27.98 25 29 C24.5991 28.32195 24.1982 27.64391 23.78516 26.94531 C16.36485 14.45222 16.36485 14.45222 5 6 C5 5.34 5 4.68 5 4 C2.525 3.01 2.525 3.01 0 2 C0 1.34 0 0.68 0 0 Z " fill="#7E145B" transform="translate(300,217)"/>
<path d="M0 0 C0 0.66 0 1.32 0 2 C-0.99 2.495 -0.99 2.495 -2 3 C-0.86575 6.40276 0.08405 7.11051 2.8125 9.3125 C6.32369 12.29954 8.86015 14.90638 11 19 C10.67 19.99 10.34 20.98 10 22 C9.52691 21.37094 9.05383 20.74187 8.56641 20.09375 C3.87684 14.02382 -1.09654 8.89222 -7 4 C-2.25 0 -2.25 0 0 0 Z " fill="#080B19" transform="translate(226,225)"/>
<path d="M0 0 C0.92426 0.23848 1.84852 0.47695 2.80078 0.72266 C4.04473 0.97145 5.28867 1.22023 6.57031 1.47656 C8.61784 1.88607 10.66536 2.29557 12.71289 2.70508 C13.36709 2.83592 14.02129 2.96676 14.69531 3.10156 C15.72012 3.30652 16.74492 3.51148 17.80078 3.72266 C17.80078 4.05266 17.80078 4.38266 17.80078 4.72266 C12.01705 4.95873 7.37861 4.47256 1.80078 2.72266 C0.48078 2.72266 -0.83922 2.72266 -2.19922 2.72266 C-2.52922 3.38266 -2.85922 4.04266 -3.19922 4.72266 C-2.50055 4.84383 -1.80187 4.965 -1.08203 5.08984 C0.28309 5.34121 0.28309 5.34121 1.67578 5.59766 C2.5807 5.76008 3.48562 5.9225 4.41797 6.08984 C6.80078 6.72266 6.80078 6.72266 8.80078 8.72266 C3.34599 8.15445 -1.10981 6.77628 -6.19922 4.72266 C-5.03692 1.23575 -3.91532 -0.49376 0 0 Z " fill="#73074E" transform="translate(235.19921875,344.27734375)"/>
<path d="M0 0 C0.66 0.33 1.32 0.66 2 1 C1.39672 1.85723 0.79344 2.71445 0.17188 3.59766 C-7.41508 14.23477 -7.41508 14.23477 -13 26 C-13.33 26 -13.66 26 -14 26 C-13.53039 20.53732 -12.19765 17.04182 -9.25 12.4375 C-8.71246 11.59216 -8.71246 11.59216 -8.16406 10.72974 C-5.69094 6.89718 -3.0746 3.36284 0 0 Z " fill="#0A0D19" transform="translate(139,227)"/>
<path d="M0 0 C4.62 0 9.24 0 14 0 C13.67 4.29 13.34 8.58 13 13 C12.67 13 12.34 13 12 13 C12 9.37 12 5.74 12 2 C8.37 2 4.74 2 1 2 C1 5.96 1 9.92 1 14 C0.67 14 0.34 14 0 14 C0 9.38 0 4.76 0 0 Z " fill="#7F1E60" transform="translate(814,251)"/>
<path d="M0 0 C0.99 0.33 1.98 0.66 3 1 C2.32518 1.45826 2.32518 1.45826 1.63672 1.92578 C-4.93905 6.60393 -10.40762 12.22258 -16 18 C-16.66 17.67 -17.32 17.34 -18 17 C-6.70572 3.72989 -6.70572 3.72989 0 0 Z " fill="#840C5C" transform="translate(215,217)"/>
<path d="M0 0 C0.66 0.33 1.32 0.66 2 1 C1.9652 1.85723 1.93039 2.71445 1.89453 3.59766 C1.73415 10.37172 2.0396 14.95049 5 21 C4.6875 23.4375 4.6875 23.4375 4 25 C-0.87844 17.46059 -1.56951 10.84725 -1 2 C-0.67 1.34 -0.34 0.68 0 0 Z " fill="#161B2A" transform="translate(606,283)"/>
<path d="M0 0 C0.66 0 1.32 0 2 0 C4.51943 5.03886 3.74275 12.6258 2.10547 17.85938 C1.15439 19.96989 0.15925 21.99718 -1 24 C-1.66 24 -2.32 24 -3 24 C-1.125 18.25 -1.125 18.25 0 16 C0.07182 13.2824 0.093 10.59141 0.0625 7.875 C0.05799 7.1209 0.05348 6.3668 0.04883 5.58984 C0.03703 3.72653 0.0191 1.86325 0 0 Z " fill="#171B29" transform="translate(659,282)"/>
<path d="M0 0 C3.52723 1.30021 6.25097 2.97008 8.5 6.0625 C9 8 9 8 8 11 C7.10281 9.57687 7.10281 9.57687 6.1875 8.125 C4.18437 4.86036 4.18437 4.86036 1 3 C-1.87284 2.75751 -1.87284 2.75751 -5 2.875 C-6.05187 2.89305 -7.10375 2.91109 -8.1875 2.92969 C-9.57969 2.96449 -9.57969 2.96449 -11 3 C-11.99 3 -12.98 3 -14 3 C-9.53385 -0.45767 -5.43761 -0.84585 0 0 Z " fill="#1E212D" transform="translate(638,274)"/>
<path d="M0 0 C3.86471 0.39487 5.64248 2.3246 8.25 5.0625 C8.95641 5.79598 9.66281 6.52945 10.39062 7.28516 C10.92172 7.85105 11.45281 8.41695 12 9 C11.01 10.485 11.01 10.485 10 12 C9.01 11.67 8.02 11.34 7 11 C7 10.01 7 9.02 7 8 C5.69543 6.54965 5.69543 6.54965 4 5.3125 C3.01 4.54937 2.02 3.78625 1 3 C-0.98 3.99 -0.98 3.99 -3 5 C-1.125 1.125 -1.125 1.125 0 0 Z " fill="#090D1C" transform="translate(225,325)"/>
<path d="M0 0 C0.66 0.66 1.32 1.32 2 2 C0 3 0 3 -2.875 2.8125 C-6.05479 2.72101 -6.05479 2.72101 -8.3125 4.6875 C-10.14302 7.19598 -10.66009 8.94083 -11 12 C-11.33 12 -11.66 12 -12 12 C-12.6055 4.73394 -12.6055 4.73394 -9.9375 1.5 C-6.3425 -0.33575 -3.98709 -0.45137 0 0 Z " fill="#1E222F" transform="translate(472,240)"/>
<path d="M0 0 C-0.71285 0.37512 -1.4257 0.75023 -2.16016 1.13672 C-7.73575 4.11587 -12.95572 7.18877 -18 11 C-18.66 10.67 -19.32 10.34 -20 10 C-15.68553 4.761 -6.85876 -2.28625 0 0 Z " fill="#090C1B" transform="translate(168,210)"/>
<path d="M0 0 C1.03641 0.43119 1.03641 0.43119 2.09375 0.87109 C5.19673 2.07642 8.31811 3.08489 11.5 4.0625 C13.15516 4.5749 13.15516 4.5749 14.84375 5.09766 C17.55661 5.87324 20.22566 6.49793 23 7 C23 7.33 23 7.66 23 8 C15.18644 8.78136 8.00539 6.37437 1 3 C0.67 2.01 0.34 1.02 0 0 Z " fill="#060914" transform="translate(159,345)"/>
<path d="M0 0 C3.41158 1.13719 4.11855 2.04343 6 5 C6 5.66 6 6.32 6 7 C6.59813 7.2475 7.19625 7.495 7.8125 7.75 C10.28648 9.1637 11.4337 10.65055 13 13 C10 13 10 13 8.02734 11.42578 C7.3377 10.7284 6.64805 10.03102 5.9375 9.3125 C5.24527 8.62801 4.55305 7.94352 3.83984 7.23828 C1.92211 4.90524 0.96189 2.8458 0 0 Z " fill="#080B18" transform="translate(134,324)"/>
<path d="M0 0 C3.49104 0.50779 5.0158 0.98144 7.4375 3.5 C7.4375 4.16 7.4375 4.82 7.4375 5.5 C6.9425 5.17 6.4475 4.84 5.9375 4.5 C1.64925 2.7847 -2.77425 2.7847 -7.0625 4.5 C-7.5575 4.83 -8.0525 5.16 -8.5625 5.5 C-5.7769 2.12352 -4.41636 0.61984 0 0 Z " fill="#22242E" transform="translate(536.5625,239.5)"/>
<path d="M0 0 C0.33 0 0.66 0 1 0 C1 3.63 1 7.26 1 11 C-1.64 11 -4.28 11 -7 11 C-3.25 9 -3.25 9 -1 9 C-1.02062 7.70063 -1.04125 6.40125 -1.0625 5.0625 C-1.08399 3.70834 -1.07148 2.35244 -1 1 C-0.67 0.67 -0.34 0.34 0 0 Z " fill="#010822" transform="translate(423,249)"/>
<path d="M0 0 C0.33 0 0.66 0 1 0 C2.26106 6.41992 1.90459 10.08709 -1 16 C-1.99 16.33 -2.98 16.66 -4 17 C-2.125 12.25 -2.125 12.25 -1 10 C-0.77378 8.29636 -0.59112 6.58671 -0.4375 4.875 C-0.31182 3.50988 -0.31182 3.50988 -0.18359 2.11719 C-0.12301 1.41852 -0.06242 0.71984 0 0 Z " fill="#181C2C" transform="translate(647,287)"/>
<path d="M0 0 C0.66 0.33 1.32 0.66 2 1 C0.23755 2.1999 -1.53527 3.3846 -3.3125 4.5625 C-4.7917 5.55443 -4.7917 5.55443 -6.30078 6.56641 C-7.19152 7.03949 -8.08227 7.51258 -9 8 C-9.99 7.67 -10.98 7.34 -12 7 C-10.37554 6.01993 -8.75042 5.04097 -7.125 4.0625 C-6.22008 3.51723 -5.31516 2.97195 -4.38281 2.41016 C-2.94798 1.56102 -1.49125 0.74562 0 0 Z " fill="#7C0F57" transform="translate(225,217)"/>
<path d="M0 0 C0.66 0.33 1.32 0.66 2 1 C-3.78571 5.82143 -3.78571 5.82143 -7 7 C-7.99 6.67 -8.98 6.34 -10 6 C-8.3811 4.96952 -6.75468 3.95085 -5.125 2.9375 C-4.22008 2.36902 -3.31516 1.80055 -2.38281 1.21484 C-1.20332 0.6135 -1.20332 0.6135 0 0 Z " fill="#0B0E1B" transform="translate(219,330)"/>
<path d="M0 0 C3.81301 3.28708 5.22972 6.39728 7 11 C6.01 11 5.02 11 4 11 C3.3288 9.54375 2.66318 8.08492 2 6.625 C1.62875 5.81289 1.2575 5.00078 0.875 4.16406 C0 2 0 2 0 0 Z " fill="#0C101E" transform="translate(246,236)"/>
<path d="M0 0 C3.36397 0.60071 5.56715 1.56715 8 4 C8.75 7.1875 8.75 7.1875 9 10 C8.44313 9.27812 7.88625 8.55625 7.3125 7.8125 C5.02091 5.02543 2.5854 2.51358 0 0 Z " fill="#191B27" transform="translate(638,275)"/>
<path d="M0 0 C0.66 0.33 1.32 0.66 2 1 C2.3125 3.1875 2.3125 3.1875 2 6 C-0.5 8.8125 -0.5 8.8125 -3 11 C-2.11224 7.301 -1.05418 3.6545 0 0 Z " fill="#212530" transform="translate(476,245)"/>
<path d="M0 0 C0.66 0.33 1.32 0.66 2 1 C0.92893 1.86949 -0.15746 2.72014 -1.25 3.5625 C-1.85328 4.03816 -2.45656 4.51383 -3.07812 5.00391 C-5 6 -5 6 -7.23438 5.65234 C-7.81703 5.43707 -8.39969 5.2218 -9 5 C-7.54736 4.13619 -6.08768 3.2842 -4.625 2.4375 C-3.40684 1.724 -3.40684 1.724 -2.16406 0.99609 C-1.44992 0.66738 -0.73578 0.33867 0 0 Z " fill="#070A19" transform="translate(229,339)"/>
<path d="M0 0 C0.66 0 1.32 0 2 0 C2.33 0.99 2.66 1.98 3 3 C5.00016 4.20882 5.00016 4.20882 7 5 C7 5.66 7 6.32 7 7 C3.76509 6.44226 2.02145 5.62788 0 3 C0 2.01 0 1.02 0 0 Z " fill="#12151E" transform="translate(494,309)"/>
<path d="M0 0 C3.79521 1.49098 5.61043 3.75701 8 7 C5 7 5 7 2.3125 4.625 C0 2 0 2 0 0 Z " fill="#000413" transform="translate(232,221)"/>
</svg>
