<?xml version="1.0" encoding="UTF-8"?>
<!-- Generator: visioncortex VTracer 0.6.4 -->
<svg version="1.1" xmlns="http://www.w3.org/2000/svg" width="1024" height="559">
<path d="M0 0 C337.92 0 675.84 0 1024 0 C1024 184.47 1024 368.94 1024 559 C686.08 559 348.16 559 0 559 C0 374.53 0 190.06 0 0 Z " fill="#FEFEFE" transform="translate(0,0)"/>
<path d="M0 0 C15.53742 12.77209 26.34897 29.80894 29 50 C30.95633 70.51965 25.72827 89.89431 13.1875 106.375 C-0.70228 122.48498 -18.55965 133.08279 -40 135 C-51.45026 135.61575 -62.6497 134.36839 -74 133 C-74 132.34 -74 131.68 -74 131 C-75.65 130.67 -77.3 130.34 -79 130 C-78.3528 126.50512 -76.85752 124.00291 -75 121 C-76.32451 121.79664 -76.32451 121.79664 -77.67578 122.60938 C-94.77013 132.73201 -112.21178 137.10625 -132.16797 133.35156 C-145.05714 129.94358 -155.68105 123.42804 -165 114 C-165.77086 113.25105 -166.54172 112.50211 -167.33594 111.73047 C-177.40008 101.37436 -182.81285 88.93701 -186 75 C-186.19207 74.23816 -186.38414 73.47633 -186.58203 72.69141 C-189.68232 52.72787 -185.46449 31.24444 -173.71582 14.74731 C-162.45306 -0.33003 -146.84808 -11.7211 -128 -15 C-124.28756 -15.3194 -120.59999 -15.38055 -116.875 -15.375 C-115.86542 -15.37484 -114.85584 -15.37468 -113.81567 -15.37451 C-105.73371 -15.25175 -95.04296 -15.04296 -89 -9 C-90.77029 -7.70759 -92.54125 -6.4161 -94.3125 -5.125 C-95.7917 -4.04605 -95.7917 -4.04605 -97.30078 -2.94531 C-103.12468 1.25194 -103.12468 1.25194 -107.57812 1.01953 C-108.48474 0.98682 -109.39135 0.95411 -110.32544 0.92041 C-111.7731 0.86699 -111.7731 0.86699 -113.25 0.8125 C-126.97595 0.56841 -137.9938 3.35227 -149 12 C-149.99 12.7425 -150.98 13.485 -152 14.25 C-154.08239 15.84925 -154.08239 15.84925 -155 18 C-155.66 18 -156.32 18 -157 18 C-157.26039 18.54785 -157.52078 19.0957 -157.78906 19.66016 C-159.18045 22.34867 -160.77718 24.86634 -162.375 27.4375 C-166.94574 35.20776 -169.24148 43.2074 -171 52 C-157.14 52 -143.28 52 -129 52 C-129 56.95 -129 61.9 -129 67 C-142.86 67 -156.72 67 -171 67 C-165.74439 86.70854 -159.66592 101.2281 -142 112 C-133.19879 116.59492 -126.51842 118.18073 -116.6875 118.1875 C-115.30015 118.20587 -115.30015 118.20587 -113.88477 118.22461 C-108.51831 118.23605 -104.0735 117.77048 -99 116 C-100.485 115.01 -100.485 115.01 -102 114 C-106.98484 110.23368 -110.46969 106.13931 -114 101 C-114.49113 100.28973 -114.98227 99.57945 -115.48828 98.84766 C-119 93.53556 -119 93.53556 -119 89 C-119.66 88.67 -120.32 88.34 -121 88 C-121.40729 85.67843 -121.74439 83.34312 -122 81 C-122.66 81 -123.32 81 -124 81 C-126.16904 62.79812 -128.22607 44.69479 -119 28 C-118.34 28 -117.68 28 -117 28 C-116.63262 26.69676 -116.63262 26.69676 -116.25781 25.36719 C-110.20761 9.17068 -93.37711 -3.37774 -78.1875 -10.375 C-52.27441 -20.71725 -21.96354 -17.69385 0 0 Z " fill="#FEFDFE" transform="translate(306,220)"/>
<path d="M0 0 C1.00958 0.00016 2.01916 0.00032 3.05933 0.00049 C11.14129 0.12325 21.83204 0.33204 27.875 6.375 C26.10471 7.66741 24.33375 8.9589 22.5625 10.25 C21.0833 11.32895 21.0833 11.32895 19.57422 12.42969 C13.75032 16.62694 13.75032 16.62694 9.29688 16.39453 C8.39026 16.36182 7.48365 16.32911 6.54956 16.29541 C5.1019 16.24199 5.1019 16.24199 3.625 16.1875 C-10.10095 15.94341 -21.1188 18.72727 -32.125 27.375 C-33.115 28.1175 -34.105 28.86 -35.125 29.625 C-37.20739 31.22425 -37.20739 31.22425 -38.125 33.375 C-38.785 33.375 -39.445 33.375 -40.125 33.375 C-40.38539 33.92285 -40.64578 34.4707 -40.91406 35.03516 C-42.30545 37.72367 -43.90218 40.24134 -45.5 42.8125 C-50.07074 50.58276 -52.36648 58.5824 -54.125 67.375 C-40.265 67.375 -26.405 67.375 -12.125 67.375 C-12.125 72.325 -12.125 77.275 -12.125 82.375 C-25.985 82.375 -39.845 82.375 -54.125 82.375 C-48.86939 102.08354 -42.79092 116.6031 -25.125 127.375 C-12.67316 133.87583 0.50655 135.49713 14.38672 132.65625 C17.01449 131.7266 19.41106 130.67448 21.875 129.375 C22.66906 128.97797 23.46312 128.58094 24.28125 128.17188 C29.1095 125.629 33.50277 122.63092 37.875 119.375 C41.175 122.675 44.475 125.975 47.875 129.375 C40.43937 139.88744 26.77984 146.3876 14.38672 148.98022 C-4.42043 151.93621 -22.13832 148.7993 -38.125 138.375 C-41.71479 135.60013 -44.93748 132.59984 -48.125 129.375 C-48.89586 128.62605 -49.66672 127.87711 -50.46094 127.10547 C-60.52508 116.74936 -65.93785 104.31201 -69.125 90.375 C-69.31707 89.61316 -69.50914 88.85133 -69.70703 88.06641 C-72.80732 68.10287 -68.58949 46.61944 -56.84082 30.12231 C-42.95605 11.53491 -23.40982 -0.03485 0 0 Z " fill="#0D1B3F" transform="translate(189.125,204.625)"/>
<path d="M0 0 C4.95 0 9.9 0 15 0 C15.02255 9.50075 15.04092 19.00148 15.05181 28.50224 C15.05704 32.91337 15.06414 37.32448 15.07544 41.7356 C15.08627 45.98901 15.09228 50.24241 15.09488 54.49584 C15.09673 56.12222 15.10035 57.7486 15.10573 59.37497 C15.11294 61.6451 15.11399 63.91516 15.11353 66.1853 C15.11575 67.47992 15.11797 68.77454 15.12025 70.10838 C15 73 15 73 14 74 C11.81361 74.07259 9.625 74.08374 7.4375 74.0625 C5.64119 74.04896 5.64119 74.04896 3.80859 74.03516 C2.41834 74.01775 2.41834 74.01775 1 74 C0.67 72.35 0.34 70.7 0 69 C-0.68062 69.61875 -1.36125 70.2375 -2.0625 70.875 C-7.26373 74.63759 -12.67264 75.63274 -19 75 C-27.3561 72.66415 -33.33494 70.14515 -37.75 62.4375 C-42.13981 54.19965 -42.6338 44.41988 -39.94141 35.48828 C-36.24401 27.5023 -31.70055 22.88022 -23.5625 19.625 C-14.61899 18.05596 -7.72111 18.8526 0 24 C0 16.08 0 8.16 0 0 Z " fill="#9F1776" transform="translate(888,244)"/>
<path d="M0 0 C15.53742 12.77209 26.34897 29.80894 29 50 C30.95633 70.51965 25.72827 89.89431 13.1875 106.375 C-0.7103 122.49428 -18.55498 133.06511 -40 135 C-53.15264 135.80939 -65.8214 134.2194 -78 129 C-76.0625 126.375 -76.0625 126.375 -73 124 C-70.62461 124.08733 -68.64889 124.59873 -66.37891 125.28906 C-53.72811 129.06976 -37.33191 128.45667 -25 124 C-23.9984 123.64809 -22.9968 123.29617 -21.96484 122.93359 C-14.87959 120.21952 -8.98316 116.63381 -3 112 C-2.38641 111.56301 -1.77281 111.12602 -1.14062 110.67578 C11.86136 100.74537 19.12955 83.13777 21.54297 67.47656 C23.31581 48.91382 18.46637 31.72619 7 17 C6.25879 16.27039 5.51758 15.54078 4.75391 14.78906 C3 13 3 13 3 11 C2.4225 10.73703 1.845 10.47406 1.25 10.20312 C-1.11846 8.93666 -2.94653 7.47678 -5 5.75 C-20.5599 -6.43943 -38.73233 -9.70613 -58 -8 C-75.37217 -5.74373 -91.68817 3.45177 -102.64062 17.17578 C-113.06315 31.13129 -118.64567 48.52887 -117 66 C-114.42084 83.57428 -107.02243 96.42817 -96 110 C-99 112 -99 112 -101.41406 111.91797 C-108.73163 109.32034 -113.3477 99.80993 -116.8125 93.3125 C-125.37195 74.95945 -126.89232 54.60731 -120.80859 35.19922 C-112.75726 14.57771 -98.42522 -1.03983 -78.1875 -10.375 C-52.27441 -20.71725 -21.96354 -17.69385 0 0 Z " fill="#931B72" transform="translate(306,220)"/>
<path d="M0 0 C5.37614 4.17763 7.84836 9.33024 9.96484 15.67969 C10.75781 24.94827 10.18538 33.12354 4.42188 40.71094 C-1.82949 47.46298 -9.12722 50.54806 -18.22266 50.92969 C-27.65707 50.72663 -34.12362 47.80262 -40.89453 41.19141 C-46.60678 34.4889 -47.71109 27.45176 -47.42578 18.80078 C-46.60791 12.26598 -43.76676 6.28678 -39.03516 1.67969 C-26.72579 -6.8679 -12.98696 -8.42532 0 0 Z " fill="#0D1B3F" transform="translate(652.03515625,268.3203125)"/>
<path d="M0 0 C16.83 0 33.66 0 51 0 C51 4.29 51 8.58 51 13 C39.12 13 27.24 13 15 13 C15 17.95 15 22.9 15 28 C17.22621 27.9884 19.45242 27.9768 21.74609 27.96484 C23.89396 27.95705 26.04182 27.95098 28.1897 27.94507 C29.68645 27.94003 31.1832 27.9332 32.67993 27.92456 C34.827 27.91248 36.974 27.90677 39.12109 27.90234 C41.06133 27.89449 41.06133 27.89449 43.04077 27.88647 C46 28 46 28 47 29 C47 32.96 47 36.92 47 41 C36.44 41 25.88 41 15 41 C15 46.61 15 52.22 15 58 C27.21 58 39.42 58 52 58 C52 62.29 52 66.58 52 71 C34.84 71 17.68 71 0 71 C0 47.57 0 24.14 0 0 Z " fill="#08193E" transform="translate(373,247)"/>
<path d="M0 0 C14.38568 8.93715 21.95674 25.03583 26.4375 40.8125 C28 49 28 49 28 67 C5.89 67 -16.22 67 -39 67 C-39 62.05 -39 57.1 -39 52 C-22.17 52 -5.34 52 12 52 C7.46223 33.84892 1.74433 20.91151 -13 9 C-10.29836 6.10008 -7.7491 4.10247 -4.25 2.25 C-3.05117 1.60805 -3.05117 1.60805 -1.82812 0.95312 C-1.22484 0.63859 -0.62156 0.32406 0 0 Z " fill="#101B40" transform="translate(232,220)"/>
<path d="M0 0 C5.71686 5.14518 7.94841 10.4673 9 18 C9.09104 20.59956 9.14046 23.17091 9.13281 25.76953 C9.13377 26.49114 9.13473 27.21275 9.13571 27.95622 C9.13639 29.46976 9.13457 30.9833 9.13037 32.49683 C9.12498 34.82282 9.13035 37.14862 9.13672 39.47461 C9.13606 40.94792 9.13478 42.42122 9.13281 43.89453 C9.13484 44.59238 9.13686 45.29023 9.13895 46.00923 C9.11498 50.88502 9.11498 50.88502 8 52 C5.64686 52.07272 3.29166 52.08371 0.9375 52.0625 C-0.35285 52.05348 -1.6432 52.04445 -2.97266 52.03516 C-3.97168 52.02355 -4.9707 52.01195 -6 52 C-6.02973 50.64636 -6.02973 50.64636 -6.06006 49.26538 C-6.13855 45.88996 -6.22526 42.51496 -6.31738 39.13989 C-6.35546 37.68424 -6.39035 36.22851 -6.42188 34.77271 C-6.46798 32.66977 -6.5259 30.56742 -6.58594 28.46484 C-6.61736 27.20277 -6.64878 25.9407 -6.68115 24.64038 C-7.27647 17.59527 -7.27647 17.59527 -11.1875 12.0625 C-15.35043 10.48984 -18.98458 10.38418 -23.25 11.6875 C-25.69108 13.51831 -26.65195 15.25015 -28 18 C-28.30615 20.63223 -28.46421 23.04105 -28.47656 25.67188 C-28.49993 26.75641 -28.49993 26.75641 -28.52377 27.86285 C-28.57108 30.15856 -28.599 32.45396 -28.625 34.75 C-28.66148 37.06011 -28.70202 39.37005 -28.74765 41.67999 C-28.77491 43.11442 -28.79625 44.54897 -28.81119 45.98358 C-28.8893 50.8893 -28.8893 50.8893 -30 52 C-34.62 52 -39.24 52 -44 52 C-44 34.18 -44 16.36 -44 -2 C-39.38 -2 -34.76 -2 -30 -2 C-29.67 -0.35 -29.34 1.3 -29 3 C-28.29875 2.38125 -27.5975 1.7625 -26.875 1.125 C-19.25344 -4.50832 -8.17859 -5.00193 0 0 Z " fill="#0B1B3F" transform="translate(715,266)"/>
<path d="M0 0 C15.18 0 30.36 0 46 0 C46 10.11033 46 10.11033 42.1875 14.25 C41.37023 15.1691 40.55297 16.0882 39.71094 17.03516 C39.27104 17.51356 38.83115 17.99196 38.37793 18.48486 C35.9489 21.15576 33.64054 23.92876 31.3125 26.6875 C30.87382 27.19765 30.43513 27.70779 29.98315 28.2334 C26.44207 32.37293 23.28984 36.61355 20 41 C33.365 41.495 33.365 41.495 47 42 C47 45.96 47 49.92 47 54 C31.16 54 15.32 54 -1 54 C-1 42.53834 -1 42.53834 4.4375 37.0625 C5.54284 35.86697 6.647 34.67034 7.75 33.47266 C8.57564 32.59891 8.57564 32.59891 9.41797 31.70752 C11.71403 29.22933 13.8182 26.63122 15.9375 24 C18.93136 20.30815 21.95617 16.65259 25 13 C16.75 12.67 8.5 12.34 0 12 C0 8.04 0 4.08 0 0 Z " fill="#0D1C40" transform="translate(554,264)"/>
<path d="M0 0 C6.93 0.495 6.93 0.495 14 1 C14 19.81 14 38.62 14 58 C24.89 58 35.78 58 47 58 C47 62.29 47 66.58 47 71 C31.16 71 15.32 71 -1 71 C-1.04011 53.57049 -1.04011 53.57049 -1.04883 46.16602 C-1.05482 41.10489 -1.06192 36.04378 -1.07544 30.98267 C-1.08627 26.90431 -1.09228 22.82598 -1.09488 18.74762 C-1.09673 17.18822 -1.10035 15.62883 -1.10573 14.06944 C-1.11294 11.89271 -1.11399 9.71605 -1.11353 7.53931 C-1.11686 5.67732 -1.11686 5.67732 -1.12025 3.77773 C-1 1 -1 1 0 0 Z " fill="#9D1775" transform="translate(759,247)"/>
<path d="M0 0 C4.95 0 9.9 0 15 0 C15 4.29 15 8.58 15 13 C19.29 13 23.58 13 28 13 C28 16.96 28 20.92 28 25 C23.71 25 19.42 25 15 25 C15.11359 29.27142 15.24035 33.54174 15.375 37.8125 C15.40594 39.02744 15.43687 40.24238 15.46875 41.49414 C15.50742 42.65752 15.54609 43.8209 15.58594 45.01953 C15.63307 46.62985 15.63307 46.62985 15.68115 48.27271 C15.81592 51.21608 15.81592 51.21608 18 54 C21.7164 54.27028 24.4572 54.18093 28 53 C28.50834 54.24663 29.00631 55.49749 29.5 56.75 C29.77844 57.44609 30.05687 58.14219 30.34375 58.85938 C31 61 31 61 31 65 C23.1853 68.2904 17.18618 68.98366 9.08203 66.04297 C4.7865 63.89117 2.66901 60.66536 0.8833 56.22021 C-0.06697 52.75585 -0.22822 49.8761 -0.19531 46.28906 C-0.18564 44.42314 -0.18564 44.42314 -0.17578 42.51953 C-0.15902 41.23434 -0.14227 39.94914 -0.125 38.625 C-0.11598 37.3166 -0.10695 36.0082 -0.09766 34.66016 C-0.07415 31.43992 -0.04129 28.22005 0 25 C-2.64 25 -5.28 25 -8 25 C-8 21.04 -8 17.08 -8 13 C-5.36 13 -2.72 13 0 13 C0 8.71 0 4.42 0 0 Z " fill="#0C1B3F" transform="translate(491,251)"/>
<path d="M0 0 C1.93166 0.0174 1.93166 0.0174 3.90234 0.03516 C5.1927 0.04418 6.48305 0.0532 7.8125 0.0625 C8.81152 0.0741 9.81055 0.0857 10.83984 0.09766 C11.16984 4.38766 11.49984 8.67766 11.83984 13.09766 C15.79984 13.09766 19.75984 13.09766 23.83984 13.09766 C23.83984 17.05766 23.83984 21.01766 23.83984 25.09766 C19.54984 25.09766 15.25984 25.09766 10.83984 25.09766 C10.95326 29.55657 11.08002 34.01439 11.21484 38.47266 C11.24578 39.74367 11.27672 41.01469 11.30859 42.32422 C11.34727 43.53594 11.38594 44.74766 11.42578 45.99609 C11.47291 47.67711 11.47291 47.67711 11.521 49.39209 C11.57396 52.24476 11.57396 52.24476 13.83984 54.09766 C15.75165 54.37771 15.75165 54.37771 17.83984 54.28516 C18.54109 54.27871 19.24234 54.27227 19.96484 54.26562 C21.93041 54.20472 21.93041 54.20472 23.83984 53.09766 C24.34818 54.34429 24.84616 55.59515 25.33984 56.84766 C25.61828 57.54375 25.89672 58.23984 26.18359 58.95703 C26.83984 61.09766 26.83984 61.09766 26.83984 65.09766 C18.99203 68.45288 12.51967 68.83093 4.46484 65.84766 C-0.41476 62.59459 -2.42157 59.28512 -3.76758 53.59644 C-4.574 48.46354 -4.36231 43.27898 -4.28516 38.09766 C-4.27613 36.94137 -4.26711 35.78508 -4.25781 34.59375 C-4.23441 31.7615 -4.20162 28.92969 -4.16016 26.09766 C-6.80016 25.76766 -9.44016 25.43766 -12.16016 25.09766 C-12.18703 23.28524 -12.20649 21.4727 -12.22266 19.66016 C-12.23426 18.65082 -12.24586 17.64148 -12.25781 16.60156 C-12.16016 14.09766 -12.16016 14.09766 -11.16016 13.09766 C-8.83198 12.73005 -6.49832 12.39524 -4.16016 12.09766 C-4.17176 11.3152 -4.18336 10.53273 -4.19531 9.72656 C-4.20434 8.71465 -4.21336 7.70273 -4.22266 6.66016 C-4.23426 5.65082 -4.24586 4.64148 -4.25781 3.60156 C-4.11172 -0.1442 -3.82636 0.11824 0 0 Z " fill="#9D1976" transform="translate(817.16015625,250.90234375)"/>
<path d="M0 0 C4.95 0 9.9 0 15 0 C15 24.42 15 48.84 15 74 C10.38 74 5.76 74 1 74 C0 73 0 73 -0.12025 70.10838 C-0.11803 68.81377 -0.11581 67.51915 -0.11353 66.1853 C-0.11367 65.47315 -0.11382 64.76099 -0.11397 64.02725 C-0.11327 61.66267 -0.10548 59.29816 -0.09766 56.93359 C-0.09579 55.29835 -0.09437 53.6631 -0.09337 52.02785 C-0.08954 47.71565 -0.07971 43.40349 -0.06866 39.09131 C-0.05845 34.69434 -0.05387 30.29737 -0.04883 25.90039 C-0.03809 17.26691 -0.02049 8.63346 0 0 Z " fill="#0D1D41" transform="translate(434,244)"/>
<path d="M0 0 C4.95 0 9.9 0 15 0 C15 17.82 15 35.64 15 54 C10.05 54 5.1 54 0 54 C0 36.18 0 18.36 0 0 Z " fill="#06193E" transform="translate(461,264)"/>
<path d="M0 0 C4.95 0 9.9 0 15 0 C15 17.82 15 35.64 15 54 C10.38 54 5.76 54 1 54 C0 53 0 53 -0.12025 50.86766 C-0.11803 49.92834 -0.11581 48.98902 -0.11353 48.02124 C-0.11345 46.96022 -0.11337 45.89919 -0.1133 44.80602 C-0.10814 43.65187 -0.10297 42.49772 -0.09766 41.30859 C-0.09624 40.13362 -0.09483 38.95864 -0.09337 37.74806 C-0.08775 33.97785 -0.07519 30.20769 -0.0625 26.4375 C-0.05749 23.88867 -0.05292 21.33984 -0.04883 18.79102 C-0.03777 12.52732 -0.0205 6.26367 0 0 Z " fill="#05163A" transform="translate(529,264)"/>
<path d="M0 0 C3.24849 2.55869 5.19211 5.05395 6.08203 9.05859 C6.82845 15.90462 6.35143 20.55331 2.08203 26.05859 C-2.24428 29.03894 -5.71896 29.62576 -10.91797 29.05859 C-15.61038 26.9852 -18.63116 23.6322 -20.91797 19.05859 C-21.57207 12.06474 -21.0327 6.82222 -16.41797 1.24609 C-12.2279 -2.07104 -4.71569 -2.31462 0 0 Z " fill="#FDFCFD" transform="translate(640.91796875,276.94140625)"/>
<path d="M0 0 C3.48446 1.30667 4.61063 2.47636 6.8125 5.4375 C8.95907 11.87722 9.24371 18.37439 6.3125 24.5625 C2.78138 28.28449 0.16419 30.14203 -5 30.375 C-9.59252 30.19337 -12.30341 28.45422 -15.75 25.5 C-19.06226 21.52529 -18.32166 16.05772 -18.28906 11.17969 C-17.89591 6.85505 -16.95323 5.12199 -14 2 C-9.53081 -0.97946 -5.23928 -0.48398 0 0 Z " fill="#FDFBFD" transform="translate(880,276)"/>
<path d="M0 0 C6.93 0 13.86 0 21 0 C21 6.93 21 13.86 21 21 C14.07 21 7.14 21 0 21 C0 14.07 0 7.14 0 0 Z " fill="#991874" transform="translate(237,300)"/>
<path d="M0 0 C16.83 0 33.66 0 51 0 C51 3.96 51 7.92 51 12 C48.69 12 46.38 12 44 12 C44 11.67 44 11.34 44 11 C45.65 11 47.3 11 49 11 C49 8.03 49 5.06 49 2 C33.49 2 17.98 2 2 2 C2 24.11 2 46.22 2 69 C18.5 69 35 69 52 69 C52 69.66 52 70.32 52 71 C34.84 71 17.68 71 0 71 C0 47.57 0 24.14 0 0 Z " fill="#242947" transform="translate(373,247)"/>
<path d="M0 0 C3.46895 1.96071 4.71249 3.15544 6 6.9375 C6 10.60292 5.23179 12.13056 3 15 C-0.73739 17.49159 -2.57332 17.45793 -7 17 C-10.79075 14.93981 -11.78313 13.70163 -13.0625 9.5625 C-12.98713 5.26668 -12.0345 3.9478 -9 1 C-5.89951 -0.55024 -3.42106 -0.28992 0 0 Z " fill="#0C1A3F" transform="translate(540,240)"/>
<path d="M0 0 C3.79075 2.06019 4.78313 3.29837 6.0625 7.4375 C5.98713 11.73332 5.0345 13.0522 2 16 C-0.44778 17.22389 -1.73391 17.01636 -4.4375 16.75 C-5.61119 16.64945 -5.61119 16.64945 -6.80859 16.54688 C-9.45238 15.88711 -10.4127 15.2043 -12 13 C-12.67815 9.93139 -12.58421 7.08241 -12 4 C-8.55771 -0.27679 -5.31657 -0.75951 0 0 Z " fill="#0D1A3F" transform="translate(472,240)"/>
<path d="M0 0 C2.475 0.495 2.475 0.495 5 1 C4.01 2.485 4.01 2.485 3 4 C2.67323 6.24021 2.67323 6.24021 2.68115 8.74683 C2.66128 9.7076 2.64141 10.66837 2.62094 11.65825 C2.60939 12.69271 2.59784 13.72716 2.58594 14.79297 C2.56657 15.85413 2.54721 16.9153 2.52725 18.00862 C2.46742 21.4015 2.42106 24.79441 2.375 28.1875 C2.33682 30.48634 2.29777 32.78517 2.25781 35.08398 C2.16172 40.72254 2.0777 46.36116 2 52 C5.63 52 9.26 52 13 52 C13.33 38.14 13.66 24.28 14 10 C14.33 10 14.66 10 15 10 C15 24.52 15 39.04 15 54 C10.05 54 5.1 54 0 54 C0 36.18 0 18.36 0 0 Z " fill="#2E2E4B" transform="translate(461,264)"/>
<path d="M0 0 C1.23756 3.71268 0.56501 4.69466 -0.875 8.25 C-7.51283 24.6821 -5.2394 45.64494 1.50781 61.71094 C5.29673 69.83508 10.02246 76.35829 16 83 C18.97 82.505 18.97 82.505 22 82 C20.35 80.02 18.7 78.04 17 76 C17.33 75.34 17.66 74.68 18 74 C23.90769 79.04615 23.90769 79.04615 24.375 83.875 C24.25125 84.90625 24.1275 85.9375 24 87 C21 88 21 88 19.23828 87.35547 C11.05116 82.39005 3.97357 73.7495 0 65 C0 63.68 0 62.36 0 61 C-0.66 60.67 -1.32 60.34 -2 60 C-2.40729 57.67843 -2.74439 55.34312 -3 53 C-3.66 53 -4.32 53 -5 53 C-7.16904 34.79812 -9.22607 16.69479 0 0 Z " fill="#F8F1FB" transform="translate(187,248)"/>
<path d="M0 0 C1.45479 2.90958 1.07413 5.40417 1.02173 8.65283 C1.00732 9.6774 1.00732 9.6774 0.99261 10.72266 C0.95959 12.98448 0.91927 15.24611 0.87891 17.50781 C0.85461 19.07436 0.83077 20.64092 0.80736 22.20749 C0.74448 26.33396 0.67542 30.46032 0.6051 34.58667 C0.52204 39.53587 0.4466 44.48519 0.3699 49.43449 C0.25246 56.95644 0.1253 64.47816 0 72 C15.84 72 31.68 72 48 72 C48 72.33 48 72.66 48 73 C31.83 73 15.66 73 -1 73 C-3 66 -3 66 -2 64 C-1.91894 62.07516 -1.90336 60.14743 -1.91821 58.22095 C-1.92474 57.00952 -1.93127 55.79808 -1.938 54.54994 C-1.94944 53.23538 -1.96087 51.92081 -1.97266 50.56641 C-1.9796 49.20882 -1.98581 47.85123 -1.99132 46.49364 C-2.01579 40.72184 -2.05135 34.95014 -2.09595 29.17847 C-2.12272 25.64894 -2.13977 22.11947 -2.15082 18.58986 C-2.16005 16.58952 -2.18043 14.58925 -2.20094 12.589 C-2.20432 11.37442 -2.2077 10.15984 -2.21118 8.90845 C-2.21864 7.83748 -2.2261 6.76652 -2.23378 5.6631 C-2 3 -2 3 0 0 Z " fill="#F8F1FB" transform="translate(758,246)"/>
<path d="M0 0 C0 3.96 0 7.92 0 12 C-15.84 12 -31.68 12 -48 12 C-48 8.7 -48 5.4 -48 2 C-47.34 2 -46.68 2 -46 2 C-46 4.64 -46 7.28 -46 10 C-31.48 10 -16.96 10 -2 10 C-2 7.36 -2 4.72 -2 2 C-4.31 2 -6.62 2 -9 2 C-9 1.67 -9 1.34 -9 1 C-2.25 0 -2.25 0 0 0 Z " fill="#3C3956" transform="translate(601,306)"/>
<path d="M0 0 C2.475 0.495 2.475 0.495 5 1 C4.01 1.33 3.02 1.66 2 2 C2.33 18.17 2.66 34.34 3 51 C6.96 51.66 10.92 52.32 15 53 C15 53.33 15 53.66 15 54 C12.68756 54.02685 10.37504 54.04633 8.0625 54.0625 C6.77473 54.0741 5.48695 54.0857 4.16016 54.09766 C1 54 1 54 0 53 C-0.09347 51.34262 -0.11745 49.68125 -0.11353 48.02124 C-0.11345 46.96022 -0.11337 45.89919 -0.1133 44.80602 C-0.10814 43.65187 -0.10297 42.49772 -0.09766 41.30859 C-0.09624 40.13362 -0.09483 38.95864 -0.09337 37.74806 C-0.08775 33.97785 -0.07519 30.20769 -0.0625 26.4375 C-0.05749 23.88867 -0.05292 21.33984 -0.04883 18.79102 C-0.03777 12.52732 -0.02102 6.26367 0 0 Z " fill="#3D3B58" transform="translate(529,264)"/>
<path d="M0 0 C3.78189 3.37606 4.4179 7.11133 5 12 C5.21851 16.91181 5.24687 21.8074 5.20581 26.72314 C5.18732 29.02257 5.1853 31.3216 5.18555 33.62109 C5.18064 35.08073 5.17481 36.54037 5.16797 38 C5.16686 38.68844 5.16574 39.37688 5.1646 40.08618 C5.11613 44.88387 5.11613 44.88387 4 46 C1.64686 46.07272 -0.70834 46.08371 -3.0625 46.0625 C-4.35285 46.05348 -5.6432 46.04445 -6.97266 46.03516 C-7.97168 46.02355 -8.9707 46.01195 -10 46 C-10 45.34 -10 44.68 -10 44 C-5.71 44 -1.42 44 3 44 C2.90536 39.50138 2.79904 35.00322 2.68262 30.50513 C2.6447 28.97981 2.60979 27.45441 2.57812 25.92896 C2.39283 17.10707 1.9927 8.64169 0 0 Z " fill="#373553" transform="translate(719,272)"/>
<path d="M0 0 C4.62 0 9.24 0 14 0 C14 1.98 14 3.96 14 6 C13.34 6 12.68 6 12 6 C12 4.68 12 3.36 12 2 C8.7 2.33 5.4 2.66 2 3 C1.67 19.17 1.34 35.34 1 52 C4.3 52 7.6 52 11 52 C11.99 52.66 12.98 53.32 14 54 C9.38 54 4.76 54 0 54 C0 36.18 0 18.36 0 0 Z " fill="#161A39" transform="translate(671,264)"/>
<path d="M0 0 C0.66 0.33 1.32 0.66 2 1 C-4.92402 6.31557 -11.76245 10.10573 -20 13 C-20.88816 13.32098 -21.77633 13.64195 -22.69141 13.97266 C-29.33277 16.0038 -35.7953 16.27582 -42.6875 16.3125 C-44.00609 16.32084 -44.00609 16.32084 -45.35132 16.32935 C-51.1664 16.26541 -56.36369 15.43335 -62 14 C-60.16895 12.94702 -60.16895 12.94702 -58 12 C-55.9884 12.6308 -53.99012 13.3044 -52 14 C-49.08234 14.37519 -46.18956 14.42785 -43.25 14.4375 C-42.01939 14.4433 -42.01939 14.4433 -40.76392 14.44922 C-32.92934 14.30559 -25.89042 12.46342 -18.46484 10.09375 C-15 9 -15 9 -13 9 C-12.67 8.34 -12.34 7.68 -12 7 C-10.19789 5.92501 -8.3583 4.91215 -6.5 3.9375 C-3.03184 2.28029 -3.03184 2.28029 0 0 Z " fill="#F8F1FB" transform="translate(301,332)"/>
<path d="M0 0 C4.95 0 9.9 0 15 0 C15 4.29 15 8.58 15 13 C19.29 13 23.58 13 28 13 C28 13.33 28 13.66 28 14 C23.38 14 18.76 14 14 14 C13.67 10.37 13.34 6.74 13 3 C9.7 2.67 6.4 2.34 3 2 C2.95102 2.85465 2.90203 3.7093 2.85156 4.58984 C2.7768 5.69457 2.70203 6.7993 2.625 7.9375 C2.55539 9.03965 2.48578 10.1418 2.41406 11.27734 C2.27742 12.17582 2.14078 13.0743 2 14 C-1.28301 15.6415 -4.42545 14.51889 -8 14 C-8 13.67 -8 13.34 -8 13 C-5.36 13 -2.72 13 0 13 C0 8.71 0 4.42 0 0 Z " fill="#514967" transform="translate(491,251)"/>
<path d="M0 0 C0.66 1.32 1.32 2.64 2 4 C1.34 4 0.68 4 0 4 C-0.95477 10.32535 -1.38235 16.60119 -1 23 C-0.67 23.33 -0.34 23.66 0 24 C0 21.69 0 19.38 0 17 C0.33 17 0.66 17 1 17 C1 21.62 1 26.24 1 31 C0.67 31 0.34 31 0 31 C0 29.02 0 27.04 0 25 C-0.66 25 -1.32 25 -2 25 C-1.60031 30.41692 -1.04758 34.9493 1 40 C1.07646 42.33208 1.09143 44.66846 1 47 C-5.51222 37.23167 -5.06327 23.10974 -2.96924 11.96851 C-2.15641 7.90971 -1.30958 3.92874 0 0 Z " fill="#F8F1FB" transform="translate(192,256)"/>
<path d="M0 0 C0.33 0 0.66 0 1 0 C1 3.63 1 7.26 1 11 C3.64 11 6.28 11 9 11 C9.89585 14.05612 10.1059 16.74286 10.0625 19.92188 C10.05477 20.86547 10.04703 21.80906 10.03906 22.78125 C10.01323 24.74479 9.98719 26.70834 9.96094 28.67188 C9.91567 34.22496 10.167 39.50742 11 45 C8.18129 42.18129 8.0436 40.09109 7.88647 36.15918 C7.89171 35.09087 7.89695 34.02256 7.90234 32.92188 C7.90557 31.76172 7.90879 30.60156 7.91211 29.40625 C7.92049 28.19969 7.92887 26.99313 7.9375 25.75 C7.94201 24.52797 7.94652 23.30594 7.95117 22.04688 C7.96295 19.0312 7.9794 16.01563 8 13 C7.04835 13.02498 6.0967 13.04995 5.11621 13.07568 C2 13 2 13 0.14062 11.78906 C-1.31632 9.50386 -1.3377 8.06739 -1.25 5.375 C-1.23453 4.57836 -1.21906 3.78172 -1.20312 2.96094 C-1 1 -1 1 0 0 Z " fill="#F8F1FB" transform="translate(804,265)"/>
<path d="M0 0 C0.66 0 1.32 0 2 0 C1.99214 1.04342 1.99214 1.04342 1.98413 2.10791 C1.96326 5.28026 1.95031 8.4526 1.9375 11.625 C1.92912 12.71941 1.92074 13.81383 1.91211 14.94141 C1.90889 16.00488 1.90566 17.06836 1.90234 18.16406 C1.89711 19.13811 1.89187 20.11216 1.88647 21.11572 C1.92965 24.07747 1.92965 24.07747 2.6311 27.23975 C2.75284 28.15063 2.87458 29.06151 3 30 C2.34 30.66 1.68 31.32 1 32 C-0.83829 25.10642 -1.19256 18.59489 -1.1875 11.5 C-1.18814 10.60313 -1.18879 9.70627 -1.18945 8.78223 C-1.13487 2.26974 -1.13487 2.26974 0 0 Z " fill="#2D2848" transform="translate(120,268)"/>
<path d="M0 0 C0.33 0.66 0.66 1.32 1 2 C0.24636 3.67428 -0.50787 5.3483 -1.26611 7.02051 C-2.46269 10.248 -2.48659 13.47994 -2.4375 16.875 C-2.43428 17.57391 -2.43105 18.27283 -2.42773 18.99292 C-2.29154 24.05385 -1.35576 27.91638 1.125 32.30078 C2 34 2 34 2 37 C-2.92977 31.2486 -4.31853 26.55754 -4.75 19.0625 C-4.80543 18.37221 -4.86086 17.68191 -4.91797 16.9707 C-5.33967 10.22982 -3.61622 5.58871 0 0 Z " fill="#F8F1FB" transform="translate(850,274)"/>
<path d="M0 0 C1.17562 0.33 2.35125 0.66 3.5625 1 C10.29586 2.53227 17.13917 2.16271 24 2 C24.33 1.34 24.66 0.68 25 0 C26.32 0 27.64 0 29 0 C29 0.66 29 1.32 29 2 C18.26627 5.76465 10.73373 5.76465 0 2 C0 1.34 0 0.68 0 0 Z " fill="#292846" transform="translate(619,314)"/>
<path d="M0 0 C0 4.06825 -1.42478 4.88924 -4.25 7.75 C-9.50019 12.8504 -15.21958 17.14128 -22 20 C-22.99 19.67 -23.98 19.34 -25 19 C-24.28457 18.63391 -23.56914 18.26781 -22.83203 17.89062 C-13.96473 13.07269 -7.16217 7.0351 0 0 Z " fill="#F8F1FB" transform="translate(317,328)"/>
<path d="M0 0 C0 0.66 0 1.32 0 2 C-1.27875 2.12375 -2.5575 2.2475 -3.875 2.375 C-7.34791 2.69042 -7.34791 2.69042 -10 5 C-10.24213 6.98129 -10.24213 6.98129 -10.125 9.125 C-10.06313 11.04313 -10.06313 11.04313 -10 13 C-9.10281 13.43312 -9.10281 13.43312 -8.1875 13.875 C-6 15 -6 15 -3 17 C-8.34586 16.40602 -8.34586 16.40602 -10.8125 14.875 C-12.69777 11.89826 -12.93971 9.49673 -13 6 C-9.28446 0.10638 -6.72155 -0.12447 0 0 Z " fill="#373251" transform="translate(540,240)"/>
<path d="M0 0 C2.875 1.5625 2.875 1.5625 5 4 C5.8125 7.75 5.8125 7.75 6 11 C5.01 11.495 5.01 11.495 4 12 C3.87625 10.88625 3.7525 9.7725 3.625 8.625 C3.35342 4.96896 3.35342 4.96896 1 3 C-3.23963 2.68595 -6.36534 2.67382 -10 5 C-10 4.01 -10 3.02 -10 2 C-6.26261 -0.49159 -4.42668 -0.45793 0 0 Z " fill="#2D2A4A" transform="translate(472,240)"/>
<path d="M0 0 C0.66 0.33 1.32 0.66 2 1 C1.52562 1.84562 1.05125 2.69125 0.5625 3.5625 C-2.07604 9.56143 -1.75888 16.53965 -2 23 C-2.66 22.67 -3.32 22.34 -4 22 C-4.46252 13.68752 -4.22551 7.30032 0 0 Z " fill="#242343" transform="translate(609,275)"/>
<path d="M0 0 C0.66 0.33 1.32 0.66 2 1 C0.58475 2.5846 -0.83226 4.16762 -2.25 5.75 C-3.03891 6.63172 -3.82781 7.51344 -4.64062 8.42188 C-6.70593 10.67866 -8.81735 12.8574 -11 15 C-11.66 14.67 -12.32 14.34 -13 14 C-8.83296 9.14256 -4.58155 4.4698 0 0 Z " fill="#1A1B3E" transform="translate(147,219)"/>
<path d="M0 0 C2.97 1.65 5.94 3.3 9 5 C9 5.66 9 6.32 9 7 C9.99 7 10.98 7 12 7 C13.60547 8.53125 13.60547 8.53125 15.1875 10.5 C15.98221 11.47453 15.98221 11.47453 16.79297 12.46875 C17.19129 12.97406 17.58961 13.47938 18 14 C17.67 14.66 17.34 15.32 17 16 C16.37094 15.40832 15.74187 14.81664 15.09375 14.20703 C9.98166 9.48758 5.03507 5.46458 -1 2 C-0.67 1.34 -0.34 0.68 0 0 Z " fill="#F8F1FB" transform="translate(297,212)"/>
<path d="M0 0 C6.93 0.495 6.93 0.495 14 1 C14 1.66 14 2.32 14 3 C9.38 3 4.76 3 0 3 C0 2.01 0 1.02 0 0 Z " fill="#393754" transform="translate(435,315)"/>
<path d="M0 0 C0.99 0 1.98 0 3 0 C3 3.96 3 7.92 3 12 C1.68 11.67 0.36 11.34 -1 11 C-0.34 11 0.32 11 1 11 C0.67 7.37 0.34 3.74 0 0 Z " fill="#353451" transform="translate(417,276)"/>
<path d="M0 0 C3.6356 3.43362 6.36113 6.79736 9 11 C8.67 11.66 8.34 12.32 8 13 C7.40188 12.23687 6.80375 11.47375 6.1875 10.6875 C4.19411 8.09185 4.19411 8.09185 2.3125 6.5 C0.54157 4.47608 0.35422 2.62121 0 0 Z " fill="#F8F1FB" transform="translate(311,235)"/>
<path d="M0 0 C0.33 0 0.66 0 1 0 C1 1.98 1 3.96 1 6 C0.34 5.67 -0.32 5.34 -1 5 C-1.92813 5.30937 -2.85625 5.61875 -3.8125 5.9375 C-6.80735 6.93578 -8.88548 7.18321 -12 7 C-11.48438 6.7525 -10.96875 6.505 -10.4375 6.25 C-4.86289 3.60793 -4.86289 3.60793 0 0 Z " fill="#F8F1FB" transform="translate(888,312)"/>
<path d="M0 0 C0.33 0.66 0.66 1.32 1 2 C-0.11962 3.6495 -1.24587 5.2945 -2.375 6.9375 C-3.00148 7.85402 -3.62797 8.77055 -4.27344 9.71484 C-6 12 -6 12 -8 13 C-7.1875 10.0625 -7.1875 10.0625 -6 7 C-5.01 6.67 -4.02 6.34 -3 6 C-1.84478 3.52869 -1.84478 3.52869 -1 1 C-0.67 0.67 -0.34 0.34 0 0 Z " fill="#F8F1FB" transform="translate(319,311)"/>
<path d="M0 0 C0.84563 0.61875 1.69125 1.2375 2.5625 1.875 C5.91372 4.13048 9.08857 5.06126 13 6 C12.34 6.66 11.68 7.32 11 8 C9.3474 7.43613 7.70298 6.84821 6.0625 6.25 C5.14598 5.92516 4.22945 5.60031 3.28516 5.26562 C1 4 1 4 0.18359 1.85938 C0.12301 1.24578 0.06242 0.63219 0 0 Z " fill="#F8F1FB" transform="translate(816,312)"/>
<path d="M0 0 C0.33 0.66 0.66 1.32 1 2 C0.0625 4.125 0.0625 4.125 -1 6 C-1.66 6 -2.32 6 -3 6 C-3.28875 6.80437 -3.5775 7.60875 -3.875 8.4375 C-5 11 -5 11 -7 12 C-5.44298 7.32894 -2.91553 3.91294 0 0 Z " fill="#F8F1FB" transform="translate(203,237)"/>
<path d="M0 0 C-4.46726 3.31442 -8.62007 3.66009 -14 4 C-11.58592 2.39062 -9.65956 1.34509 -7 0.3125 C-5.97906 -0.09549 -5.97906 -0.09549 -4.9375 -0.51172 C-3 -1 -3 -1 0 0 Z " fill="#F8F1FB" transform="translate(292,349)"/>
<path d="M0 0 C4.4189 1.35022 6.34345 3.26116 9 7 C8.01 7.33 7.02 7.66 6 8 C4.02 5.36 2.04 2.72 0 0 Z " fill="#222542" transform="translate(649,268)"/>
<path d="M0 0 C-1.12006 3.36017 -2.37212 4.69065 -5 7 C-5.66 7 -6.32 7 -7 7 C-7.33 7.99 -7.66 8.98 -8 10 C-8.33 9.01 -8.66 8.02 -9 7 C-7.88122 5.82737 -6.75477 4.66205 -5.625 3.5 C-4.68527 2.52547 -4.68527 2.52547 -3.72656 1.53125 C-2 0 -2 0 0 0 Z " fill="#1D213E" transform="translate(156,231)"/>
<path d="M0 0 C0 0.66 0 1.32 0 2 C-1.96875 3.50781 -1.96875 3.50781 -4.5 5.125 C-5.33531 5.66383 -6.17063 6.20266 -7.03125 6.75781 C-7.68094 7.16773 -8.33062 7.57766 -9 8 C-8.39959 4.47166 -8.12314 4.09432 -5.0625 1.75 C-2 0 -2 0 0 0 Z " fill="#242643" transform="translate(213,212)"/>
<path d="M0 0 C0.66 0.66 1.32 1.32 2 2 C1.67 2.99 1.34 3.98 1 5 C-3.455 4.01 -3.455 4.01 -8 3 C-8 2.67 -8 2.34 -8 2 C-6.71255 1.61077 -5.4198 1.23902 -4.125 0.875 C-3.04605 0.56176 -3.04605 0.56176 -1.94531 0.24219 C-1.30336 0.16227 -0.66141 0.08234 0 0 Z " fill="#2F2C4B" transform="translate(518,304)"/>
<path d="M0 0 C3.99996 1.33332 4.83782 3.49578 7 7 C6.67 7.66 6.34 8.32 6 9 C4.99407 7.8803 3.99542 6.75406 3 5.625 C2.44313 4.99852 1.88625 4.37203 1.3125 3.72656 C0 2 0 2 0 0 Z " fill="#232643" transform="translate(242,231)"/>
<path d="M0 0 C2.97194 1.12452 5.33441 2.22294 8 4 C7.67 4.66 7.34 5.32 7 6 C4.69 4.68 2.38 3.36 0 2 C0 1.34 0 0.68 0 0 Z " fill="#252743" transform="translate(151,341)"/>
<path d="M0 0 C0.66 0 1.32 0 2 0 C3.28906 1.75 3.28906 1.75 4.625 4 C5.07102 4.7425 5.51703 5.485 5.97656 6.25 C6.3143 6.8275 6.65203 7.405 7 8 C3.68532 6.46593 1.96055 5.13688 0 2 C0 1.34 0 0.68 0 0 Z " fill="#1C1D3C" transform="translate(144,315)"/>
<path d="M0 0 C0.66 0 1.32 0 2 0 C2 0.66 2 1.32 2 2 C2.59812 2.28875 3.19625 2.5775 3.8125 2.875 C6 4 6 4 9 6 C3.50847 5.38983 3.50847 5.38983 1.125 3.5625 C0 2 0 2 0 0 Z " fill="#2F284A" transform="translate(528,251)"/>
<path d="M0 0 C3.26461 1.80413 4.8893 2.83395 7 6 C4 6 4 6 1.8125 4.125 C0 2 0 2 0 0 Z " fill="#252743" transform="translate(234,222)"/>
</svg>
