<?xml version="1.0" encoding="UTF-8"?>
<!-- Generator: visioncortex VTracer 0.6.4 -->
<svg version="1.1" xmlns="http://www.w3.org/2000/svg" width="1024" height="559">
<path d="M0 0 C337.92 0 675.84 0 1024 0 C1024 184.47 1024 368.94 1024 559 C686.08 559 348.16 559 0 559 C0 374.53 0 190.06 0 0 Z " fill="#FEFEFE" transform="translate(0,0)"/>
<path d="M0 0 C2.86456 1.23633 5.57549 2.26215 8.625 2.9375 C8.625 3.5975 8.625 4.2575 8.625 4.9375 C9.945 4.9375 11.265 4.9375 12.625 4.9375 C13.22312 5.55625 13.82125 6.175 14.4375 6.8125 C16.57671 9.2513 16.57671 9.2513 20.25 9.8125 C21.36375 10.18375 22.4775 10.555 23.625 10.9375 C24.875 13.875 24.875 13.875 25.625 16.9375 C27.16623 18.64672 27.16623 18.64672 28.625 19.9375 C28.625 20.5975 28.625 21.2575 28.625 21.9375 C29.18187 22.14375 29.73875 22.35 30.3125 22.5625 C35.972 25.92761 39.22097 31.97444 41.625 37.9375 C41.625 38.5975 41.625 39.2575 41.625 39.9375 C42.285 40.2675 42.945 40.5975 43.625 40.9375 C50.46499 57.46748 53.41868 79.45452 46.5625 96.4375 C46.20027 97.25219 45.83805 98.06687 45.46484 98.90625 C44.49764 100.8792 44.49764 100.8792 44.625 102.9375 C43.635 103.4325 43.635 103.4325 42.625 103.9375 C41.63738 105.84737 41.63738 105.84737 40.75 108.125 C39.0636 112.06409 37.13182 115.44315 34.625 118.9375 C34.23312 119.53691 33.84125 120.13633 33.4375 120.75391 C30.88905 124.56861 28.76076 126.75474 24.625 128.9375 C24.295 129.5975 23.965 130.2575 23.625 130.9375 C22.965 130.9375 22.305 130.9375 21.625 130.9375 C21.28469 132.11312 21.28469 132.11312 20.9375 133.3125 C19.625 135.9375 19.625 135.9375 17.4375 137 C16.50937 137.30937 15.58125 137.61875 14.625 137.9375 C9.87347 140.11409 9.87347 140.11409 6.625 143.9375 C5.635 143.9375 4.645 143.9375 3.625 143.9375 C1.67736 144.53014 -0.25879 145.16088 -2.1875 145.8125 C-14.87462 149.76584 -27.22017 150.22417 -40.375 149.9375 C-40.375 149.2775 -40.375 148.6175 -40.375 147.9375 C-41.03887 147.9491 -41.70273 147.9607 -42.38672 147.97266 C-51.15707 148.06228 -51.15707 148.06228 -55.375 146.9375 C-55.375 146.2775 -55.375 145.6175 -55.375 144.9375 C-56.58156 144.53531 -56.58156 144.53531 -57.8125 144.125 C-58.65812 143.73312 -59.50375 143.34125 -60.375 142.9375 C-60.705 141.9475 -61.035 140.9575 -61.375 139.9375 C-61.045 139.2775 -60.715 138.6175 -60.375 137.9375 C-59.715 137.9375 -59.055 137.9375 -58.375 137.9375 C-58.375 137.2775 -58.375 136.6175 -58.375 135.9375 C-59.47457 136.4802 -60.57414 137.02289 -61.70703 137.58203 C-80.58906 146.78839 -99.32043 150.79227 -119.99219 144.25 C-131.45627 139.80204 -139.84792 133.56778 -148.375 124.9375 C-148.96926 124.35355 -149.56352 123.76961 -150.17578 123.16797 C-164.22144 108.21369 -169.20456 87.53727 -168.67969 67.58984 C-167.81593 50.45385 -160.92969 33.65508 -149.375 20.9375 C-148.72145 20.19242 -148.06789 19.44734 -147.39453 18.67969 C-136.90406 7.40577 -121.60266 -0.96159 -106.05762 -2.25537 C-93.06423 -2.69416 -81.50846 -2.04265 -69.375 2.9375 C-68.385 3.9275 -68.385 3.9275 -67.375 4.9375 C-66.65312 4.36 -65.93125 3.7825 -65.1875 3.1875 C-60.11649 -0.1852 -54.19719 -1.51128 -48.375 -3.0625 C-47.54484 -3.30355 -46.71469 -3.54461 -45.85938 -3.79297 C-32.02284 -7.1182 -13.07921 -5.71401 0 0 Z " fill="#FDFCFD" transform="translate(287.375,207.0625)"/>
<path d="M0 0 C1.39468 0.39987 2.79036 0.7963 4.1875 1.1875 C5.11563 1.45562 6.04375 1.72375 7 2 C7 2.66 7 3.32 7 4 C9.04593 5.09603 10.85806 5.9666 13.125 6.5 C15 7 15 7 17 9 C18.98935 10.5163 21.00789 11.98895 23.02734 13.46484 C24.8519 14.88475 26.48334 16.25512 28 18 C28 18.66 28 19.32 28 20 C28.66 20 29.32 20 30 20 C30.45375 20.92812 30.9075 21.85625 31.375 22.8125 C32.94216 26.03921 32.94216 26.03921 35 29 C35.33 29.66 35.66 30.32 36 31 C36.66 31 37.32 31 38 31 C40.73269 36.49191 42.52665 41.63107 43.5625 47.67969 C43.97748 50.19139 43.97748 50.19139 45.125 53.25 C47.33119 62.70509 46.48663 71.99288 43 81 C42.34 81 41.68 81 41 81 C41.40219 82.14469 41.40219 82.14469 41.8125 83.3125 C42.13472 89.64943 39.10135 95.60646 34.94922 100.33594 C33 102 33 102 31 102 C30.73188 102.96938 30.46375 103.93875 30.1875 104.9375 C29.79562 105.94813 29.40375 106.95875 29 108 C27.515 108.495 27.515 108.495 26 109 C25.9175 109.59812 25.835 110.19625 25.75 110.8125 C24.6901 113.90388 22.60384 114.57724 19.78906 115.97266 C17.95738 116.90381 17.95738 116.90381 16.71875 118.40234 C14.14219 120.79737 11.0464 122.06511 7.875 123.5 C7.19486 123.80825 6.51472 124.11649 5.81396 124.43408 C3.88051 125.3001 1.94106 126.15119 0 127 C-0.78891 127.35836 -1.57781 127.71672 -2.39062 128.08594 C-13.68585 132.57735 -28.29928 131.80946 -39.75 128.5 C-40.65234 128.24219 -41.55469 127.98438 -42.48438 127.71875 C-43.72961 127.36297 -43.72961 127.36297 -45 127 C-46.33174 126.66036 -47.66449 126.32452 -49 126 C-48.34055 122.30706 -47.47071 121.29427 -45 118 C-47.97 115.03 -50.94 112.06 -54 109 C-55.17562 109.96938 -56.35125 110.93875 -57.5625 111.9375 C-61.47873 114.90434 -64.13342 115.79723 -69 116 C-69.495 115.01 -69.495 115.01 -70 114 C-69.67 113.34 -69.34 112.68 -69 112 C-70.485 111.505 -70.485 111.505 -72 111 C-75.09275 107.61731 -76.96321 104.07358 -79 100 C-79.66 99.67 -80.32 99.34 -81 99 C-81 98.01 -81 97.02 -81 96 C-81.99 95.67 -82.98 95.34 -84 95 C-84 93.35 -84 91.7 -84 90 C-84.66 90 -85.32 90 -86 90 C-86 88.68 -86 87.36 -86 86 C-86.66 85.67 -87.32 85.34 -88 85 C-87.67 84.01 -87.34 83.02 -87 82 C-87.76241 79.91242 -87.76241 79.91242 -88.9375 77.75 C-90.95422 73.51559 -91.39516 70.64312 -91 66 C-90.34 66 -89.68 66 -89 66 C-88.93941 65.36191 -88.87883 64.72383 -88.81641 64.06641 C-88.73262 63.24012 -88.64883 62.41383 -88.5625 61.5625 C-88.44068 60.32693 -88.44068 60.32693 -88.31641 59.06641 C-88 57 -88 57 -87 56 C-85.43453 55.90673 -83.86487 55.88254 -82.29663 55.88647 C-81.29567 55.88655 -80.29471 55.88663 -79.26341 55.8867 C-78.17488 55.89186 -77.08636 55.89703 -75.96484 55.90234 C-74.30226 55.90447 -74.30226 55.90447 -72.60609 55.90663 C-69.04987 55.91225 -65.49371 55.92481 -61.9375 55.9375 C-59.5332 55.94251 -57.12891 55.94708 -54.72461 55.95117 C-48.81638 55.96223 -42.9082 55.97898 -37 56 C-38.53388 48.61059 -40.06817 41.5976 -43.5625 34.875 C-43.90185 34.20759 -44.24119 33.54018 -44.59082 32.85254 C-48.09351 26.2917 -52.67135 21.18365 -58 16 C-59.33333 14.66667 -60.66667 13.33333 -62 12 C-60.23175 10.85019 -58.4603 9.70528 -56.6875 8.5625 C-55.70137 7.92441 -54.71523 7.28633 -53.69922 6.62891 C-51 5 -51 5 -48 4 C-48 3.01 -48 2.02 -48 1 C-45.29224 0.3517 -42.58384 -0.29371 -39.875 -0.9375 C-38.73418 -1.2111 -38.73418 -1.2111 -37.57031 -1.49023 C-24.42273 -4.60712 -12.94162 -4.09122 0 0 Z " fill="#FEFEFE" transform="translate(281,216)"/>
<path d="M0 0 C-1.33186 1.33481 -2.6655 2.66783 -4 4 C-4.58395 4.63422 -5.16789 5.26844 -5.76953 5.92188 C-12.74189 12.16101 -19.64226 11.37199 -28.45508 11.08838 C-40.40195 10.75394 -49.24014 14.18964 -59 21 C-59.68707 21.47824 -60.37414 21.95648 -61.08203 22.44922 C-73.36098 32.06409 -79.05701 47.28505 -82 62 C-68.14 62 -54.28 62 -40 62 C-40 66.95 -40 71.9 -40 77 C-53.86 77 -67.72 77 -82 77 C-77.63722 94.45113 -71.76253 110.71006 -55.81689 120.38721 C-46.59997 125.71524 -38.40622 128.56227 -27.6875 128.4375 C-26.30329 128.42505 -26.30329 128.42505 -24.89111 128.41235 C-10.82014 128.06485 -1.05926 122.29445 10 114 C13.3 117.3 16.6 120.6 20 124 C12.10606 135.1604 -2.81466 141.66961 -16 144 C-34.32385 145.64694 -52.71416 143.43376 -67.63086 131.71924 C-71.27601 128.66093 -74.65697 125.38349 -78 122 C-78.59426 121.41605 -79.18852 120.83211 -79.80078 120.23047 C-93.84644 105.27619 -98.82956 84.59977 -98.30469 64.65234 C-97.44093 47.51635 -90.55469 30.71758 -79 18 C-78.34645 17.25492 -77.69289 16.50984 -77.01953 15.74219 C-57.16602 -5.59401 -26.47062 -10.61859 0 0 Z " fill="#091638" transform="translate(217,210)"/>
<path d="M0 0 C4.95 0 9.9 0 15 0 C15.02255 9.50075 15.04092 19.00148 15.05181 28.50224 C15.05704 32.91337 15.06414 37.32448 15.07544 41.7356 C15.08627 45.98901 15.09228 50.24241 15.09488 54.49584 C15.09673 56.12222 15.10035 57.7486 15.10573 59.37497 C15.11294 61.6451 15.11399 63.91516 15.11353 66.1853 C15.11575 67.47992 15.11797 68.77454 15.12025 70.10838 C15 73 15 73 14 74 C11.81361 74.07259 9.625 74.08374 7.4375 74.0625 C5.64119 74.04896 5.64119 74.04896 3.80859 74.03516 C2.41834 74.01775 2.41834 74.01775 1 74 C0.67 72.35 0.34 70.7 0 69 C-0.46148 69.34934 -0.92297 69.69867 -1.39844 70.05859 C-7.60098 74.38566 -13.0653 75.71778 -20.57812 74.625 C-27.74382 72.86655 -33.03451 69.1173 -37.34766 63.12891 C-41.87013 55.59146 -41.74746 47.53498 -41 39 C-38.91632 31.6195 -34.40246 26.13803 -28 22 C-20.07625 18.18132 -13.23153 18.30447 -5.01562 21.14844 C-3 22 -3 22 0 24 C0 16.08 0 8.16 0 0 Z " fill="#801165" transform="translate(888,244)"/>
<path d="M0 0 C15.33981 13.06778 25.50155 31.32791 27.12891 51.60693 C28.31401 73.08207 21.7681 92.44344 7.65234 108.75 C-5.85743 123.12404 -24.05627 132.7286 -44.03516 133.5625 C-44.91043 133.61406 -45.7857 133.66562 -46.6875 133.71875 C-57.9783 134.08248 -69.66639 132.09883 -80.03516 127.5625 C-78.09766 124.9375 -78.09766 124.9375 -75.03516 122.5625 C-72.65977 122.64983 -70.68405 123.16123 -68.41406 123.85156 C-51.50151 128.90589 -31.77988 126.18594 -16.28516 118.375 C0.49123 108.70027 12.0767 94.70196 17.83984 76.1875 C22.24694 57.57367 19.6759 38.15842 9.65234 21.75 C-1.12485 5.98806 -16.28822 -5.01788 -35.19531 -8.92969 C-56.01856 -11.68353 -74.59021 -8.61243 -91.96875 3.62891 C-107.40212 15.59458 -116.02146 31.42817 -119.03516 50.5625 C-120.89301 69.99686 -114.2919 88.6516 -102.25391 103.80469 C-100.87983 105.41858 -99.46269 106.99569 -98.03516 108.5625 C-101.03516 110.5625 -101.03516 110.5625 -103.44922 110.48047 C-110.76679 107.88284 -115.38286 98.37243 -118.84766 91.875 C-127.75033 72.78602 -129.12924 51.5015 -122.03516 31.5625 C-114.83107 13.22046 -100.76641 -1.85645 -83.03516 -10.4375 C-55.12777 -22.44342 -23.81464 -19.12527 0 0 Z " fill="#801164" transform="translate(308.03515625,221.4375)"/>
<path d="M0 0 C5.34067 3.98817 8.1083 9.46672 9.92969 15.78516 C11.18334 24.93461 9.99666 33.30633 4.42188 40.81641 C-1.38307 47.18835 -9.17304 50.44741 -17.69531 51.03516 C-25.97093 50.91164 -33.68631 48.00759 -39.66016 42.25391 C-45.92784 35.51117 -47.66851 28.96296 -47.42578 19.82031 C-46.63679 13.08351 -43.97343 6.55208 -39.07031 1.78516 C-26.95378 -7.28236 -12.9983 -7.6273 0 0 Z " fill="#091638" transform="translate(652.0703125,268.21484375)"/>
<path d="M0 0 C16.83 0 33.66 0 51 0 C51 4.29 51 8.58 51 13 C39.12 13 27.24 13 15 13 C15 17.95 15 22.9 15 28 C25.23 28 35.46 28 46 28 C46 32.29 46 36.58 46 41 C35.77 41 25.54 41 15 41 C15 46.61 15 52.22 15 58 C27.21 58 39.42 58 52 58 C52 62.29 52 66.58 52 71 C34.84 71 17.68 71 0 71 C0 47.57 0 24.14 0 0 Z " fill="#0A1739" transform="translate(373,247)"/>
<path d="M0 0 C9.94174 3.98307 16.10983 15.67146 20.4375 24.97656 C26.48348 39.37616 27.4375 49.8621 27.4375 65.97656 C5.3275 65.97656 -16.7825 65.97656 -39.5625 65.97656 C-39.5625 51.97656 -39.5625 51.97656 -38.5625 50.97656 C-36.99703 50.8833 -35.42737 50.85911 -33.85913 50.86304 C-32.85817 50.86311 -31.85721 50.86319 -30.82591 50.86327 C-29.73738 50.86843 -28.64886 50.87359 -27.52734 50.87891 C-25.86476 50.88103 -25.86476 50.88103 -24.16859 50.88319 C-20.61237 50.88881 -17.05621 50.90137 -13.5 50.91406 C-11.0957 50.91908 -8.69141 50.92364 -6.28711 50.92773 C-0.37888 50.93879 5.5293 50.95554 11.4375 50.97656 C9.90362 43.58716 8.36933 36.57416 4.875 29.85156 C4.53565 29.18415 4.19631 28.51674 3.84668 27.8291 C0.34399 21.26826 -4.23385 16.16021 -9.5625 10.97656 C-10.89583 9.64323 -12.22917 8.3099 -13.5625 6.97656 C-11.84587 5.77101 -10.11362 4.58769 -8.375 3.41406 C-7.41207 2.75277 -6.44914 2.09148 -5.45703 1.41016 C-2.5625 -0.02344 -2.5625 -0.02344 0 0 Z " fill="#0B1739" transform="translate(232.5625,221.0234375)"/>
<path d="M0 0 C5.54705 6.19488 6.46176 11.55544 6.36328 19.65625 C6.36045 20.53702 6.35762 21.41778 6.35471 22.32524 C6.34355 25.12712 6.31845 27.92868 6.29297 30.73047 C6.28293 32.63476 6.27381 34.53906 6.26562 36.44336 C6.24362 41.10169 6.20912 45.75977 6.16797 50.41797 C1.54797 50.41797 -3.07203 50.41797 -7.83203 50.41797 C-7.86941 48.18918 -7.9068 45.96039 -7.94531 43.66406 C-7.99163 41.48615 -8.04283 39.30841 -8.09448 37.13062 C-8.12757 35.62649 -8.15565 34.12224 -8.17847 32.61792 C-8.21231 30.44529 -8.26464 28.27373 -8.32031 26.10156 C-8.3465 24.7976 -8.37268 23.49363 -8.39966 22.15015 C-8.89558 17.86946 -9.83213 15.21693 -11.83203 11.41797 C-15.54246 8.94435 -18.53066 8.8719 -22.83203 9.41797 C-25.73646 10.68076 -27.28939 11.63113 -29.08203 14.23047 C-30.73322 19.04645 -30.94815 23.8214 -30.89453 28.875 C-30.8868 30.06932 -30.87906 31.26363 -30.87109 32.49414 C-30.8582 33.72713 -30.84531 34.96012 -30.83203 36.23047 C-30.80666 38.69527 -30.78558 41.16012 -30.76953 43.625 C-30.75793 44.71273 -30.74633 45.80045 -30.73438 46.92114 C-30.83203 49.41797 -30.83203 49.41797 -31.83203 50.41797 C-36.45203 50.41797 -41.07203 50.41797 -45.83203 50.41797 C-45.83203 32.59797 -45.83203 14.77797 -45.83203 -3.58203 C-41.21203 -3.58203 -36.59203 -3.58203 -31.83203 -3.58203 C-31.50203 -1.93203 -31.17203 -0.28203 -30.83203 1.41797 C-30.38473 1.06863 -29.93742 0.7193 -29.47656 0.35938 C-21.10704 -5.94008 -8.47917 -7.3221 0 0 Z " fill="#071436" transform="translate(716.83203125,267.58203125)"/>
<path d="M0 0 C15.18 0 30.36 0 46 0 C46 10.3134 46 10.3134 41 15.4375 C39.98324 16.55496 38.96762 17.67346 37.95312 18.79297 C37.44975 19.33486 36.94637 19.87675 36.42773 20.43506 C34.42959 22.62522 32.5874 24.92432 30.75 27.25 C30.18797 27.95641 29.62594 28.66281 29.04688 29.39062 C26.01888 33.25074 23.01202 37.1274 20 41 C33.365 41.495 33.365 41.495 47 42 C47 45.63 47 49.26 47 53 C46 54 46 54 44.09544 54.12025 C43.26271 54.11803 42.42999 54.11581 41.57202 54.11353 C40.63112 54.11345 39.69022 54.11337 38.72081 54.1133 C37.6979 54.10814 36.675 54.10297 35.62109 54.09766 C34.57929 54.09624 33.5375 54.09483 32.46413 54.09337 C29.12189 54.08775 25.77972 54.0752 22.4375 54.0625 C20.17774 54.05749 17.91797 54.05292 15.6582 54.04883 C10.10545 54.03778 4.55273 54.02102 -1 54 C-1.06867 52.41459 -1.11746 50.82832 -1.15796 49.24194 C-1.18728 48.35873 -1.2166 47.47551 -1.24681 46.56554 C-0.81716 42.09947 1.88504 39.63474 4.9375 36.5625 C6.13409 35.27593 7.32939 33.98816 8.52344 32.69922 C9.11479 32.0758 9.70615 31.45237 10.31543 30.81006 C12.69104 28.25748 14.87248 25.58872 17.0625 22.875 C17.7341 22.04742 18.4057 21.21984 19.09766 20.36719 C21.06878 17.91441 23.0343 15.45713 25 13 C16.75 12.67 8.5 12.34 0 12 C0 8.04 0 4.08 0 0 Z " fill="#0B1739" transform="translate(554,264)"/>
<path d="M0 0 C4.95 0 9.9 0 15 0 C15 18.81 15 37.62 15 57 C25.89 57 36.78 57 48 57 C48 60.96 48 64.92 48 69 C47 70 47 70 45.09544 70.12025 C44.26271 70.11803 43.42999 70.11581 42.57202 70.11353 C41.61791 70.1134 40.66381 70.11328 39.68079 70.11316 C38.67109 70.10804 37.66139 70.10293 36.62109 70.09766 C35.69817 70.09665 34.77524 70.09564 33.82434 70.0946 C30.36205 70.08935 26.89977 70.07539 23.4375 70.0625 C15.70312 70.04188 7.96875 70.02125 0 70 C0 46.9 0 23.8 0 0 Z " fill="#801165" transform="translate(758,248)"/>
<path d="M0 0 C4.95 0 9.9 0 15 0 C15.33 4.29 15.66 8.58 16 13 C19.96 13 23.92 13 28 13 C28 16.96 28 20.92 28 25 C23.71 25 19.42 25 15 25 C15.11341 29.45891 15.24017 33.91673 15.375 38.375 C15.40594 39.64602 15.43687 40.91703 15.46875 42.22656 C15.50742 43.43828 15.54609 44.65 15.58594 45.89844 C15.63307 47.57946 15.63307 47.57946 15.68115 49.29443 C15.73411 52.1471 15.73411 52.1471 18 54 C21.69351 54.20146 24.4794 54.17353 28 53 C28.5056 54.43554 29.00427 55.87352 29.5 57.3125 C29.77844 58.11301 30.05687 58.91352 30.34375 59.73828 C31 62 31 62 31 65 C23.1853 68.2904 17.18618 68.98366 9.08203 66.04297 C4.7865 63.89117 2.66901 60.66536 0.8833 56.22021 C-0.06697 52.75585 -0.22822 49.8761 -0.19531 46.28906 C-0.18564 44.42314 -0.18564 44.42314 -0.17578 42.51953 C-0.15902 41.23434 -0.14227 39.94914 -0.125 38.625 C-0.11598 37.3166 -0.10695 36.0082 -0.09766 34.66016 C-0.07415 31.43992 -0.04129 28.22005 0 25 C-2.64 25 -5.28 25 -8 25 C-8 21.04 -8 17.08 -8 13 C-5.36 13 -2.72 13 0 13 C0 8.71 0 4.42 0 0 Z " fill="#0B1739" transform="translate(491,251)"/>
<path d="M0 0 C4.62 0 9.24 0 14 0 C14 4.62 14 9.24 14 14 C18.29 14 22.58 14 27 14 C27 17.63 27 21.26 27 25 C22.71 25 18.42 25 14 25 C14.33 34.57 14.66 44.14 15 54 C19.96699 54.82783 22.33329 55.00001 27 54 C27.50615 55.2684 28.00469 56.53983 28.5 57.8125 C28.77844 58.5202 29.05687 59.22789 29.34375 59.95703 C30 62 30 62 30 65 C23.68406 68.46312 16.97449 68.5894 10.07812 66.79297 C5.92528 65.20833 2.93343 62.79997 0.85205 58.78638 C-0.20657 55.32448 -0.2251 52.35012 -0.19531 48.73047 C-0.19248 48.04947 -0.18965 47.36846 -0.18674 46.66682 C-0.17561 44.50687 -0.15051 42.34733 -0.125 40.1875 C-0.11496 38.7168 -0.10584 37.2461 -0.09766 35.77539 C-0.07569 32.18346 -0.04121 28.59177 0 25 C-2.97 25 -5.94 25 -9 25 C-9 21.37 -9 17.74 -9 14 C-6.36 13.67 -3.72 13.34 -1 13 C-0.67 8.71 -0.34 4.42 0 0 Z " fill="#801165" transform="translate(814,251)"/>
<path d="M0 0 C4.95 0 9.9 0 15 0 C15 24.42 15 48.84 15 74 C10.38 74 5.76 74 1 74 C0 73 0 73 -0.12025 70.10838 C-0.11803 68.81377 -0.11581 67.51915 -0.11353 66.1853 C-0.11367 65.47315 -0.11382 64.76099 -0.11397 64.02725 C-0.11327 61.66267 -0.10548 59.29816 -0.09766 56.93359 C-0.09579 55.29835 -0.09437 53.6631 -0.09337 52.02785 C-0.08954 47.71565 -0.07971 43.40349 -0.06866 39.09131 C-0.05845 34.69434 -0.05387 30.29737 -0.04883 25.90039 C-0.03809 17.26691 -0.02049 8.63346 0 0 Z " fill="#091638" transform="translate(434,244)"/>
<path d="M0 0 C4.95 0 9.9 0 15 0 C15 17.82 15 35.64 15 54 C10.38 54 5.76 54 1 54 C0 53 0 53 -0.12025 50.86766 C-0.11803 49.92834 -0.11581 48.98902 -0.11353 48.02124 C-0.11345 46.96022 -0.11337 45.89919 -0.1133 44.80602 C-0.10814 43.65187 -0.10297 42.49772 -0.09766 41.30859 C-0.09624 40.13362 -0.09483 38.95864 -0.09337 37.74806 C-0.08775 33.97785 -0.07519 30.20769 -0.0625 26.4375 C-0.05749 23.88867 -0.05292 21.33984 -0.04883 18.79102 C-0.03777 12.52732 -0.0205 6.26367 0 0 Z " fill="#0A1638" transform="translate(529,264)"/>
<path d="M0 0 C4.95 0 9.9 0 15 0 C15 17.82 15 35.64 15 54 C10.38 54 5.76 54 1 54 C0 53 0 53 -0.12025 50.86766 C-0.11803 49.92834 -0.11581 48.98902 -0.11353 48.02124 C-0.11345 46.96022 -0.11337 45.89919 -0.1133 44.80602 C-0.10814 43.65187 -0.10297 42.49772 -0.09766 41.30859 C-0.09624 40.13362 -0.09483 38.95864 -0.09337 37.74806 C-0.08775 33.97785 -0.07519 30.20769 -0.0625 26.4375 C-0.05749 23.88867 -0.05292 21.33984 -0.04883 18.79102 C-0.03777 12.52732 -0.0205 6.26367 0 0 Z " fill="#091638" transform="translate(461,264)"/>
<path d="M0 0 C3.93144 3.93144 4.49817 7.04321 4.5625 12.5625 C4.47232 17.92495 4.06479 21.20541 0.1875 25.1875 C-3.54346 28.38547 -6.91796 28.65399 -11.66406 28.47266 C-15.80266 27.92335 -17.96612 26.21525 -20.5625 23.0625 C-23.38051 16.58108 -23.35568 10.71986 -20.82812 4.13672 C-18.88428 0.40603 -16.33791 -1.29065 -12.4375 -2.625 C-7.66463 -2.96592 -4.06854 -2.62195 0 0 Z " fill="#FDFCFD" transform="translate(883.8125,277.8125)"/>
<path d="M0 0 C3.93901 1.95785 6.36714 4.95079 8 9 C8.68112 14.17179 8.78676 19.30191 6.3125 24 C3.9323 27.08782 2.61867 28.60188 -1 30 C-7.38189 30.72054 -10.84088 29.84405 -16 26 C-19.82017 20.94752 -19.82478 15.09068 -19 9 C-14.72561 0.45123 -9.13859 -1.42832 0 0 Z " fill="#FDFDFE" transform="translate(639,276)"/>
<path d="M0 0 C0.83265 0.00524 1.66531 0.01047 2.52319 0.01587 C3.33281 0.01837 4.14242 0.02086 4.97656 0.02344 C6.0116 0.03254 7.04664 0.04165 8.11304 0.05103 C11.39241 0.07165 14.67179 0.09228 18.05054 0.11353 C18.05054 7.04353 18.05054 13.97353 18.05054 21.11353 C11.12054 21.11353 4.19054 21.11353 -2.94946 21.11353 C-2.97009 17.83415 -2.99071 14.55478 -3.01196 11.17603 C-3.02562 9.62347 -3.02562 9.62347 -3.03955 8.03955 C-3.0433 6.82513 -3.0433 6.82513 -3.04712 5.58618 C-3.05236 4.75353 -3.05759 3.92087 -3.06299 3.06299 C-2.90877 0.41469 -2.6483 0.15422 0 0 Z " fill="#801165" transform="translate(239.949462890625,299.886474609375)"/>
<path d="M0 0 C3.13803 1.84189 4.62662 3.02922 5.9375 6.4375 C6.03443 10.41148 4.96454 12.84255 2.4375 15.875 C-1.3231 17.61066 -5.06377 17.14535 -9 16 C-11.41139 14.07526 -11.95523 13.1471 -12.875 10.125 C-13.02524 6.36891 -12.28344 4.93586 -10 2 C-6.26261 -0.49159 -4.42668 -0.45793 0 0 Z " fill="#0D193B" transform="translate(540,240)"/>
<path d="M0 0 C3.79075 2.06019 4.78313 3.29837 6.0625 7.4375 C5.98713 11.73332 5.0345 13.0522 2 16 C-0.82001 17.41001 -2.87007 17.24548 -6 17 C-10.63235 14.73529 -10.63235 14.73529 -12 12 C-12.28394 9.06592 -12.48994 6.84954 -12 4 C-8.50759 -0.23322 -5.32511 -0.76073 0 0 Z " fill="#0C183A" transform="translate(472,240)"/>
</svg>
