<svg width="1024" height="559" version="1.1" xmlns="http://www.w3.org/2000/svg">
 <path transform="translate(0)" d="m0 0h1024v559h-1024v-559z" fill="#FEFEFE"/>
 <path transform="translate(216,210)" d="m0 0c-1.6 1.7-3.3 3.4-5 5-0.5 0.5-1.1 1-1.6 1.6-5.9 5.1-10.7 5-18.2 4.5-8.7-0.5-15.2 0.3-23.2 3.9l-3.2 1.4c-15 7.9-23.2 21.1-28.1 37-0.7 2.5-1.2 5-1.7 7.6 13.9 0.3 27.7 0.7 42 1v15h-42c4 18.9 10.3 33.1 26.5 44 6.9 4 14.5 7.3 22.5 8 0.7 0.1 1.3 0.1 2 0.2 13 0.7 25.5-3.7 36-11.2l3-3c3.9 0.5 5.6 2.3 8.2 5.1l2.2 2.2c0.5 0.6 1.1 1.1 1.6 1.7-11.6 12.4-26.3 19.5-43.3 20.2-20.5 0.6-37.9-5.7-52.9-19.8-8.9-9.2-15-20.3-18.8-32.4-0.3-1-0.6-2-1-3-4.1-15.1-2.8-30.3 2-45 0.5-1.4 0.5-1.4 0.9-2.8 6.8-18.7 21.4-32.8 39.1-41.2 17-7.2 36-7.1 53 0zm0 0c1 0.6 2 1.1 3 1.7 5.9 4.1 10.2 9.3 12 16.3 1.1 10.1-0.5 17.7-6.6 25.8-5.5 5.7-11.5 8.4-19.4 8.7-9.4 0-16.4-1.3-23.5-7.8-2.4-2.6-4-5.5-5.5-8.7-0.4-0.8-0.7-1.6-1.1-2.4-2.5-7.3-1.4-15.4 1.8-22.3 4-6.9 10.4-11.9 18.1-13.9 7.4-1.3 14.7-1.3 21.2 2.6zm0 0h45c0 11.5 0 11.5-4.9 16.4-1.1 1.1-2.1 2.2-3.1 3.4-0.5 0.5-1 1-1.5 1.6-2.2 2.4-4.3 4.9-6.3 7.4-0.7 0.8-1.3 1.6-2 2.5-2.8 3.5-5.5 7.1-8.2 10.7h27v11c-15.7 0.7-31.3 1.2-47 1-0.6-9-0.6-9 1.7-12.8 0.7-0.7 1.5-1.4 2.2-2.1l3.8-3.8c2.1-2.1 4-4.5 5.9-6.8 0.3-0.5 0.7-0.9 1.1-1.4 0.7-0.9 1.5-1.8 2.2-2.7 1.1-1.4 2.3-2.8 3.4-4.2 3.7-4.4 3.7-4.4 6.7-9.2h-26v-11z" fill="#0A183B"/>
 <path transform="translate(888,244)" d="m0 0h15c0 9.5 0 19 0.1 28.5v13.2 12.8 4.9 6.8 2c0 4.7 0 4.7-1.1 5.8-2.2 0.1-4.4 0.1-6.6 0.1-0.6 0-1.2 0-1.8-0.1h-4.6c-0.3-1.7-0.7-3.3-1-5-0.7 0.6-1.4 1.2-2.1 1.9-5.6 4.4-11.3 4.4-18.2 3.6-6.4-1.2-11.7-4.3-15.7-9.5-5.3-8.2-6.1-16.4-5-26 1.9-6.2 5.1-10.9 10-15 0.6-0.6 1.2-1.1 1.9-1.7 5.5-3.4 11.7-4 18.1-3.3 4.1 1.1 7.5 2.6 11 5v-24z" fill="#A41978"/>
 <path transform="translate(311.19 224.38)" d="m0 0c14.8 13.7 23.5 32.5 24.3 52.7 0.2 20.8-7.2 40.2-21.7 55.2-14.9 15-34 22.7-55.1 23-10.6 0-21-2.1-30.7-6.3 1.7-1.6 3.3-3.3 5-5 0.6 0.2 1.2 0.3 1.8 0.4 0.8 0.2 1.5 0.4 2.3 0.6 0.8 0.1 1.6 0.3 2.4 0.5 13.4 2.8 28.5 3.2 41.5-1.5 1-0.3 2-0.7 3-1 7.1-2.8 13-6.3 19-11 0.6-0.4 1.2-0.8 1.9-1.3 11.9-9.1 20-26 22.4-40.5 2.6-19.7-2.5-37.4-14.3-53.2-0.6-0.8-0.6-0.8-1.2-1.7-8.7-11.9-25.5-19.9-39.4-22.8-21.2-2.8-40.7 0.8-57.8 13.7-13 10.4-21.3 24.6-24.6 40.8-0.1 0.6-0.2 1.2-0.4 1.8-2.9 16.5 1.4 34 10.3 48 3 4.3 6.5 8.3 10.1 12.2l-3 3c-3.3-0.3-4.7-0.8-7.2-3-14.4-17.7-19.8-37.2-17.8-60 2-15.2 8.8-28.6 19-40 0.5-0.6 1.1-1.2 1.6-1.8 29.2-31.6 77.6-29.6 108.6-2.8z" fill="#9E1A74"/>
 <path transform="translate(373,248)" d="m0 0h51v12h-36v16h31v12h-31v17h37v12c-6.5 0.8-12.8 1.1-19.3 1.1h-2.5-9.3c-6.9-0.1-13.8-0.1-20.9-0.1v-70z" fill="#09183B"/>
 <path transform="translate(232.63 221.09)" d="m0 0c9.7 3.7 16.7 17.2 21 26.2 5.8 13.5 6.4 24.9 6.4 39.7h-67v-15h51c-3.8-17.7-8.5-27.7-21-40-1.2-1.1-1.2-1.1-2.4-2.3-0.5-0.6-1.1-1.1-1.6-1.7 1.7-1.2 3.4-2.4 5.2-3.5 0.4-0.4 0.9-0.7 1.4-1.1 2.5-1.6 4-2.4 7-2.3z" fill="#0D1A3E"/>
 <path transform="translate(716,267)" d="m0 0c3.9 3.5 6.7 7.7 7.2 13v7.2 2.7c0 2.8 0 5.6-0.1 8.4v5.7c0 4.7-0.1 9.3-0.1 14h-14c0-1.5 0-1.5-0.1-3 0-3.8-0.1-7.5-0.2-11.2-0.1-1.6-0.1-3.2-0.1-4.8-0.1-2.3-0.1-4.7-0.2-7v-2.1c-0.1-4.4-0.8-7.8-2.4-11.9-4.3-1.1-8.6-1.8-13-1-3.9 2.4-5.6 5.7-7 10-0.2 2.5-0.4 4.8-0.4 7.3 0 0.7-0.1 1.3-0.1 2 0 2.2-0.1 4.4-0.1 6.5-0.1 1.5-0.1 3-0.1 4.4l-0.3 10.8h-14v-54h14c0.3 1.6 0.7 3.3 1 5 0.5-0.3 0.9-0.7 1.4-1.1 0.6-0.4 1.2-0.9 1.8-1.3 0.7-0.5 1.3-0.9 1.9-1.4 7.5-4.7 17.8-2.8 24.9 1.8z" fill="#08173A"/>
 <path transform="translate(758,248)" d="m0 0h15v57h33v13h-48v-70z" fill="#A41777"/>
 <path transform="translate(817.16 250.9)" d="m0 0h3.9 2c1.7 0.1 3.3 0.1 4.9 0.1 0.4 4.3 0.7 8.6 1 13h12v12h-13c0.1 3.8 0.2 7.6 0.4 11.4 0 1.3 0 2.6 0.1 3.9 0 1.9 0.1 3.7 0.1 5.6 0.1 1.7 0.1 1.7 0.1 3.4 0.1 2.8 0.1 2.8 2.3 4.7 2.5 0.2 2.5 0.2 5.2 0.1h2.7c0.7-0.1 1.4-0.1 2.1-0.1 0.5 1.1 1 2.2 1.5 3.2 0.3 0.7 0.6 1.3 0.9 1.9 0.7 2.1 0.8 3.7 0.6 5.9-7.1 3.1-13.3 3.8-20.8 1.4-3.8-1.6-6-3.9-8.2-7.4-2.1-6.5-2.2-13-2.1-19.8v-2.8c0-4.1 0.1-7.4 1.1-11.4h-9v-11c5-1 5-1 8-1v-2.6-3.3c0-1.1 0-2.2-0.1-3.4 0.2-3.9 0.3-3.7 4.3-3.8zm0 0h2.5 2.5c1 0 2 0 3.1 0.1h10v21h-21c-0.1-3.3-0.1-6.5-0.1-9.9v-3.2-2.4c-0.1-0.8-0.1-1.7-0.1-2.5 0.2-2.7 0.5-2.9 3.1-3.1z" fill="#A31A78"/>
 <path transform="translate(491,251)" d="m0 0h15v14h13v11c-6.4 0.5-6.4 0.5-13 1 0 3.5 0 7.1-0.1 10.6v3.1c0 4.9 0.1 9.5 1.1 14.3 4.4 0.8 7.6 1.2 12 0 3.4 7.3 3.4 7.3 3 11-5.3 3.2-12 2.7-18 2-4.9-1.2-7.8-3.2-10.4-7.6-2.2-4.3-2.7-8-2.7-12.8v-1.9-5.9c0-1.3 0-2.7 0.1-4v-9.8h-8v-11h8v-14z" fill="#0C183B"/>
 <path transform="translate(435,244)" d="m0 0h14v73c-4.6 0.3-9.2 0.7-14 1v-74z" fill="#061639"/>
 <path transform="translate(462,264)" d="m0 0h14v54h-15c0.3-17.8 0.7-35.6 1-54z" fill="#08183B"/>
 <path transform="translate(530,264)" d="m0 0h14v54h-14v-54z" fill="#071538"/>
 <path transform="translate(640,276)" d="m0 0c3.3 2.3 5.5 5.3 7 9 0.6 5.2 1.2 11-1.6 15.6-3.7 3.8-7.1 5.5-12.4 5.8-4.2-0.1-7-1.5-10-4.4-3.2-3.9-4.2-8-4-13 1.1-4.9 2.9-8.9 7-12 4.7-2.3 9-2.6 14-1z" fill="#F9F8FA"/>
 <path transform="translate(874.25,275.75)" d="m0 0c4.4 0.1 7.4 0.2 10.8 3.2 4 5.7 3.7 11.3 3 18-1.3 3.6-3.4 5.5-6.3 7.9-3.7 1.5-6.8 1.7-10.7 1.1-3.8-1.7-7.2-3.9-8.9-7.9-1.3-5.7-1.5-10.6 0.9-16.1 1.5-2 3-3.3 5-5 1.7-1.7 3.9-1.2 6.2-1.2z" fill="#FBF9FC"/>
 <path transform="translate(472,240)" d="m0 0c2.9 1.6 2.9 1.6 5 4 0.7 2.4 0.9 4.5 1 7-2.6 3.1-4.5 5.2-8.5 6-3.9 0-5.5-0.6-8.5-3-1.1-2.3-1.1-3.6-1.1-6.1 0-0.7 0.1-1.5 0.1-2.2 0-1.7 0-1.7 2.1-3.7 3.1-2.5 6-2.9 9.9-2zm0 0c2 1.2 3.3 2.4 5 4 0.6 7.2 0.6 7.2-1.9 10.4-3.5 2.6-5.7 3.1-10.1 2.6-2.3-1.3-3.7-2.7-5-5-0.4-2.7-0.3-5.3 0-8 3.8-3.6 6.7-5.3 12-4z" fill="#0F1A3B"/>
</svg>