<?xml version="1.0" encoding="UTF-8"?>
<!-- Generator: visioncortex VTracer 0.6.4 -->
<svg version="1.1" xmlns="http://www.w3.org/2000/svg" width="1024" height="559">
<path d="M0 0 C337.92 0 675.84 0 1024 0 C1024 184.47 1024 368.94 1024 559 C686.08 559 348.16 559 0 559 C0 374.53 0 190.06 0 0 Z " fill="#FEFEFE" transform="translate(0,0)"/>
<path d="M0 0 C0.464878 -0.012256 0.929756 -0.024512 1.408722 -0.03714 C2.911857 -0.069107 4.414559 -0.08793 5.917969 -0.101562 C6.428367 -0.107122 6.938765 -0.112681 7.46463 -0.118408 C16.770024 -0.169538 24.560256 1.397684 33.105469 5.273438 C31.504173 7.013307 29.823783 8.649303 28.105469 10.273438 C27.542954 10.823142 26.980439 11.372847 26.400879 11.939209 C23.069944 14.847833 20.529384 16.579236 16.023575 16.709381 C14.025429 16.67402 12.037854 16.576833 10.044281 16.438232 C-2.885443 15.59245 -13.00761 17.447 -23.769531 25.023438 C-31.270982 30.764674 -36.593472 37.225856 -41.207031 45.460938 C-41.532761 46.023694 -41.858491 46.58645 -42.194092 47.16626 C-45.709314 53.81364 -46.196644 59.349964 -47.894531 67.273438 C-34.034531 67.273438 -20.174531 67.273438 -5.894531 67.273438 C-5.894531 72.223437 -5.894531 77.173437 -5.894531 82.273438 C-19.754531 82.273438 -33.614531 82.273438 -47.894531 82.273438 C-43.511941 99.803798 -38.502244 113.261202 -24.313232 124.199463 C-22.247257 125.686981 -20.088481 126.985595 -17.894531 128.273438 C-17.490249 128.530283 -17.085967 128.787129 -16.669434 129.051758 C-6.625447 135.254109 6.738726 134.622392 18.105469 133.273438 C26.468679 131.752347 33.449522 127.234793 40.053223 122.063721 C41.364565 121.078845 42.740907 120.183145 44.105469 119.273438 C47.405469 122.573438 50.705469 125.873438 54.105469 129.273438 C49.597096 135.952509 43.018573 139.408297 36.105469 143.273438 C35.656714 143.537212 35.207959 143.800986 34.745605 144.072754 C26.18023 148.795833 16.841351 149.830125 7.230469 149.710938 C6.444765 149.706375 6.444765 149.706375 5.643188 149.701721 C-2.766139 149.629685 -10.165456 148.794638 -17.894531 145.273438 C-18.403711 145.053813 -18.912891 144.834189 -19.4375 144.60791 C-26.695264 141.442719 -32.963174 137.504174 -38.894531 132.273438 C-39.229043 131.988071 -39.563555 131.702705 -39.908203 131.408691 C-49.75682 122.89914 -56.477607 111.09674 -60.406738 98.799805 C-60.719249 97.821917 -61.044643 96.847997 -61.38623 95.879883 C-67.043243 79.755355 -64.783915 60.972373 -58.894531 45.273438 C-55.318438 36.625354 -50.0917 29.228512 -43.894531 22.273438 C-43.589668 21.919429 -43.284805 21.56542 -42.970703 21.200684 C-32.760532 9.452371 -15.717589 0.387617 0 0 Z " fill="#0A1B3E" transform="translate(182.89453125,204.7265625)"/>
<path d="M0 0 C0.99 0.495 0.99 0.495 2 1 C-3.28 6.28 -8.56 11.56 -14 17 C-13.01 17.66 -12.02 18.32 -11 19 C-11.375117 19.533672 -11.750234 20.067344 -12.136719 20.617188 C-21.760986 34.533316 -26.234502 47.815747 -26.1875 64.875 C-26.186095 65.537634 -26.186095 65.537634 -26.184662 66.213654 C-26.154984 72.676506 -25.98985 78.781719 -24 85 C-23.844023 85.489844 -23.688047 85.979688 -23.527344 86.484375 C-19.836213 97.749159 -14.07066 107.338083 -6 116 C-5.041051 115.858269 -4.082854 115.711449 -3.125 115.5625 C-2.591328 115.481289 -2.057656 115.400078 -1.507812 115.316406 C0.135067 115.038296 0.135067 115.038296 2 114 C2.33 115.98 2.66 117.96 3 120 C-4.771921 123.345833 -11.490986 124.710063 -19.9375 124.5625 C-20.462249 124.55824 -20.986998 124.55398 -21.527649 124.549591 C-29.876498 124.455379 -36.837609 123.585296 -44 119 C-44.434092 118.737676 -44.868184 118.475352 -45.31543 118.205078 C-48.378658 116.333479 -51.220178 114.268948 -54 112 C-54.355459 111.713184 -54.710918 111.426367 -55.077148 111.130859 C-64.069672 103.649755 -70.153123 92.220045 -73 81 C-73.33 78.03 -73.66 75.06 -74 72 C-60.14 72 -46.28 72 -32 72 C-32 67.05 -32 62.1 -32 57 C-45.86 57 -59.72 57 -74 57 C-72.839531 44.234836 -72.839531 44.234836 -69.375 37.875 C-68.835406 36.848262 -68.835406 36.848262 -68.284912 35.800781 C-65.372344 30.394931 -62.239911 25.451017 -58 21 C-57.674512 20.655337 -57.349023 20.310674 -57.013672 19.955566 C-51.271389 14.036221 -44.650993 10.035912 -37 7 C-36.504758 6.797698 -36.009517 6.595396 -35.499268 6.386963 C-29.322086 4.231262 -22.756553 4.949351 -16.322021 5.267334 C-9.906948 5.721358 -9.906948 5.721358 -3.918457 3.873535 C-2.460965 2.660597 -1.201745 1.463322 0 0 Z " fill="#FBFAFC" transform="translate(209,215)"/>
<path d="M0 0 C4.95 0 9.9 0 15 0 C15 24.42 15 48.84 15 74 C10.38 74 5.76 74 1 74 C0.67 72.35 0.34 70.7 0 69 C-0.403477 69.360937 -0.806953 69.721875 -1.222656 70.09375 C-6.425775 74.070656 -10.997796 74.664107 -17.490479 74.517578 C-23.303622 74.196853 -27.522366 73.149319 -31.95166 69.138184 C-36.59655 64.660929 -40.233536 59.613603 -41.315674 53.099854 C-41.472717 51.117897 -41.519025 49.175483 -41.5 47.1875 C-41.49142 46.138646 -41.49142 46.138646 -41.482666 45.068604 C-41.215254 37.266842 -38.607902 31.801868 -33.551514 25.979004 C-29.386303 21.56075 -24.772782 19.477482 -18.808594 18.722656 C-11.906648 18.422572 -5.747307 20.168462 0 24 C0 16.08 0 8.16 0 0 Z " fill="#A71378" transform="translate(888,244)"/>
<path d="M0 0 C3.982313 2.66007 7.552223 5.684083 11 9 C11.397676 9.378501 11.795352 9.757002 12.205078 10.146973 C23.158864 20.807515 31.697548 36.175547 33.8125 51.4375 C33.905345 52.956783 33.963654 54.478317 34 56 C34.024331 56.531738 34.048662 57.063477 34.07373 57.611328 C34.890707 76.1024 30.257415 94.101298 19 109 C8.084405 122.927328 -6.979769 133.71841 -24.492188 137.546875 C-28.64524 138.338239 -32.774981 138.804774 -37 139 C-37.427485 139.021914 -37.854971 139.043828 -38.29541 139.066406 C-49.660042 139.571688 -61.724571 138.137715 -72 133 C-71.523679 130.904189 -71.183698 130.13961 -69.4375 128.8125 C-67.449361 127.688769 -66.060458 128.294254 -63.885254 128.646973 C-61.864493 129.025375 -59.892761 129.524742 -57.898438 130.023438 C-52.942734 131.12986 -48.136422 131.314234 -43.0625 131.25 C-42.623907 131.246898 -42.185313 131.243796 -41.733429 131.240601 C-35.299669 131.18729 -29.199985 130.920349 -23 129 C-22.370374 128.814617 -22.370374 128.814617 -21.728027 128.625488 C-7.118854 124.23795 6.071817 115.534223 14.6604 102.805908 C17.496757 98.395787 19.866453 93.784688 22 89 C22.297773 88.345156 22.595547 87.690313 22.902344 87.015625 C29.007284 72.315172 27.902856 56.356979 23.52832 41.385742 C18.76736 26.608709 8.312815 14.252064 -4.63916 5.949219 C-16.779912 -1.442976 -28.649576 -4.226144 -42.8125 -4.1875 C-43.256421 -4.186563 -43.700342 -4.185627 -44.157715 -4.184662 C-61.901321 -4.103478 -76.78739 2.086213 -90.327637 13.499756 C-96.171941 18.636845 -100.26099 24.216557 -104 31 C-104.39832 31.676758 -104.796641 32.353516 -105.207031 33.050781 C-108.32275 38.687081 -109.649691 44.757859 -111 51 C-111.280371 52.183359 -111.280371 52.183359 -111.566406 53.390625 C-113.530394 63.486841 -112.35081 74.359476 -109 84 C-108.828394 84.494517 -108.656787 84.989033 -108.47998 85.498535 C-104.626628 96.225249 -98.762237 105.669101 -91 114 C-94 116 -94 116 -96.226562 115.792969 C-99.097869 115.205978 -100.43105 113.914996 -102.284668 111.712402 C-102.644478 111.250435 -103.004287 110.788467 -103.375 110.3125 C-103.951453 109.588611 -103.951453 109.588611 -104.539551 108.850098 C-114.654066 95.627934 -119.232642 80.729758 -119.1875 64.25 C-119.186563 63.807358 -119.185627 63.364716 -119.184662 62.908661 C-119.103307 45.150444 -113.952193 29.704148 -102.492188 15.929688 C-90.221885 1.719864 -73.962297 -8.523628 -55.269043 -11.702637 C-35.521164 -14.290642 -17.048507 -10.482465 0 0 Z " fill="#9C1772" transform="translate(301,216)"/>
<path d="M0 0 C5.127132 4.140617 8.572317 9.382542 10.125 15.808594 C11.102679 22.719695 10.718572 29.520033 7.445312 35.746094 C3.689793 41.612703 -0.319149 46.613774 -7.027344 49.179688 C-14.477197 51.123007 -24.076734 51.366664 -31.273438 48.418457 C-37.758601 45.193947 -42.819771 39.688472 -45.8125 33.121094 C-47.773592 26.843132 -48.236251 19.256873 -45.996094 12.996094 C-43.137189 6.327808 -38.249869 0.486521 -31.875 -3.066406 C-22.044661 -7.213581 -8.671441 -6.267477 0 0 Z " fill="#0A1B3E" transform="translate(651.875,268.19140625)"/>
<path d="M0 0 C16.83 0 33.66 0 51 0 C51 3.96 51 7.92 51 12 C39.12 12 27.24 12 15 12 C15 17.28 15 22.56 15 28 C25.23 28 35.46 28 46 28 C46 31.96 46 35.92 46 40 C35.77 40 25.54 40 15 40 C15 45.61 15 51.22 15 57 C27.21 57 39.42 57 52 57 C52 61.29 52 65.58 52 70 C34.84 70 17.68 70 0 70 C0 46.9 0 23.8 0 0 Z " fill="#07183B" transform="translate(373,248)"/>
<path d="M0 0 C9.874425 4.976259 16.078496 17.164474 20.416504 26.784424 C21.452934 29.226176 22.36548 31.70138 23.234375 34.207031 C23.398086 34.663359 23.561797 35.119687 23.730469 35.589844 C27.19198 45.602479 26.234375 54.184906 26.234375 65.207031 C4.124375 65.207031 -17.985625 65.207031 -40.765625 65.207031 C-40.765625 60.257031 -40.765625 55.307031 -40.765625 50.207031 C-23.935625 50.207031 -7.105625 50.207031 10.234375 50.207031 C8.192666 39.167162 8.192666 39.167162 4.234375 29.082031 C3.944578 28.515649 3.65478 27.949268 3.356201 27.365723 C-0.253076 20.734703 -5.424732 15.466464 -10.765625 10.207031 C-11.543465 9.428881 -12.320857 8.650283 -13.097656 7.871094 C-13.648086 7.321953 -14.198516 6.772812 -14.765625 6.207031 C-13.163614 5.224184 -11.559206 4.245689 -9.953125 3.269531 C-9.501309 2.991738 -9.049492 2.713945 -8.583984 2.427734 C-2.628343 -1.180428 -2.628343 -1.180428 0 0 Z " fill="#06173B" transform="translate(233.765625,221.79296875)"/>
<path d="M0 0 C4.743053 2.790611 8.13117 6.616737 10.139374 11.76329 C11.049027 15.228206 10.803104 18.837294 10.757812 22.394531 C10.754076 23.261771 10.751232 24.129016 10.749237 24.996262 C10.741652 27.263376 10.722049 29.530229 10.699829 31.797241 C10.679259 34.116745 10.670212 36.436291 10.660156 38.755859 C10.638797 43.295705 10.603658 47.835282 10.5625 52.375 C5.9425 52.375 1.3225 52.375 -3.4375 52.375 C-3.441609 51.37646 -3.445718 50.37792 -3.449951 49.349121 C-3.471813 45.624972 -3.526174 41.901868 -3.590088 38.178223 C-3.613207 36.570252 -3.627649 34.962132 -3.633057 33.354004 C-3.642392 31.034537 -3.683475 28.717411 -3.730469 26.398438 C-3.726536 25.685697 -3.722603 24.972956 -3.718552 24.238617 C-3.833666 20.252128 -4.400761 17.985578 -6.981689 14.873535 C-7.792107 14.049019 -8.602524 13.224502 -9.4375 12.375 C-12.7375 12.375 -16.0375 12.375 -19.4375 12.375 C-20.22125 13.1175 -21.005 13.86 -21.8125 14.625 C-22.253359 15.042656 -22.694219 15.460312 -23.148438 15.890625 C-26.612275 19.879287 -26.761603 23.426819 -26.851562 28.546875 C-26.870929 29.229293 -26.890295 29.91171 -26.910248 30.614807 C-26.969811 32.784746 -27.016334 34.954739 -27.0625 37.125 C-27.100701 38.600283 -27.139754 40.075544 -27.179688 41.550781 C-27.27709 45.158738 -27.356839 48.766475 -27.4375 52.375 C-32.0575 52.375 -36.6775 52.375 -41.4375 52.375 C-41.4375 34.885 -41.4375 17.395 -41.4375 -0.625 C-36.8175 -0.625 -32.1975 -0.625 -27.4375 -0.625 C-27.1075 1.025 -26.7775 2.675 -26.4375 4.375 C-25.966992 4.025664 -25.496484 3.676328 -25.011719 3.316406 C-24.389102 2.861367 -23.766484 2.406328 -23.125 1.9375 C-22.510117 1.485039 -21.895234 1.032578 -21.261719 0.566406 C-15.434175 -3.239592 -6.170258 -2.837848 0 0 Z " fill="#08183B" transform="translate(712.4375,264.625)"/>
<path d="M0 0 C14.52 0 29.04 0 44 0 C44 3.3 44 6.6 44 10 C43.310352 10.81082 42.620703 11.621641 41.910156 12.457031 C37.303223 17.881656 32.705492 23.313413 28.1875 28.8125 C27.85178 29.218958 27.51606 29.625415 27.170166 30.044189 C23.980907 33.943554 21.031966 37.957379 18 42 C27.24 42 36.48 42 46 42 C46 45.96 46 49.92 46 54 C30.16 54 14.32 54 -2 54 C-2 50.7 -2 47.4 -2 44 C-1.212383 43.102813 -0.424766 42.205625 0.386719 41.28125 C8.477384 32.02601 16.308998 22.589499 24 13 C24.66 13 25.32 13 26 13 C26 12.34 26 11.68 26 11 C17.42 11 8.84 11 0 11 C0 7.37 0 3.74 0 0 Z " fill="#0D1D3F" transform="translate(555,264)"/>
<path d="M0 0 C4.95 0 9.9 0 15 0 C15 19.14 15 38.28 15 58 C25.89 58 36.78 58 48 58 C48 62.29 48 66.58 48 71 C32.16 71 16.32 71 0 71 C0 47.57 0 24.14 0 0 Z " fill="#A51777" transform="translate(758,247)"/>
<path d="M0 0 C4.95 0 9.9 0 15 0 C15 4.29 15 8.58 15 13 C19.29 13 23.58 13 28 13 C28 16.96 28 20.92 28 25 C23.71 25 19.42 25 15 25 C15.33 33.91 15.66 42.82 16 52 C16.66 52.66 17.32 53.32 18 54 C19.291552 54.027032 20.583266 54.046411 21.875 54.0625 C22.594297 54.074102 23.313594 54.085703 24.054688 54.097656 C26.081854 54.126492 26.081854 54.126492 28 53 C28.505665 54.435726 29.004622 55.873226 29.5 57.3125 C29.643086 57.716621 29.786172 58.120742 29.933594 58.537109 C30.692366 60.759227 31.182707 62.647643 31 65 C27.304383 67.354314 23.92996 67.333686 19.625 67.3125 C18.977891 67.328613 18.330781 67.344727 17.664062 67.361328 C13.175332 67.365853 9.72378 66.583921 6 64 C2.76307 60.811029 0.339511 57.03268 -0.175415 52.433105 C-0.230018 50.674704 -0.22515 48.926958 -0.195312 47.167969 C-0.192483 46.531358 -0.189653 45.894748 -0.186737 45.238846 C-0.175614 43.221533 -0.150525 41.204677 -0.125 39.1875 C-0.11496 37.813157 -0.105836 36.438808 -0.097656 35.064453 C-0.0757 31.709461 -0.041226 28.354808 0 25 C-2.64 25 -5.28 25 -8 25 C-8 21.37 -8 17.74 -8 14 C-5.36 14 -2.72 14 0 14 C0 9.38 0 4.76 0 0 Z " fill="#101F3F" transform="translate(491,251)"/>
<path d="M0 0 C4.95 0 9.9 0 15 0 C15 4.62 15 9.24 15 14 C19.29 14 23.58 14 28 14 C28 17.63 28 21.26 28 25 C23.71 25 19.42 25 15 25 C15.33 34.57 15.66 44.14 16 54 C19.96 54 23.92 54 28 54 C31.428571 61.428571 31.428571 61.428571 31 65 C27.304383 67.354314 23.92996 67.333686 19.625 67.3125 C18.977891 67.328613 18.330781 67.344727 17.664062 67.361328 C13.126285 67.365902 9.791526 66.538097 6 64 C4.574219 62.71875 4.574219 62.71875 3.6875 61.5 C3.381992 61.097813 3.076484 60.695625 2.761719 60.28125 C1.311 57.841067 0.874974 55.631252 0.886475 52.813721 C0.88655 52.193304 0.886626 51.572887 0.886703 50.93367 C0.891865 50.271067 0.897026 49.608463 0.902344 48.925781 C0.903759 48.241949 0.905174 47.558116 0.906631 46.853561 C0.912221 44.673163 0.924772 42.492867 0.9375 40.3125 C0.942516 38.832684 0.947079 37.352866 0.951172 35.873047 C0.962187 32.248658 0.979445 28.624347 1 25 C-1.97 25 -4.94 25 -8 25 C-8 21.04 -8 17.08 -8 13 C-5.36 13 -2.72 13 0 13 C0 8.71 0 4.42 0 0 Z " fill="#A61779" transform="translate(813,251)"/>
<path d="M0 0 C-0.33 1.32 -0.66 2.64 -1 4 C-1.806671 4.097042 -1.806671 4.097042 -2.629639 4.196045 C-13.617809 5.5618 -23.960412 7.041932 -34 12 C-34.499028 12.242021 -34.998057 12.484043 -35.512207 12.733398 C-48.28888 19.099205 -58.182897 28.498665 -65 41 C-65.397031 41.675469 -65.794062 42.350937 -66.203125 43.046875 C-69.323661 48.682469 -70.649399 54.756509 -72 61 C-72.186914 61.788906 -72.373828 62.577812 -72.566406 63.390625 C-74.530394 73.486841 -73.35081 84.359476 -70 94 C-69.828394 94.494517 -69.656787 94.989033 -69.47998 95.498535 C-65.626628 106.225249 -59.762237 115.669101 -52 124 C-55 126 -55 126 -57.226562 125.792969 C-60.097869 125.205978 -61.43105 123.914996 -63.284668 121.712402 C-63.644478 121.250435 -64.004287 120.788467 -64.375 120.3125 C-64.951453 119.588611 -64.951453 119.588611 -65.539551 118.850098 C-75.654066 105.627934 -80.232642 90.729758 -80.1875 74.25 C-80.186563 73.807358 -80.185627 73.364716 -80.184662 72.908661 C-80.103307 55.150444 -74.952193 39.704148 -63.492188 25.929688 C-54.053161 14.99867 -43.226587 7.702409 -30 2 C-29.541899 1.799712 -29.083799 1.599424 -28.611816 1.393066 C-19.538616 -2.362913 -9.534846 -0.84685 0 0 Z " fill="#9B1570" transform="translate(262,206)"/>
<path d="M0 0 C4.62 0 9.24 0 14 0 C14 24.09 14 48.18 14 73 C9.38 73 4.76 73 0 73 C0 48.91 0 24.82 0 0 Z " fill="#061738" transform="translate(435,244)"/>
<path d="M0 0 C4.95 0 9.9 0 15 0 C15 17.82 15 35.64 15 54 C10.05 54 5.1 54 0 54 C0 36.18 0 18.36 0 0 Z " fill="#06193C" transform="translate(461,264)"/>
<path d="M0 0 C4.62 0 9.24 0 14 0 C14 17.49 14 34.98 14 53 C9.38 53 4.76 53 0 53 C0 35.51 0 18.02 0 0 Z " fill="#061637" transform="translate(530,264)"/>
<path d="M0 0 C10.394974 -0.756916 10.394974 -0.756916 14.0625 0.972656 C16.883187 3.278568 18.643365 5.596299 20 9 C20.736728 13.508577 20.828488 18.693669 19.277344 23.011719 C18.308618 24.568739 17.335704 25.747778 16 27 C15.474062 27.504668 15.474062 27.504668 14.9375 28.019531 C11.736685 30.453485 8.117283 30.494414 4.214844 30.351562 C0.805794 29.810443 -1.632777 28.503518 -4 26 C-6.728187 22.474557 -7.523935 19.480514 -7.4375 15.0625 C-7.432102 14.534709 -7.426704 14.006919 -7.421143 13.463135 C-7.27525 9.730472 -6.570943 7.138976 -4.167969 4.183594 C-2.785154 2.782279 -1.400109 1.384062 0 0 Z " fill="#F9FAFB" transform="translate(627,276)"/>
<path d="M0 0 C0.489119 0.001611 0.978237 0.003223 1.482178 0.004883 C5.122782 0.12815 7.607147 0.896516 10.566406 3.109375 C13.278434 6.171037 13.961061 9.07361 14.067627 13.04541 C14.041515 21.726964 14.041515 21.726964 12 25 C10.875 26.296875 10.875 26.296875 9.6875 27.375 C9.336875 27.710156 8.98625 28.045313 8.625 28.390625 C5.430075 30.831193 1.806381 30.866973 -2.09375 30.730469 C-5.467515 30.189954 -7.970234 28.863178 -10.3125 26.375 C-12.640282 22.871328 -12.697729 19.576654 -12.6875 15.5 C-12.686614 14.874482 -12.685728 14.248965 -12.684814 13.604492 C-12.580038 9.547467 -12.138444 6.608709 -9.480469 3.390625 C-6.29866 0.623835 -4.148146 -0.014054 0 0 Z " fill="#FDF8FC" transform="translate(874.3125,275.625)"/>
<path d="M0 0 C6.93 0 13.86 0 21 0 C21 6.93 21 13.86 21 21 C14.07 21 7.14 21 0 21 C0 14.07 0 7.14 0 0 Z " fill="#A70F78" transform="translate(237,300)"/>
<path d="M0 0 C17.338049 -0.657511 32.311871 0.890035 48 9 C48 10.98 48 12.96 48 15 C47.01 15.33 46.02 15.66 45 16 C44.538516 15.746055 44.077031 15.492109 43.601562 15.230469 C34.629327 10.496107 25.88696 8.576331 15.875 7.8125 C14.908771 7.73079 13.942624 7.648111 12.976562 7.564453 C10.651867 7.365201 8.326367 7.178828 6 7 C6 6.67 6 6.34 6 6 C7.98 5.67 9.96 5.34 12 5 C12.33 4.34 12.66 3.68 13 3 C8.71 2.67 4.42 2.34 0 2 C0 1.34 0 0.68 0 0 Z " fill="#A01F77" transform="translate(248,204)"/>
<path d="M0 0 C2.946093 0.697935 4.565897 2.322423 6.714844 4.40625 C7.044844 6.71625 7.374844 9.02625 7.714844 11.40625 C3.964844 16.28125 3.964844 16.28125 1.714844 17.40625 C-1.544537 17.903282 -4.217944 17.688759 -7.097656 16.03125 C-8.891449 14.881829 -9.285997 14.404569 -10.285156 12.40625 C-10.354103 11.032822 -10.369833 9.656229 -10.347656 8.28125 C-10.338633 7.556797 -10.329609 6.832344 -10.320312 6.085938 C-10.30291 5.254492 -10.30291 5.254492 -10.285156 4.40625 C-7.130346 1.149671 -4.592687 -0.241191 0 0 Z " fill="#07193D" transform="translate(470.28515625,239.59375)"/>
<path d="M0 0 C2.475 0.495 2.475 0.495 5 1 C5.33 2.32 5.66 3.64 6 5 C5.570863 5.284963 5.570863 5.284963 5.133057 5.575684 C-5.013562 12.402217 -13.031697 20.263053 -19 31 C-19.99 30.01 -20.98 29.02 -22 28 C-22.66 28 -23.32 28 -24 28 C-22.803731 23.463819 -21.028476 20.247299 -18 16.6875 C-17.609897 16.219651 -17.219795 15.751802 -16.817871 15.269775 C-11.964731 9.590467 -6.375086 3.969005 0 0 Z " fill="#97136C" transform="translate(215,217)"/>
<path d="M0 0 C2.946093 0.697935 4.565897 2.322423 6.714844 4.40625 C6.714844 7.04625 6.714844 9.68625 6.714844 12.40625 C2.964844 16.28125 2.964844 16.28125 0.714844 17.40625 C-1.294076 17.536361 -3.26945 17.45007 -5.285156 17.40625 C-6.935156 15.75625 -8.585156 14.10625 -10.285156 12.40625 C-10.285156 9.76625 -10.285156 7.12625 -10.285156 4.40625 C-6.93967 1.162142 -4.72787 -0.248291 0 0 Z " fill="#09193A" transform="translate(538.28515625,239.59375)"/>
<path d="M0 0 C4.62 0 9.24 0 14 0 C14 24.42 14 48.84 14 74 C9.38 74 4.76 74 0 74 C0 73.34 0 72.68 0 72 C3.96 72 7.92 72 12 72 C12 48.57 12 25.14 12 1 C8.37 1 4.74 1 1 1 C1 8.92 1 16.84 1 25 C0.67 25 0.34 25 0 25 C0 16.75 0 8.5 0 0 Z " fill="#A43981" transform="translate(889,244)"/>
<path d="M0 0 C0.33 0 0.66 0 1 0 C1 6.27 1 12.54 1 19 C-21.11 19 -43.22 19 -66 19 C-66 14.05 -66 9.1 -66 4 C-49.17 4 -32.34 4 -15 4 C-14.67 3.01 -14.34 2.02 -14 1 C-13.505 2.98 -13.505 2.98 -13 5 C-15.377925 6.188963 -17.23477 6.094344 -19.816895 6.021729 C-20.54885 6.007317 -20.54885 6.007317 -21.295593 5.992615 C-22.908147 5.959639 -24.520429 5.919302 -26.132812 5.878906 C-27.250957 5.854604 -28.369111 5.83076 -29.487274 5.807358 C-32.430109 5.74453 -35.372766 5.67546 -38.31543 5.605103 C-41.318277 5.534407 -44.32125 5.469597 -47.324219 5.404297 C-53.216288 5.275302 -59.108162 5.13917 -65 5 C-65 9.29 -65 13.58 -65 18 C-43.55 18 -22.1 18 0 18 C0 12.06 0 6.12 0 0 Z " fill="#495064" transform="translate(259,268)"/>
<path d="M0 0 C0.66 0 1.32 0 2 0 C2 17.16 2 34.32 2 52 C5.63 52 9.26 52 13 52 C13.495 49.03 13.495 49.03 14 46 C14.33 46 14.66 46 15 46 C15 48.64 15 51.28 15 54 C10.05 54 5.1 54 0 54 C0 36.18 0 18.36 0 0 Z " fill="#3B4255" transform="translate(461,264)"/>
<path d="M0 0 C3.020772 1.304424 4.269562 3.458221 6.0625 6.140625 C6.72795 7.105007 7.394613 8.068554 8.0625 9.03125 C8.387344 9.503691 8.712187 9.976133 9.046875 10.462891 C10.624902 12.681232 12.332261 14.789949 14.0625 16.890625 C11.0625 18.890625 11.0625 18.890625 8.855469 18.714844 C5.815254 18.1008 4.438513 16.530745 2.521484 14.185547 C2.143145 13.696348 1.764805 13.207148 1.375 12.703125 C0.985059 12.233262 0.595117 11.763398 0.193359 11.279297 C-2.40949 8.017949 -3.89619 4.926925 -4.9375 0.890625 C-3.105315 0.21718 -1.979695 -0.111757 0 0 Z " fill="#99146D" transform="translate(195.9375,313.109375)"/>
<path d="M0 0 C16.83 0 33.66 0 51 0 C51 0.33 51 0.66 51 1 C37.8 1.33 24.6 1.66 11 2 C10.67 2.33 10.34 2.66 10 3 C7.69 3 5.38 3 3 3 C2.67 20.49 2.34 37.98 2 56 C1.67 56 1.34 56 1 56 C0.505 28.28 0.505 28.28 0 0 Z " fill="#041030" transform="translate(373,248)"/>
<path d="M0 0 C6.93 0 13.86 0 21 0 C21 6.93 21 13.86 21 21 C14.07 21 7.14 21 0 21 C0 14.07 0 7.14 0 0 Z M2 2 C2 7.94 2 13.88 2 20 C7.94 20 13.88 20 20 20 C20 14.06 20 8.12 20 2 C14.06 2 8.12 2 2 2 Z " fill="#982F78" transform="translate(237,300)"/>
<path d="M0 0 C0.33 0.66 0.66 1.32 1 2 C17.5 2 34 2 51 2 C51 2.66 51 3.32 51 4 C33.84 4 16.68 4 -1 4 C-0.67 2.68 -0.34 1.36 0 0 Z " fill="#383F57" transform="translate(374,314)"/>
<path d="M0 0 C1.32 0.66 2.64 1.32 4 2 C5.65 6.29 7.3 10.58 9 15 C7.35 15.66 5.7 16.32 4 17 C1.907355 15.900773 1.078924 15.159414 0.015625 13.011719 C-2.565762 5.175365 -2.565762 5.175365 -1 1 C-0.67 0.67 -0.34 0.34 0 0 Z " fill="#A21773" transform="translate(188,298)"/>
<path d="M0 0 C4.29 0 8.58 0 13 0 C13 3.96 13 7.92 13 12 C12.67 12 12.34 12 12 12 C12 8.37 12 4.74 12 1 C8.37 1 4.74 1 1 1 C1 5.29 1 9.58 1 14 C-4 18 -4 18 -6 18 C-4.95125 20.621875 -4.350687 21.793714 -1.875 23.25 C-1.25625 23.4975 -0.6375 23.745 0 24 C-2.64 24 -5.28 24 -8 24 C-8 20.37 -8 16.74 -8 13 C-5.36 13 -2.72 13 0 13 C0 8.71 0 4.42 0 0 Z " fill="#900F67" transform="translate(814,252)"/>
<path d="M0 0 C0.33 0 0.66 0 1 0 C1.060586 0.493711 1.121172 0.987422 1.183594 1.496094 C1.309277 2.45709 1.309277 2.45709 1.4375 3.4375 C1.518711 4.075586 1.599922 4.713672 1.683594 5.371094 C1.849387 7.035821 1.849387 7.035821 3 8 C3 12.29 3 16.58 3 21 C0.074769 22.950154 -0.422587 23.254044 -3.652344 23.265625 C-4.693584 23.269492 -4.693584 23.269492 -5.755859 23.273438 C-6.475801 23.265703 -7.195742 23.257969 -7.9375 23.25 C-9.011611 23.261602 -9.011611 23.261602 -10.107422 23.273438 C-10.802871 23.270859 -11.49832 23.268281 -12.214844 23.265625 C-12.845115 23.263369 -13.475386 23.261113 -14.124756 23.258789 C-16 23 -16 23 -20 21 C-13.4 21 -6.8 21 0 21 C0 14.07 0 7.14 0 0 Z " fill="#FEEDFC" transform="translate(258,300)"/>
<path d="M0 0 C1.761719 1.019531 1.761719 1.019531 3 2 C2.648086 1.993635 2.296172 1.987271 1.933594 1.980713 C-5.685837 1.754079 -5.685837 1.754079 -12.503906 4.589844 C-13.874439 5.780976 -15.092326 7.067675 -16.316406 8.40625 C-18.202021 10.19124 -19.467853 10.601062 -22 11 C-25.142194 16.424016 -25.142194 16.424016 -28 22 C-27.682701 16.637639 -26.424514 13.135675 -23 9 C-22.565586 8.471484 -22.131172 7.942969 -21.683594 7.398438 C-15.933392 1.037179 -8.497662 -1.290572 0 0 Z " fill="#991C72" transform="translate(876,263)"/>
<path d="M0 0 C3.577834 1.651308 6.755636 3.772203 10 6 C10.33 7.98 10.66 9.96 11 12 C10.34 12.66 9.68 13.32 9 14 C5.335543 12.524489 3.549305 10.532843 1.25 7.375 C0.93418 6.954766 0.618359 6.534531 0.292969 6.101562 C-0.478456 5.072996 -1.240235 4.037208 -2 3 C-1.34 2.01 -0.68 1.02 0 0 Z " fill="#A31573" transform="translate(307,224)"/>
<path d="M0 0 C-0.375117 0.121172 -0.750234 0.242344 -1.136719 0.367188 C-1.904355 0.618555 -1.904355 0.618555 -2.6875 0.875 C-3.186367 1.037422 -3.685234 1.199844 -4.199219 1.367188 C-5.90082 1.930224 -5.90082 1.930224 -7.083252 2.512207 C-10.692801 4.170231 -13.881758 4.238935 -17.8125 4.125 C-18.40998 4.115977 -19.007461 4.106953 -19.623047 4.097656 C-21.082463 4.074306 -22.541009 4.041567 -24 4 C-24 3.34 -24 2.68 -24 2 C-25.32 1.34 -26.64 0.68 -28 0 C-27.567681 0.005237 -27.135361 0.010474 -26.689941 0.015869 C-19.007312 0.09647 -11.442724 0.16756 -3.820312 -0.878906 C-2 -1 -2 -1 0 0 Z " fill="#F9E6F6" transform="translate(276,354)"/>
<path d="M0 0 C4.29 0 8.58 0 13 0 C13 0.33 13 0.66 13 1 C9.04 1 5.08 1 1 1 C1.33 7.6 1.66 14.2 2 21 C2.33 21 2.66 21 3 21 C3.33 23.64 3.66 26.28 4 29 C6.31 29 8.62 29 11 29 C11 29.33 11 29.66 11 30 C8.36 30 5.72 30 3 30 C2.01 29.01 1.02 28.02 0 27 C0 18.09 0 9.18 0 0 Z " fill="#F9E0F4" transform="translate(828,276)"/>
<path d="M0 0 C0.66 1.32 1.32 2.64 2 4 C-0.377925 5.188963 -2.23477 5.094344 -4.816895 5.021729 C-5.54885 5.007317 -5.54885 5.007317 -6.295593 4.992615 C-7.908147 4.959639 -9.520429 4.919302 -11.132812 4.878906 C-12.250957 4.854604 -13.369111 4.83076 -14.487274 4.807358 C-17.430109 4.74453 -20.372766 4.67546 -23.31543 4.605103 C-26.318277 4.534407 -29.32125 4.469597 -32.324219 4.404297 C-38.216285 4.275302 -44.108179 4.139714 -50 4 C-50.33 4.99 -50.66 5.98 -51 7 C-51 5.68 -51 4.36 -51 3 C-34.17 3 -17.34 3 0 3 C0 2.01 0 1.02 0 0 Z " fill="#575B71" transform="translate(244,269)"/>
<path d="M0 0 C0.33 0 0.66 0 1 0 C1 16.83 1 33.66 1 51 C-0.32 50.67 -1.64 50.34 -3 50 C-2.34 49.34 -1.68 48.68 -1 48 C-0.67 32.16 -0.34 16.32 0 0 Z " fill="#06132D" transform="translate(542,265)"/>
<path d="M0 0 C-1.993746 0.828445 -3.995876 1.634523 -6 2.4375 C-6.553008 2.667598 -7.106016 2.897695 -7.675781 3.134766 C-15.432256 6.210609 -23.292973 6.141072 -31.5 6.0625 C-32.427081 6.057469 -33.354164 6.052909 -34.28125 6.048828 C-36.52089 6.037967 -38.760427 6.020796 -41 6 C-41 5.67 -41 5.34 -41 5 C-40.531023 4.974944 -40.062046 4.949888 -39.578857 4.924072 C-37.448147 4.807823 -35.317847 4.685228 -33.1875 4.5625 C-32.449512 4.523184 -31.711523 4.483867 -30.951172 4.443359 C-29.882861 4.380518 -29.882861 4.380518 -28.792969 4.316406 C-28.138367 4.279749 -27.483765 4.243091 -26.809326 4.205322 C-25.069379 4.007873 -23.643284 3.58087 -22 3 C-20.957514 3.005401 -19.914773 3.049654 -18.875 3.125 C-13.762864 3.222892 -9.083357 1.28982 -4.421875 -0.660156 C-2.635484 -1.087123 -1.694008 -0.625728 0 0 Z " fill="#F9E4F6" transform="translate(289,342)"/>
<path d="M0 0 C1.32 0.66 2.64 1.32 4 2 C3.480508 2.424102 2.961016 2.848203 2.425781 3.285156 C-2.184071 7.132967 -5.769354 10.889988 -9 16 C-10 12 -10 12 -9.257812 10.265625 C-7.935949 7.621898 -5.994019 5.771679 -3.875 3.75 C-3.502461 3.386484 -3.129922 3.022969 -2.746094 2.648438 C-1.835256 1.760955 -0.91825 0.879811 0 0 Z " fill="#0F1C3B" transform="translate(154,229)"/>
<path d="M0 0 C-2.282884 2.64334 -4.603413 4.209787 -8 5 C-10.611809 5.221591 -13.193865 5.190153 -15.8125 5.125 C-16.851807 5.111465 -16.851807 5.111465 -17.912109 5.097656 C-19.60844 5.074259 -21.304032 5.041482 -23 5 C-23 4.67 -23 4.34 -23 4 C-22.40832 3.962617 -21.816641 3.925234 -21.207031 3.886719 C-16.058353 3.604124 -16.058353 3.604124 -11.5 1.4375 C-8.202845 -0.962549 -3.876336 -0.22802 0 0 Z " fill="#08122D" transform="translate(650,313)"/>
<path d="M0 0 C1.309688 0.005364 2.619033 0.00002 3.928711 -0.006348 C8.801239 -0.009795 13.511797 0.258235 18.311523 1.130371 C18.311523 1.460371 18.311523 1.790371 18.311523 2.130371 C14.681523 2.460371 11.051523 2.790371 7.311523 3.130371 C6.981523 2.800371 6.651523 2.470371 6.311523 2.130371 C4.415591 2.103157 2.520058 2.083431 0.624023 2.067871 C0.093574 2.059492 -0.436875 2.051113 -0.983398 2.04248 C-3.499006 2.027047 -5.849982 2.095118 -8.313477 2.630371 C-10.625347 3.117081 -12.645744 3.23279 -15.000977 3.192871 C-15.698359 3.183848 -16.395742 3.174824 -17.114258 3.165527 C-17.63375 3.153926 -18.153242 3.142324 -18.688477 3.130371 C-13.935135 -1.063754 -5.9318 -0.028838 0 0 Z " fill="#F8E2F5" transform="translate(256.6884765625,210.86962890625)"/>
<path d="M0 0 C0.66 0.66 1.32 1.32 2 2 C0.162977 3.912533 -1.684729 5.813953 -3.541992 7.706787 C-4.169202 8.348862 -4.79367 8.993629 -5.415039 9.641357 C-9.882256 14.292901 -14.364358 17.827637 -20 21 C-20.33 20.34 -20.66 19.68 -21 19 C-20.703435 18.794314 -20.40687 18.588628 -20.101318 18.376709 C-12.516136 13.081615 -5.269267 7.748923 0 0 Z " fill="#FCE8F9" transform="translate(320,324)"/>
<path d="M0 0 C3.443485 1.42489 4.933479 2.900219 7 6 C6.01 6.66 5.02 7.32 4 8 C-0.676923 7.261538 -0.676923 7.261538 -2.3125 5.9375 C-3 5 -3 5 -3 2 C-2.01 1.34 -1.02 0.68 0 0 Z " fill="#9A1872" transform="translate(203,324)"/>
<path d="M0 0 C1.65 1.65 3.3 3.3 5 5 C5.94875 4.855625 6.8975 4.71125 7.875 4.5625 C8.675508 4.440684 8.675508 4.440684 9.492188 4.316406 C11.135067 4.038296 11.135067 4.038296 13 3 C13.33 4.98 13.66 6.96 14 9 C11.69 9.66 9.38 10.32 7 11 C6.67 9.68 6.34 8.36 6 7 C4.68 6.34 3.36 5.68 2 5 C1.34 3.35 0.68 1.7 0 0 Z " fill="#F3E6F3" transform="translate(198,326)"/>
<path d="M0 0 C0.66 1.32 1.32 2.64 2 4 C2.33 4.33 2.66 4.66 3 5 C3 7.31 3 9.62 3 12 C6.3 12.33 9.6 12.66 13 13 C13 13.33 13 13.66 13 14 C8.71 14 4.42 14 0 14 C0 9.38 0 4.76 0 0 Z " fill="#F3D3EB" transform="translate(828,251)"/>
<path d="M0 0 C3.63 0 7.26 0 11 0 C11 0.33 11 0.66 11 1 C8.69 1.33 6.38 1.66 4 2 C3.309102 4.072695 2.87114 5.417456 2.683594 7.480469 C2.641699 7.921973 2.599805 8.363477 2.556641 8.818359 C2.497666 9.496084 2.497666 9.496084 2.4375 10.1875 C2.394316 10.650918 2.351133 11.114336 2.306641 11.591797 C2.201259 12.727575 2.100194 13.863752 2 15 C1.01 15.495 1.01 15.495 0 16 C0 10.72 0 5.44 0 0 Z " fill="#A20F72" transform="translate(890,245)"/>
<path d="M0 0 C1.32 0.33 2.64 0.66 4 1 C3.67 1.33 3.34 1.66 3 2 C2.67 7.94 2.34 13.88 2 20 C1.34 20.33 0.68 20.66 0 21 C0 14.07 0 7.14 0 0 Z " fill="#FEF5FC" transform="translate(829,277)"/>
<path d="M0 0 C7.59 0 15.18 0 23 0 C23 2.97 23 5.94 23 9 C22.01 9.66 21.02 10.32 20 11 C19.945042 10.084034 19.906779 9.167063 19.875 8.25 C19.851797 7.739531 19.828594 7.229062 19.804688 6.703125 C20 5 20 5 22 1 C14.74 1 7.48 1 0 1 C0 0.67 0 0.34 0 0 Z " fill="#081637" transform="translate(576,265)"/>
<path d="M0 0 C3.444191 7.298405 3.444191 7.298405 3 11 C1.35 11.33 -0.3 11.66 -2 12 C-2 11.01 -2 10.02 -2 9 C-1.34 8.67 -0.68 8.34 0 8 C0 6.35 0 4.7 0 3 C-2.97 3 -5.94 3 -9 3 C-9 2.67 -9 2.34 -9 2 C-7.875975 1.663394 -6.750739 1.330829 -5.625 1 C-4.998516 0.814375 -4.372031 0.62875 -3.726562 0.4375 C-2 0 -2 0 0 0 Z " fill="#952472" transform="translate(841,305)"/>
<path d="M0 0 C0.33 0 0.66 0 1 0 C2.584462 4.654358 3.662725 9.062051 3 14 C2.363021 15.019167 1.69469 16.019261 1 17 C0.523794 19.318235 0.244957 21.647122 0 24 C-0.66 23.67 -1.32 23.34 -2 23 C-1.01 11.615 -1.01 11.615 0 0 Z " fill="#F7DDF1" transform="translate(335,273)"/>
<path d="M0 0 C1 2 1 2 0.808594 3.066406 C-0.524988 8.442845 -4.029058 11.411288 -8 15 C-8.33 14.34 -8.66 13.68 -9 13 C-7.879293 11.205614 -6.752699 9.414998 -5.625 7.625 C-5.149336 6.863164 -5.149336 6.863164 -4.664062 6.085938 C-4.354688 5.596094 -4.045312 5.10625 -3.726562 4.601562 C-3.443774 4.151196 -3.160986 3.70083 -2.869629 3.236816 C-2.009999 2.014221 -1.087685 1.021007 0 0 Z " fill="#F6DFF0" transform="translate(205,234)"/>
<path d="M0 0 C3.875 1.875 3.875 1.875 5 3 C6.180153 3.229238 7.369909 3.410716 8.5625 3.5625 C9.203164 3.646289 9.843828 3.730078 10.503906 3.816406 C11.244473 3.907285 11.244473 3.907285 12 4 C12 3.01 12 2.02 12 1 C13.32 1 14.64 1 16 1 C14.25 4.875 14.25 4.875 12 6 C8.653 6.510393 6.044284 6.263214 3.125 4.5 C1.02439 3.073171 1.02439 3.073171 0 0 Z " fill="#181F38" transform="translate(460,251)"/>
<path d="M0 0 C2.850193 0.675217 4.711496 2.338278 6.714844 4.40625 C6.714844 5.06625 6.714844 5.72625 6.714844 6.40625 C6.054844 6.40625 5.394844 6.40625 4.714844 6.40625 C4.054844 5.41625 3.394844 4.42625 2.714844 3.40625 C0.404844 3.40625 -1.905156 3.40625 -4.285156 3.40625 C-4.945156 4.06625 -5.605156 4.72625 -6.285156 5.40625 C-7.605156 5.07625 -8.925156 4.74625 -10.285156 4.40625 C-7.130346 1.149671 -4.592687 -0.241191 0 0 Z " fill="#2D344A" transform="translate(538.28515625,239.59375)"/>
<path d="M0 0 C2.761478 2.204541 2.939664 5.231622 3.625 8.535156 C4.158849 12.044103 4.17354 15.461716 4 19 C1.471528 16.885857 1.104965 14.416647 0.375 11.308594 C-0.238456 7.532008 -0.159187 3.820495 0 0 Z " fill="#081430" transform="translate(121,288)"/>
<path d="M0 0 C0.66 0.66 1.32 1.32 2 2 C2.66 1.67 3.32 1.34 4 1 C4 2.32 4 3.64 4 5 C4.66 5 5.32 5 6 5 C6 5.66 6 6.32 6 7 C7.98 7 9.96 7 12 7 C12 7.66 12 8.32 12 9 C6.086996 9.613453 6.086996 9.613453 3.421875 8.109375 C2.213516 7.123243 1.084818 6.119812 0 5 C0 3.35 0 1.7 0 0 Z " fill="#071433" transform="translate(460,246)"/>
<path d="M0 0 C0.33 0.66 0.66 1.32 1 2 C1.66 2 2.32 2 3 2 C1.5121 5.787381 -0.728659 7.652625 -4 10 C-4.33 8.68 -4.66 7.36 -5 6 C-3.35 4.02 -1.7 2.04 0 0 Z " fill="#071639" transform="translate(559,301)"/>
<path d="M0 0 C3.96 0 7.92 0 12 0 C11.67 1.32 11.34 2.64 11 4 C10.2575 3.814375 9.515 3.62875 8.75 3.4375 C5.416135 2.766949 3.018133 3.490934 0 5 C0 3.35 0 1.7 0 0 Z " fill="#07142F" transform="translate(436,245)"/>
<path d="M0 0 C5.913004 -0.613453 5.913004 -0.613453 8.578125 0.890625 C9.9375 2 9.9375 2 12 4 C12.33 6.31 12.66 8.62 13 11 C12.01 11.495 12.01 11.495 11 12 C10.67 9.69 10.34 7.38 10 5 C5.05 3.02 5.05 3.02 0 1 C0 0.67 0 0.34 0 0 Z " fill="#2B3249" transform="translate(465,240)"/>
<path d="M0 0 C4.95 0 9.9 0 15 0 C14.01 1.485 14.01 1.485 13 3 C10.03 3 7.06 3 4 3 C4 2.34 4 1.68 4 1 C2.68 0.67 1.36 0.34 0 0 Z " fill="#05112E" transform="translate(182,340)"/>
<path d="M0 0 C0.66 0 1.32 0 2 0 C1.582174 5.563681 1.179937 10.793548 -1 16 C-2.454944 11.453302 -2.794989 6.543607 -1 2.0625 C-0.505 1.041562 -0.505 1.041562 0 0 Z " fill="#071532" transform="translate(135,256)"/>
<path d="M0 0 C1.32 0.33 2.64 0.66 4 1 C3.044514 2.46027 2.085766 3.91821 1.125 5.375 C0.855586 5.7875 0.586172 6.2 0.308594 6.625 C-0.992454 8.592439 -2.218059 10.425664 -4 12 C-4.33 10.68 -4.66 9.36 -5 8 C-4.01 6.68 -3.02 5.36 -2 4 C-1.34 4 -0.68 4 0 4 C-0.33 3.01 -0.66 2.02 -1 1 C-0.67 0.67 -0.34 0.34 0 0 Z " fill="#F9E6F6" transform="translate(194,233)"/>
<path d="M0 0 C0 0.66 0 1.32 0 2 C1.32 2.33 2.64 2.66 4 3 C0.671734 4.006404 -2.314451 4.121112 -5.75 4.0625 C-6.256602 4.057988 -6.763203 4.053477 -7.285156 4.048828 C-8.523489 4.037146 -9.761761 4.019214 -11 4 C-11 3.34 -11 2.68 -11 2 C-7.165025 0.195306 -4.220557 -0.261065 0 0 Z " fill="#F9EAF7" transform="translate(876,260)"/>
<path d="M0 0 C0.913598 2.250429 1.070722 3.576914 0.441406 5.917969 C0.302832 6.449707 0.164258 6.981445 0.021484 7.529297 C-0.12998 8.076504 -0.281445 8.623711 -0.4375 9.1875 C-0.585098 9.746309 -0.732695 10.305117 -0.884766 10.880859 C-1.249137 12.256066 -1.621056 13.628751 -2 15 C-2.99 15 -3.98 15 -5 15 C-3.980233 9.601232 -2.812884 4.781903 0 0 Z " fill="#1D2841" transform="translate(127,244)"/>
<path d="M0 0 C1.65 1.65 3.3 3.3 5 5 C3.35 6.32 1.7 7.64 0 9 C-0.33 6.36 -0.66 3.72 -1 1 C-0.67 0.67 -0.34 0.34 0 0 Z " fill="#13203D" transform="translate(232,330)"/>
<path d="M0 0 C3.96 0 7.92 0 12 0 C12 0.99 12 1.98 12 3 C5.565 3.495 5.565 3.495 -1 4 C-0.67 2.68 -0.34 1.36 0 0 Z " fill="#9E1471" transform="translate(828,272)"/>
<path d="M0 0 C0.33 0 0.66 0 1 0 C0.587111 4.987267 0.194953 9.463764 -2 14 C-3.016588 10.696089 -3.550548 7.431751 -3 4 C-2.15552 2.399415 -1.241951 1.345447 0 0 Z " fill="#FBE7F7" transform="translate(326,291)"/>
<path d="M0 0 C0.66 0 1.32 0 2 0 C1 3 1 3 -0.546875 3.992188 C-3.636268 5.536884 -6.875954 5.214152 -10.25 5.125 C-10.899688 5.115977 -11.549375 5.106953 -12.21875 5.097656 C-13.812886 5.074213 -15.406247 5.041404 -17 5 C-17 4.67 -17 4.34 -17 4 C-16.217539 3.939414 -15.435078 3.878828 -14.628906 3.816406 C-13.606751 3.732008 -12.584617 3.64736 -11.5625 3.5625 C-11.04623 3.523184 -10.529961 3.483867 -9.998047 3.443359 C-9.50498 3.401465 -9.011914 3.35957 -8.503906 3.316406 C-7.820502 3.26142 -7.820502 3.26142 -7.123291 3.205322 C-5.902714 3.092193 -5.902714 3.092193 -5 2 C-3.35 2 -1.7 2 0 2 C0 1.34 0 0.68 0 0 Z " fill="#8F1168" transform="translate(883,313)"/>
<path d="M0 0 C3.96 0 7.92 0 12 0 C12 1.65 12 3.3 12 5 C11.01 4.01 10.02 3.02 9 2 C5.766433 1.66629 5.766433 1.66629 2.777344 2.667969 C1.816493 3.401522 0.903511 4.196879 0 5 C0 3.35 0 1.7 0 0 Z " fill="#071330" transform="translate(672,265)"/>
<path d="M0 0 C0.66 0 1.32 0 2 0 C0.548883 4.111498 -1.485175 7.447504 -4 11 C-4.33 9.68 -4.66 8.36 -5 7 C-3.35 4.69 -1.7 2.38 0 0 Z " fill="#F7E2F3" transform="translate(319,310)"/>
<path d="M0 0 C1.65 0 3.3 0 5 0 C4.01 2.64 3.02 5.28 2 8 C1.01 8.495 1.01 8.495 0 9 C0 6.03 0 3.06 0 0 Z " fill="#081633" transform="translate(463,265)"/>
<path d="M0 0 C0.631641 0.101836 1.263281 0.203672 1.914062 0.308594 C2.396172 0.392383 2.878281 0.476172 3.375 0.5625 C1.848409 2.323952 0.64992 3.045715 -1.625 3.5625 C-3.186184 3.629909 -4.750025 3.647645 -6.3125 3.625 C-7.524863 3.611465 -7.524863 3.611465 -8.761719 3.597656 C-9.684043 3.580254 -9.684043 3.580254 -10.625 3.5625 C-10.625 3.2325 -10.625 2.9025 -10.625 2.5625 C-8.975 2.5625 -7.325 2.5625 -5.625 2.5625 C-5.625 1.9025 -5.625 1.2425 -5.625 0.5625 C-3.299184 -0.600408 -2.505278 -0.417546 0 0 Z " fill="#06122F" transform="translate(206.625,349.4375)"/>
<path d="M0 0 C0.66 0.33 1.32 0.66 2 1 C1.01 2.98 0.02 4.96 -1 7 C-3.31 7.66 -5.62 8.32 -8 9 C-8 8.34 -8 7.68 -8 7 C-6.68 7 -5.36 7 -4 7 C-3.34 5.68 -2.68 4.36 -2 3 C-2.33 2.34 -2.66 1.68 -3 1 C-2.01 0.67 -1.02 0.34 0 0 Z " fill="#E7DEE9" transform="translate(235,214)"/>
<path d="M0 0 C0.66 0.33 1.32 0.66 2 1 C-1.413698 4.111601 -4.529221 5.832374 -9 7 C-9.33 6.34 -9.66 5.68 -10 5 C-6.7 3.35 -3.4 1.7 0 0 Z " fill="#F6DEF1" transform="translate(297,344)"/>
<path d="M0 0 C1.98 1.65 3.96 3.3 6 5 C5.01 5.99 4.02 6.98 3 8 C1.68 8 0.36 8 -1 8 C-1 7.34 -1 6.68 -1 6 C-0.34 5.67 0.32 5.34 1 5 C0.505 2.525 0.505 2.525 0 0 Z " fill="#8B1B6A" transform="translate(204,324)"/>
<path d="M0 0 C0.33 0 0.66 0 1 0 C1 3.96 1 7.92 1 12 C-0.32 11.34 -1.64 10.68 -3 10 C-2.67 9.67 -2.34 9.34 -2 9 C-1.793959 7.672181 -1.633704 6.337041 -1.5 5 C-1.111111 1.111111 -1.111111 1.111111 0 0 Z " fill="#9D2479" transform="translate(805,305)"/>
<path d="M0 0 C0.66 0.66 1.32 1.32 2 2 C1.766098 4.183083 1.410344 5.597808 -0.179688 7.15625 C-1.429133 8.144512 -2.691216 9.092062 -4 10 C-4.66 9.67 -5.32 9.34 -6 9 C-5.734453 8.685469 -5.468906 8.370938 -5.195312 8.046875 C-3.066553 5.467502 -1.358786 3.057267 0 0 Z " fill="#071432" transform="translate(647,295)"/>
<path d="M0 0 C0.33 0.99 0.66 1.98 1 3 C0.67 3.66 0.34 4.32 0 5 C-0.224678 6.536689 -0.407968 8.079681 -0.5625 9.625 C-0.646289 10.442266 -0.730078 11.259531 -0.816406 12.101562 C-0.876992 12.728047 -0.937578 13.354531 -1 14 C-1.33 14 -1.66 14 -2 14 C-2.33 10.37 -2.66 6.74 -3 3 C-2.01 2.01 -1.02 1.02 0 0 Z " fill="#252F49" transform="translate(621,280)"/>
<path d="M0 0 C0.33 1.32 0.66 2.64 1 4 C-0.65 7.3 -2.3 10.6 -4 14 C-5.020629 10.938113 -5.110465 10.586525 -4.0625 7.8125 C-3.867852 7.282695 -3.673203 6.752891 -3.472656 6.207031 C-3.31668 5.808711 -3.160703 5.410391 -3 5 C-2.34 5 -1.68 5 -1 5 C-0.67 3.35 -0.34 1.7 0 0 Z " fill="#131D3A" transform="translate(142,244)"/>
<path d="M0 0 C0.99 0.33 1.98 0.66 3 1 C0 4 -3 7 -6 10 C-5.384615 5.446154 -5.384615 5.446154 -3.4375 3.1875 C-2 2 -2 2 0 2 C0 1.34 0 0.68 0 0 Z " fill="#FBE6F7" transform="translate(204,223)"/>
<path d="M0 0 C-1.65 1.65 -3.3 3.3 -5 5 C-7 2.25 -7 2.25 -7 0 C-3.989683 -0.934236 -3.133497 -1.044499 0 0 Z M-8 2 C-7.67 2.66 -7.34 3.32 -7 4 C-7.66 3.67 -8.32 3.34 -9 3 C-8.67 2.67 -8.34 2.34 -8 2 Z " fill="#141F3A" transform="translate(211,214)"/>
<path d="M0 0 C3.63 0.99 7.26 1.98 11 3 C11 3.33 11 3.66 11 4 C7.04 4 3.08 4 -1 4 C-0.67 2.68 -0.34 1.36 0 0 Z " fill="#A11273" transform="translate(890,312)"/>
<path d="M0 0 C-0.66 1.32 -1.32 2.64 -2 4 C-4.444407 4.08148 -5.776417 4.111792 -8 3 C-8 2.34 -8 1.68 -8 1 C-7.042023 0.8313 -6.083601 0.665118 -5.125 0.5 C-4.591328 0.407188 -4.057656 0.314375 -3.507812 0.21875 C-2 0 -2 0 0 0 Z " fill="#0E1B38" transform="translate(640,305)"/>
<path d="M0 0 C0.66 0 1.32 0 2 0 C2 0.66 2 1.32 2 2 C2.66 2 3.32 2 4 2 C4 5.3 4 8.6 4 12 C2.096811 9.145217 1.53809 7.580587 0.875 4.3125 C0.788633 3.896777 0.702266 3.481055 0.613281 3.052734 C0.402995 2.036351 0.200676 1.018324 0 0 Z " fill="#98156F" transform="translate(886,280)"/>
<path d="M0 0 C2.31 0.33 4.62 0.66 7 1 C7.33 1.66 7.66 2.32 8 3 C4.7 3.33 1.4 3.66 -2 4 C-1.34 2.68 -0.68 1.36 0 0 Z " fill="#051330" transform="translate(464,241)"/>
<path d="M0 0 C0.33 1.32 0.66 2.64 1 4 C-0.65 5.98 -2.3 7.96 -4 10 C-4.33 8.68 -4.66 7.36 -5 6 C-3.35 4.02 -1.7 2.04 0 0 Z " fill="#0A1531" transform="translate(136,231)"/>
<path d="M0 0 C1.65 0.33 3.3 0.66 5 1 C5 1.33 5 1.66 5 2 C3.35 2 1.7 2 0 2 C0 3.32 0 4.64 0 6 C-1.32 5.67 -2.64 5.34 -4 5 C-3.523679 2.904189 -3.183698 2.13961 -1.4375 0.8125 C-0.963125 0.544375 -0.48875 0.27625 0 0 Z " fill="#8B1B69" transform="translate(233,344)"/>
<path d="M0 0 C3.96 0.33 7.92 0.66 12 1 C12 1.33 12 1.66 12 2 C4.701595 4.296128 4.701595 4.296128 1 4 C0.67 2.68 0.34 1.36 0 0 Z " fill="#E8CAE1" transform="translate(824,317)"/>
<path d="M0 0 C2.97 0 5.94 0 9 0 C5.687149 3.312851 5.216856 3.430155 1 4 C0.67 2.68 0.34 1.36 0 0 Z " fill="#081935" transform="translate(641,313)"/>
<path d="M0 0 C2.419123 1.830119 2.858772 4.333741 3.625 7.125 C3.759063 7.59293 3.893125 8.060859 4.03125 8.542969 C4.360018 9.693657 4.680799 10.846621 5 12 C4.34 12 3.68 12 3 12 C0.557619 7.900289 -0.45755 4.778851 0 0 Z " fill="#95176E" transform="translate(848,296)"/>
<path d="M0 0 C0.99 0.66 1.98 1.32 3 2 C-0.3 3.32 -3.6 4.64 -7 6 C-6.34 4.68 -5.68 3.36 -5 2 C-3.35 1.34 -1.7 0.68 0 0 Z " fill="#FDF0FB" transform="translate(229,207)"/>
<path d="M0 0 C4.625611 -0.42051 7.867393 0.999199 12 3 C12 3.33 12 3.66 12 4 C9.36 4 6.72 4 4 4 C4 3.34 4 2.68 4 2 C2.68 1.34 1.36 0.68 0 0 Z " fill="#F4DFEF" transform="translate(248,354)"/>
<path d="M0 0 C0.66 0.66 1.32 1.32 2 2 C2 3.65 2 5.3 2 7 C1.67 6.01 1.34 5.02 1 4 C-1.97 4 -4.94 4 -8 4 C-8 3.67 -8 3.34 -8 3 C-7.506289 2.867227 -7.012578 2.734453 -6.503906 2.597656 C-5.863242 2.421055 -5.222578 2.244453 -4.5625 2.0625 C-3.924414 1.888477 -3.286328 1.714453 -2.628906 1.535156 C-0.978136 1.128495 -0.978136 1.128495 0 0 Z " fill="#0F152D" transform="translate(518,304)"/>
<path d="M0 0 C0.33 0 0.66 0 1 0 C1 2.97 1 5.94 1 9 C0.01 9.66 -0.98 10.32 -2 11 C-2.261065 6.779443 -1.804694 3.834975 0 0 Z " fill="#08102E" transform="translate(598,265)"/>
<path d="M0 0 C2.97 0.99 5.94 1.98 9 3 C8.67 4.32 8.34 5.64 8 7 C5.36 5.02 2.72 3.04 0 1 C0 0.67 0 0.34 0 0 Z " fill="#1A243F" transform="translate(145,337)"/>
<path d="M0 0 C3.72766 1.204124 7.377449 2.508361 11 4 C11 4.33 11 4.66 11 5 C8.69 5 6.38 5 4 5 C4 4.34 4 3.68 4 3 C2.68 2.34 1.36 1.68 0 1 C0 0.67 0 0.34 0 0 Z " fill="#08122D" transform="translate(163,333)"/>
<path d="M0 0 C0.33 0 0.66 0 1 0 C1.45755 4.778851 0.442381 7.900289 -2 12 C-2.33 12 -2.66 12 -3 12 C-2.67 9.69 -2.34 7.38 -2 5 C-1.34 5 -0.68 5 0 5 C0 3.35 0 1.7 0 0 Z " fill="#09132F" transform="translate(660,294)"/>
<path d="M0 0 C0.33 0.99 0.66 1.98 1 3 C-0.32 4.32 -1.64 5.64 -3 7 C-3.99 6.01 -4.98 5.02 -6 4 C-4.02 2.68 -2.04 1.36 0 0 Z " fill="#141A31" transform="translate(225,224)"/>
<path d="M0 0 C1.32 0 2.64 0 4 0 C4.33 0.66 4.66 1.32 5 2 C7.97 2.495 7.97 2.495 11 3 C11 3.33 11 3.66 11 4 C8.36 4 5.72 4 3 4 C2.01 3.01 1.02 2.02 0 1 C0 0.67 0 0.34 0 0 Z " fill="#08132F" transform="translate(171,349)"/>
<path d="M0 0 C0 1.65 0 3.3 0 5 C-0.99 5.99 -1.98 6.98 -3 8 C-3.66 7.67 -4.32 7.34 -5 7 C-2.48855 0 -2.48855 0 0 0 Z " fill="#051231" transform="translate(656,304)"/>
<path d="M0 0 C1.030246 4.120984 0.955926 5.176297 0 9 C-0.99 9.66 -1.98 10.32 -3 11 C-2.01 7.37 -1.02 3.74 0 0 Z " fill="#EECCE5" transform="translate(332,298)"/>
<path d="M0 0 C0.33 0 0.66 0 1 0 C1 3.3 1 6.6 1 10 C-0.65 10 -2.3 10 -4 10 C-3.34 9.67 -2.68 9.34 -2 9 C-1.34 6.03 -0.68 3.06 0 0 Z " fill="#061334" transform="translate(422,249)"/>
<path d="M0 0 C0.66 0 1.32 0 2 0 C2.33 2.31 2.66 4.62 3 7 C2.01 7 1.02 7 0 7 C0 4.69 0 2.38 0 0 Z " fill="#06122E" transform="translate(528,245)"/>
<path d="M0 0 C1.65 0 3.3 0 5 0 C5.33 0.99 5.66 1.98 6 3 C3.69 3 1.38 3 -1 3 C-0.67 2.01 -0.34 1.02 0 0 Z " fill="#9C0E72" transform="translate(256,349)"/>
<path d="M0 0 C2.31 0 4.62 0 7 0 C5.35 1.32 3.7 2.64 2 4 C1.01 3.01 0.02 2.02 -1 1 C-0.67 0.67 -0.34 0.34 0 0 Z " fill="#FEF4FD" transform="translate(836,318)"/>
<path d="M0 0 C1 3 1 3 0.5625 4.6875 C0.376875 5.120625 0.19125 5.55375 0 6 C-1.65 6 -3.3 6 -5 6 C-3.35 4.02 -1.7 2.04 0 0 Z " fill="#061437" transform="translate(474,310)"/>
<path d="M0 0 C0.66 1.32 1.32 2.64 2 4 C-0.076084 5.038042 -0.61953 5.089619 -2.820312 4.878906 C-3.355273 4.830566 -3.890234 4.782227 -4.441406 4.732422 C-5.274785 4.648311 -5.274785 4.648311 -6.125 4.5625 C-6.68832 4.510293 -7.251641 4.458086 -7.832031 4.404297 C-9.221932 4.27473 -10.611095 4.139778 -12 4 C-12 3.67 -12 3.34 -12 3 C-8.04 3 -4.08 3 0 3 C0 2.01 0 1.02 0 0 Z " fill="#4F566F" transform="translate(244,269)"/>
<path d="M0 0 C2.64 0 5.28 0 8 0 C7.67 0.99 7.34 1.98 7 3 C4.69 2.67 2.38 2.34 0 2 C0 1.34 0 0.68 0 0 Z " fill="#04102A" transform="translate(175,206)"/>
<path d="M0 0 C0.99 0.66 1.98 1.32 3 2 C3 2.99 3 3.98 3 5 C1.35 4.67 -0.3 4.34 -2 4 C-1.34 2.68 -0.68 1.36 0 0 Z " fill="#161F3A" transform="translate(226,324)"/>
<path d="M0 0 C1.32 0 2.64 0 4 0 C4 1.98 4 3.96 4 6 C3.01 6.495 3.01 6.495 2 7 C2 5.35 2 3.7 2 2 C1.34 2 0.68 2 0 2 C0 1.34 0 0.68 0 0 Z " fill="#061536" transform="translate(708,281)"/>
<path d="M0 0 C0.99 0 1.98 0 3 0 C2.34 1.98 1.68 3.96 1 6 C0.01 6.495 0.01 6.495 -1 7 C-1 5.02 -1 3.04 -1 1 C-0.67 0.67 -0.34 0.34 0 0 Z " fill="#071131" transform="translate(609,276)"/>
<path d="M0 0 C0.66 0.99 1.32 1.98 2 3 C-0.43307 4.342384 -2.189372 5.281063 -5 5 C-4.67 4.01 -4.34 3.02 -4 2 C-2.68 1.34 -1.36 0.68 0 0 Z " fill="#1B253F" transform="translate(621,265)"/>
<path d="M0 0 C0 0.99 0 1.98 0 3 C-2.31 3.66 -4.62 4.32 -7 5 C-7 4.01 -7 3.02 -7 2 C-4.69 1.34 -2.38 0.68 0 0 Z " fill="#9B106D" transform="translate(814,264)"/>
<path d="M0 0 C2.64 0 5.28 0 8 0 C4.25 3 4.25 3 2 3 C1.67 3.66 1.34 4.32 1 5 C0.505 2.525 0.505 2.525 0 0 Z " fill="#060D27" transform="translate(483,265)"/>
<path d="M0 0 C0.33 0 0.66 0 1 0 C1 1.65 1 3.3 1 5 C-1.31 5 -3.62 5 -6 5 C-4.730469 3.990885 -3.460938 2.981771 -2.191406 1.972656 C-0.998674 1.032198 -0.998674 1.032198 0 0 Z " fill="#FAD4F4" transform="translate(888,312)"/>
<path d="M0 0 C-1.42489 3.443485 -2.900219 4.933479 -6 7 C-3.48855 0 -3.48855 0 0 0 Z " fill="#F4D7EE" transform="translate(869,277)"/>
<path d="M0 0 C0.66 0 1.32 0 2 0 C1.34 2.31 0.68 4.62 0 7 C-0.66 5.68 -1.32 4.36 -2 3 C-1.34 2.01 -0.68 1.02 0 0 Z " fill="#F9E7F6" transform="translate(848,276)"/>
<path d="M0 0 C0.66 0.66 1.32 1.32 2 2 C0.68 3.32 -0.64 4.64 -2 6 C-2.99 5.67 -3.98 5.34 -5 5 C-3.35 3.35 -1.7 1.7 0 0 Z " fill="#0C1736" transform="translate(144,222)"/>
<path d="M0 0 C0.33 0.99 0.66 1.98 1 3 C0.34 3.66 -0.32 4.32 -1 5 C-3.31 4.67 -5.62 4.34 -8 4 C-8 3.67 -8 3.34 -8 3 C-5.36 2.67 -2.72 2.34 0 2 C0 1.34 0 0.68 0 0 Z " fill="#061230" transform="translate(204,216)"/>
<path d="M0 0 C0.33 1.32 0.66 2.64 1 4 C-1.97 4 -4.94 4 -8 4 C-8 3.67 -8 3.34 -8 3 C-7.506289 2.867227 -7.012578 2.734453 -6.503906 2.597656 C-5.863242 2.421055 -5.222578 2.244453 -4.5625 2.0625 C-3.924414 1.888477 -3.286328 1.714453 -2.628906 1.535156 C-0.978136 1.128495 -0.978136 1.128495 0 0 Z " fill="#A11276" transform="translate(256,316)"/>
<path d="M0 0 C0.33 0 0.66 0 1 0 C1 2.97 1 5.94 1 9 C-0.32 8.67 -1.64 8.34 -3 8 C-2.682891 7.734453 -2.365781 7.468906 -2.039062 7.195312 C-0.769774 5.735154 -0.622949 4.775941 -0.375 2.875 C-0.300234 2.336172 -0.225469 1.797344 -0.148438 1.242188 C-0.099453 0.832266 -0.050469 0.422344 0 0 Z " fill="#081532" transform="translate(542,307)"/>
<path d="M0 0 C0 0.99 0 1.98 0 3 C-2.97 3 -5.94 3 -9 3 C-9 2.67 -9 2.34 -9 2 C-7.875975 1.663394 -6.750739 1.330829 -5.625 1 C-4.998516 0.814375 -4.372031 0.62875 -3.726562 0.4375 C-2 0 -2 0 0 0 Z " fill="#8F1168" transform="translate(841,305)"/>
<path d="M0 0 C0.99 0.33 1.98 0.66 3 1 C2.01 2.32 1.02 3.64 0 5 C-0.66 5 -1.32 5 -2 5 C-1.125 1.125 -1.125 1.125 0 0 Z " fill="#041130" transform="translate(562,298)"/>
<path d="M0 0 C0.33 0 0.66 0 1 0 C1 1.65 1 3.3 1 5 C-0.65 5 -2.3 5 -4 5 C-2.68 3.35 -1.36 1.7 0 0 Z " fill="#FEF3FF" transform="translate(812,259)"/>
<path d="M0 0 C0.66 0.99 1.32 1.98 2 3 C1.34 4.32 0.68 5.64 0 7 C-0.66 5.35 -1.32 3.7 -2 2 C-1.34 1.34 -0.68 0.68 0 0 Z " fill="#202B44" transform="translate(462,242)"/>
<path d="M0 0 C0.66 0.33 1.32 0.66 2 1 C2 1.66 2 2.32 2 3 C0.02 3.66 -1.96 4.32 -4 5 C-3 2 -3 2 -1.4375 0.8125 C-0.963125 0.544375 -0.48875 0.27625 0 0 Z " fill="#1A243D" transform="translate(150,217)"/>
<path d="M0 0 C0.66 0.33 1.32 0.66 2 1 C1.67 1.33 1.34 1.66 1 2 C1.66 2.66 2.32 3.32 3 4 C1.35 4.33 -0.3 4.66 -2 5 C-1.125 1.125 -1.125 1.125 0 0 Z " fill="#14203E" transform="translate(220,342)"/>
<path d="M0 0 C1.32 0.33 2.64 0.66 4 1 C2.02 2.32 0.04 3.64 -2 5 C-2 4.01 -2 3.02 -2 2 C-1.34 1.34 -0.68 0.68 0 0 Z " fill="#081534" transform="translate(615,269)"/>
<path d="M0 0 C2.31 1.65 4.62 3.3 7 5 C6.34 5.66 5.68 6.32 5 7 C4.67 6.01 4.34 5.02 4 4 C2.68 3.34 1.36 2.68 0 2 C0 1.34 0 0.68 0 0 Z " fill="#222C43" transform="translate(649,267)"/>
<path d="M0 0 C0.33 0 0.66 0 1 0 C1.361522 4.338266 1.361522 4.338266 0.332031 6.222656 C-0.401522 7.183507 -1.196879 8.096489 -2 9 C-1.858553 7.87444 -1.711677 6.749562 -1.5625 5.625 C-1.481289 4.998516 -1.400078 4.372031 -1.316406 3.726562 C-1 2 -1 2 0 0 Z " fill="#8F0F65" transform="translate(186,255)"/>
<path d="M0 0 C-0.788217 0.505421 -1.580726 1.004153 -2.375 1.5 C-2.815859 1.778437 -3.256719 2.056875 -3.710938 2.34375 C-5 3 -5 3 -7 3 C-6.67 2.01 -6.34 1.02 -6 0 C-3.610721 -1.023977 -2.389279 -1.023977 0 0 Z " fill="#F8DDF4" transform="translate(296,338)"/>
<path d="M0 0 C1.32 0.33 2.64 0.66 4 1 C4.33 1.99 4.66 2.98 5 4 C4.01 4 3.02 4 2 4 C1.34 2.68 0.68 1.36 0 0 Z " fill="#9C2676" transform="translate(817,311)"/>
<path d="M0 0 C0.66 0.99 1.32 1.98 2 3 C0.68 3.99 -0.64 4.98 -2 6 C-1.125 1.125 -1.125 1.125 0 0 Z " fill="#1B2540" transform="translate(559,301)"/>
<path d="M0 0 C1.32 0.33 2.64 0.66 4 1 C3.211783 1.505421 2.419274 2.004153 1.625 2.5 C1.184141 2.778437 0.743281 3.056875 0.289062 3.34375 C-1 4 -1 4 -3 4 C-3 3.34 -3 2.68 -3 2 C-2.01 1.34 -1.02 0.68 0 0 Z " fill="#091531" transform="translate(163,224)"/>
<path d="M0 0 C0.66 0.66 1.32 1.32 2 2 C1.67 2.66 1.34 3.32 1 4 C-0.32 4 -1.64 4 -3 4 C-2.67 3.01 -2.34 2.02 -2 1 C-1.34 0.67 -0.68 0.34 0 0 Z " fill="#05122E" transform="translate(157,213)"/>
<path d="M0 0 C0.99 0.33 1.98 0.66 3 1 C-0.75 4 -0.75 4 -3 4 C-2.67 3.01 -2.34 2.02 -2 1 C-1.34 0.67 -0.68 0.34 0 0 Z " fill="#FAE5F6" transform="translate(299,333)"/>
<path d="M0 0 C1.32 0.66 2.64 1.32 4 2 C3.34 2.66 2.68 3.32 2 4 C1.01 3.67 0.02 3.34 -1 3 C-0.67 2.01 -0.34 1.02 0 0 Z " fill="#19223C" transform="translate(233,332)"/>
<path d="M0 0 C0.66 0.99 1.32 1.98 2 3 C0.35 3.66 -1.3 4.32 -3 5 C-3 4.01 -3 3.02 -3 2 C-2.01 1.34 -1.02 0.68 0 0 Z " fill="#A01474" transform="translate(203,324)"/>
<path d="M0 0 C0.66 0.66 1.32 1.32 2 2 C0.68 2.99 -0.64 3.98 -2 5 C-1.125 1.125 -1.125 1.125 0 0 Z " fill="#F9E7F5" transform="translate(320,324)"/>
<path d="M0 0 C2.475 0.495 2.475 0.495 5 1 C5 1.66 5 2.32 5 3 C3.68 3.33 2.36 3.66 1 4 C0.67 2.68 0.34 1.36 0 0 Z " fill="#FBE9F8" transform="translate(864,317)"/>
<path d="M0 0 C0.99 0.99 1.98 1.98 3 3 C3 3.33 3 3.66 3 4 C1.35 4 -0.3 4 -2 4 C-1.34 2.68 -0.68 1.36 0 0 Z " fill="#051433" transform="translate(501,312)"/>
<path d="M0 0 C1.98 0 3.96 0 6 0 C4.35 1.32 2.7 2.64 1 4 C0.67 2.68 0.34 1.36 0 0 Z " fill="#A31073" transform="translate(239,302)"/>
<path d="M0 0 C0.66 0.33 1.32 0.66 2 1 C1.01 2.65 0.02 4.3 -1 6 C-1.33 4.68 -1.66 3.36 -2 2 C-1.34 1.34 -0.68 0.68 0 0 Z " fill="#F8DDF2" transform="translate(886,296)"/>
<path d="M0 0 C0.66 0 1.32 0 2 0 C2 0.99 2 1.98 2 3 C0.02 3.99 0.02 3.99 -2 5 C-1.125 1.125 -1.125 1.125 0 0 Z " fill="#031130" transform="translate(573,285)"/>
<path d="M0 0 C0.99 0.33 1.98 0.66 3 1 C1.35 2.32 -0.3 3.64 -2 5 C-1.125 1.125 -1.125 1.125 0 0 Z " fill="#F2D2EB" transform="translate(853,269)"/>
<path d="M0 0 C1.32 0 2.64 0 4 0 C3.34 1.32 2.68 2.64 2 4 C1.34 3.67 0.68 3.34 0 3 C0 2.01 0 1.02 0 0 Z " fill="#151F39" transform="translate(472,252)"/>
<path d="M0 0 C0.33 0.66 0.66 1.32 1 2 C1.66 2.33 2.32 2.66 3 3 C1.02 3.33 -0.96 3.66 -3 4 C-2.01 2.68 -1.02 1.36 0 0 Z " fill="#1F2A41" transform="translate(531,241)"/>
<path d="M0 0 C1.32 1.32 2.64 2.64 4 4 C3.01 4.33 2.02 4.66 1 5 C0.505 2.525 0.505 2.525 0 0 Z " fill="#F9E0F5" transform="translate(315,240)"/>
<path d="M0 0 C0.99 0.33 1.98 0.66 3 1 C1.68 2.32 0.36 3.64 -1 5 C-1.66 4.67 -2.32 4.34 -3 4 C-2.01 2.68 -1.02 1.36 0 0 Z " fill="#05102F" transform="translate(153,231)"/>
<path d="M0 0 C0 0.99 0 1.98 0 3 C-0.99 3.33 -1.98 3.66 -3 4 C-3.33 3.01 -3.66 2.02 -4 1 C-2 0 -2 0 0 0 Z " fill="#14223F" transform="translate(162,211)"/>
<path d="M0 0 C0.33 1.32 0.66 2.64 1 4 C-0.32 3.67 -1.64 3.34 -3 3 C-2.01 2.01 -1.02 1.02 0 0 Z " fill="#9B1871" transform="translate(841,313)"/>
<path d="M0 0 C0.66 1.32 1.32 2.64 2 4 C1.01 4.495 1.01 4.495 0 5 C-0.66 4.67 -1.32 4.34 -2 4 C-1.34 2.68 -0.68 1.36 0 0 Z " fill="#1A2845" transform="translate(595,273)"/>
<path d="M0 0 C0.99 0 1.98 0 3 0 C3.33 0.99 3.66 1.98 4 3 C2.35 2.67 0.7 2.34 -1 2 C-0.67 1.34 -0.34 0.68 0 0 Z " fill="#061331" transform="translate(709,265)"/>
<path d="M0 0 C0.33 1.32 0.66 2.64 1 4 C0.34 4.66 -0.32 5.32 -1 6 C-1.33 4.68 -1.66 3.36 -2 2 C-1.34 1.34 -0.68 0.68 0 0 Z " fill="#F4DDF0" transform="translate(191,239)"/>
<path d="M0 0 C0.99 0.33 1.98 0.66 3 1 C1.68 1.99 0.36 2.98 -1 4 C-0.67 2.68 -0.34 1.36 0 0 Z " fill="#FBEBF9" transform="translate(207,232)"/>
<path d="M0 0 C2.475 0.99 2.475 0.99 5 2 C4.67 2.66 4.34 3.32 4 4 C2.68 3.67 1.36 3.34 0 3 C0 2.01 0 1.02 0 0 Z " fill="#F7DFF3" transform="translate(288,217)"/>
<path d="M0 0 C0.66 0.33 1.32 0.66 2 1 C0.68 2.32 -0.64 3.64 -2 5 C-1.125 1.125 -1.125 1.125 0 0 Z " fill="#9D2979" transform="translate(304,331)"/>
<path d="M0 0 C0.99 0.99 1.98 1.98 3 3 C1.68 3.33 0.36 3.66 -1 4 C-0.67 2.68 -0.34 1.36 0 0 Z " fill="#98166F" transform="translate(890,312)"/>
<path d="M0 0 C0.99 0.33 1.98 0.66 3 1 C1.68 1.99 0.36 2.98 -1 4 C-0.67 2.68 -0.34 1.36 0 0 Z " fill="#041333" transform="translate(577,280)"/>
<path d="M0 0 C0 0.99 0 1.98 0 3 C-1.32 3.33 -2.64 3.66 -4 4 C-2.68 2.68 -1.36 1.36 0 0 Z " fill="#263048" transform="translate(581,276)"/>
<path d="M0 0 C0.33 0.99 0.66 1.98 1 3 C0.01 3.66 -0.98 4.32 -2 5 C-2.33 4.01 -2.66 3.02 -3 2 C-2.01 1.34 -1.02 0.68 0 0 Z " fill="#18213F" transform="translate(225,224)"/>
<path d="M0 0 C1.485 0.99 1.485 0.99 3 2 C3 2.66 3 3.32 3 4 C2.01 4 1.02 4 0 4 C0 2.68 0 1.36 0 0 Z " fill="#081532" transform="translate(436,312)"/>
<path d="M0 0 C0.33 0.99 0.66 1.98 1 3 C0.34 3.99 -0.32 4.98 -1 6 C-1.33 4.68 -1.66 3.36 -2 2 C-1.34 1.34 -0.68 0.68 0 0 Z " fill="#091330" transform="translate(556,305)"/>
<path d="M0 0 C2.475 0.495 2.475 0.495 5 1 C2.25 3 2.25 3 0 3 C0 2.01 0 1.02 0 0 Z " fill="#98126F" transform="translate(868,305)"/>
<path d="M0 0 C0.99 0 1.98 0 3 0 C2.34 1.32 1.68 2.64 1 4 C0.67 2.68 0.34 1.36 0 0 Z " fill="#05122F" transform="translate(591,278)"/>
<path d="M0 0 C0.66 0.66 1.32 1.32 2 2 C1.01 2 0.02 2 -1 2 C-0.67 1.34 -0.34 0.68 0 0 Z " fill="#9C1A72" transform="translate(208,222)"/>
<path d="M0 0 C0.66 0 1.32 0 2 0 C1.67 0.99 1.34 1.98 1 3 C0.01 2.67 -0.98 2.34 -2 2 C-1.34 1.34 -0.68 0.68 0 0 Z " fill="#151F3B" transform="translate(611,273)"/>
<path d="M0 0 C1.32 0.33 2.64 0.66 4 1 C3.01 1.66 2.02 2.32 1 3 C0.67 2.01 0.34 1.02 0 0 Z " fill="#05102C" transform="translate(622,265)"/>
<path d="M0 0 C0.66 0 1.32 0 2 0 C1.67 0.99 1.34 1.98 1 3 C0.01 2.67 -0.98 2.34 -2 2 C-1.34 1.34 -0.68 0.68 0 0 Z " fill="#0E1A3A" transform="translate(474,264)"/>
<path d="M0 0 C1.98 0.99 1.98 0.99 4 2 C3.34 2.66 2.68 3.32 2 4 C1.34 2.68 0.68 1.36 0 0 Z " fill="#252C41" transform="translate(460,251)"/>
<path d="M0 0 C0.99 0.33 1.98 0.66 3 1 C3 1.66 3 2.32 3 3 C2.01 2.67 1.02 2.34 0 2 C0 1.34 0 0.68 0 0 Z " fill="#051030" transform="translate(154,342)"/>
<path d="M0 0 C0.66 0 1.32 0 2 0 C1.67 0.99 1.34 1.98 1 3 C0.34 3 -0.32 3 -1 3 C-0.67 2.01 -0.34 1.02 0 0 Z " fill="#081330" transform="translate(210,335)"/>
<path d="M0 0 C1.485 0.99 1.485 0.99 3 2 C1.68 2.33 0.36 2.66 -1 3 C-0.67 2.01 -0.34 1.02 0 0 Z " fill="#04112A" transform="translate(643,314)"/>
<path d="M0 0 C0.66 0.99 1.32 1.98 2 3 C1.01 3.33 0.02 3.66 -1 4 C-0.67 2.68 -0.34 1.36 0 0 Z " fill="#05102D" transform="translate(647,295)"/>
<path d="M0 0 C1.485 0.99 1.485 0.99 3 2 C1.68 2.33 0.36 2.66 -1 3 C-0.67 2.01 -0.34 1.02 0 0 Z " fill="#FBE7F8" transform="translate(229,207)"/>
<path d="M0 0 C0.66 0.66 1.32 1.32 2 2 C1.01 2.33 0.02 2.66 -1 3 C-0.67 2.01 -0.34 1.02 0 0 Z " fill="#FCEBFA" transform="translate(290,338)"/>
<path d="M0 0 C0.99 0.33 1.98 0.66 3 1 C2.34 1.66 1.68 2.32 1 3 C0.67 2.01 0.34 1.02 0 0 Z " fill="#9A1F73" transform="translate(817,311)"/>
<path d="M0 0 C0.99 0.33 1.98 0.66 3 1 C2.34 1.66 1.68 2.32 1 3 C0.67 2.01 0.34 1.02 0 0 Z " fill="#2B3449" transform="translate(653,271)"/>
<path d="M0 0 C0.99 0.33 1.98 0.66 3 1 C2.34 1.66 1.68 2.32 1 3 C0.67 2.01 0.34 1.02 0 0 Z " fill="#1E283C" transform="translate(529,252)"/>
</svg>
